<?xml version="1.0" encoding="utf-8" standalone="no"?>
<!DOCTYPE svg PUBLIC "-//W3C//DTD SVG 1.1//EN"
  "http://www.w3.org/Graphics/SVG/1.1/DTD/svg11.dtd">
<!-- Created with matplotlib (http://matplotlib.org/) -->
<svg height="648pt" version="1.1" viewBox="0 0 864 648" width="864pt" xmlns="http://www.w3.org/2000/svg" xmlns:xlink="http://www.w3.org/1999/xlink">
 <defs>
  <style type="text/css">
*{stroke-linecap:butt;stroke-linejoin:round;}
  </style>
 </defs>
 <g id="figure_1">
  <g id="patch_1">
   <path d="M 0 648 
L 864 648 
L 864 0 
L 0 0 
z
" style="fill:#ffffff;"/>
  </g>
  <g id="axes_1">
   <g id="patch_2">
    <path d="M 108 567 
L 777.6 567 
L 777.6 77.76 
L 108 77.76 
z
" style="fill:#ffffff;"/>
   </g>
   <g id="matplotlib.axis_1">
    <g id="xtick_1">
     <g id="line2d_1"/>
     <g id="text_1">
      <!-- 0 -->
      <defs>
       <path d="M 4.15625 35.296875 
Q 4.15625 48 6.765625 55.734375 
Q 9.375 63.484375 14.515625 67.671875 
Q 19.671875 71.875 27.484375 71.875 
Q 33.25 71.875 37.59375 69.546875 
Q 41.9375 67.234375 44.765625 62.859375 
Q 47.609375 58.5 49.21875 52.21875 
Q 50.828125 45.953125 50.828125 35.296875 
Q 50.828125 22.703125 48.234375 14.96875 
Q 45.65625 7.234375 40.5 3 
Q 35.359375 -1.21875 27.484375 -1.21875 
Q 17.140625 -1.21875 11.234375 6.203125 
Q 4.15625 15.140625 4.15625 35.296875 
z
M 13.1875 35.296875 
Q 13.1875 17.671875 17.3125 11.828125 
Q 21.4375 6 27.484375 6 
Q 33.546875 6 37.671875 11.859375 
Q 41.796875 17.71875 41.796875 35.296875 
Q 41.796875 52.984375 37.671875 58.78125 
Q 33.546875 64.59375 27.390625 64.59375 
Q 21.34375 64.59375 17.71875 59.46875 
Q 13.1875 52.9375 13.1875 35.296875 
z
" id="ArialMT-30"/>
      </defs>
      <g style="fill:#262626;" transform="translate(133.119531 581.157812)scale(0.1 -0.1)">
       <use xlink:href="#ArialMT-30"/>
      </g>
     </g>
    </g>
    <g id="xtick_2">
     <g id="line2d_2"/>
     <g id="text_2">
      <!-- 1 -->
      <defs>
       <path d="M 37.25 0 
L 28.46875 0 
L 28.46875 56 
Q 25.296875 52.984375 20.140625 49.953125 
Q 14.984375 46.921875 10.890625 45.40625 
L 10.890625 53.90625 
Q 18.265625 57.375 23.78125 62.296875 
Q 29.296875 67.234375 31.59375 71.875 
L 37.25 71.875 
z
" id="ArialMT-31"/>
      </defs>
      <g style="fill:#262626;" transform="translate(188.919531 581.157812)scale(0.1 -0.1)">
       <use xlink:href="#ArialMT-31"/>
      </g>
     </g>
    </g>
    <g id="xtick_3">
     <g id="line2d_3"/>
     <g id="text_3">
      <!-- 2 -->
      <defs>
       <path d="M 50.34375 8.453125 
L 50.34375 0 
L 3.03125 0 
Q 2.9375 3.171875 4.046875 6.109375 
Q 5.859375 10.9375 9.828125 15.625 
Q 13.8125 20.3125 21.34375 26.46875 
Q 33.015625 36.03125 37.109375 41.625 
Q 41.21875 47.21875 41.21875 52.203125 
Q 41.21875 57.421875 37.46875 61 
Q 33.734375 64.59375 27.734375 64.59375 
Q 21.390625 64.59375 17.578125 60.78125 
Q 13.765625 56.984375 13.71875 50.25 
L 4.6875 51.171875 
Q 5.609375 61.28125 11.65625 66.578125 
Q 17.71875 71.875 27.9375 71.875 
Q 38.234375 71.875 44.234375 66.15625 
Q 50.25 60.453125 50.25 52 
Q 50.25 47.703125 48.484375 43.546875 
Q 46.734375 39.40625 42.65625 34.8125 
Q 38.578125 30.21875 29.109375 22.21875 
Q 21.1875 15.578125 18.9375 13.203125 
Q 16.703125 10.84375 15.234375 8.453125 
z
" id="ArialMT-32"/>
      </defs>
      <g style="fill:#262626;" transform="translate(244.719531 581.157812)scale(0.1 -0.1)">
       <use xlink:href="#ArialMT-32"/>
      </g>
     </g>
    </g>
    <g id="xtick_4">
     <g id="line2d_4"/>
     <g id="text_4">
      <!-- 3 -->
      <defs>
       <path d="M 4.203125 18.890625 
L 12.984375 20.0625 
Q 14.5 12.59375 18.140625 9.296875 
Q 21.78125 6 27 6 
Q 33.203125 6 37.46875 10.296875 
Q 41.75 14.59375 41.75 20.953125 
Q 41.75 27 37.796875 30.921875 
Q 33.84375 34.859375 27.734375 34.859375 
Q 25.25 34.859375 21.53125 33.890625 
L 22.515625 41.609375 
Q 23.390625 41.5 23.921875 41.5 
Q 29.546875 41.5 34.03125 44.421875 
Q 38.53125 47.359375 38.53125 53.46875 
Q 38.53125 58.296875 35.25 61.46875 
Q 31.984375 64.65625 26.8125 64.65625 
Q 21.6875 64.65625 18.265625 61.421875 
Q 14.84375 58.203125 13.875 51.765625 
L 5.078125 53.328125 
Q 6.6875 62.15625 12.390625 67.015625 
Q 18.109375 71.875 26.609375 71.875 
Q 32.46875 71.875 37.390625 69.359375 
Q 42.328125 66.84375 44.9375 62.5 
Q 47.5625 58.15625 47.5625 53.265625 
Q 47.5625 48.640625 45.0625 44.828125 
Q 42.578125 41.015625 37.703125 38.765625 
Q 44.046875 37.3125 47.5625 32.6875 
Q 51.078125 28.078125 51.078125 21.140625 
Q 51.078125 11.765625 44.234375 5.25 
Q 37.40625 -1.265625 26.953125 -1.265625 
Q 17.53125 -1.265625 11.296875 4.34375 
Q 5.078125 9.96875 4.203125 18.890625 
z
" id="ArialMT-33"/>
      </defs>
      <g style="fill:#262626;" transform="translate(300.519531 581.157812)scale(0.1 -0.1)">
       <use xlink:href="#ArialMT-33"/>
      </g>
     </g>
    </g>
    <g id="xtick_5">
     <g id="line2d_5"/>
     <g id="text_5">
      <!-- 4 -->
      <defs>
       <path d="M 32.328125 0 
L 32.328125 17.140625 
L 1.265625 17.140625 
L 1.265625 25.203125 
L 33.9375 71.578125 
L 41.109375 71.578125 
L 41.109375 25.203125 
L 50.78125 25.203125 
L 50.78125 17.140625 
L 41.109375 17.140625 
L 41.109375 0 
z
M 32.328125 25.203125 
L 32.328125 57.46875 
L 9.90625 25.203125 
z
" id="ArialMT-34"/>
      </defs>
      <g style="fill:#262626;" transform="translate(356.319531 581.157812)scale(0.1 -0.1)">
       <use xlink:href="#ArialMT-34"/>
      </g>
     </g>
    </g>
    <g id="xtick_6">
     <g id="line2d_6"/>
     <g id="text_6">
      <!-- 5 -->
      <defs>
       <path d="M 4.15625 18.75 
L 13.375 19.53125 
Q 14.40625 12.796875 18.140625 9.390625 
Q 21.875 6 27.15625 6 
Q 33.5 6 37.890625 10.78125 
Q 42.28125 15.578125 42.28125 23.484375 
Q 42.28125 31 38.0625 35.34375 
Q 33.84375 39.703125 27 39.703125 
Q 22.75 39.703125 19.328125 37.765625 
Q 15.921875 35.84375 13.96875 32.765625 
L 5.71875 33.84375 
L 12.640625 70.609375 
L 48.25 70.609375 
L 48.25 62.203125 
L 19.671875 62.203125 
L 15.828125 42.96875 
Q 22.265625 47.46875 29.34375 47.46875 
Q 38.71875 47.46875 45.15625 40.96875 
Q 51.609375 34.46875 51.609375 24.265625 
Q 51.609375 14.546875 45.953125 7.46875 
Q 39.0625 -1.21875 27.15625 -1.21875 
Q 17.390625 -1.21875 11.203125 4.25 
Q 5.03125 9.71875 4.15625 18.75 
z
" id="ArialMT-35"/>
      </defs>
      <g style="fill:#262626;" transform="translate(412.119531 581.157812)scale(0.1 -0.1)">
       <use xlink:href="#ArialMT-35"/>
      </g>
     </g>
    </g>
    <g id="xtick_7">
     <g id="line2d_7"/>
     <g id="text_7">
      <!-- 6 -->
      <defs>
       <path d="M 49.75 54.046875 
L 41.015625 53.375 
Q 39.84375 58.546875 37.703125 60.890625 
Q 34.125 64.65625 28.90625 64.65625 
Q 24.703125 64.65625 21.53125 62.3125 
Q 17.390625 59.28125 14.984375 53.46875 
Q 12.59375 47.65625 12.5 36.921875 
Q 15.671875 41.75 20.265625 44.09375 
Q 24.859375 46.4375 29.890625 46.4375 
Q 38.671875 46.4375 44.84375 39.96875 
Q 51.03125 33.5 51.03125 23.25 
Q 51.03125 16.5 48.125 10.71875 
Q 45.21875 4.9375 40.140625 1.859375 
Q 35.0625 -1.21875 28.609375 -1.21875 
Q 17.625 -1.21875 10.6875 6.859375 
Q 3.765625 14.9375 3.765625 33.5 
Q 3.765625 54.25 11.421875 63.671875 
Q 18.109375 71.875 29.4375 71.875 
Q 37.890625 71.875 43.28125 67.140625 
Q 48.6875 62.40625 49.75 54.046875 
z
M 13.875 23.1875 
Q 13.875 18.65625 15.796875 14.5 
Q 17.71875 10.359375 21.1875 8.171875 
Q 24.65625 6 28.46875 6 
Q 34.03125 6 38.03125 10.484375 
Q 42.046875 14.984375 42.046875 22.703125 
Q 42.046875 30.125 38.078125 34.390625 
Q 34.125 38.671875 28.125 38.671875 
Q 22.171875 38.671875 18.015625 34.390625 
Q 13.875 30.125 13.875 23.1875 
z
" id="ArialMT-36"/>
      </defs>
      <g style="fill:#262626;" transform="translate(467.919531 581.157812)scale(0.1 -0.1)">
       <use xlink:href="#ArialMT-36"/>
      </g>
     </g>
    </g>
    <g id="xtick_8">
     <g id="line2d_8"/>
     <g id="text_8">
      <!-- 7 -->
      <defs>
       <path d="M 4.734375 62.203125 
L 4.734375 70.65625 
L 51.078125 70.65625 
L 51.078125 63.8125 
Q 44.234375 56.546875 37.515625 44.484375 
Q 30.8125 32.421875 27.15625 19.671875 
Q 24.515625 10.6875 23.78125 0 
L 14.75 0 
Q 14.890625 8.453125 18.0625 20.40625 
Q 21.234375 32.375 27.171875 43.484375 
Q 33.109375 54.59375 39.796875 62.203125 
z
" id="ArialMT-37"/>
      </defs>
      <g style="fill:#262626;" transform="translate(523.719531 581.157812)scale(0.1 -0.1)">
       <use xlink:href="#ArialMT-37"/>
      </g>
     </g>
    </g>
    <g id="xtick_9">
     <g id="line2d_9"/>
     <g id="text_9">
      <!-- 8 -->
      <defs>
       <path d="M 17.671875 38.8125 
Q 12.203125 40.828125 9.5625 44.53125 
Q 6.9375 48.25 6.9375 53.421875 
Q 6.9375 61.234375 12.546875 66.546875 
Q 18.171875 71.875 27.484375 71.875 
Q 36.859375 71.875 42.578125 66.421875 
Q 48.296875 60.984375 48.296875 53.171875 
Q 48.296875 48.1875 45.671875 44.5 
Q 43.0625 40.828125 37.75 38.8125 
Q 44.34375 36.671875 47.78125 31.875 
Q 51.21875 27.09375 51.21875 20.453125 
Q 51.21875 11.28125 44.71875 5.03125 
Q 38.234375 -1.21875 27.640625 -1.21875 
Q 17.046875 -1.21875 10.546875 5.046875 
Q 4.046875 11.328125 4.046875 20.703125 
Q 4.046875 27.6875 7.59375 32.390625 
Q 11.140625 37.109375 17.671875 38.8125 
z
M 15.921875 53.71875 
Q 15.921875 48.640625 19.1875 45.40625 
Q 22.46875 42.1875 27.6875 42.1875 
Q 32.765625 42.1875 36.015625 45.375 
Q 39.265625 48.578125 39.265625 53.21875 
Q 39.265625 58.0625 35.90625 61.359375 
Q 32.5625 64.65625 27.59375 64.65625 
Q 22.5625 64.65625 19.234375 61.421875 
Q 15.921875 58.203125 15.921875 53.71875 
z
M 13.09375 20.65625 
Q 13.09375 16.890625 14.875 13.375 
Q 16.65625 9.859375 20.171875 7.921875 
Q 23.6875 6 27.734375 6 
Q 34.03125 6 38.125 10.046875 
Q 42.234375 14.109375 42.234375 20.359375 
Q 42.234375 26.703125 38.015625 30.859375 
Q 33.796875 35.015625 27.4375 35.015625 
Q 21.234375 35.015625 17.15625 30.90625 
Q 13.09375 26.8125 13.09375 20.65625 
z
" id="ArialMT-38"/>
      </defs>
      <g style="fill:#262626;" transform="translate(579.519531 581.157812)scale(0.1 -0.1)">
       <use xlink:href="#ArialMT-38"/>
      </g>
     </g>
    </g>
    <g id="xtick_10">
     <g id="line2d_10"/>
     <g id="text_10">
      <!-- 9 -->
      <defs>
       <path d="M 5.46875 16.546875 
L 13.921875 17.328125 
Q 14.984375 11.375 18.015625 8.6875 
Q 21.046875 6 25.78125 6 
Q 29.828125 6 32.875 7.859375 
Q 35.9375 9.71875 37.890625 12.8125 
Q 39.84375 15.921875 41.15625 21.1875 
Q 42.484375 26.46875 42.484375 31.9375 
Q 42.484375 32.515625 42.4375 33.6875 
Q 39.796875 29.5 35.234375 26.875 
Q 30.671875 24.265625 25.34375 24.265625 
Q 16.453125 24.265625 10.296875 30.703125 
Q 4.15625 37.15625 4.15625 47.703125 
Q 4.15625 58.59375 10.578125 65.234375 
Q 17 71.875 26.65625 71.875 
Q 33.640625 71.875 39.421875 68.109375 
Q 45.21875 64.359375 48.21875 57.390625 
Q 51.21875 50.4375 51.21875 37.25 
Q 51.21875 23.53125 48.234375 15.40625 
Q 45.265625 7.28125 39.375 3.03125 
Q 33.5 -1.21875 25.59375 -1.21875 
Q 17.1875 -1.21875 11.859375 3.4375 
Q 6.546875 8.109375 5.46875 16.546875 
z
M 41.453125 48.140625 
Q 41.453125 55.71875 37.421875 60.15625 
Q 33.40625 64.59375 27.734375 64.59375 
Q 21.875 64.59375 17.53125 59.8125 
Q 13.1875 55.03125 13.1875 47.40625 
Q 13.1875 40.578125 17.3125 36.296875 
Q 21.4375 32.03125 27.484375 32.03125 
Q 33.59375 32.03125 37.515625 36.296875 
Q 41.453125 40.578125 41.453125 48.140625 
z
" id="ArialMT-39"/>
      </defs>
      <g style="fill:#262626;" transform="translate(635.319531 581.157812)scale(0.1 -0.1)">
       <use xlink:href="#ArialMT-39"/>
      </g>
     </g>
    </g>
    <g id="xtick_11">
     <g id="line2d_11"/>
     <g id="text_11">
      <!-- 10 -->
      <g style="fill:#262626;" transform="translate(688.339062 581.157812)scale(0.1 -0.1)">
       <use xlink:href="#ArialMT-31"/>
       <use x="55.615234" xlink:href="#ArialMT-30"/>
      </g>
     </g>
    </g>
    <g id="xtick_12">
     <g id="line2d_12"/>
     <g id="text_12">
      <!-- 11 -->
      <g style="fill:#262626;" transform="translate(744.144531 581.157812)scale(0.1 -0.1)">
       <use xlink:href="#ArialMT-31"/>
       <use x="55.505859" xlink:href="#ArialMT-31"/>
      </g>
     </g>
    </g>
   </g>
   <g id="matplotlib.axis_2">
    <g id="ytick_1">
     <g id="line2d_13"/>
     <g id="text_13">
      <!-- 0 -->
      <g style="fill:#262626;" transform="translate(99.0125 100.127031)rotate(-90)scale(0.1 -0.1)">
       <use xlink:href="#ArialMT-30"/>
      </g>
     </g>
    </g>
    <g id="ytick_2">
     <g id="line2d_14"/>
     <g id="text_14">
      <!-- 1 -->
      <g style="fill:#262626;" transform="translate(99.0125 140.897031)rotate(-90)scale(0.1 -0.1)">
       <use xlink:href="#ArialMT-31"/>
      </g>
     </g>
    </g>
    <g id="ytick_3">
     <g id="line2d_15"/>
     <g id="text_15">
      <!-- 2 -->
      <g style="fill:#262626;" transform="translate(99.0125 181.667031)rotate(-90)scale(0.1 -0.1)">
       <use xlink:href="#ArialMT-32"/>
      </g>
     </g>
    </g>
    <g id="ytick_4">
     <g id="line2d_16"/>
     <g id="text_16">
      <!-- 3 -->
      <g style="fill:#262626;" transform="translate(99.0125 222.437031)rotate(-90)scale(0.1 -0.1)">
       <use xlink:href="#ArialMT-33"/>
      </g>
     </g>
    </g>
    <g id="ytick_5">
     <g id="line2d_17"/>
     <g id="text_17">
      <!-- 4 -->
      <g style="fill:#262626;" transform="translate(99.0125 263.207031)rotate(-90)scale(0.1 -0.1)">
       <use xlink:href="#ArialMT-34"/>
      </g>
     </g>
    </g>
    <g id="ytick_6">
     <g id="line2d_18"/>
     <g id="text_18">
      <!-- 5 -->
      <g style="fill:#262626;" transform="translate(99.0125 303.977031)rotate(-90)scale(0.1 -0.1)">
       <use xlink:href="#ArialMT-35"/>
      </g>
     </g>
    </g>
    <g id="ytick_7">
     <g id="line2d_19"/>
     <g id="text_19">
      <!-- 6 -->
      <g style="fill:#262626;" transform="translate(99.0125 344.747031)rotate(-90)scale(0.1 -0.1)">
       <use xlink:href="#ArialMT-36"/>
      </g>
     </g>
    </g>
    <g id="ytick_8">
     <g id="line2d_20"/>
     <g id="text_20">
      <!-- 7 -->
      <g style="fill:#262626;" transform="translate(99.0125 385.517031)rotate(-90)scale(0.1 -0.1)">
       <use xlink:href="#ArialMT-37"/>
      </g>
     </g>
    </g>
    <g id="ytick_9">
     <g id="line2d_21"/>
     <g id="text_21">
      <!-- 8 -->
      <g style="fill:#262626;" transform="translate(99.0125 426.287031)rotate(-90)scale(0.1 -0.1)">
       <use xlink:href="#ArialMT-38"/>
      </g>
     </g>
    </g>
    <g id="ytick_10">
     <g id="line2d_22"/>
     <g id="text_22">
      <!-- 9 -->
      <g style="fill:#262626;" transform="translate(99.0125 467.057031)rotate(-90)scale(0.1 -0.1)">
       <use xlink:href="#ArialMT-39"/>
      </g>
     </g>
    </g>
    <g id="ytick_11">
     <g id="line2d_23"/>
     <g id="text_23">
      <!-- 10 -->
      <g style="fill:#262626;" transform="translate(99.0125 513.387969)rotate(-90)scale(0.1 -0.1)">
       <use xlink:href="#ArialMT-31"/>
       <use x="55.615234" xlink:href="#ArialMT-30"/>
      </g>
     </g>
    </g>
    <g id="ytick_12">
     <g id="line2d_24"/>
     <g id="text_24">
      <!-- 11 -->
      <g style="fill:#262626;" transform="translate(99.0125 554.147031)rotate(-90)scale(0.1 -0.1)">
       <use xlink:href="#ArialMT-31"/>
       <use x="55.505859" xlink:href="#ArialMT-31"/>
      </g>
     </g>
    </g>
   </g>
   <g id="QuadMesh_1">
    <path clip-path="url(#p590ca1d5da)" d="M 108 77.76 
L 163.8 77.76 
L 163.8 118.53 
L 108 118.53 
L 108 77.76 
" style="fill:#75ba66;"/>
    <path clip-path="url(#p590ca1d5da)" d="M 163.8 77.76 
L 219.6 77.76 
L 219.6 118.53 
L 163.8 118.53 
L 163.8 77.76 
" style="fill:#98cc66;"/>
    <path clip-path="url(#p590ca1d5da)" d="M 219.6 77.76 
L 275.4 77.76 
L 275.4 118.53 
L 219.6 118.53 
L 219.6 77.76 
" style="fill:#daec66;"/>
    <path clip-path="url(#p590ca1d5da)" d="M 275.4 77.76 
L 331.2 77.76 
L 331.2 118.53 
L 275.4 118.53 
L 275.4 77.76 
" style="fill:#4fa766;"/>
    <path clip-path="url(#p590ca1d5da)" d="M 331.2 77.76 
L 387 77.76 
L 387 118.53 
L 331.2 118.53 
L 331.2 77.76 
" style="fill:#d3e966;"/>
    <path clip-path="url(#p590ca1d5da)" d="M 387 77.76 
L 442.8 77.76 
L 442.8 118.53 
L 387 118.53 
L 387 77.76 
" style="fill:#269266;"/>
    <path clip-path="url(#p590ca1d5da)" d="M 442.8 77.76 
L 498.6 77.76 
L 498.6 118.53 
L 442.8 118.53 
L 442.8 77.76 
" style="fill:#dcee66;"/>
    <path clip-path="url(#p590ca1d5da)" d="M 498.6 77.76 
L 554.4 77.76 
L 554.4 118.53 
L 498.6 118.53 
L 498.6 77.76 
" style="fill:#c9e466;"/>
    <path clip-path="url(#p590ca1d5da)" d="M 554.4 77.76 
L 610.2 77.76 
L 610.2 118.53 
L 554.4 118.53 
L 554.4 77.76 
" style="fill:#1a8c66;"/>
    <path clip-path="url(#p590ca1d5da)" d="M 610.2 77.76 
L 666 77.76 
L 666 118.53 
L 610.2 118.53 
L 610.2 77.76 
" style="fill:#229066;"/>
    <path clip-path="url(#p590ca1d5da)" d="M 666 77.76 
L 721.8 77.76 
L 721.8 118.53 
L 666 118.53 
L 666 77.76 
" style="fill:#70b866;"/>
    <path clip-path="url(#p590ca1d5da)" d="M 721.8 77.76 
L 777.6 77.76 
L 777.6 118.53 
L 721.8 118.53 
L 721.8 77.76 
" style="fill:#d4ea66;"/>
    <path clip-path="url(#p590ca1d5da)" d="M 108 118.53 
L 163.8 118.53 
L 163.8 159.3 
L 108 159.3 
L 108 118.53 
" style="fill:#5dae66;"/>
    <path clip-path="url(#p590ca1d5da)" d="M 163.8 118.53 
L 219.6 118.53 
L 219.6 159.3 
L 163.8 159.3 
L 163.8 118.53 
" style="fill:#e3f166;"/>
    <path clip-path="url(#p590ca1d5da)" d="M 219.6 118.53 
L 275.4 118.53 
L 275.4 159.3 
L 219.6 159.3 
L 219.6 118.53 
" style="fill:#9cce66;"/>
    <path clip-path="url(#p590ca1d5da)" d="M 275.4 118.53 
L 331.2 118.53 
L 331.2 159.3 
L 275.4 159.3 
L 275.4 118.53 
" style="fill:#ffff66;"/>
    <path clip-path="url(#p590ca1d5da)" d="M 331.2 118.53 
L 387 118.53 
L 387 159.3 
L 331.2 159.3 
L 331.2 118.53 
" style="fill:#5cae66;"/>
    <path clip-path="url(#p590ca1d5da)" d="M 387 118.53 
L 442.8 118.53 
L 442.8 159.3 
L 387 159.3 
L 387 118.53 
" style="fill:#5eae66;"/>
    <path clip-path="url(#p590ca1d5da)" d="M 442.8 118.53 
L 498.6 118.53 
L 498.6 159.3 
L 442.8 159.3 
L 442.8 118.53 
" style="fill:#3a9c66;"/>
    <path clip-path="url(#p590ca1d5da)" d="M 498.6 118.53 
L 554.4 118.53 
L 554.4 159.3 
L 498.6 159.3 
L 498.6 118.53 
" style="fill:#7abc66;"/>
    <path clip-path="url(#p590ca1d5da)" d="M 554.4 118.53 
L 610.2 118.53 
L 610.2 159.3 
L 554.4 159.3 
L 554.4 118.53 
" style="fill:#8ac466;"/>
    <path clip-path="url(#p590ca1d5da)" d="M 610.2 118.53 
L 666 118.53 
L 666 159.3 
L 610.2 159.3 
L 610.2 118.53 
" style="fill:#83c166;"/>
    <path clip-path="url(#p590ca1d5da)" d="M 666 118.53 
L 721.8 118.53 
L 721.8 159.3 
L 666 159.3 
L 666 118.53 
" style="fill:#73b966;"/>
    <path clip-path="url(#p590ca1d5da)" d="M 721.8 118.53 
L 777.6 118.53 
L 777.6 159.3 
L 721.8 159.3 
L 721.8 118.53 
" style="fill:#cce666;"/>
    <path clip-path="url(#p590ca1d5da)" d="M 108 159.3 
L 163.8 159.3 
L 163.8 200.07 
L 108 200.07 
L 108 159.3 
" style="fill:#51a866;"/>
    <path clip-path="url(#p590ca1d5da)" d="M 163.8 159.3 
L 219.6 159.3 
L 219.6 200.07 
L 163.8 200.07 
L 163.8 159.3 
" style="fill:#67b366;"/>
    <path clip-path="url(#p590ca1d5da)" d="M 219.6 159.3 
L 275.4 159.3 
L 275.4 200.07 
L 219.6 200.07 
L 219.6 159.3 
" style="fill:#48a366;"/>
    <path clip-path="url(#p590ca1d5da)" d="M 275.4 159.3 
L 331.2 159.3 
L 331.2 200.07 
L 275.4 200.07 
L 275.4 159.3 
" style="fill:#a8d366;"/>
    <path clip-path="url(#p590ca1d5da)" d="M 331.2 159.3 
L 387 159.3 
L 387 200.07 
L 331.2 200.07 
L 331.2 159.3 
" style="fill:#fafc66;"/>
    <path clip-path="url(#p590ca1d5da)" d="M 387 159.3 
L 442.8 159.3 
L 442.8 200.07 
L 387 200.07 
L 387 159.3 
" style="fill:#bdde66;"/>
    <path clip-path="url(#p590ca1d5da)" d="M 442.8 159.3 
L 498.6 159.3 
L 498.6 200.07 
L 442.8 200.07 
L 442.8 159.3 
" style="fill:#f7fb66;"/>
    <path clip-path="url(#p590ca1d5da)" d="M 498.6 159.3 
L 554.4 159.3 
L 554.4 200.07 
L 498.6 200.07 
L 498.6 159.3 
" style="fill:#a1d066;"/>
    <path clip-path="url(#p590ca1d5da)" d="M 554.4 159.3 
L 610.2 159.3 
L 610.2 200.07 
L 554.4 200.07 
L 554.4 159.3 
" style="fill:#8ec666;"/>
    <path clip-path="url(#p590ca1d5da)" d="M 610.2 159.3 
L 666 159.3 
L 666 200.07 
L 610.2 200.07 
L 610.2 159.3 
" style="fill:#77bb66;"/>
    <path clip-path="url(#p590ca1d5da)" d="M 666 159.3 
L 721.8 159.3 
L 721.8 200.07 
L 666 200.07 
L 666 159.3 
" style="fill:#018066;"/>
    <path clip-path="url(#p590ca1d5da)" d="M 721.8 159.3 
L 777.6 159.3 
L 777.6 200.07 
L 721.8 200.07 
L 721.8 159.3 
" style="fill:#2d9666;"/>
    <path clip-path="url(#p590ca1d5da)" d="M 108 200.07 
L 163.8 200.07 
L 163.8 240.84 
L 108 240.84 
L 108 200.07 
" style="fill:#6fb766;"/>
    <path clip-path="url(#p590ca1d5da)" d="M 163.8 200.07 
L 219.6 200.07 
L 219.6 240.84 
L 163.8 240.84 
L 163.8 200.07 
" style="fill:#93c966;"/>
    <path clip-path="url(#p590ca1d5da)" d="M 219.6 200.07 
L 275.4 200.07 
L 275.4 240.84 
L 219.6 240.84 
L 219.6 200.07 
" style="fill:#f3f966;"/>
    <path clip-path="url(#p590ca1d5da)" d="M 275.4 200.07 
L 331.2 200.07 
L 331.2 240.84 
L 275.4 240.84 
L 275.4 200.07 
" style="fill:#028066;"/>
    <path clip-path="url(#p590ca1d5da)" d="M 331.2 200.07 
L 387 200.07 
L 387 240.84 
L 331.2 240.84 
L 331.2 200.07 
" style="fill:#0f8766;"/>
    <path clip-path="url(#p590ca1d5da)" d="M 387 200.07 
L 442.8 200.07 
L 442.8 240.84 
L 387 240.84 
L 387 200.07 
" style="fill:#d0e866;"/>
    <path clip-path="url(#p590ca1d5da)" d="M 442.8 200.07 
L 498.6 200.07 
L 498.6 240.84 
L 442.8 240.84 
L 442.8 200.07 
" style="fill:#93c966;"/>
    <path clip-path="url(#p590ca1d5da)" d="M 498.6 200.07 
L 554.4 200.07 
L 554.4 240.84 
L 498.6 240.84 
L 498.6 200.07 
" style="fill:#9dce66;"/>
    <path clip-path="url(#p590ca1d5da)" d="M 554.4 200.07 
L 610.2 200.07 
L 610.2 240.84 
L 554.4 240.84 
L 554.4 200.07 
" style="fill:#44a266;"/>
    <path clip-path="url(#p590ca1d5da)" d="M 610.2 200.07 
L 666 200.07 
L 666 240.84 
L 610.2 240.84 
L 610.2 200.07 
" style="fill:#198c66;"/>
    <path clip-path="url(#p590ca1d5da)" d="M 666 200.07 
L 721.8 200.07 
L 721.8 240.84 
L 666 240.84 
L 666 200.07 
" style="fill:#53a966;"/>
    <path clip-path="url(#p590ca1d5da)" d="M 721.8 200.07 
L 777.6 200.07 
L 777.6 240.84 
L 721.8 240.84 
L 721.8 200.07 
" style="fill:#0b8566;"/>
    <path clip-path="url(#p590ca1d5da)" d="M 108 240.84 
L 163.8 240.84 
L 163.8 281.61 
L 108 281.61 
L 108 240.84 
" style="fill:#8cc666;"/>
    <path clip-path="url(#p590ca1d5da)" d="M 163.8 240.84 
L 219.6 240.84 
L 219.6 281.61 
L 163.8 281.61 
L 163.8 240.84 
" style="fill:#97cb66;"/>
    <path clip-path="url(#p590ca1d5da)" d="M 219.6 240.84 
L 275.4 240.84 
L 275.4 281.61 
L 219.6 281.61 
L 219.6 240.84 
" style="fill:#209066;"/>
    <path clip-path="url(#p590ca1d5da)" d="M 275.4 240.84 
L 331.2 240.84 
L 331.2 281.61 
L 275.4 281.61 
L 275.4 240.84 
" style="fill:#cae466;"/>
    <path clip-path="url(#p590ca1d5da)" d="M 331.2 240.84 
L 387 240.84 
L 387 281.61 
L 331.2 281.61 
L 331.2 240.84 
" style="fill:#008066;"/>
    <path clip-path="url(#p590ca1d5da)" d="M 387 240.84 
L 442.8 240.84 
L 442.8 281.61 
L 387 281.61 
L 387 240.84 
" style="fill:#8ec666;"/>
    <path clip-path="url(#p590ca1d5da)" d="M 442.8 240.84 
L 498.6 240.84 
L 498.6 281.61 
L 442.8 281.61 
L 442.8 240.84 
" style="fill:#68b366;"/>
    <path clip-path="url(#p590ca1d5da)" d="M 498.6 240.84 
L 554.4 240.84 
L 554.4 281.61 
L 498.6 281.61 
L 498.6 240.84 
" style="fill:#008066;"/>
    <path clip-path="url(#p590ca1d5da)" d="M 554.4 240.84 
L 610.2 240.84 
L 610.2 281.61 
L 554.4 281.61 
L 554.4 240.84 
" style="fill:#dbed66;"/>
    <path clip-path="url(#p590ca1d5da)" d="M 610.2 240.84 
L 666 240.84 
L 666 281.61 
L 610.2 281.61 
L 610.2 240.84 
" style="fill:#7bbd66;"/>
    <path clip-path="url(#p590ca1d5da)" d="M 666 240.84 
L 721.8 240.84 
L 721.8 281.61 
L 666 281.61 
L 666 240.84 
" style="fill:#068266;"/>
    <path clip-path="url(#p590ca1d5da)" d="M 721.8 240.84 
L 777.6 240.84 
L 777.6 281.61 
L 721.8 281.61 
L 721.8 240.84 
" style="fill:#3b9d66;"/>
    <path clip-path="url(#p590ca1d5da)" d="M 108 281.61 
L 163.8 281.61 
L 163.8 322.38 
L 108 322.38 
L 108 281.61 
" style="fill:#fcfe66;"/>
    <path clip-path="url(#p590ca1d5da)" d="M 163.8 281.61 
L 219.6 281.61 
L 219.6 322.38 
L 163.8 322.38 
L 163.8 281.61 
" style="fill:#90c866;"/>
    <path clip-path="url(#p590ca1d5da)" d="M 219.6 281.61 
L 275.4 281.61 
L 275.4 322.38 
L 219.6 322.38 
L 219.6 281.61 
" style="fill:#fefe66;"/>
    <path clip-path="url(#p590ca1d5da)" d="M 275.4 281.61 
L 331.2 281.61 
L 331.2 322.38 
L 275.4 322.38 
L 275.4 281.61 
" style="fill:#2f9766;"/>
    <path clip-path="url(#p590ca1d5da)" d="M 331.2 281.61 
L 387 281.61 
L 387 322.38 
L 331.2 322.38 
L 331.2 281.61 
" style="fill:#49a466;"/>
    <path clip-path="url(#p590ca1d5da)" d="M 387 281.61 
L 442.8 281.61 
L 442.8 322.38 
L 387 322.38 
L 387 281.61 
" style="fill:#379b66;"/>
    <path clip-path="url(#p590ca1d5da)" d="M 442.8 281.61 
L 498.6 281.61 
L 498.6 322.38 
L 442.8 322.38 
L 442.8 281.61 
" style="fill:#b8dc66;"/>
    <path clip-path="url(#p590ca1d5da)" d="M 498.6 281.61 
L 554.4 281.61 
L 554.4 322.38 
L 498.6 322.38 
L 498.6 281.61 
" style="fill:#b4da66;"/>
    <path clip-path="url(#p590ca1d5da)" d="M 554.4 281.61 
L 610.2 281.61 
L 610.2 322.38 
L 554.4 322.38 
L 554.4 281.61 
" style="fill:#badc66;"/>
    <path clip-path="url(#p590ca1d5da)" d="M 610.2 281.61 
L 666 281.61 
L 666 322.38 
L 610.2 322.38 
L 610.2 281.61 
" style="fill:#badc66;"/>
    <path clip-path="url(#p590ca1d5da)" d="M 666 281.61 
L 721.8 281.61 
L 721.8 322.38 
L 666 322.38 
L 666 281.61 
" style="fill:#6fb766;"/>
    <path clip-path="url(#p590ca1d5da)" d="M 721.8 281.61 
L 777.6 281.61 
L 777.6 322.38 
L 721.8 322.38 
L 721.8 281.61 
" style="fill:#e6f266;"/>
    <path clip-path="url(#p590ca1d5da)" d="M 108 322.38 
L 163.8 322.38 
L 163.8 363.15 
L 108 363.15 
L 108 322.38 
" style="fill:#1f8f66;"/>
    <path clip-path="url(#p590ca1d5da)" d="M 163.8 322.38 
L 219.6 322.38 
L 219.6 363.15 
L 163.8 363.15 
L 163.8 322.38 
" style="fill:#219066;"/>
    <path clip-path="url(#p590ca1d5da)" d="M 219.6 322.38 
L 275.4 322.38 
L 275.4 363.15 
L 219.6 363.15 
L 219.6 322.38 
" style="fill:#b5da66;"/>
    <path clip-path="url(#p590ca1d5da)" d="M 275.4 322.38 
L 331.2 322.38 
L 331.2 363.15 
L 275.4 363.15 
L 275.4 322.38 
" style="fill:#ddee66;"/>
    <path clip-path="url(#p590ca1d5da)" d="M 331.2 322.38 
L 387 322.38 
L 387 363.15 
L 331.2 363.15 
L 331.2 322.38 
" style="fill:#68b366;"/>
    <path clip-path="url(#p590ca1d5da)" d="M 387 322.38 
L 442.8 322.38 
L 442.8 363.15 
L 387 363.15 
L 387 322.38 
" style="fill:#78bc66;"/>
    <path clip-path="url(#p590ca1d5da)" d="M 442.8 322.38 
L 498.6 322.38 
L 498.6 363.15 
L 442.8 363.15 
L 442.8 322.38 
" style="fill:#45a266;"/>
    <path clip-path="url(#p590ca1d5da)" d="M 498.6 322.38 
L 554.4 322.38 
L 554.4 363.15 
L 498.6 363.15 
L 498.6 322.38 
" style="fill:#8ac466;"/>
    <path clip-path="url(#p590ca1d5da)" d="M 554.4 322.38 
L 610.2 322.38 
L 610.2 363.15 
L 554.4 363.15 
L 554.4 322.38 
" style="fill:#0c8666;"/>
    <path clip-path="url(#p590ca1d5da)" d="M 610.2 322.38 
L 666 322.38 
L 666 363.15 
L 610.2 363.15 
L 610.2 322.38 
" style="fill:#f2f866;"/>
    <path clip-path="url(#p590ca1d5da)" d="M 666 322.38 
L 721.8 322.38 
L 721.8 363.15 
L 666 363.15 
L 666 322.38 
" style="fill:#90c866;"/>
    <path clip-path="url(#p590ca1d5da)" d="M 721.8 322.38 
L 777.6 322.38 
L 777.6 363.15 
L 721.8 363.15 
L 721.8 322.38 
" style="fill:#d4ea66;"/>
    <path clip-path="url(#p590ca1d5da)" d="M 108 363.15 
L 163.8 363.15 
L 163.8 403.92 
L 108 403.92 
L 108 363.15 
" style="fill:#6bb566;"/>
    <path clip-path="url(#p590ca1d5da)" d="M 163.8 363.15 
L 219.6 363.15 
L 219.6 403.92 
L 163.8 403.92 
L 163.8 363.15 
" style="fill:#b6db66;"/>
    <path clip-path="url(#p590ca1d5da)" d="M 219.6 363.15 
L 275.4 363.15 
L 275.4 403.92 
L 219.6 403.92 
L 219.6 363.15 
" style="fill:#57ab66;"/>
    <path clip-path="url(#p590ca1d5da)" d="M 275.4 363.15 
L 331.2 363.15 
L 331.2 403.92 
L 275.4 403.92 
L 275.4 363.15 
" style="fill:#58ac66;"/>
    <path clip-path="url(#p590ca1d5da)" d="M 331.2 363.15 
L 387 363.15 
L 387 403.92 
L 331.2 403.92 
L 331.2 363.15 
" style="fill:#55aa66;"/>
    <path clip-path="url(#p590ca1d5da)" d="M 387 363.15 
L 442.8 363.15 
L 442.8 403.92 
L 387 403.92 
L 387 363.15 
" style="fill:#4aa466;"/>
    <path clip-path="url(#p590ca1d5da)" d="M 442.8 363.15 
L 498.6 363.15 
L 498.6 403.92 
L 442.8 403.92 
L 442.8 363.15 
" style="fill:#f6fb66;"/>
    <path clip-path="url(#p590ca1d5da)" d="M 498.6 363.15 
L 554.4 363.15 
L 554.4 403.92 
L 498.6 403.92 
L 498.6 363.15 
" style="fill:#66b266;"/>
    <path clip-path="url(#p590ca1d5da)" d="M 554.4 363.15 
L 610.2 363.15 
L 610.2 403.92 
L 554.4 403.92 
L 554.4 363.15 
" style="fill:#89c466;"/>
    <path clip-path="url(#p590ca1d5da)" d="M 610.2 363.15 
L 666 363.15 
L 666 403.92 
L 610.2 403.92 
L 610.2 363.15 
" style="fill:#6fb766;"/>
    <path clip-path="url(#p590ca1d5da)" d="M 666 363.15 
L 721.8 363.15 
L 721.8 403.92 
L 666 403.92 
L 666 363.15 
" style="fill:#badc66;"/>
    <path clip-path="url(#p590ca1d5da)" d="M 721.8 363.15 
L 777.6 363.15 
L 777.6 403.92 
L 721.8 403.92 
L 721.8 363.15 
" style="fill:#c0e066;"/>
    <path clip-path="url(#p590ca1d5da)" d="M 108 403.92 
L 163.8 403.92 
L 163.8 444.69 
L 108 444.69 
L 108 403.92 
" style="fill:#fafc66;"/>
    <path clip-path="url(#p590ca1d5da)" d="M 163.8 403.92 
L 219.6 403.92 
L 219.6 444.69 
L 163.8 444.69 
L 163.8 403.92 
" style="fill:#66b266;"/>
    <path clip-path="url(#p590ca1d5da)" d="M 219.6 403.92 
L 275.4 403.92 
L 275.4 444.69 
L 219.6 444.69 
L 219.6 403.92 
" style="fill:#eff766;"/>
    <path clip-path="url(#p590ca1d5da)" d="M 275.4 403.92 
L 331.2 403.92 
L 331.2 444.69 
L 275.4 444.69 
L 275.4 403.92 
" style="fill:#add666;"/>
    <path clip-path="url(#p590ca1d5da)" d="M 331.2 403.92 
L 387 403.92 
L 387 444.69 
L 331.2 444.69 
L 331.2 403.92 
" style="fill:#168a66;"/>
    <path clip-path="url(#p590ca1d5da)" d="M 387 403.92 
L 442.8 403.92 
L 442.8 444.69 
L 387 444.69 
L 387 403.92 
" style="fill:#2b9566;"/>
    <path clip-path="url(#p590ca1d5da)" d="M 442.8 403.92 
L 498.6 403.92 
L 498.6 444.69 
L 442.8 444.69 
L 442.8 403.92 
" style="fill:#42a066;"/>
    <path clip-path="url(#p590ca1d5da)" d="M 498.6 403.92 
L 554.4 403.92 
L 554.4 444.69 
L 498.6 444.69 
L 498.6 403.92 
" style="fill:#fafc66;"/>
    <path clip-path="url(#p590ca1d5da)" d="M 554.4 403.92 
L 610.2 403.92 
L 610.2 444.69 
L 554.4 444.69 
L 554.4 403.92 
" style="fill:#4fa766;"/>
    <path clip-path="url(#p590ca1d5da)" d="M 610.2 403.92 
L 666 403.92 
L 666 444.69 
L 610.2 444.69 
L 610.2 403.92 
" style="fill:#9bcd66;"/>
    <path clip-path="url(#p590ca1d5da)" d="M 666 403.92 
L 721.8 403.92 
L 721.8 444.69 
L 666 444.69 
L 666 403.92 
" style="fill:#c4e266;"/>
    <path clip-path="url(#p590ca1d5da)" d="M 721.8 403.92 
L 777.6 403.92 
L 777.6 444.69 
L 721.8 444.69 
L 721.8 403.92 
" style="fill:#1d8e66;"/>
    <path clip-path="url(#p590ca1d5da)" d="M 108 444.69 
L 163.8 444.69 
L 163.8 485.46 
L 108 485.46 
L 108 444.69 
" style="fill:#88c366;"/>
    <path clip-path="url(#p590ca1d5da)" d="M 163.8 444.69 
L 219.6 444.69 
L 219.6 485.46 
L 163.8 485.46 
L 163.8 444.69 
" style="fill:#2c9666;"/>
    <path clip-path="url(#p590ca1d5da)" d="M 219.6 444.69 
L 275.4 444.69 
L 275.4 485.46 
L 219.6 485.46 
L 219.6 444.69 
" style="fill:#49a466;"/>
    <path clip-path="url(#p590ca1d5da)" d="M 275.4 444.69 
L 331.2 444.69 
L 331.2 485.46 
L 275.4 485.46 
L 275.4 444.69 
" style="fill:#259266;"/>
    <path clip-path="url(#p590ca1d5da)" d="M 331.2 444.69 
L 387 444.69 
L 387 485.46 
L 331.2 485.46 
L 331.2 444.69 
" style="fill:#3f9f66;"/>
    <path clip-path="url(#p590ca1d5da)" d="M 387 444.69 
L 442.8 444.69 
L 442.8 485.46 
L 387 485.46 
L 387 444.69 
" style="fill:#128866;"/>
    <path clip-path="url(#p590ca1d5da)" d="M 442.8 444.69 
L 498.6 444.69 
L 498.6 485.46 
L 442.8 485.46 
L 442.8 444.69 
" style="fill:#6db666;"/>
    <path clip-path="url(#p590ca1d5da)" d="M 498.6 444.69 
L 554.4 444.69 
L 554.4 485.46 
L 498.6 485.46 
L 498.6 444.69 
" style="fill:#8ec666;"/>
    <path clip-path="url(#p590ca1d5da)" d="M 554.4 444.69 
L 610.2 444.69 
L 610.2 485.46 
L 554.4 485.46 
L 554.4 444.69 
" style="fill:#deee66;"/>
    <path clip-path="url(#p590ca1d5da)" d="M 610.2 444.69 
L 666 444.69 
L 666 485.46 
L 610.2 485.46 
L 610.2 444.69 
" style="fill:#a8d366;"/>
    <path clip-path="url(#p590ca1d5da)" d="M 666 444.69 
L 721.8 444.69 
L 721.8 485.46 
L 666 485.46 
L 666 444.69 
" style="fill:#108866;"/>
    <path clip-path="url(#p590ca1d5da)" d="M 721.8 444.69 
L 777.6 444.69 
L 777.6 485.46 
L 721.8 485.46 
L 721.8 444.69 
" style="fill:#f8fc66;"/>
    <path clip-path="url(#p590ca1d5da)" d="M 108 485.46 
L 163.8 485.46 
L 163.8 526.23 
L 108 526.23 
L 108 485.46 
" style="fill:#e7f366;"/>
    <path clip-path="url(#p590ca1d5da)" d="M 163.8 485.46 
L 219.6 485.46 
L 219.6 526.23 
L 163.8 526.23 
L 163.8 485.46 
" style="fill:#83c166;"/>
    <path clip-path="url(#p590ca1d5da)" d="M 219.6 485.46 
L 275.4 485.46 
L 275.4 526.23 
L 219.6 526.23 
L 219.6 485.46 
" style="fill:#b6db66;"/>
    <path clip-path="url(#p590ca1d5da)" d="M 275.4 485.46 
L 331.2 485.46 
L 331.2 526.23 
L 275.4 526.23 
L 275.4 485.46 
" style="fill:#78bc66;"/>
    <path clip-path="url(#p590ca1d5da)" d="M 331.2 485.46 
L 387 485.46 
L 387 526.23 
L 331.2 526.23 
L 331.2 485.46 
" style="fill:#a6d266;"/>
    <path clip-path="url(#p590ca1d5da)" d="M 387 485.46 
L 442.8 485.46 
L 442.8 526.23 
L 387 526.23 
L 387 485.46 
" style="fill:#339966;"/>
    <path clip-path="url(#p590ca1d5da)" d="M 442.8 485.46 
L 498.6 485.46 
L 498.6 526.23 
L 442.8 526.23 
L 442.8 485.46 
" style="fill:#daec66;"/>
    <path clip-path="url(#p590ca1d5da)" d="M 498.6 485.46 
L 554.4 485.46 
L 554.4 526.23 
L 498.6 526.23 
L 498.6 485.46 
" style="fill:#d9ec66;"/>
    <path clip-path="url(#p590ca1d5da)" d="M 554.4 485.46 
L 610.2 485.46 
L 610.2 526.23 
L 554.4 526.23 
L 554.4 485.46 
" style="fill:#90c866;"/>
    <path clip-path="url(#p590ca1d5da)" d="M 610.2 485.46 
L 666 485.46 
L 666 526.23 
L 610.2 526.23 
L 610.2 485.46 
" style="fill:#118866;"/>
    <path clip-path="url(#p590ca1d5da)" d="M 666 485.46 
L 721.8 485.46 
L 721.8 526.23 
L 666 526.23 
L 666 485.46 
" style="fill:#badc66;"/>
    <path clip-path="url(#p590ca1d5da)" d="M 721.8 485.46 
L 777.6 485.46 
L 777.6 526.23 
L 721.8 526.23 
L 721.8 485.46 
" style="fill:#c3e166;"/>
    <path clip-path="url(#p590ca1d5da)" d="M 108 526.23 
L 163.8 526.23 
L 163.8 567 
L 108 567 
L 108 526.23 
" style="fill:#219066;"/>
    <path clip-path="url(#p590ca1d5da)" d="M 163.8 526.23 
L 219.6 526.23 
L 219.6 567 
L 163.8 567 
L 163.8 526.23 
" style="fill:#018066;"/>
    <path clip-path="url(#p590ca1d5da)" d="M 219.6 526.23 
L 275.4 526.23 
L 275.4 567 
L 219.6 567 
L 219.6 526.23 
" style="fill:#008066;"/>
    <path clip-path="url(#p590ca1d5da)" d="M 275.4 526.23 
L 331.2 526.23 
L 331.2 567 
L 275.4 567 
L 275.4 526.23 
" style="fill:#98cc66;"/>
    <path clip-path="url(#p590ca1d5da)" d="M 331.2 526.23 
L 387 526.23 
L 387 567 
L 331.2 567 
L 331.2 526.23 
" style="fill:#badc66;"/>
    <path clip-path="url(#p590ca1d5da)" d="M 387 526.23 
L 442.8 526.23 
L 442.8 567 
L 387 567 
L 387 526.23 
" style="fill:#249266;"/>
    <path clip-path="url(#p590ca1d5da)" d="M 442.8 526.23 
L 498.6 526.23 
L 498.6 567 
L 442.8 567 
L 442.8 526.23 
" style="fill:#afd766;"/>
    <path clip-path="url(#p590ca1d5da)" d="M 498.6 526.23 
L 554.4 526.23 
L 554.4 567 
L 498.6 567 
L 498.6 526.23 
" style="fill:#5bad66;"/>
    <path clip-path="url(#p590ca1d5da)" d="M 554.4 526.23 
L 610.2 526.23 
L 610.2 567 
L 554.4 567 
L 554.4 526.23 
" style="fill:#deee66;"/>
    <path clip-path="url(#p590ca1d5da)" d="M 610.2 526.23 
L 666 526.23 
L 666 567 
L 610.2 567 
L 610.2 526.23 
" style="fill:#148a66;"/>
    <path clip-path="url(#p590ca1d5da)" d="M 666 526.23 
L 721.8 526.23 
L 721.8 567 
L 666 567 
L 666 526.23 
" style="fill:#0b8566;"/>
    <path clip-path="url(#p590ca1d5da)" d="M 721.8 526.23 
L 777.6 526.23 
L 777.6 567 
L 721.8 567 
L 721.8 526.23 
" style="fill:#48a366;"/>
   </g>
  </g>
 </g>
 <defs>
  <clipPath id="p590ca1d5da">
   <rect height="489.24" width="669.6" x="108" y="77.76"/>
  </clipPath>
 </defs>
</svg>
