<?xml version="1.0" encoding="utf-8" standalone="no"?>
<!DOCTYPE svg PUBLIC "-//W3C//DTD SVG 1.1//EN"
  "http://www.w3.org/Graphics/SVG/1.1/DTD/svg11.dtd">
<!-- Created with matplotlib (http://matplotlib.org/) -->
<svg height="708.767187pt" version="1.1" viewBox="0 0 708.517969 708.767187" width="708.517969pt" xmlns="http://www.w3.org/2000/svg" xmlns:xlink="http://www.w3.org/1999/xlink">
 <defs>
  <style type="text/css">
*{stroke-linecap:butt;stroke-linejoin:round;}
  </style>
 </defs>
 <g id="figure_1">
  <g id="patch_1">
   <path d="M -0 708.767187 
L 708.517969 708.767187 
L 708.517969 0 
L -0 0 
z
" style="fill:#ffffff;"/>
  </g>
  <g id="axes_1">
   <g id="patch_2">
    <path d="M 42.159844 671.233125 
L 588.319433 671.233125 
L 588.319433 121.03425 
L 42.159844 121.03425 
z
" style="fill:#ffffff;"/>
   </g>
   <g id="matplotlib.axis_1">
    <g id="xtick_1">
     <g id="line2d_1">
      <path clip-path="url(#pfd4c766bb1)" d="M 122.787209 671.233125 
L 122.787209 121.03425 
" style="fill:none;stroke:#cccccc;stroke-linecap:round;"/>
     </g>
     <g id="line2d_2"/>
     <g id="text_1">
      <!-- 4 -->
      <defs>
       <path d="M 32.328125 0 
L 32.328125 17.140625 
L 1.265625 17.140625 
L 1.265625 25.203125 
L 33.9375 71.578125 
L 41.109375 71.578125 
L 41.109375 25.203125 
L 50.78125 25.203125 
L 50.78125 17.140625 
L 41.109375 17.140625 
L 41.109375 0 
z
M 32.328125 25.203125 
L 32.328125 57.46875 
L 9.90625 25.203125 
z
" id="ArialMT-34"/>
      </defs>
      <g style="fill:#262626;" transform="translate(120.006741 685.390937)scale(0.1 -0.1)">
       <use xlink:href="#ArialMT-34"/>
      </g>
     </g>
    </g>
    <g id="xtick_2">
     <g id="line2d_3">
      <path clip-path="url(#pfd4c766bb1)" d="M 214.431223 671.233125 
L 214.431223 121.03425 
" style="fill:none;stroke:#cccccc;stroke-linecap:round;"/>
     </g>
     <g id="line2d_4"/>
     <g id="text_2">
      <!-- 5 -->
      <defs>
       <path d="M 4.15625 18.75 
L 13.375 19.53125 
Q 14.40625 12.796875 18.140625 9.390625 
Q 21.875 6 27.15625 6 
Q 33.5 6 37.890625 10.78125 
Q 42.28125 15.578125 42.28125 23.484375 
Q 42.28125 31 38.0625 35.34375 
Q 33.84375 39.703125 27 39.703125 
Q 22.75 39.703125 19.328125 37.765625 
Q 15.921875 35.84375 13.96875 32.765625 
L 5.71875 33.84375 
L 12.640625 70.609375 
L 48.25 70.609375 
L 48.25 62.203125 
L 19.671875 62.203125 
L 15.828125 42.96875 
Q 22.265625 47.46875 29.34375 47.46875 
Q 38.71875 47.46875 45.15625 40.96875 
Q 51.609375 34.46875 51.609375 24.265625 
Q 51.609375 14.546875 45.953125 7.46875 
Q 39.0625 -1.21875 27.15625 -1.21875 
Q 17.390625 -1.21875 11.203125 4.25 
Q 5.03125 9.71875 4.15625 18.75 
z
" id="ArialMT-35"/>
      </defs>
      <g style="fill:#262626;" transform="translate(211.650754 685.390937)scale(0.1 -0.1)">
       <use xlink:href="#ArialMT-35"/>
      </g>
     </g>
    </g>
    <g id="xtick_3">
     <g id="line2d_5">
      <path clip-path="url(#pfd4c766bb1)" d="M 306.075237 671.233125 
L 306.075237 121.03425 
" style="fill:none;stroke:#cccccc;stroke-linecap:round;"/>
     </g>
     <g id="line2d_6"/>
     <g id="text_3">
      <!-- 6 -->
      <defs>
       <path d="M 49.75 54.046875 
L 41.015625 53.375 
Q 39.84375 58.546875 37.703125 60.890625 
Q 34.125 64.65625 28.90625 64.65625 
Q 24.703125 64.65625 21.53125 62.3125 
Q 17.390625 59.28125 14.984375 53.46875 
Q 12.59375 47.65625 12.5 36.921875 
Q 15.671875 41.75 20.265625 44.09375 
Q 24.859375 46.4375 29.890625 46.4375 
Q 38.671875 46.4375 44.84375 39.96875 
Q 51.03125 33.5 51.03125 23.25 
Q 51.03125 16.5 48.125 10.71875 
Q 45.21875 4.9375 40.140625 1.859375 
Q 35.0625 -1.21875 28.609375 -1.21875 
Q 17.625 -1.21875 10.6875 6.859375 
Q 3.765625 14.9375 3.765625 33.5 
Q 3.765625 54.25 11.421875 63.671875 
Q 18.109375 71.875 29.4375 71.875 
Q 37.890625 71.875 43.28125 67.140625 
Q 48.6875 62.40625 49.75 54.046875 
z
M 13.875 23.1875 
Q 13.875 18.65625 15.796875 14.5 
Q 17.71875 10.359375 21.1875 8.171875 
Q 24.65625 6 28.46875 6 
Q 34.03125 6 38.03125 10.484375 
Q 42.046875 14.984375 42.046875 22.703125 
Q 42.046875 30.125 38.078125 34.390625 
Q 34.125 38.671875 28.125 38.671875 
Q 22.171875 38.671875 18.015625 34.390625 
Q 13.875 30.125 13.875 23.1875 
z
" id="ArialMT-36"/>
      </defs>
      <g style="fill:#262626;" transform="translate(303.294768 685.390937)scale(0.1 -0.1)">
       <use xlink:href="#ArialMT-36"/>
      </g>
     </g>
    </g>
    <g id="xtick_4">
     <g id="line2d_7">
      <path clip-path="url(#pfd4c766bb1)" d="M 397.719251 671.233125 
L 397.719251 121.03425 
" style="fill:none;stroke:#cccccc;stroke-linecap:round;"/>
     </g>
     <g id="line2d_8"/>
     <g id="text_4">
      <!-- 7 -->
      <defs>
       <path d="M 4.734375 62.203125 
L 4.734375 70.65625 
L 51.078125 70.65625 
L 51.078125 63.8125 
Q 44.234375 56.546875 37.515625 44.484375 
Q 30.8125 32.421875 27.15625 19.671875 
Q 24.515625 10.6875 23.78125 0 
L 14.75 0 
Q 14.890625 8.453125 18.0625 20.40625 
Q 21.234375 32.375 27.171875 43.484375 
Q 33.109375 54.59375 39.796875 62.203125 
z
" id="ArialMT-37"/>
      </defs>
      <g style="fill:#262626;" transform="translate(394.938782 685.390937)scale(0.1 -0.1)">
       <use xlink:href="#ArialMT-37"/>
      </g>
     </g>
    </g>
    <g id="xtick_5">
     <g id="line2d_9">
      <path clip-path="url(#pfd4c766bb1)" d="M 489.363265 671.233125 
L 489.363265 121.03425 
" style="fill:none;stroke:#cccccc;stroke-linecap:round;"/>
     </g>
     <g id="line2d_10"/>
     <g id="text_5">
      <!-- 8 -->
      <defs>
       <path d="M 17.671875 38.8125 
Q 12.203125 40.828125 9.5625 44.53125 
Q 6.9375 48.25 6.9375 53.421875 
Q 6.9375 61.234375 12.546875 66.546875 
Q 18.171875 71.875 27.484375 71.875 
Q 36.859375 71.875 42.578125 66.421875 
Q 48.296875 60.984375 48.296875 53.171875 
Q 48.296875 48.1875 45.671875 44.5 
Q 43.0625 40.828125 37.75 38.8125 
Q 44.34375 36.671875 47.78125 31.875 
Q 51.21875 27.09375 51.21875 20.453125 
Q 51.21875 11.28125 44.71875 5.03125 
Q 38.234375 -1.21875 27.640625 -1.21875 
Q 17.046875 -1.21875 10.546875 5.046875 
Q 4.046875 11.328125 4.046875 20.703125 
Q 4.046875 27.6875 7.59375 32.390625 
Q 11.140625 37.109375 17.671875 38.8125 
z
M 15.921875 53.71875 
Q 15.921875 48.640625 19.1875 45.40625 
Q 22.46875 42.1875 27.6875 42.1875 
Q 32.765625 42.1875 36.015625 45.375 
Q 39.265625 48.578125 39.265625 53.21875 
Q 39.265625 58.0625 35.90625 61.359375 
Q 32.5625 64.65625 27.59375 64.65625 
Q 22.5625 64.65625 19.234375 61.421875 
Q 15.921875 58.203125 15.921875 53.71875 
z
M 13.09375 20.65625 
Q 13.09375 16.890625 14.875 13.375 
Q 16.65625 9.859375 20.171875 7.921875 
Q 23.6875 6 27.734375 6 
Q 34.03125 6 38.125 10.046875 
Q 42.234375 14.109375 42.234375 20.359375 
Q 42.234375 26.703125 38.015625 30.859375 
Q 33.796875 35.015625 27.4375 35.015625 
Q 21.234375 35.015625 17.15625 30.90625 
Q 13.09375 26.8125 13.09375 20.65625 
z
" id="ArialMT-38"/>
      </defs>
      <g style="fill:#262626;" transform="translate(486.582796 685.390937)scale(0.1 -0.1)">
       <use xlink:href="#ArialMT-38"/>
      </g>
     </g>
    </g>
    <g id="xtick_6">
     <g id="line2d_11">
      <path clip-path="url(#pfd4c766bb1)" d="M 581.007279 671.233125 
L 581.007279 121.03425 
" style="fill:none;stroke:#cccccc;stroke-linecap:round;"/>
     </g>
     <g id="line2d_12"/>
     <g id="text_6">
      <!-- 9 -->
      <defs>
       <path d="M 5.46875 16.546875 
L 13.921875 17.328125 
Q 14.984375 11.375 18.015625 8.6875 
Q 21.046875 6 25.78125 6 
Q 29.828125 6 32.875 7.859375 
Q 35.9375 9.71875 37.890625 12.8125 
Q 39.84375 15.921875 41.15625 21.1875 
Q 42.484375 26.46875 42.484375 31.9375 
Q 42.484375 32.515625 42.4375 33.6875 
Q 39.796875 29.5 35.234375 26.875 
Q 30.671875 24.265625 25.34375 24.265625 
Q 16.453125 24.265625 10.296875 30.703125 
Q 4.15625 37.15625 4.15625 47.703125 
Q 4.15625 58.59375 10.578125 65.234375 
Q 17 71.875 26.65625 71.875 
Q 33.640625 71.875 39.421875 68.109375 
Q 45.21875 64.359375 48.21875 57.390625 
Q 51.21875 50.4375 51.21875 37.25 
Q 51.21875 23.53125 48.234375 15.40625 
Q 45.265625 7.28125 39.375 3.03125 
Q 33.5 -1.21875 25.59375 -1.21875 
Q 17.1875 -1.21875 11.859375 3.4375 
Q 6.546875 8.109375 5.46875 16.546875 
z
M 41.453125 48.140625 
Q 41.453125 55.71875 37.421875 60.15625 
Q 33.40625 64.59375 27.734375 64.59375 
Q 21.875 64.59375 17.53125 59.8125 
Q 13.1875 55.03125 13.1875 47.40625 
Q 13.1875 40.578125 17.3125 36.296875 
Q 21.4375 32.03125 27.484375 32.03125 
Q 33.59375 32.03125 37.515625 36.296875 
Q 41.453125 40.578125 41.453125 48.140625 
z
" id="ArialMT-39"/>
      </defs>
      <g style="fill:#262626;" transform="translate(578.22681 685.390937)scale(0.1 -0.1)">
       <use xlink:href="#ArialMT-39"/>
      </g>
     </g>
    </g>
    <g id="text_7">
     <!-- sepal_length -->
     <defs>
      <path d="M 3.078125 15.484375 
L 11.765625 16.84375 
Q 12.5 11.625 15.84375 8.84375 
Q 19.1875 6.0625 25.203125 6.0625 
Q 31.25 6.0625 34.171875 8.515625 
Q 37.109375 10.984375 37.109375 14.3125 
Q 37.109375 17.28125 34.515625 19 
Q 32.71875 20.171875 25.53125 21.96875 
Q 15.875 24.421875 12.140625 26.203125 
Q 8.40625 27.984375 6.46875 31.125 
Q 4.546875 34.28125 4.546875 38.09375 
Q 4.546875 41.546875 6.125 44.5 
Q 7.71875 47.46875 10.453125 49.421875 
Q 12.5 50.921875 16.03125 51.96875 
Q 19.578125 53.03125 23.640625 53.03125 
Q 29.734375 53.03125 34.34375 51.265625 
Q 38.96875 49.515625 41.15625 46.5 
Q 43.359375 43.5 44.1875 38.484375 
L 35.59375 37.3125 
Q 35.015625 41.3125 32.203125 43.546875 
Q 29.390625 45.796875 24.265625 45.796875 
Q 18.21875 45.796875 15.625 43.796875 
Q 13.03125 41.796875 13.03125 39.109375 
Q 13.03125 37.40625 14.109375 36.03125 
Q 15.1875 34.625 17.484375 33.6875 
Q 18.796875 33.203125 25.25 31.453125 
Q 34.578125 28.953125 38.25 27.359375 
Q 41.9375 25.78125 44.03125 22.75 
Q 46.140625 19.734375 46.140625 15.234375 
Q 46.140625 10.84375 43.578125 6.953125 
Q 41.015625 3.078125 36.171875 0.953125 
Q 31.34375 -1.171875 25.25 -1.171875 
Q 15.140625 -1.171875 9.84375 3.03125 
Q 4.546875 7.234375 3.078125 15.484375 
z
" id="ArialMT-73"/>
      <path d="M 42.09375 16.703125 
L 51.171875 15.578125 
Q 49.03125 7.625 43.21875 3.21875 
Q 37.40625 -1.171875 28.375 -1.171875 
Q 17 -1.171875 10.328125 5.828125 
Q 3.65625 12.84375 3.65625 25.484375 
Q 3.65625 38.578125 10.390625 45.796875 
Q 17.140625 53.03125 27.875 53.03125 
Q 38.28125 53.03125 44.875 45.953125 
Q 51.46875 38.875 51.46875 26.03125 
Q 51.46875 25.25 51.421875 23.6875 
L 12.75 23.6875 
Q 13.234375 15.140625 17.578125 10.59375 
Q 21.921875 6.0625 28.421875 6.0625 
Q 33.25 6.0625 36.671875 8.59375 
Q 40.09375 11.140625 42.09375 16.703125 
z
M 13.234375 30.90625 
L 42.1875 30.90625 
Q 41.609375 37.453125 38.875 40.71875 
Q 34.671875 45.796875 27.984375 45.796875 
Q 21.921875 45.796875 17.796875 41.75 
Q 13.671875 37.703125 13.234375 30.90625 
z
" id="ArialMT-65"/>
      <path d="M 6.59375 -19.875 
L 6.59375 51.859375 
L 14.59375 51.859375 
L 14.59375 45.125 
Q 17.4375 49.078125 21 51.046875 
Q 24.5625 53.03125 29.640625 53.03125 
Q 36.28125 53.03125 41.359375 49.609375 
Q 46.4375 46.1875 49.015625 39.953125 
Q 51.609375 33.734375 51.609375 26.3125 
Q 51.609375 18.359375 48.75 11.984375 
Q 45.90625 5.609375 40.453125 2.21875 
Q 35.015625 -1.171875 29 -1.171875 
Q 24.609375 -1.171875 21.109375 0.6875 
Q 17.625 2.546875 15.375 5.375 
L 15.375 -19.875 
z
M 14.546875 25.640625 
Q 14.546875 15.625 18.59375 10.84375 
Q 22.65625 6.0625 28.421875 6.0625 
Q 34.28125 6.0625 38.453125 11.015625 
Q 42.625 15.96875 42.625 26.375 
Q 42.625 36.28125 38.546875 41.203125 
Q 34.46875 46.140625 28.8125 46.140625 
Q 23.1875 46.140625 18.859375 40.890625 
Q 14.546875 35.640625 14.546875 25.640625 
z
" id="ArialMT-70"/>
      <path d="M 40.4375 6.390625 
Q 35.546875 2.25 31.03125 0.53125 
Q 26.515625 -1.171875 21.34375 -1.171875 
Q 12.796875 -1.171875 8.203125 3 
Q 3.609375 7.171875 3.609375 13.671875 
Q 3.609375 17.484375 5.34375 20.625 
Q 7.078125 23.78125 9.890625 25.6875 
Q 12.703125 27.59375 16.21875 28.5625 
Q 18.796875 29.25 24.03125 29.890625 
Q 34.671875 31.15625 39.703125 32.90625 
Q 39.75 34.71875 39.75 35.203125 
Q 39.75 40.578125 37.25 42.78125 
Q 33.890625 45.75 27.25 45.75 
Q 21.046875 45.75 18.09375 43.578125 
Q 15.140625 41.40625 13.71875 35.890625 
L 5.125 37.0625 
Q 6.296875 42.578125 8.984375 45.96875 
Q 11.671875 49.359375 16.75 51.1875 
Q 21.828125 53.03125 28.515625 53.03125 
Q 35.15625 53.03125 39.296875 51.46875 
Q 43.453125 49.90625 45.40625 47.53125 
Q 47.359375 45.171875 48.140625 41.546875 
Q 48.578125 39.3125 48.578125 33.453125 
L 48.578125 21.734375 
Q 48.578125 9.46875 49.140625 6.21875 
Q 49.703125 2.984375 51.375 0 
L 42.1875 0 
Q 40.828125 2.734375 40.4375 6.390625 
z
M 39.703125 26.03125 
Q 34.90625 24.078125 25.34375 22.703125 
Q 19.921875 21.921875 17.671875 20.9375 
Q 15.4375 19.96875 14.203125 18.09375 
Q 12.984375 16.21875 12.984375 13.921875 
Q 12.984375 10.40625 15.640625 8.0625 
Q 18.3125 5.71875 23.4375 5.71875 
Q 28.515625 5.71875 32.46875 7.9375 
Q 36.421875 10.15625 38.28125 14.015625 
Q 39.703125 17 39.703125 22.796875 
z
" id="ArialMT-61"/>
      <path d="M 6.390625 0 
L 6.390625 71.578125 
L 15.1875 71.578125 
L 15.1875 0 
z
" id="ArialMT-6c"/>
      <path d="M -1.515625 -19.875 
L -1.515625 -13.53125 
L 56.734375 -13.53125 
L 56.734375 -19.875 
z
" id="ArialMT-5f"/>
      <path d="M 6.59375 0 
L 6.59375 51.859375 
L 14.5 51.859375 
L 14.5 44.484375 
Q 20.21875 53.03125 31 53.03125 
Q 35.6875 53.03125 39.625 51.34375 
Q 43.5625 49.65625 45.515625 46.921875 
Q 47.46875 44.1875 48.25 40.4375 
Q 48.734375 37.984375 48.734375 31.890625 
L 48.734375 0 
L 39.9375 0 
L 39.9375 31.546875 
Q 39.9375 36.921875 38.90625 39.578125 
Q 37.890625 42.234375 35.28125 43.8125 
Q 32.671875 45.40625 29.15625 45.40625 
Q 23.53125 45.40625 19.453125 41.84375 
Q 15.375 38.28125 15.375 28.328125 
L 15.375 0 
z
" id="ArialMT-6e"/>
      <path d="M 4.984375 -4.296875 
L 13.53125 -5.5625 
Q 14.0625 -9.515625 16.5 -11.328125 
Q 19.78125 -13.765625 25.4375 -13.765625 
Q 31.546875 -13.765625 34.859375 -11.328125 
Q 38.1875 -8.890625 39.359375 -4.5 
Q 40.046875 -1.8125 39.984375 6.78125 
Q 34.234375 0 25.640625 0 
Q 14.9375 0 9.078125 7.71875 
Q 3.21875 15.4375 3.21875 26.21875 
Q 3.21875 33.640625 5.90625 39.90625 
Q 8.59375 46.1875 13.6875 49.609375 
Q 18.796875 53.03125 25.6875 53.03125 
Q 34.859375 53.03125 40.828125 45.609375 
L 40.828125 51.859375 
L 48.921875 51.859375 
L 48.921875 7.03125 
Q 48.921875 -5.078125 46.453125 -10.125 
Q 44 -15.1875 38.640625 -18.109375 
Q 33.296875 -21.046875 25.484375 -21.046875 
Q 16.21875 -21.046875 10.5 -16.875 
Q 4.78125 -12.703125 4.984375 -4.296875 
z
M 12.25 26.859375 
Q 12.25 16.65625 16.296875 11.96875 
Q 20.359375 7.28125 26.46875 7.28125 
Q 32.515625 7.28125 36.609375 11.9375 
Q 40.71875 16.609375 40.71875 26.5625 
Q 40.71875 36.078125 36.5 40.90625 
Q 32.28125 45.75 26.3125 45.75 
Q 20.453125 45.75 16.34375 40.984375 
Q 12.25 36.234375 12.25 26.859375 
z
" id="ArialMT-67"/>
      <path d="M 25.78125 7.859375 
L 27.046875 0.09375 
Q 23.34375 -0.6875 20.40625 -0.6875 
Q 15.625 -0.6875 12.984375 0.828125 
Q 10.359375 2.34375 9.28125 4.8125 
Q 8.203125 7.28125 8.203125 15.1875 
L 8.203125 45.015625 
L 1.765625 45.015625 
L 1.765625 51.859375 
L 8.203125 51.859375 
L 8.203125 64.703125 
L 16.9375 69.96875 
L 16.9375 51.859375 
L 25.78125 51.859375 
L 25.78125 45.015625 
L 16.9375 45.015625 
L 16.9375 14.703125 
Q 16.9375 10.9375 17.40625 9.859375 
Q 17.875 8.796875 18.921875 8.15625 
Q 19.96875 7.515625 21.921875 7.515625 
Q 23.390625 7.515625 25.78125 7.859375 
z
" id="ArialMT-74"/>
      <path d="M 6.59375 0 
L 6.59375 71.578125 
L 15.375 71.578125 
L 15.375 45.90625 
Q 21.53125 53.03125 30.90625 53.03125 
Q 36.671875 53.03125 40.921875 50.75 
Q 45.171875 48.484375 47 44.484375 
Q 48.828125 40.484375 48.828125 32.859375 
L 48.828125 0 
L 40.046875 0 
L 40.046875 32.859375 
Q 40.046875 39.453125 37.1875 42.453125 
Q 34.328125 45.453125 29.109375 45.453125 
Q 25.203125 45.453125 21.75 43.421875 
Q 18.3125 41.40625 16.84375 37.9375 
Q 15.375 34.46875 15.375 28.375 
L 15.375 0 
z
" id="ArialMT-68"/>
     </defs>
     <g style="fill:#262626;" transform="translate(284.049482 699.252031)scale(0.11 -0.11)">
      <use xlink:href="#ArialMT-73"/>
      <use x="50" xlink:href="#ArialMT-65"/>
      <use x="105.615234" xlink:href="#ArialMT-70"/>
      <use x="161.230469" xlink:href="#ArialMT-61"/>
      <use x="216.845703" xlink:href="#ArialMT-6c"/>
      <use x="239.0625" xlink:href="#ArialMT-5f"/>
      <use x="294.677734" xlink:href="#ArialMT-6c"/>
      <use x="316.894531" xlink:href="#ArialMT-65"/>
      <use x="372.509766" xlink:href="#ArialMT-6e"/>
      <use x="428.125" xlink:href="#ArialMT-67"/>
      <use x="483.740234" xlink:href="#ArialMT-74"/>
      <use x="511.523438" xlink:href="#ArialMT-68"/>
     </g>
    </g>
   </g>
   <g id="matplotlib.axis_2">
    <g id="ytick_1">
     <g id="line2d_13">
      <path clip-path="url(#pfd4c766bb1)" d="M 42.159844 649.440501 
L 588.319433 649.440501 
" style="fill:none;stroke:#cccccc;stroke-linecap:round;"/>
     </g>
     <g id="line2d_14"/>
     <g id="text_8">
      <!-- 1.5 -->
      <defs>
       <path d="M 37.25 0 
L 28.46875 0 
L 28.46875 56 
Q 25.296875 52.984375 20.140625 49.953125 
Q 14.984375 46.921875 10.890625 45.40625 
L 10.890625 53.90625 
Q 18.265625 57.375 23.78125 62.296875 
Q 29.296875 67.234375 31.59375 71.875 
L 37.25 71.875 
z
" id="ArialMT-31"/>
       <path d="M 9.078125 0 
L 9.078125 10.015625 
L 19.09375 10.015625 
L 19.09375 0 
z
" id="ArialMT-2e"/>
      </defs>
      <g style="fill:#262626;" transform="translate(21.259844 653.019408)scale(0.1 -0.1)">
       <use xlink:href="#ArialMT-31"/>
       <use x="55.615234" xlink:href="#ArialMT-2e"/>
       <use x="83.398438" xlink:href="#ArialMT-35"/>
      </g>
     </g>
    </g>
    <g id="ytick_2">
     <g id="line2d_15">
      <path clip-path="url(#pfd4c766bb1)" d="M 42.159844 574.938497 
L 588.319433 574.938497 
" style="fill:none;stroke:#cccccc;stroke-linecap:round;"/>
     </g>
     <g id="line2d_16"/>
     <g id="text_9">
      <!-- 2.0 -->
      <defs>
       <path d="M 50.34375 8.453125 
L 50.34375 0 
L 3.03125 0 
Q 2.9375 3.171875 4.046875 6.109375 
Q 5.859375 10.9375 9.828125 15.625 
Q 13.8125 20.3125 21.34375 26.46875 
Q 33.015625 36.03125 37.109375 41.625 
Q 41.21875 47.21875 41.21875 52.203125 
Q 41.21875 57.421875 37.46875 61 
Q 33.734375 64.59375 27.734375 64.59375 
Q 21.390625 64.59375 17.578125 60.78125 
Q 13.765625 56.984375 13.71875 50.25 
L 4.6875 51.171875 
Q 5.609375 61.28125 11.65625 66.578125 
Q 17.71875 71.875 27.9375 71.875 
Q 38.234375 71.875 44.234375 66.15625 
Q 50.25 60.453125 50.25 52 
Q 50.25 47.703125 48.484375 43.546875 
Q 46.734375 39.40625 42.65625 34.8125 
Q 38.578125 30.21875 29.109375 22.21875 
Q 21.1875 15.578125 18.9375 13.203125 
Q 16.703125 10.84375 15.234375 8.453125 
z
" id="ArialMT-32"/>
       <path d="M 4.15625 35.296875 
Q 4.15625 48 6.765625 55.734375 
Q 9.375 63.484375 14.515625 67.671875 
Q 19.671875 71.875 27.484375 71.875 
Q 33.25 71.875 37.59375 69.546875 
Q 41.9375 67.234375 44.765625 62.859375 
Q 47.609375 58.5 49.21875 52.21875 
Q 50.828125 45.953125 50.828125 35.296875 
Q 50.828125 22.703125 48.234375 14.96875 
Q 45.65625 7.234375 40.5 3 
Q 35.359375 -1.21875 27.484375 -1.21875 
Q 17.140625 -1.21875 11.234375 6.203125 
Q 4.15625 15.140625 4.15625 35.296875 
z
M 13.1875 35.296875 
Q 13.1875 17.671875 17.3125 11.828125 
Q 21.4375 6 27.484375 6 
Q 33.546875 6 37.671875 11.859375 
Q 41.796875 17.71875 41.796875 35.296875 
Q 41.796875 52.984375 37.671875 58.78125 
Q 33.546875 64.59375 27.390625 64.59375 
Q 21.34375 64.59375 17.71875 59.46875 
Q 13.1875 52.9375 13.1875 35.296875 
z
" id="ArialMT-30"/>
      </defs>
      <g style="fill:#262626;" transform="translate(21.259844 578.517404)scale(0.1 -0.1)">
       <use xlink:href="#ArialMT-32"/>
       <use x="55.615234" xlink:href="#ArialMT-2e"/>
       <use x="83.398438" xlink:href="#ArialMT-30"/>
      </g>
     </g>
    </g>
    <g id="ytick_3">
     <g id="line2d_17">
      <path clip-path="url(#pfd4c766bb1)" d="M 42.159844 500.436493 
L 588.319433 500.436493 
" style="fill:none;stroke:#cccccc;stroke-linecap:round;"/>
     </g>
     <g id="line2d_18"/>
     <g id="text_10">
      <!-- 2.5 -->
      <g style="fill:#262626;" transform="translate(21.259844 504.015399)scale(0.1 -0.1)">
       <use xlink:href="#ArialMT-32"/>
       <use x="55.615234" xlink:href="#ArialMT-2e"/>
       <use x="83.398438" xlink:href="#ArialMT-35"/>
      </g>
     </g>
    </g>
    <g id="ytick_4">
     <g id="line2d_19">
      <path clip-path="url(#pfd4c766bb1)" d="M 42.159844 425.934489 
L 588.319433 425.934489 
" style="fill:none;stroke:#cccccc;stroke-linecap:round;"/>
     </g>
     <g id="line2d_20"/>
     <g id="text_11">
      <!-- 3.0 -->
      <defs>
       <path d="M 4.203125 18.890625 
L 12.984375 20.0625 
Q 14.5 12.59375 18.140625 9.296875 
Q 21.78125 6 27 6 
Q 33.203125 6 37.46875 10.296875 
Q 41.75 14.59375 41.75 20.953125 
Q 41.75 27 37.796875 30.921875 
Q 33.84375 34.859375 27.734375 34.859375 
Q 25.25 34.859375 21.53125 33.890625 
L 22.515625 41.609375 
Q 23.390625 41.5 23.921875 41.5 
Q 29.546875 41.5 34.03125 44.421875 
Q 38.53125 47.359375 38.53125 53.46875 
Q 38.53125 58.296875 35.25 61.46875 
Q 31.984375 64.65625 26.8125 64.65625 
Q 21.6875 64.65625 18.265625 61.421875 
Q 14.84375 58.203125 13.875 51.765625 
L 5.078125 53.328125 
Q 6.6875 62.15625 12.390625 67.015625 
Q 18.109375 71.875 26.609375 71.875 
Q 32.46875 71.875 37.390625 69.359375 
Q 42.328125 66.84375 44.9375 62.5 
Q 47.5625 58.15625 47.5625 53.265625 
Q 47.5625 48.640625 45.0625 44.828125 
Q 42.578125 41.015625 37.703125 38.765625 
Q 44.046875 37.3125 47.5625 32.6875 
Q 51.078125 28.078125 51.078125 21.140625 
Q 51.078125 11.765625 44.234375 5.25 
Q 37.40625 -1.265625 26.953125 -1.265625 
Q 17.53125 -1.265625 11.296875 4.34375 
Q 5.078125 9.96875 4.203125 18.890625 
z
" id="ArialMT-33"/>
      </defs>
      <g style="fill:#262626;" transform="translate(21.259844 429.513395)scale(0.1 -0.1)">
       <use xlink:href="#ArialMT-33"/>
       <use x="55.615234" xlink:href="#ArialMT-2e"/>
       <use x="83.398438" xlink:href="#ArialMT-30"/>
      </g>
     </g>
    </g>
    <g id="ytick_5">
     <g id="line2d_21">
      <path clip-path="url(#pfd4c766bb1)" d="M 42.159844 351.432485 
L 588.319433 351.432485 
" style="fill:none;stroke:#cccccc;stroke-linecap:round;"/>
     </g>
     <g id="line2d_22"/>
     <g id="text_12">
      <!-- 3.5 -->
      <g style="fill:#262626;" transform="translate(21.259844 355.011391)scale(0.1 -0.1)">
       <use xlink:href="#ArialMT-33"/>
       <use x="55.615234" xlink:href="#ArialMT-2e"/>
       <use x="83.398438" xlink:href="#ArialMT-35"/>
      </g>
     </g>
    </g>
    <g id="ytick_6">
     <g id="line2d_23">
      <path clip-path="url(#pfd4c766bb1)" d="M 42.159844 276.930481 
L 588.319433 276.930481 
" style="fill:none;stroke:#cccccc;stroke-linecap:round;"/>
     </g>
     <g id="line2d_24"/>
     <g id="text_13">
      <!-- 4.0 -->
      <g style="fill:#262626;" transform="translate(21.259844 280.509387)scale(0.1 -0.1)">
       <use xlink:href="#ArialMT-34"/>
       <use x="55.615234" xlink:href="#ArialMT-2e"/>
       <use x="83.398438" xlink:href="#ArialMT-30"/>
      </g>
     </g>
    </g>
    <g id="ytick_7">
     <g id="line2d_25">
      <path clip-path="url(#pfd4c766bb1)" d="M 42.159844 202.428477 
L 588.319433 202.428477 
" style="fill:none;stroke:#cccccc;stroke-linecap:round;"/>
     </g>
     <g id="line2d_26"/>
     <g id="text_14">
      <!-- 4.5 -->
      <g style="fill:#262626;" transform="translate(21.259844 206.007383)scale(0.1 -0.1)">
       <use xlink:href="#ArialMT-34"/>
       <use x="55.615234" xlink:href="#ArialMT-2e"/>
       <use x="83.398438" xlink:href="#ArialMT-35"/>
      </g>
     </g>
    </g>
    <g id="ytick_8">
     <g id="line2d_27">
      <path clip-path="url(#pfd4c766bb1)" d="M 42.159844 127.926473 
L 588.319433 127.926473 
" style="fill:none;stroke:#cccccc;stroke-linecap:round;"/>
     </g>
     <g id="line2d_28"/>
     <g id="text_15">
      <!-- 5.0 -->
      <g style="fill:#262626;" transform="translate(21.259844 131.505379)scale(0.1 -0.1)">
       <use xlink:href="#ArialMT-35"/>
       <use x="55.615234" xlink:href="#ArialMT-2e"/>
       <use x="83.398438" xlink:href="#ArialMT-30"/>
      </g>
     </g>
    </g>
    <g id="text_16">
     <!-- sepal_width -->
     <defs>
      <path d="M 16.15625 0 
L 0.296875 51.859375 
L 9.375 51.859375 
L 17.625 21.921875 
L 20.703125 10.796875 
Q 20.90625 11.625 23.390625 21.484375 
L 31.640625 51.859375 
L 40.671875 51.859375 
L 48.4375 21.78125 
L 51.03125 11.859375 
L 54 21.875 
L 62.890625 51.859375 
L 71.4375 51.859375 
L 55.21875 0 
L 46.09375 0 
L 37.84375 31.0625 
L 35.84375 39.890625 
L 25.34375 0 
z
" id="ArialMT-77"/>
      <path d="M 6.640625 61.46875 
L 6.640625 71.578125 
L 15.4375 71.578125 
L 15.4375 61.46875 
z
M 6.640625 0 
L 6.640625 51.859375 
L 15.4375 51.859375 
L 15.4375 0 
z
" id="ArialMT-69"/>
      <path d="M 40.234375 0 
L 40.234375 6.546875 
Q 35.296875 -1.171875 25.734375 -1.171875 
Q 19.53125 -1.171875 14.328125 2.25 
Q 9.125 5.671875 6.265625 11.796875 
Q 3.421875 17.921875 3.421875 25.875 
Q 3.421875 33.640625 6 39.96875 
Q 8.59375 46.296875 13.765625 49.65625 
Q 18.953125 53.03125 25.34375 53.03125 
Q 30.03125 53.03125 33.6875 51.046875 
Q 37.359375 49.078125 39.65625 45.90625 
L 39.65625 71.578125 
L 48.390625 71.578125 
L 48.390625 0 
z
M 12.453125 25.875 
Q 12.453125 15.921875 16.640625 10.984375 
Q 20.84375 6.0625 26.5625 6.0625 
Q 32.328125 6.0625 36.34375 10.765625 
Q 40.375 15.484375 40.375 25.140625 
Q 40.375 35.796875 36.265625 40.765625 
Q 32.171875 45.75 26.171875 45.75 
Q 20.3125 45.75 16.375 40.96875 
Q 12.453125 36.1875 12.453125 25.875 
z
" id="ArialMT-64"/>
     </defs>
     <g style="fill:#262626;" transform="translate(15.073594 425.178844)rotate(-90)scale(0.11 -0.11)">
      <use xlink:href="#ArialMT-73"/>
      <use x="50" xlink:href="#ArialMT-65"/>
      <use x="105.615234" xlink:href="#ArialMT-70"/>
      <use x="161.230469" xlink:href="#ArialMT-61"/>
      <use x="216.845703" xlink:href="#ArialMT-6c"/>
      <use x="239.0625" xlink:href="#ArialMT-5f"/>
      <use x="294.677734" xlink:href="#ArialMT-77"/>
      <use x="366.894531" xlink:href="#ArialMT-69"/>
      <use x="389.111328" xlink:href="#ArialMT-64"/>
      <use x="444.726562" xlink:href="#ArialMT-74"/>
      <use x="472.509766" xlink:href="#ArialMT-68"/>
     </g>
    </g>
   </g>
   <g id="PathCollection_1">
    <defs>
     <path d="M 0 3.5 
C 0.928211 3.5 1.81853 3.131218 2.474874 2.474874 
C 3.131218 1.81853 3.5 0.928211 3.5 0 
C 3.5 -0.928211 3.131218 -1.81853 2.474874 -2.474874 
C 1.81853 -3.131218 0.928211 -3.5 0 -3.5 
C -0.928211 -3.5 -1.81853 -3.131218 -2.474874 -2.474874 
C -3.131218 -1.81853 -3.5 -0.928211 -3.5 0 
C -3.5 0.928211 -3.131218 1.81853 -2.474874 2.474874 
C -1.81853 3.131218 -0.928211 3.5 0 3.5 
z
" id="m180268de1e"/>
    </defs>
    <g clip-path="url(#pfd4c766bb1)">
     <use style="fill:#ff00ff;fill-opacity:0.8;" x="223.595625" xlink:href="#m180268de1e" y="351.432485"/>
     <use style="fill:#ff00ff;fill-opacity:0.8;" x="205.266822" xlink:href="#m180268de1e" y="425.934489"/>
     <use style="fill:#ff00ff;fill-opacity:0.8;" x="186.938019" xlink:href="#m180268de1e" y="396.133687"/>
     <use style="fill:#ff00ff;fill-opacity:0.8;" x="177.773618" xlink:href="#m180268de1e" y="411.034088"/>
     <use style="fill:#ff00ff;fill-opacity:0.8;" x="214.431223" xlink:href="#m180268de1e" y="336.532084"/>
     <use style="fill:#ff00ff;fill-opacity:0.8;" x="251.088829" xlink:href="#m180268de1e" y="291.830882"/>
     <use style="fill:#ff00ff;fill-opacity:0.8;" x="177.773618" xlink:href="#m180268de1e" y="366.332886"/>
     <use style="fill:#ff00ff;fill-opacity:0.8;" x="214.431223" xlink:href="#m180268de1e" y="366.332886"/>
     <use style="fill:#ff00ff;fill-opacity:0.8;" x="159.444815" xlink:href="#m180268de1e" y="440.83489"/>
     <use style="fill:#ff00ff;fill-opacity:0.8;" x="205.266822" xlink:href="#m180268de1e" y="411.034088"/>
     <use style="fill:#ff00ff;fill-opacity:0.8;" x="251.088829" xlink:href="#m180268de1e" y="321.631683"/>
     <use style="fill:#ff00ff;fill-opacity:0.8;" x="196.10242" xlink:href="#m180268de1e" y="366.332886"/>
     <use style="fill:#ff00ff;fill-opacity:0.8;" x="196.10242" xlink:href="#m180268de1e" y="425.934489"/>
     <use style="fill:#ff00ff;fill-opacity:0.8;" x="150.280413" xlink:href="#m180268de1e" y="425.934489"/>
     <use style="fill:#ff00ff;fill-opacity:0.8;" x="287.746434" xlink:href="#m180268de1e" y="276.930481"/>
     <use style="fill:#ff00ff;fill-opacity:0.8;" x="278.582033" xlink:href="#m180268de1e" y="217.328878"/>
     <use style="fill:#ff00ff;fill-opacity:0.8;" x="251.088829" xlink:href="#m180268de1e" y="291.830882"/>
     <use style="fill:#ff00ff;fill-opacity:0.8;" x="223.595625" xlink:href="#m180268de1e" y="351.432485"/>
     <use style="fill:#ff00ff;fill-opacity:0.8;" x="278.582033" xlink:href="#m180268de1e" y="306.731283"/>
     <use style="fill:#ff00ff;fill-opacity:0.8;" x="223.595625" xlink:href="#m180268de1e" y="306.731283"/>
     <use style="fill:#ff00ff;fill-opacity:0.8;" x="251.088829" xlink:href="#m180268de1e" y="366.332886"/>
     <use style="fill:#ff00ff;fill-opacity:0.8;" x="223.595625" xlink:href="#m180268de1e" y="321.631683"/>
     <use style="fill:#ff00ff;fill-opacity:0.8;" x="177.773618" xlink:href="#m180268de1e" y="336.532084"/>
     <use style="fill:#ff00ff;fill-opacity:0.8;" x="223.595625" xlink:href="#m180268de1e" y="381.233287"/>
     <use style="fill:#ff00ff;fill-opacity:0.8;" x="196.10242" xlink:href="#m180268de1e" y="366.332886"/>
     <use style="fill:#ff00ff;fill-opacity:0.8;" x="214.431223" xlink:href="#m180268de1e" y="425.934489"/>
     <use style="fill:#ff00ff;fill-opacity:0.8;" x="214.431223" xlink:href="#m180268de1e" y="366.332886"/>
     <use style="fill:#ff00ff;fill-opacity:0.8;" x="232.760026" xlink:href="#m180268de1e" y="351.432485"/>
     <use style="fill:#ff00ff;fill-opacity:0.8;" x="232.760026" xlink:href="#m180268de1e" y="366.332886"/>
     <use style="fill:#ff00ff;fill-opacity:0.8;" x="186.938019" xlink:href="#m180268de1e" y="396.133687"/>
     <use style="fill:#ff00ff;fill-opacity:0.8;" x="196.10242" xlink:href="#m180268de1e" y="411.034088"/>
     <use style="fill:#ff00ff;fill-opacity:0.8;" x="251.088829" xlink:href="#m180268de1e" y="366.332886"/>
     <use style="fill:#ff00ff;fill-opacity:0.8;" x="232.760026" xlink:href="#m180268de1e" y="262.03008"/>
     <use style="fill:#ff00ff;fill-opacity:0.8;" x="260.25323" xlink:href="#m180268de1e" y="247.129679"/>
     <use style="fill:#ff00ff;fill-opacity:0.8;" x="205.266822" xlink:href="#m180268de1e" y="411.034088"/>
     <use style="fill:#ff00ff;fill-opacity:0.8;" x="214.431223" xlink:href="#m180268de1e" y="396.133687"/>
     <use style="fill:#ff00ff;fill-opacity:0.8;" x="260.25323" xlink:href="#m180268de1e" y="351.432485"/>
     <use style="fill:#ff00ff;fill-opacity:0.8;" x="205.266822" xlink:href="#m180268de1e" y="336.532084"/>
     <use style="fill:#ff00ff;fill-opacity:0.8;" x="159.444815" xlink:href="#m180268de1e" y="425.934489"/>
     <use style="fill:#ff00ff;fill-opacity:0.8;" x="223.595625" xlink:href="#m180268de1e" y="366.332886"/>
     <use style="fill:#ff00ff;fill-opacity:0.8;" x="214.431223" xlink:href="#m180268de1e" y="351.432485"/>
     <use style="fill:#ff00ff;fill-opacity:0.8;" x="168.609216" xlink:href="#m180268de1e" y="530.237295"/>
     <use style="fill:#ff00ff;fill-opacity:0.8;" x="159.444815" xlink:href="#m180268de1e" y="396.133687"/>
     <use style="fill:#ff00ff;fill-opacity:0.8;" x="214.431223" xlink:href="#m180268de1e" y="351.432485"/>
     <use style="fill:#ff00ff;fill-opacity:0.8;" x="223.595625" xlink:href="#m180268de1e" y="306.731283"/>
     <use style="fill:#ff00ff;fill-opacity:0.8;" x="196.10242" xlink:href="#m180268de1e" y="425.934489"/>
     <use style="fill:#ff00ff;fill-opacity:0.8;" x="223.595625" xlink:href="#m180268de1e" y="306.731283"/>
     <use style="fill:#ff00ff;fill-opacity:0.8;" x="177.773618" xlink:href="#m180268de1e" y="396.133687"/>
     <use style="fill:#ff00ff;fill-opacity:0.8;" x="241.924427" xlink:href="#m180268de1e" y="321.631683"/>
     <use style="fill:#ff00ff;fill-opacity:0.8;" x="214.431223" xlink:href="#m180268de1e" y="381.233287"/>
     <use style="fill:#ff00ff;fill-opacity:0.8;" x="397.719251" xlink:href="#m180268de1e" y="396.133687"/>
     <use style="fill:#ff00ff;fill-opacity:0.8;" x="342.732843" xlink:href="#m180268de1e" y="396.133687"/>
     <use style="fill:#ff00ff;fill-opacity:0.8;" x="388.554849" xlink:href="#m180268de1e" y="411.034088"/>
     <use style="fill:#ff00ff;fill-opacity:0.8;" x="260.25323" xlink:href="#m180268de1e" y="530.237295"/>
     <use style="fill:#ff00ff;fill-opacity:0.8;" x="351.897244" xlink:href="#m180268de1e" y="455.735291"/>
     <use style="fill:#ff00ff;fill-opacity:0.8;" x="278.582033" xlink:href="#m180268de1e" y="455.735291"/>
     <use style="fill:#ff00ff;fill-opacity:0.8;" x="333.568441" xlink:href="#m180268de1e" y="381.233287"/>
     <use style="fill:#ff00ff;fill-opacity:0.8;" x="205.266822" xlink:href="#m180268de1e" y="515.336894"/>
     <use style="fill:#ff00ff;fill-opacity:0.8;" x="361.061645" xlink:href="#m180268de1e" y="440.83489"/>
     <use style="fill:#ff00ff;fill-opacity:0.8;" x="232.760026" xlink:href="#m180268de1e" y="470.635692"/>
     <use style="fill:#ff00ff;fill-opacity:0.8;" x="214.431223" xlink:href="#m180268de1e" y="574.938497"/>
     <use style="fill:#ff00ff;fill-opacity:0.8;" x="296.910836" xlink:href="#m180268de1e" y="425.934489"/>
     <use style="fill:#ff00ff;fill-opacity:0.8;" x="306.075237" xlink:href="#m180268de1e" y="545.137696"/>
     <use style="fill:#ff00ff;fill-opacity:0.8;" x="315.239638" xlink:href="#m180268de1e" y="440.83489"/>
     <use style="fill:#ff00ff;fill-opacity:0.8;" x="269.417631" xlink:href="#m180268de1e" y="440.83489"/>
     <use style="fill:#ff00ff;fill-opacity:0.8;" x="370.226047" xlink:href="#m180268de1e" y="411.034088"/>
     <use style="fill:#ff00ff;fill-opacity:0.8;" x="269.417631" xlink:href="#m180268de1e" y="425.934489"/>
     <use style="fill:#ff00ff;fill-opacity:0.8;" x="287.746434" xlink:href="#m180268de1e" y="470.635692"/>
     <use style="fill:#ff00ff;fill-opacity:0.8;" x="324.40404" xlink:href="#m180268de1e" y="545.137696"/>
     <use style="fill:#ff00ff;fill-opacity:0.8;" x="269.417631" xlink:href="#m180268de1e" y="500.436493"/>
     <use style="fill:#ff00ff;fill-opacity:0.8;" x="296.910836" xlink:href="#m180268de1e" y="396.133687"/>
     <use style="fill:#ff00ff;fill-opacity:0.8;" x="315.239638" xlink:href="#m180268de1e" y="455.735291"/>
     <use style="fill:#ff00ff;fill-opacity:0.8;" x="333.568441" xlink:href="#m180268de1e" y="500.436493"/>
     <use style="fill:#ff00ff;fill-opacity:0.8;" x="315.239638" xlink:href="#m180268de1e" y="455.735291"/>
     <use style="fill:#ff00ff;fill-opacity:0.8;" x="342.732843" xlink:href="#m180268de1e" y="440.83489"/>
     <use style="fill:#ff00ff;fill-opacity:0.8;" x="361.061645" xlink:href="#m180268de1e" y="425.934489"/>
     <use style="fill:#ff00ff;fill-opacity:0.8;" x="379.390448" xlink:href="#m180268de1e" y="455.735291"/>
     <use style="fill:#ff00ff;fill-opacity:0.8;" x="370.226047" xlink:href="#m180268de1e" y="425.934489"/>
     <use style="fill:#ff00ff;fill-opacity:0.8;" x="306.075237" xlink:href="#m180268de1e" y="440.83489"/>
     <use style="fill:#ff00ff;fill-opacity:0.8;" x="278.582033" xlink:href="#m180268de1e" y="485.536092"/>
     <use style="fill:#ff00ff;fill-opacity:0.8;" x="260.25323" xlink:href="#m180268de1e" y="515.336894"/>
     <use style="fill:#ff00ff;fill-opacity:0.8;" x="260.25323" xlink:href="#m180268de1e" y="515.336894"/>
     <use style="fill:#ff00ff;fill-opacity:0.8;" x="287.746434" xlink:href="#m180268de1e" y="470.635692"/>
     <use style="fill:#ff00ff;fill-opacity:0.8;" x="306.075237" xlink:href="#m180268de1e" y="470.635692"/>
     <use style="fill:#ff00ff;fill-opacity:0.8;" x="251.088829" xlink:href="#m180268de1e" y="425.934489"/>
     <use style="fill:#ff00ff;fill-opacity:0.8;" x="306.075237" xlink:href="#m180268de1e" y="366.332886"/>
     <use style="fill:#ff00ff;fill-opacity:0.8;" x="370.226047" xlink:href="#m180268de1e" y="411.034088"/>
     <use style="fill:#ff00ff;fill-opacity:0.8;" x="333.568441" xlink:href="#m180268de1e" y="530.237295"/>
     <use style="fill:#ff00ff;fill-opacity:0.8;" x="269.417631" xlink:href="#m180268de1e" y="425.934489"/>
     <use style="fill:#ff00ff;fill-opacity:0.8;" x="260.25323" xlink:href="#m180268de1e" y="500.436493"/>
     <use style="fill:#ff00ff;fill-opacity:0.8;" x="260.25323" xlink:href="#m180268de1e" y="485.536092"/>
     <use style="fill:#ff00ff;fill-opacity:0.8;" x="315.239638" xlink:href="#m180268de1e" y="425.934489"/>
     <use style="fill:#ff00ff;fill-opacity:0.8;" x="287.746434" xlink:href="#m180268de1e" y="485.536092"/>
     <use style="fill:#ff00ff;fill-opacity:0.8;" x="214.431223" xlink:href="#m180268de1e" y="530.237295"/>
     <use style="fill:#ff00ff;fill-opacity:0.8;" x="269.417631" xlink:href="#m180268de1e" y="470.635692"/>
     <use style="fill:#ff00ff;fill-opacity:0.8;" x="278.582033" xlink:href="#m180268de1e" y="425.934489"/>
     <use style="fill:#ff00ff;fill-opacity:0.8;" x="278.582033" xlink:href="#m180268de1e" y="440.83489"/>
     <use style="fill:#ff00ff;fill-opacity:0.8;" x="324.40404" xlink:href="#m180268de1e" y="440.83489"/>
     <use style="fill:#ff00ff;fill-opacity:0.8;" x="223.595625" xlink:href="#m180268de1e" y="500.436493"/>
     <use style="fill:#ff00ff;fill-opacity:0.8;" x="278.582033" xlink:href="#m180268de1e" y="455.735291"/>
     <use style="fill:#ff00ff;fill-opacity:0.8;" x="333.568441" xlink:href="#m180268de1e" y="381.233287"/>
     <use style="fill:#ff00ff;fill-opacity:0.8;" x="287.746434" xlink:href="#m180268de1e" y="470.635692"/>
     <use style="fill:#ff00ff;fill-opacity:0.8;" x="406.883652" xlink:href="#m180268de1e" y="425.934489"/>
     <use style="fill:#ff00ff;fill-opacity:0.8;" x="333.568441" xlink:href="#m180268de1e" y="440.83489"/>
     <use style="fill:#ff00ff;fill-opacity:0.8;" x="351.897244" xlink:href="#m180268de1e" y="425.934489"/>
     <use style="fill:#ff00ff;fill-opacity:0.8;" x="452.705659" xlink:href="#m180268de1e" y="425.934489"/>
     <use style="fill:#ff00ff;fill-opacity:0.8;" x="205.266822" xlink:href="#m180268de1e" y="500.436493"/>
     <use style="fill:#ff00ff;fill-opacity:0.8;" x="425.212455" xlink:href="#m180268de1e" y="440.83489"/>
     <use style="fill:#ff00ff;fill-opacity:0.8;" x="370.226047" xlink:href="#m180268de1e" y="500.436493"/>
     <use style="fill:#ff00ff;fill-opacity:0.8;" x="416.048054" xlink:href="#m180268de1e" y="336.532084"/>
     <use style="fill:#ff00ff;fill-opacity:0.8;" x="351.897244" xlink:href="#m180268de1e" y="396.133687"/>
     <use style="fill:#ff00ff;fill-opacity:0.8;" x="342.732843" xlink:href="#m180268de1e" y="470.635692"/>
     <use style="fill:#ff00ff;fill-opacity:0.8;" x="379.390448" xlink:href="#m180268de1e" y="425.934489"/>
     <use style="fill:#ff00ff;fill-opacity:0.8;" x="278.582033" xlink:href="#m180268de1e" y="500.436493"/>
     <use style="fill:#ff00ff;fill-opacity:0.8;" x="287.746434" xlink:href="#m180268de1e" y="455.735291"/>
     <use style="fill:#ff00ff;fill-opacity:0.8;" x="342.732843" xlink:href="#m180268de1e" y="396.133687"/>
     <use style="fill:#ff00ff;fill-opacity:0.8;" x="351.897244" xlink:href="#m180268de1e" y="425.934489"/>
     <use style="fill:#ff00ff;fill-opacity:0.8;" x="461.870061" xlink:href="#m180268de1e" y="306.731283"/>
     <use style="fill:#ff00ff;fill-opacity:0.8;" x="461.870061" xlink:href="#m180268de1e" y="485.536092"/>
     <use style="fill:#ff00ff;fill-opacity:0.8;" x="306.075237" xlink:href="#m180268de1e" y="545.137696"/>
     <use style="fill:#ff00ff;fill-opacity:0.8;" x="388.554849" xlink:href="#m180268de1e" y="396.133687"/>
     <use style="fill:#ff00ff;fill-opacity:0.8;" x="269.417631" xlink:href="#m180268de1e" y="455.735291"/>
     <use style="fill:#ff00ff;fill-opacity:0.8;" x="461.870061" xlink:href="#m180268de1e" y="455.735291"/>
     <use style="fill:#ff00ff;fill-opacity:0.8;" x="333.568441" xlink:href="#m180268de1e" y="470.635692"/>
     <use style="fill:#ff00ff;fill-opacity:0.8;" x="370.226047" xlink:href="#m180268de1e" y="381.233287"/>
     <use style="fill:#ff00ff;fill-opacity:0.8;" x="416.048054" xlink:href="#m180268de1e" y="396.133687"/>
     <use style="fill:#ff00ff;fill-opacity:0.8;" x="324.40404" xlink:href="#m180268de1e" y="455.735291"/>
     <use style="fill:#ff00ff;fill-opacity:0.8;" x="315.239638" xlink:href="#m180268de1e" y="425.934489"/>
     <use style="fill:#ff00ff;fill-opacity:0.8;" x="342.732843" xlink:href="#m180268de1e" y="455.735291"/>
     <use style="fill:#ff00ff;fill-opacity:0.8;" x="416.048054" xlink:href="#m180268de1e" y="425.934489"/>
     <use style="fill:#ff00ff;fill-opacity:0.8;" x="434.376856" xlink:href="#m180268de1e" y="455.735291"/>
     <use style="fill:#ff00ff;fill-opacity:0.8;" x="480.198863" xlink:href="#m180268de1e" y="306.731283"/>
     <use style="fill:#ff00ff;fill-opacity:0.8;" x="342.732843" xlink:href="#m180268de1e" y="455.735291"/>
     <use style="fill:#ff00ff;fill-opacity:0.8;" x="333.568441" xlink:href="#m180268de1e" y="455.735291"/>
     <use style="fill:#ff00ff;fill-opacity:0.8;" x="315.239638" xlink:href="#m180268de1e" y="485.536092"/>
     <use style="fill:#ff00ff;fill-opacity:0.8;" x="461.870061" xlink:href="#m180268de1e" y="425.934489"/>
     <use style="fill:#ff00ff;fill-opacity:0.8;" x="333.568441" xlink:href="#m180268de1e" y="366.332886"/>
     <use style="fill:#ff00ff;fill-opacity:0.8;" x="342.732843" xlink:href="#m180268de1e" y="411.034088"/>
     <use style="fill:#ff00ff;fill-opacity:0.8;" x="306.075237" xlink:href="#m180268de1e" y="425.934489"/>
     <use style="fill:#ff00ff;fill-opacity:0.8;" x="388.554849" xlink:href="#m180268de1e" y="411.034088"/>
     <use style="fill:#ff00ff;fill-opacity:0.8;" x="370.226047" xlink:href="#m180268de1e" y="411.034088"/>
     <use style="fill:#ff00ff;fill-opacity:0.8;" x="388.554849" xlink:href="#m180268de1e" y="411.034088"/>
     <use style="fill:#ff00ff;fill-opacity:0.8;" x="287.746434" xlink:href="#m180268de1e" y="470.635692"/>
     <use style="fill:#ff00ff;fill-opacity:0.8;" x="379.390448" xlink:href="#m180268de1e" y="396.133687"/>
     <use style="fill:#ff00ff;fill-opacity:0.8;" x="370.226047" xlink:href="#m180268de1e" y="381.233287"/>
     <use style="fill:#ff00ff;fill-opacity:0.8;" x="370.226047" xlink:href="#m180268de1e" y="425.934489"/>
     <use style="fill:#ff00ff;fill-opacity:0.8;" x="333.568441" xlink:href="#m180268de1e" y="500.436493"/>
     <use style="fill:#ff00ff;fill-opacity:0.8;" x="351.897244" xlink:href="#m180268de1e" y="425.934489"/>
     <use style="fill:#ff00ff;fill-opacity:0.8;" x="324.40404" xlink:href="#m180268de1e" y="366.332886"/>
     <use style="fill:#ff00ff;fill-opacity:0.8;" x="296.910836" xlink:href="#m180268de1e" y="425.934489"/>
    </g>
   </g>
   <g id="PolyCollection_1">
    <path clip-path="url(#pfd4c766bb1)" d="M 42.159844 355.511594 
L 42.159844 426.146531 
L 47.676607 425.993369 
L 53.193371 425.840207 
L 58.710134 425.687046 
L 64.226898 425.533884 
L 69.743661 425.380723 
L 75.260425 425.286177 
L 80.777188 425.131329 
L 86.293952 424.97648 
L 91.810716 424.881541 
L 97.327479 424.940807 
L 102.844243 424.997597 
L 108.361006 424.971003 
L 113.87777 425.03036 
L 119.394533 425.088462 
L 124.911297 425.105987 
L 130.42806 425.167435 
L 135.944824 425.051408 
L 141.461587 424.935227 
L 146.978351 424.819046 
L 152.495114 424.821068 
L 158.011878 424.750108 
L 163.528641 424.663324 
L 169.045405 424.807963 
L 174.562168 424.944003 
L 180.078932 425.10081 
L 185.595695 425.248746 
L 191.112459 425.237479 
L 196.629223 425.194042 
L 202.145986 425.14368 
L 207.66275 425.144504 
L 213.179513 425.051808 
L 218.696277 424.926409 
L 224.21304 424.939502 
L 229.729804 424.890117 
L 235.246567 424.898772 
L 240.763331 424.800141 
L 246.280094 424.97386 
L 251.796858 425.081199 
L 257.313621 424.974963 
L 262.830385 425.461711 
L 268.347148 425.78167 
L 273.863912 426.114903 
L 279.380675 426.477077 
L 284.897439 426.910088 
L 290.414203 427.138941 
L 295.930966 427.665972 
L 301.44773 428.29367 
L 306.964493 428.625388 
L 312.481257 429.300168 
L 317.99802 429.711675 
L 323.514784 430.494215 
L 329.031547 431.303415 
L 334.548311 432.07497 
L 340.065074 432.915019 
L 345.581838 433.703568 
L 351.098601 434.62592 
L 356.615365 435.503196 
L 362.132128 436.278145 
L 367.648892 437.303651 
L 373.165655 438.47346 
L 378.682419 439.522151 
L 384.199182 440.749795 
L 389.715946 441.633142 
L 395.23271 442.717065 
L 400.749473 443.937562 
L 406.266237 445.067669 
L 411.783 446.382732 
L 417.299764 447.605741 
L 422.816527 448.797173 
L 428.333291 450.046993 
L 433.850054 451.272249 
L 439.366818 452.494418 
L 444.883581 453.782222 
L 450.400345 455.093885 
L 455.917108 456.314928 
L 461.433872 457.659445 
L 466.950635 458.919658 
L 472.467399 460.145622 
L 477.984162 461.384333 
L 483.500926 462.620917 
L 489.01769 463.862694 
L 494.534453 465.10447 
L 500.051217 466.363824 
L 505.56798 467.655599 
L 511.084744 468.825974 
L 516.601507 470.068003 
L 522.118271 471.310032 
L 527.635034 472.550895 
L 533.151798 473.867182 
L 538.668561 475.110279 
L 544.185325 476.274875 
L 549.702088 477.514395 
L 555.218852 478.753914 
L 560.735615 479.993433 
L 566.252379 481.232953 
L 571.769142 482.470953 
L 577.285906 483.646428 
L 582.80267 484.721152 
L 588.319433 486.089042 
L 588.319433 411.942445 
L 588.319433 411.942445 
L 582.80267 412.031212 
L 577.285906 412.119978 
L 571.769142 412.208745 
L 566.252379 412.156058 
L 560.735615 412.229608 
L 555.218852 412.445046 
L 549.702088 412.491932 
L 544.185325 412.296296 
L 538.668561 412.366901 
L 533.151798 412.516623 
L 527.635034 412.668311 
L 522.118271 412.821473 
L 516.601507 412.974635 
L 511.084744 413.127796 
L 505.56798 413.280958 
L 500.051217 413.379058 
L 494.534453 413.379553 
L 489.01769 413.35726 
L 483.500926 413.488835 
L 477.984162 413.514946 
L 472.467399 413.467925 
L 466.950635 413.517364 
L 461.433872 413.36964 
L 455.917108 413.386277 
L 450.400345 413.358647 
L 444.883581 413.471568 
L 439.366818 413.585226 
L 433.850054 413.470857 
L 428.333291 413.815705 
L 422.816527 413.819403 
L 417.299764 413.683878 
L 411.783 413.328136 
L 406.266237 413.164927 
L 400.749473 413.026794 
L 395.23271 412.8969 
L 389.715946 412.828859 
L 384.199182 412.67353 
L 378.682419 412.717091 
L 373.165655 412.788696 
L 367.648892 412.84677 
L 362.132128 412.525357 
L 356.615365 412.223326 
L 351.098601 411.648442 
L 345.581838 411.286847 
L 340.065074 410.847189 
L 334.548311 410.445086 
L 329.031547 410.032487 
L 323.514784 409.426838 
L 317.99802 408.851026 
L 312.481257 408.555232 
L 306.964493 408.08282 
L 301.44773 407.612287 
L 295.930966 406.808833 
L 290.414203 406.222505 
L 284.897439 405.501884 
L 279.380675 404.806562 
L 273.863912 404.008558 
L 268.347148 403.102126 
L 262.830385 402.25856 
L 257.313621 401.472163 
L 251.796858 400.435438 
L 246.280094 399.588317 
L 240.763331 398.48071 
L 235.246567 397.352496 
L 229.729804 396.271892 
L 224.21304 395.095013 
L 218.696277 393.970802 
L 213.179513 392.737914 
L 207.66275 391.697089 
L 202.145986 390.546657 
L 196.629223 389.03563 
L 191.112459 388.001797 
L 185.595695 386.924259 
L 180.078932 385.718337 
L 174.562168 384.457587 
L 169.045405 383.52673 
L 163.528641 382.363418 
L 158.011878 381.13029 
L 152.495114 379.944626 
L 146.978351 378.843484 
L 141.461587 377.639013 
L 135.944824 376.641199 
L 130.42806 375.348726 
L 124.911297 373.961509 
L 119.394533 372.707988 
L 113.87777 371.335053 
L 108.361006 370.002106 
L 102.844243 368.762068 
L 97.327479 367.522031 
L 91.810716 366.281994 
L 86.293952 365.046132 
L 80.777188 363.815225 
L 75.260425 362.648843 
L 69.743661 361.491907 
L 64.226898 360.22565 
L 58.710134 359.118872 
L 53.193371 358.012395 
L 47.676607 356.885054 
L 42.159844 355.511594 
z
" style="fill:#ff00ff;fill-opacity:0.15;"/>
   </g>
   <g id="line2d_29">
    <path clip-path="url(#pfd4c766bb1)" d="M 42.159844 392.281459 
L 47.676607 392.836547 
L 53.193371 393.391636 
L 58.710134 393.946724 
L 64.226898 394.501813 
L 69.743661 395.056901 
L 75.260425 395.611989 
L 80.777188 396.167078 
L 86.293952 396.722166 
L 91.810716 397.277255 
L 97.327479 397.832343 
L 102.844243 398.387432 
L 108.361006 398.94252 
L 113.87777 399.497609 
L 119.394533 400.052697 
L 124.911297 400.607786 
L 130.42806 401.162874 
L 135.944824 401.717963 
L 141.461587 402.273051 
L 146.978351 402.828139 
L 152.495114 403.383228 
L 158.011878 403.938316 
L 163.528641 404.493405 
L 169.045405 405.048493 
L 174.562168 405.603582 
L 180.078932 406.15867 
L 185.595695 406.713759 
L 191.112459 407.268847 
L 196.629223 407.823936 
L 202.145986 408.379024 
L 207.66275 408.934112 
L 213.179513 409.489201 
L 218.696277 410.044289 
L 224.21304 410.599378 
L 229.729804 411.154466 
L 235.246567 411.709555 
L 240.763331 412.264643 
L 246.280094 412.819732 
L 251.796858 413.37482 
L 257.313621 413.929909 
L 262.830385 414.484997 
L 268.347148 415.040085 
L 273.863912 415.595174 
L 279.380675 416.150262 
L 284.897439 416.705351 
L 290.414203 417.260439 
L 295.930966 417.815528 
L 301.44773 418.370616 
L 306.964493 418.925705 
L 312.481257 419.480793 
L 317.99802 420.035882 
L 323.514784 420.59097 
L 329.031547 421.146058 
L 334.548311 421.701147 
L 340.065074 422.256235 
L 345.581838 422.811324 
L 351.098601 423.366412 
L 356.615365 423.921501 
L 362.132128 424.476589 
L 367.648892 425.031678 
L 373.165655 425.586766 
L 378.682419 426.141855 
L 384.199182 426.696943 
L 389.715946 427.252031 
L 395.23271 427.80712 
L 400.749473 428.362208 
L 406.266237 428.917297 
L 411.783 429.472385 
L 417.299764 430.027474 
L 422.816527 430.582562 
L 428.333291 431.137651 
L 433.850054 431.692739 
L 439.366818 432.247828 
L 444.883581 432.802916 
L 450.400345 433.358004 
L 455.917108 433.913093 
L 461.433872 434.468181 
L 466.950635 435.02327 
L 472.467399 435.578358 
L 477.984162 436.133447 
L 483.500926 436.688535 
L 489.01769 437.243624 
L 494.534453 437.798712 
L 500.051217 438.353801 
L 505.56798 438.908889 
L 511.084744 439.463977 
L 516.601507 440.019066 
L 522.118271 440.574154 
L 527.635034 441.129243 
L 533.151798 441.684331 
L 538.668561 442.23942 
L 544.185325 442.794508 
L 549.702088 443.349597 
L 555.218852 443.904685 
L 560.735615 444.459774 
L 566.252379 445.014862 
L 571.769142 445.56995 
L 577.285906 446.125039 
L 582.80267 446.680127 
L 588.319433 447.235216 
" style="fill:none;stroke:#ff00ff;stroke-linecap:round;stroke-width:2.625;"/>
   </g>
   <g id="patch_3">
    <path d="M 42.159844 671.233125 
L 42.159844 121.03425 
" style="fill:none;stroke:#cccccc;stroke-linecap:square;stroke-linejoin:miter;"/>
   </g>
   <g id="patch_4">
    <path d="M 42.159844 671.233125 
L 588.319433 671.233125 
" style="fill:none;stroke:#cccccc;stroke-linecap:square;stroke-linejoin:miter;"/>
   </g>
   <g id="legend_1">
    <g id="line2d_30"/>
    <g id="line2d_31"/>
    <g id="text_17">
     <!-- pearsonr = -0.12; p = 0.15 -->
     <defs>
      <path d="M 6.5 0 
L 6.5 51.859375 
L 14.40625 51.859375 
L 14.40625 44 
Q 17.4375 49.515625 20 51.265625 
Q 22.5625 53.03125 25.640625 53.03125 
Q 30.078125 53.03125 34.671875 50.203125 
L 31.640625 42.046875 
Q 28.421875 43.953125 25.203125 43.953125 
Q 22.3125 43.953125 20.015625 42.21875 
Q 17.71875 40.484375 16.75 37.40625 
Q 15.28125 32.71875 15.28125 27.15625 
L 15.28125 0 
z
" id="ArialMT-72"/>
      <path d="M 3.328125 25.921875 
Q 3.328125 40.328125 11.328125 47.265625 
Q 18.015625 53.03125 27.640625 53.03125 
Q 38.328125 53.03125 45.109375 46.015625 
Q 51.90625 39.015625 51.90625 26.65625 
Q 51.90625 16.65625 48.90625 10.90625 
Q 45.90625 5.171875 40.15625 2 
Q 34.421875 -1.171875 27.640625 -1.171875 
Q 16.75 -1.171875 10.03125 5.8125 
Q 3.328125 12.796875 3.328125 25.921875 
z
M 12.359375 25.921875 
Q 12.359375 15.96875 16.703125 11.015625 
Q 21.046875 6.0625 27.640625 6.0625 
Q 34.1875 6.0625 38.53125 11.03125 
Q 42.875 16.015625 42.875 26.21875 
Q 42.875 35.84375 38.5 40.796875 
Q 34.125 45.75 27.640625 45.75 
Q 21.046875 45.75 16.703125 40.8125 
Q 12.359375 35.890625 12.359375 25.921875 
z
" id="ArialMT-6f"/>
      <path id="ArialMT-20"/>
      <path d="M 52.828125 42.09375 
L 5.5625 42.09375 
L 5.5625 50.296875 
L 52.828125 50.296875 
z
M 52.828125 20.359375 
L 5.5625 20.359375 
L 5.5625 28.5625 
L 52.828125 28.5625 
z
" id="ArialMT-3d"/>
      <path d="M 3.171875 21.484375 
L 3.171875 30.328125 
L 30.171875 30.328125 
L 30.171875 21.484375 
z
" id="ArialMT-2d"/>
      <path d="M 8.890625 41.84375 
L 8.890625 51.859375 
L 18.890625 51.859375 
L 18.890625 41.84375 
z
M 8.890625 0 
L 8.890625 10.015625 
L 18.890625 10.015625 
L 18.890625 0 
Q 18.890625 -5.515625 16.9375 -8.90625 
Q 14.984375 -12.3125 10.75 -14.15625 
L 8.296875 -10.40625 
Q 11.078125 -9.1875 12.390625 -6.8125 
Q 13.71875 -4.4375 13.875 0 
z
" id="ArialMT-3b"/>
     </defs>
     <g style="fill:#262626;" transform="translate(463.692871 137.22175)scale(0.1 -0.1)">
      <use xlink:href="#ArialMT-70"/>
      <use x="55.615234" xlink:href="#ArialMT-65"/>
      <use x="111.230469" xlink:href="#ArialMT-61"/>
      <use x="166.845703" xlink:href="#ArialMT-72"/>
      <use x="200.146484" xlink:href="#ArialMT-73"/>
      <use x="250.146484" xlink:href="#ArialMT-6f"/>
      <use x="305.761719" xlink:href="#ArialMT-6e"/>
      <use x="361.376953" xlink:href="#ArialMT-72"/>
      <use x="394.677734" xlink:href="#ArialMT-20"/>
      <use x="422.460938" xlink:href="#ArialMT-3d"/>
      <use x="480.859375" xlink:href="#ArialMT-20"/>
      <use x="508.642578" xlink:href="#ArialMT-2d"/>
      <use x="541.943359" xlink:href="#ArialMT-30"/>
      <use x="597.558594" xlink:href="#ArialMT-2e"/>
      <use x="625.341797" xlink:href="#ArialMT-31"/>
      <use x="680.957031" xlink:href="#ArialMT-32"/>
      <use x="736.572266" xlink:href="#ArialMT-3b"/>
      <use x="764.355469" xlink:href="#ArialMT-20"/>
      <use x="792.138672" xlink:href="#ArialMT-70"/>
      <use x="847.753906" xlink:href="#ArialMT-20"/>
      <use x="875.537109" xlink:href="#ArialMT-3d"/>
      <use x="933.935547" xlink:href="#ArialMT-20"/>
      <use x="961.71875" xlink:href="#ArialMT-30"/>
      <use x="1017.333984" xlink:href="#ArialMT-2e"/>
      <use x="1045.117188" xlink:href="#ArialMT-31"/>
      <use x="1100.732422" xlink:href="#ArialMT-35"/>
     </g>
    </g>
   </g>
  </g>
  <g id="axes_2">
   <g id="patch_5">
    <path d="M 42.159844 102.061875 
L 588.319433 102.061875 
L 588.319433 7.2 
L 42.159844 7.2 
z
" style="fill:#ffffff;"/>
   </g>
   <g id="matplotlib.axis_3">
    <g id="xtick_7">
     <g id="line2d_32">
      <path clip-path="url(#p3023acb83f)" d="M 122.787209 102.061875 
L 122.787209 7.2 
" style="fill:none;stroke:#cccccc;stroke-linecap:round;"/>
     </g>
     <g id="line2d_33"/>
    </g>
    <g id="xtick_8">
     <g id="line2d_34">
      <path clip-path="url(#p3023acb83f)" d="M 214.431223 102.061875 
L 214.431223 7.2 
" style="fill:none;stroke:#cccccc;stroke-linecap:round;"/>
     </g>
     <g id="line2d_35"/>
    </g>
    <g id="xtick_9">
     <g id="line2d_36">
      <path clip-path="url(#p3023acb83f)" d="M 306.075237 102.061875 
L 306.075237 7.2 
" style="fill:none;stroke:#cccccc;stroke-linecap:round;"/>
     </g>
     <g id="line2d_37"/>
    </g>
    <g id="xtick_10">
     <g id="line2d_38">
      <path clip-path="url(#p3023acb83f)" d="M 397.719251 102.061875 
L 397.719251 7.2 
" style="fill:none;stroke:#cccccc;stroke-linecap:round;"/>
     </g>
     <g id="line2d_39"/>
    </g>
    <g id="xtick_11">
     <g id="line2d_40">
      <path clip-path="url(#p3023acb83f)" d="M 489.363265 102.061875 
L 489.363265 7.2 
" style="fill:none;stroke:#cccccc;stroke-linecap:round;"/>
     </g>
     <g id="line2d_41"/>
    </g>
    <g id="xtick_12">
     <g id="line2d_42">
      <path clip-path="url(#p3023acb83f)" d="M 581.007279 102.061875 
L 581.007279 7.2 
" style="fill:none;stroke:#cccccc;stroke-linecap:round;"/>
     </g>
     <g id="line2d_43"/>
    </g>
   </g>
   <g id="matplotlib.axis_4">
    <g id="ytick_9"/>
    <g id="ytick_10"/>
    <g id="ytick_11"/>
   </g>
   <g id="patch_6">
    <path clip-path="url(#p3023acb83f)" d="M 150.280413 102.061875 
L 191.52022 102.061875 
L 191.52022 70.004099 
L 150.280413 70.004099 
z
" style="fill:#ff00ff;opacity:0.4;"/>
   </g>
   <g id="patch_7">
    <path clip-path="url(#p3023acb83f)" d="M 191.52022 102.061875 
L 232.760026 102.061875 
L 232.760026 14.631575 
L 191.52022 14.631575 
z
" style="fill:#ff00ff;opacity:0.4;"/>
   </g>
   <g id="patch_8">
    <path clip-path="url(#p3023acb83f)" d="M 232.760026 102.061875 
L 273.999832 102.061875 
L 273.999832 32.117635 
L 232.760026 32.117635 
z
" style="fill:#ff00ff;opacity:0.4;"/>
   </g>
   <g id="patch_9">
    <path clip-path="url(#p3023acb83f)" d="M 273.999832 102.061875 
L 315.239638 102.061875 
L 315.239638 32.117635 
L 273.999832 32.117635 
z
" style="fill:#ff00ff;opacity:0.4;"/>
   </g>
   <g id="patch_10">
    <path clip-path="url(#p3023acb83f)" d="M 315.239638 102.061875 
L 356.479445 102.061875 
L 356.479445 11.717232 
L 315.239638 11.717232 
z
" style="fill:#ff00ff;opacity:0.4;"/>
   </g>
   <g id="patch_11">
    <path clip-path="url(#p3023acb83f)" d="M 356.479445 102.061875 
L 397.719251 102.061875 
L 397.719251 52.518039 
L 356.479445 52.518039 
z
" style="fill:#ff00ff;opacity:0.4;"/>
   </g>
   <g id="patch_12">
    <path clip-path="url(#p3023acb83f)" d="M 397.719251 102.061875 
L 438.959057 102.061875 
L 438.959057 81.661472 
L 397.719251 81.661472 
z
" style="fill:#ff00ff;opacity:0.4;"/>
   </g>
   <g id="patch_13">
    <path clip-path="url(#p3023acb83f)" d="M 438.959057 102.061875 
L 480.198863 102.061875 
L 480.198863 84.575815 
L 438.959057 84.575815 
z
" style="fill:#ff00ff;opacity:0.4;"/>
   </g>
   <g id="line2d_44">
    <path clip-path="url(#p3023acb83f)" d="M 66.98528 102.015908 
L 72.000519 101.980641 
L 77.015759 101.922457 
L 82.030998 101.829423 
L 87.046238 101.685216 
L 92.061477 101.468466 
L 97.076717 101.152434 
L 102.091957 100.705223 
L 107.107196 100.090656 
L 112.122436 99.26986 
L 117.137675 98.203443 
L 122.152915 96.853998 
L 127.168154 95.188554 
L 132.183394 93.180548 
L 137.198634 90.811034 
L 142.213873 88.06907 
L 147.229113 84.951543 
L 152.244352 81.463029 
L 157.259592 77.616386 
L 162.274831 73.434727 
L 167.290071 68.954932 
L 172.305311 64.232254 
L 177.32055 59.344769 
L 182.33579 54.395888 
L 187.351029 49.512991 
L 192.366269 44.840746 
L 197.381508 40.528757 
L 202.396748 36.71473 
L 207.411988 33.505882 
L 212.427227 30.962352 
L 217.442467 29.086616 
L 222.457706 27.821939 
L 227.472946 27.061082 
L 232.488185 26.664051 
L 237.503425 26.481468 
L 242.518665 26.378645 
L 247.533904 26.25524 
L 252.549144 26.056469 
L 257.564383 25.773968 
L 262.579623 25.436969 
L 267.594862 25.096702 
L 272.610102 24.808373 
L 277.625342 24.615274 
L 282.640581 24.538654 
L 287.655821 24.575246 
L 292.67106 24.702258 
L 297.6863 24.887844 
L 302.701539 25.103871 
L 307.716779 25.337553 
L 312.732019 25.599068 
L 317.747258 25.923547 
L 322.762498 26.367272 
L 327.777737 26.999353 
L 332.792977 27.891047 
L 337.808216 29.105181 
L 342.823456 30.687739 
L 347.838696 32.662853 
L 352.853935 35.031387 
L 357.869175 37.77244 
L 362.884414 40.84663 
L 367.899654 44.199959 
L 372.914893 47.767499 
L 377.930133 51.476592 
L 382.945373 55.249757 
L 387.960612 59.007675 
L 392.975852 62.672543 
L 397.991091 66.171836 
L 403.006331 69.442198 
L 408.02157 72.433057 
L 413.03681 75.109526 
L 418.05205 77.454324 
L 423.067289 79.4686 
L 428.082529 81.17165 
L 433.097768 82.599509 
L 438.113008 83.802324 
L 443.128247 84.840425 
L 448.143487 85.779086 
L 453.158727 86.682275 
L 458.173966 87.606047 
L 463.189206 88.592508 
L 468.204445 89.665422 
L 473.219685 90.828316 
L 478.234924 92.065512 
L 483.250164 93.345895 
L 488.265404 94.628678 
L 493.280643 95.870034 
L 498.295883 97.02938 
L 503.311122 98.074298 
L 508.326362 98.983485 
L 513.341601 99.747586 
L 518.356841 100.368206 
L 523.372081 100.85565 
L 528.38732 101.226058 
L 533.40256 101.498513 
L 538.417799 101.692578 
L 543.433039 101.82648 
L 548.448278 101.916001 
L 553.463518 101.974005 
L 558.478758 102.010434 
L 563.493997 102.032614 
" style="fill:none;stroke:#ff00ff;stroke-linecap:round;stroke-width:1.75;"/>
   </g>
   <g id="patch_14">
    <path d="M 42.159844 102.061875 
L 588.319433 102.061875 
" style="fill:none;stroke:#cccccc;stroke-linecap:square;stroke-linejoin:miter;"/>
   </g>
  </g>
  <g id="axes_3">
   <g id="patch_15">
    <path d="M 607.152522 671.233125 
L 701.317969 671.233125 
L 701.317969 121.03425 
L 607.152522 121.03425 
z
" style="fill:#ffffff;"/>
   </g>
   <g id="matplotlib.axis_5">
    <g id="xtick_13"/>
    <g id="xtick_14"/>
    <g id="xtick_15"/>
   </g>
   <g id="matplotlib.axis_6">
    <g id="ytick_12">
     <g id="line2d_45">
      <path clip-path="url(#pf8be2b4624)" d="M 607.152522 649.440501 
L 701.317969 649.440501 
" style="fill:none;stroke:#cccccc;stroke-linecap:round;"/>
     </g>
     <g id="line2d_46"/>
    </g>
    <g id="ytick_13">
     <g id="line2d_47">
      <path clip-path="url(#pf8be2b4624)" d="M 607.152522 574.938497 
L 701.317969 574.938497 
" style="fill:none;stroke:#cccccc;stroke-linecap:round;"/>
     </g>
     <g id="line2d_48"/>
    </g>
    <g id="ytick_14">
     <g id="line2d_49">
      <path clip-path="url(#pf8be2b4624)" d="M 607.152522 500.436493 
L 701.317969 500.436493 
" style="fill:none;stroke:#cccccc;stroke-linecap:round;"/>
     </g>
     <g id="line2d_50"/>
    </g>
    <g id="ytick_15">
     <g id="line2d_51">
      <path clip-path="url(#pf8be2b4624)" d="M 607.152522 425.934489 
L 701.317969 425.934489 
" style="fill:none;stroke:#cccccc;stroke-linecap:round;"/>
     </g>
     <g id="line2d_52"/>
    </g>
    <g id="ytick_16">
     <g id="line2d_53">
      <path clip-path="url(#pf8be2b4624)" d="M 607.152522 351.432485 
L 701.317969 351.432485 
" style="fill:none;stroke:#cccccc;stroke-linecap:round;"/>
     </g>
     <g id="line2d_54"/>
    </g>
    <g id="ytick_17">
     <g id="line2d_55">
      <path clip-path="url(#pf8be2b4624)" d="M 607.152522 276.930481 
L 701.317969 276.930481 
" style="fill:none;stroke:#cccccc;stroke-linecap:round;"/>
     </g>
     <g id="line2d_56"/>
    </g>
    <g id="ytick_18">
     <g id="line2d_57">
      <path clip-path="url(#pf8be2b4624)" d="M 607.152522 202.428477 
L 701.317969 202.428477 
" style="fill:none;stroke:#cccccc;stroke-linecap:round;"/>
     </g>
     <g id="line2d_58"/>
    </g>
    <g id="ytick_19">
     <g id="line2d_59">
      <path clip-path="url(#pf8be2b4624)" d="M 607.152522 127.926473 
L 701.317969 127.926473 
" style="fill:none;stroke:#cccccc;stroke-linecap:round;"/>
     </g>
     <g id="line2d_60"/>
    </g>
   </g>
   <g id="patch_16">
    <path clip-path="url(#pf8be2b4624)" d="M 607.152522 574.938497 
L 609.576343 574.938497 
L 609.576343 547.430065 
L 607.152522 547.430065 
z
" style="fill:#ff00ff;opacity:0.4;"/>
   </g>
   <g id="patch_17">
    <path clip-path="url(#pf8be2b4624)" d="M 607.152522 547.430065 
L 624.119269 547.430065 
L 624.119269 519.921633 
L 607.152522 519.921633 
z
" style="fill:#ff00ff;opacity:0.4;"/>
   </g>
   <g id="patch_18">
    <path clip-path="url(#pf8be2b4624)" d="M 607.152522 519.921633 
L 633.814553 519.921633 
L 633.814553 492.4132 
L 607.152522 492.4132 
z
" style="fill:#ff00ff;opacity:0.4;"/>
   </g>
   <g id="patch_19">
    <path clip-path="url(#pf8be2b4624)" d="M 607.152522 492.4132 
L 641.086017 492.4132 
L 641.086017 464.904768 
L 607.152522 464.904768 
z
" style="fill:#ff00ff;opacity:0.4;"/>
   </g>
   <g id="patch_20">
    <path clip-path="url(#pf8be2b4624)" d="M 607.152522 464.904768 
L 665.324227 464.904768 
L 665.324227 437.396336 
L 607.152522 437.396336 
z
" style="fill:#ff00ff;opacity:0.4;"/>
   </g>
   <g id="patch_21">
    <path clip-path="url(#pf8be2b4624)" d="M 607.152522 437.396336 
L 696.8339 437.396336 
L 696.8339 409.887904 
L 607.152522 409.887904 
z
" style="fill:#ff00ff;opacity:0.4;"/>
   </g>
   <g id="patch_22">
    <path clip-path="url(#pf8be2b4624)" d="M 607.152522 409.887904 
L 638.662196 409.887904 
L 638.662196 382.379471 
L 607.152522 382.379471 
z
" style="fill:#ff00ff;opacity:0.4;"/>
   </g>
   <g id="patch_23">
    <path clip-path="url(#pf8be2b4624)" d="M 607.152522 382.379471 
L 650.781301 382.379471 
L 650.781301 354.871039 
L 607.152522 354.871039 
z
" style="fill:#ff00ff;opacity:0.4;"/>
   </g>
   <g id="patch_24">
    <path clip-path="url(#pf8be2b4624)" d="M 607.152522 354.871039 
L 631.390732 354.871039 
L 631.390732 327.362607 
L 607.152522 327.362607 
z
" style="fill:#ff00ff;opacity:0.4;"/>
   </g>
   <g id="patch_25">
    <path clip-path="url(#pf8be2b4624)" d="M 607.152522 327.362607 
L 628.966911 327.362607 
L 628.966911 299.854175 
L 607.152522 299.854175 
z
" style="fill:#ff00ff;opacity:0.4;"/>
   </g>
   <g id="patch_26">
    <path clip-path="url(#pf8be2b4624)" d="M 607.152522 299.854175 
L 614.423985 299.854175 
L 614.423985 272.345742 
L 607.152522 272.345742 
z
" style="fill:#ff00ff;opacity:0.4;"/>
   </g>
   <g id="patch_27">
    <path clip-path="url(#pf8be2b4624)" d="M 607.152522 272.345742 
L 612.000164 272.345742 
L 612.000164 244.83731 
L 607.152522 244.83731 
z
" style="fill:#ff00ff;opacity:0.4;"/>
   </g>
   <g id="patch_28">
    <path clip-path="url(#pf8be2b4624)" d="M 607.152522 244.83731 
L 609.576343 244.83731 
L 609.576343 217.328878 
L 607.152522 217.328878 
z
" style="fill:#ff00ff;opacity:0.4;"/>
   </g>
   <g id="line2d_61">
    <path clip-path="url(#pf8be2b4624)" d="M 607.165745 646.224085 
L 607.17715 641.171754 
L 607.196525 636.119423 
L 607.228016 631.067091 
L 607.277053 626.01476 
L 607.350344 620.962429 
L 607.455747 615.910098 
L 607.602067 610.857766 
L 607.79891 605.805435 
L 608.056684 600.753104 
L 608.386795 595.700773 
L 608.801922 590.648441 
L 609.316061 585.59611 
L 609.943963 580.543779 
L 610.6997 575.491447 
L 611.59438 570.439116 
L 612.633534 565.386785 
L 613.815022 560.334454 
L 615.128365 555.282122 
L 616.556062 550.229791 
L 618.076727 545.17746 
L 619.669197 540.125129 
L 621.316381 535.072797 
L 623.007797 530.020466 
L 624.740438 524.968135 
L 626.518367 519.915804 
L 628.35193 514.863472 
L 630.257309 509.811141 
L 632.256506 504.75881 
L 634.377066 499.706478 
L 636.650503 494.654147 
L 639.108709 489.601816 
L 641.778479 484.549485 
L 644.675061 479.497153 
L 647.796008 474.444822 
L 651.116154 469.392491 
L 654.583886 464.34016 
L 658.118454 459.287828 
L 661.608512 454.235497 
L 664.913156 449.183166 
L 667.867773 444.130835 
L 670.296912 439.078503 
L 672.03462 434.026172 
L 672.949722 428.973841 
L 672.970459 423.921509 
L 672.101571 418.869178 
L 670.428008 413.816847 
L 668.102983 408.764516 
L 665.322577 403.712184 
L 662.292923 398.659853 
L 659.197839 393.607522 
L 656.174173 388.555191 
L 653.299672 383.502859 
L 650.594778 378.450528 
L 648.036373 373.398197 
L 645.578958 368.345866 
L 643.177329 363.293534 
L 640.80491 358.241203 
L 638.463422 353.188872 
L 636.182081 348.13654 
L 634.007542 343.084209 
L 631.988321 338.031878 
L 630.158804 332.979547 
L 628.527747 327.927215 
L 627.074545 322.874884 
L 625.754063 317.822553 
L 624.508224 312.770222 
L 623.280688 307.71789 
L 622.030296 302.665559 
L 620.739637 297.613228 
L 619.416816 292.560897 
L 618.090686 287.508565 
L 616.801604 282.456234 
L 615.590842 277.403903 
L 614.491621 272.351571 
L 613.523773 267.29924 
L 612.692598 262.246909 
L 611.991119 257.194578 
L 611.404203 252.142246 
L 610.912874 247.089915 
L 610.497666 242.037584 
L 610.140564 236.985253 
L 609.825794 231.932921 
L 609.540035 226.88059 
L 609.272593 221.828259 
L 609.015797 216.775928 
L 608.765468 211.723596 
L 608.521133 206.671265 
L 608.285673 201.618934 
L 608.064294 196.566602 
L 607.863038 191.514271 
L 607.687225 186.46194 
L 607.540231 181.409609 
L 607.422897 176.357277 
L 607.333607 171.304946 
L 607.268877 166.252615 
L 607.224188 161.200284 
L 607.194808 156.147952 
L 607.176413 151.095621 
L 607.165442 146.04329 
" style="fill:none;stroke:#ff00ff;stroke-linecap:round;stroke-width:1.75;"/>
   </g>
   <g id="patch_29">
    <path d="M 607.152522 671.233125 
L 607.152522 121.03425 
" style="fill:none;stroke:#cccccc;stroke-linecap:square;stroke-linejoin:miter;"/>
   </g>
  </g>
 </g>
 <defs>
  <clipPath id="pfd4c766bb1">
   <rect height="550.198875" width="546.159589" x="42.159844" y="121.03425"/>
  </clipPath>
  <clipPath id="p3023acb83f">
   <rect height="94.861875" width="546.159589" x="42.159844" y="7.2"/>
  </clipPath>
  <clipPath id="pf8be2b4624">
   <rect height="550.198875" width="94.165446" x="607.152522" y="121.03425"/>
  </clipPath>
 </defs>
</svg>
