<?xml version="1.0" encoding="utf-8" standalone="no"?>
<!DOCTYPE svg PUBLIC "-//W3C//DTD SVG 1.1//EN"
  "http://www.w3.org/Graphics/SVG/1.1/DTD/svg11.dtd">
<!-- Created with matplotlib (http://matplotlib.org/) -->
<svg height="708.685156pt" version="1.1" viewBox="0 0 722.469531 708.685156" width="722.469531pt" xmlns="http://www.w3.org/2000/svg" xmlns:xlink="http://www.w3.org/1999/xlink">
 <defs>
  <style type="text/css">
*{stroke-linecap:butt;stroke-linejoin:round;}
  </style>
 </defs>
 <g id="figure_1">
  <g id="patch_1">
   <path d="M 0 708.685156 
L 722.469531 708.685156 
L 722.469531 0 
L 0 0 
z
" style="fill:#ffffff;"/>
  </g>
  <g id="axes_1">
   <g id="patch_2">
    <path d="M 56.064531 671.28 
L 602.26296 671.28 
L 602.26296 121.042286 
L 56.064531 121.042286 
z
" style="fill:#ffffff;"/>
   </g>
   <g id="matplotlib.axis_1">
    <g id="xtick_1">
     <g id="line2d_1">
      <path clip-path="url(#pdbb97d26b2)" d="M 59.311451 671.28 
L 59.311451 121.042286 
" style="fill:none;stroke:#cccccc;stroke-linecap:round;"/>
     </g>
     <g id="line2d_2"/>
     <g id="text_1">
      <!-- 0 -->
      <defs>
       <path d="M 4.15625 35.296875 
Q 4.15625 48 6.765625 55.734375 
Q 9.375 63.484375 14.515625 67.671875 
Q 19.671875 71.875 27.484375 71.875 
Q 33.25 71.875 37.59375 69.546875 
Q 41.9375 67.234375 44.765625 62.859375 
Q 47.609375 58.5 49.21875 52.21875 
Q 50.828125 45.953125 50.828125 35.296875 
Q 50.828125 22.703125 48.234375 14.96875 
Q 45.65625 7.234375 40.5 3 
Q 35.359375 -1.21875 27.484375 -1.21875 
Q 17.140625 -1.21875 11.234375 6.203125 
Q 4.15625 15.140625 4.15625 35.296875 
z
M 13.1875 35.296875 
Q 13.1875 17.671875 17.3125 11.828125 
Q 21.4375 6 27.484375 6 
Q 33.546875 6 37.671875 11.859375 
Q 41.796875 17.71875 41.796875 35.296875 
Q 41.796875 52.984375 37.671875 58.78125 
Q 33.546875 64.59375 27.390625 64.59375 
Q 21.34375 64.59375 17.71875 59.46875 
Q 13.1875 52.9375 13.1875 35.296875 
z
" id="ArialMT-30"/>
      </defs>
      <g style="fill:#262626;" transform="translate(56.530982 685.437812)scale(0.1 -0.1)">
       <use xlink:href="#ArialMT-30"/>
      </g>
     </g>
    </g>
    <g id="xtick_2">
     <g id="line2d_3">
      <path clip-path="url(#pdbb97d26b2)" d="M 162.901583 671.28 
L 162.901583 121.042286 
" style="fill:none;stroke:#cccccc;stroke-linecap:round;"/>
     </g>
     <g id="line2d_4"/>
     <g id="text_2">
      <!-- 1 -->
      <defs>
       <path d="M 37.25 0 
L 28.46875 0 
L 28.46875 56 
Q 25.296875 52.984375 20.140625 49.953125 
Q 14.984375 46.921875 10.890625 45.40625 
L 10.890625 53.90625 
Q 18.265625 57.375 23.78125 62.296875 
Q 29.296875 67.234375 31.59375 71.875 
L 37.25 71.875 
z
" id="ArialMT-31"/>
      </defs>
      <g style="fill:#262626;" transform="translate(160.121115 685.437812)scale(0.1 -0.1)">
       <use xlink:href="#ArialMT-31"/>
      </g>
     </g>
    </g>
    <g id="xtick_3">
     <g id="line2d_5">
      <path clip-path="url(#pdbb97d26b2)" d="M 266.491716 671.28 
L 266.491716 121.042286 
" style="fill:none;stroke:#cccccc;stroke-linecap:round;"/>
     </g>
     <g id="line2d_6"/>
     <g id="text_3">
      <!-- 2 -->
      <defs>
       <path d="M 50.34375 8.453125 
L 50.34375 0 
L 3.03125 0 
Q 2.9375 3.171875 4.046875 6.109375 
Q 5.859375 10.9375 9.828125 15.625 
Q 13.8125 20.3125 21.34375 26.46875 
Q 33.015625 36.03125 37.109375 41.625 
Q 41.21875 47.21875 41.21875 52.203125 
Q 41.21875 57.421875 37.46875 61 
Q 33.734375 64.59375 27.734375 64.59375 
Q 21.390625 64.59375 17.578125 60.78125 
Q 13.765625 56.984375 13.71875 50.25 
L 4.6875 51.171875 
Q 5.609375 61.28125 11.65625 66.578125 
Q 17.71875 71.875 27.9375 71.875 
Q 38.234375 71.875 44.234375 66.15625 
Q 50.25 60.453125 50.25 52 
Q 50.25 47.703125 48.484375 43.546875 
Q 46.734375 39.40625 42.65625 34.8125 
Q 38.578125 30.21875 29.109375 22.21875 
Q 21.1875 15.578125 18.9375 13.203125 
Q 16.703125 10.84375 15.234375 8.453125 
z
" id="ArialMT-32"/>
      </defs>
      <g style="fill:#262626;" transform="translate(263.711247 685.437812)scale(0.1 -0.1)">
       <use xlink:href="#ArialMT-32"/>
      </g>
     </g>
    </g>
    <g id="xtick_4">
     <g id="line2d_7">
      <path clip-path="url(#pdbb97d26b2)" d="M 370.081848 671.28 
L 370.081848 121.042286 
" style="fill:none;stroke:#cccccc;stroke-linecap:round;"/>
     </g>
     <g id="line2d_8"/>
     <g id="text_4">
      <!-- 3 -->
      <defs>
       <path d="M 4.203125 18.890625 
L 12.984375 20.0625 
Q 14.5 12.59375 18.140625 9.296875 
Q 21.78125 6 27 6 
Q 33.203125 6 37.46875 10.296875 
Q 41.75 14.59375 41.75 20.953125 
Q 41.75 27 37.796875 30.921875 
Q 33.84375 34.859375 27.734375 34.859375 
Q 25.25 34.859375 21.53125 33.890625 
L 22.515625 41.609375 
Q 23.390625 41.5 23.921875 41.5 
Q 29.546875 41.5 34.03125 44.421875 
Q 38.53125 47.359375 38.53125 53.46875 
Q 38.53125 58.296875 35.25 61.46875 
Q 31.984375 64.65625 26.8125 64.65625 
Q 21.6875 64.65625 18.265625 61.421875 
Q 14.84375 58.203125 13.875 51.765625 
L 5.078125 53.328125 
Q 6.6875 62.15625 12.390625 67.015625 
Q 18.109375 71.875 26.609375 71.875 
Q 32.46875 71.875 37.390625 69.359375 
Q 42.328125 66.84375 44.9375 62.5 
Q 47.5625 58.15625 47.5625 53.265625 
Q 47.5625 48.640625 45.0625 44.828125 
Q 42.578125 41.015625 37.703125 38.765625 
Q 44.046875 37.3125 47.5625 32.6875 
Q 51.078125 28.078125 51.078125 21.140625 
Q 51.078125 11.765625 44.234375 5.25 
Q 37.40625 -1.265625 26.953125 -1.265625 
Q 17.53125 -1.265625 11.296875 4.34375 
Q 5.078125 9.96875 4.203125 18.890625 
z
" id="ArialMT-33"/>
      </defs>
      <g style="fill:#262626;" transform="translate(367.301379 685.437812)scale(0.1 -0.1)">
       <use xlink:href="#ArialMT-33"/>
      </g>
     </g>
    </g>
    <g id="xtick_5">
     <g id="line2d_9">
      <path clip-path="url(#pdbb97d26b2)" d="M 473.67198 671.28 
L 473.67198 121.042286 
" style="fill:none;stroke:#cccccc;stroke-linecap:round;"/>
     </g>
     <g id="line2d_10"/>
     <g id="text_5">
      <!-- 4 -->
      <defs>
       <path d="M 32.328125 0 
L 32.328125 17.140625 
L 1.265625 17.140625 
L 1.265625 25.203125 
L 33.9375 71.578125 
L 41.109375 71.578125 
L 41.109375 25.203125 
L 50.78125 25.203125 
L 50.78125 17.140625 
L 41.109375 17.140625 
L 41.109375 0 
z
M 32.328125 25.203125 
L 32.328125 57.46875 
L 9.90625 25.203125 
z
" id="ArialMT-34"/>
      </defs>
      <g style="fill:#262626;" transform="translate(470.891511 685.437812)scale(0.1 -0.1)">
       <use xlink:href="#ArialMT-34"/>
      </g>
     </g>
    </g>
    <g id="xtick_6">
     <g id="line2d_11">
      <path clip-path="url(#pdbb97d26b2)" d="M 577.262112 671.28 
L 577.262112 121.042286 
" style="fill:none;stroke:#cccccc;stroke-linecap:round;"/>
     </g>
     <g id="line2d_12"/>
     <g id="text_6">
      <!-- 5 -->
      <defs>
       <path d="M 4.15625 18.75 
L 13.375 19.53125 
Q 14.40625 12.796875 18.140625 9.390625 
Q 21.875 6 27.15625 6 
Q 33.5 6 37.890625 10.78125 
Q 42.28125 15.578125 42.28125 23.484375 
Q 42.28125 31 38.0625 35.34375 
Q 33.84375 39.703125 27 39.703125 
Q 22.75 39.703125 19.328125 37.765625 
Q 15.921875 35.84375 13.96875 32.765625 
L 5.71875 33.84375 
L 12.640625 70.609375 
L 48.25 70.609375 
L 48.25 62.203125 
L 19.671875 62.203125 
L 15.828125 42.96875 
Q 22.265625 47.46875 29.34375 47.46875 
Q 38.71875 47.46875 45.15625 40.96875 
Q 51.609375 34.46875 51.609375 24.265625 
Q 51.609375 14.546875 45.953125 7.46875 
Q 39.0625 -1.21875 27.15625 -1.21875 
Q 17.390625 -1.21875 11.203125 4.25 
Q 5.03125 9.71875 4.15625 18.75 
z
" id="ArialMT-35"/>
      </defs>
      <g style="fill:#262626;" transform="translate(574.481643 685.437812)scale(0.1 -0.1)">
       <use xlink:href="#ArialMT-35"/>
      </g>
     </g>
    </g>
    <g id="text_7">
     <!-- carat -->
     <defs>
      <path d="M 40.4375 19 
L 49.078125 17.875 
Q 47.65625 8.9375 41.8125 3.875 
Q 35.984375 -1.171875 27.484375 -1.171875 
Q 16.84375 -1.171875 10.375 5.78125 
Q 3.90625 12.75 3.90625 25.734375 
Q 3.90625 34.125 6.6875 40.421875 
Q 9.46875 46.734375 15.15625 49.875 
Q 20.84375 53.03125 27.546875 53.03125 
Q 35.984375 53.03125 41.359375 48.75 
Q 46.734375 44.484375 48.25 36.625 
L 39.703125 35.296875 
Q 38.484375 40.53125 35.375 43.15625 
Q 32.28125 45.796875 27.875 45.796875 
Q 21.234375 45.796875 17.078125 41.03125 
Q 12.9375 36.28125 12.9375 25.984375 
Q 12.9375 15.53125 16.9375 10.796875 
Q 20.953125 6.0625 27.390625 6.0625 
Q 32.5625 6.0625 36.03125 9.234375 
Q 39.5 12.40625 40.4375 19 
z
" id="ArialMT-63"/>
      <path d="M 40.4375 6.390625 
Q 35.546875 2.25 31.03125 0.53125 
Q 26.515625 -1.171875 21.34375 -1.171875 
Q 12.796875 -1.171875 8.203125 3 
Q 3.609375 7.171875 3.609375 13.671875 
Q 3.609375 17.484375 5.34375 20.625 
Q 7.078125 23.78125 9.890625 25.6875 
Q 12.703125 27.59375 16.21875 28.5625 
Q 18.796875 29.25 24.03125 29.890625 
Q 34.671875 31.15625 39.703125 32.90625 
Q 39.75 34.71875 39.75 35.203125 
Q 39.75 40.578125 37.25 42.78125 
Q 33.890625 45.75 27.25 45.75 
Q 21.046875 45.75 18.09375 43.578125 
Q 15.140625 41.40625 13.71875 35.890625 
L 5.125 37.0625 
Q 6.296875 42.578125 8.984375 45.96875 
Q 11.671875 49.359375 16.75 51.1875 
Q 21.828125 53.03125 28.515625 53.03125 
Q 35.15625 53.03125 39.296875 51.46875 
Q 43.453125 49.90625 45.40625 47.53125 
Q 47.359375 45.171875 48.140625 41.546875 
Q 48.578125 39.3125 48.578125 33.453125 
L 48.578125 21.734375 
Q 48.578125 9.46875 49.140625 6.21875 
Q 49.703125 2.984375 51.375 0 
L 42.1875 0 
Q 40.828125 2.734375 40.4375 6.390625 
z
M 39.703125 26.03125 
Q 34.90625 24.078125 25.34375 22.703125 
Q 19.921875 21.921875 17.671875 20.9375 
Q 15.4375 19.96875 14.203125 18.09375 
Q 12.984375 16.21875 12.984375 13.921875 
Q 12.984375 10.40625 15.640625 8.0625 
Q 18.3125 5.71875 23.4375 5.71875 
Q 28.515625 5.71875 32.46875 7.9375 
Q 36.421875 10.15625 38.28125 14.015625 
Q 39.703125 17 39.703125 22.796875 
z
" id="ArialMT-61"/>
      <path d="M 6.5 0 
L 6.5 51.859375 
L 14.40625 51.859375 
L 14.40625 44 
Q 17.4375 49.515625 20 51.265625 
Q 22.5625 53.03125 25.640625 53.03125 
Q 30.078125 53.03125 34.671875 50.203125 
L 31.640625 42.046875 
Q 28.421875 43.953125 25.203125 43.953125 
Q 22.3125 43.953125 20.015625 42.21875 
Q 17.71875 40.484375 16.75 37.40625 
Q 15.28125 32.71875 15.28125 27.15625 
L 15.28125 0 
z
" id="ArialMT-72"/>
      <path d="M 25.78125 7.859375 
L 27.046875 0.09375 
Q 23.34375 -0.6875 20.40625 -0.6875 
Q 15.625 -0.6875 12.984375 0.828125 
Q 10.359375 2.34375 9.28125 4.8125 
Q 8.203125 7.28125 8.203125 15.1875 
L 8.203125 45.015625 
L 1.765625 45.015625 
L 1.765625 51.859375 
L 8.203125 51.859375 
L 8.203125 64.703125 
L 16.9375 69.96875 
L 16.9375 51.859375 
L 25.78125 51.859375 
L 25.78125 45.015625 
L 16.9375 45.015625 
L 16.9375 14.703125 
Q 16.9375 10.9375 17.40625 9.859375 
Q 17.875 8.796875 18.921875 8.15625 
Q 19.96875 7.515625 21.921875 7.515625 
Q 23.390625 7.515625 25.78125 7.859375 
z
" id="ArialMT-74"/>
     </defs>
     <g style="fill:#262626;" transform="translate(316.937417 699.298906)scale(0.11 -0.11)">
      <use xlink:href="#ArialMT-63"/>
      <use x="50" xlink:href="#ArialMT-61"/>
      <use x="105.615234" xlink:href="#ArialMT-72"/>
      <use x="138.916016" xlink:href="#ArialMT-61"/>
      <use x="194.53125" xlink:href="#ArialMT-74"/>
     </g>
    </g>
   </g>
   <g id="matplotlib.axis_2">
    <g id="ytick_1">
     <g id="line2d_13">
      <path clip-path="url(#pdbb97d26b2)" d="M 56.064531 631.444003 
L 602.26296 631.444003 
" style="fill:none;stroke:#cccccc;stroke-linecap:round;"/>
     </g>
     <g id="line2d_14"/>
     <g id="text_8">
      <!-- 0 -->
      <g style="fill:#262626;" transform="translate(43.503594 635.02291)scale(0.1 -0.1)">
       <use xlink:href="#ArialMT-30"/>
      </g>
     </g>
    </g>
    <g id="ytick_2">
     <g id="line2d_15">
      <path clip-path="url(#pdbb97d26b2)" d="M 56.064531 570.009239 
L 602.26296 570.009239 
" style="fill:none;stroke:#cccccc;stroke-linecap:round;"/>
     </g>
     <g id="line2d_16"/>
     <g id="text_9">
      <!-- 2500 -->
      <g style="fill:#262626;" transform="translate(26.820781 573.588145)scale(0.1 -0.1)">
       <use xlink:href="#ArialMT-32"/>
       <use x="55.615234" xlink:href="#ArialMT-35"/>
       <use x="111.230469" xlink:href="#ArialMT-30"/>
       <use x="166.845703" xlink:href="#ArialMT-30"/>
      </g>
     </g>
    </g>
    <g id="ytick_3">
     <g id="line2d_17">
      <path clip-path="url(#pdbb97d26b2)" d="M 56.064531 508.574475 
L 602.26296 508.574475 
" style="fill:none;stroke:#cccccc;stroke-linecap:round;"/>
     </g>
     <g id="line2d_18"/>
     <g id="text_10">
      <!-- 5000 -->
      <g style="fill:#262626;" transform="translate(26.820781 512.153381)scale(0.1 -0.1)">
       <use xlink:href="#ArialMT-35"/>
       <use x="55.615234" xlink:href="#ArialMT-30"/>
       <use x="111.230469" xlink:href="#ArialMT-30"/>
       <use x="166.845703" xlink:href="#ArialMT-30"/>
      </g>
     </g>
    </g>
    <g id="ytick_4">
     <g id="line2d_19">
      <path clip-path="url(#pdbb97d26b2)" d="M 56.064531 447.13971 
L 602.26296 447.13971 
" style="fill:none;stroke:#cccccc;stroke-linecap:round;"/>
     </g>
     <g id="line2d_20"/>
     <g id="text_11">
      <!-- 7500 -->
      <defs>
       <path d="M 4.734375 62.203125 
L 4.734375 70.65625 
L 51.078125 70.65625 
L 51.078125 63.8125 
Q 44.234375 56.546875 37.515625 44.484375 
Q 30.8125 32.421875 27.15625 19.671875 
Q 24.515625 10.6875 23.78125 0 
L 14.75 0 
Q 14.890625 8.453125 18.0625 20.40625 
Q 21.234375 32.375 27.171875 43.484375 
Q 33.109375 54.59375 39.796875 62.203125 
z
" id="ArialMT-37"/>
      </defs>
      <g style="fill:#262626;" transform="translate(26.820781 450.718617)scale(0.1 -0.1)">
       <use xlink:href="#ArialMT-37"/>
       <use x="55.615234" xlink:href="#ArialMT-35"/>
       <use x="111.230469" xlink:href="#ArialMT-30"/>
       <use x="166.845703" xlink:href="#ArialMT-30"/>
      </g>
     </g>
    </g>
    <g id="ytick_5">
     <g id="line2d_21">
      <path clip-path="url(#pdbb97d26b2)" d="M 56.064531 385.704946 
L 602.26296 385.704946 
" style="fill:none;stroke:#cccccc;stroke-linecap:round;"/>
     </g>
     <g id="line2d_22"/>
     <g id="text_12">
      <!-- 10000 -->
      <g style="fill:#262626;" transform="translate(21.259844 389.283852)scale(0.1 -0.1)">
       <use xlink:href="#ArialMT-31"/>
       <use x="55.615234" xlink:href="#ArialMT-30"/>
       <use x="111.230469" xlink:href="#ArialMT-30"/>
       <use x="166.845703" xlink:href="#ArialMT-30"/>
       <use x="222.460938" xlink:href="#ArialMT-30"/>
      </g>
     </g>
    </g>
    <g id="ytick_6">
     <g id="line2d_23">
      <path clip-path="url(#pdbb97d26b2)" d="M 56.064531 324.270182 
L 602.26296 324.270182 
" style="fill:none;stroke:#cccccc;stroke-linecap:round;"/>
     </g>
     <g id="line2d_24"/>
     <g id="text_13">
      <!-- 12500 -->
      <g style="fill:#262626;" transform="translate(21.259844 327.849088)scale(0.1 -0.1)">
       <use xlink:href="#ArialMT-31"/>
       <use x="55.615234" xlink:href="#ArialMT-32"/>
       <use x="111.230469" xlink:href="#ArialMT-35"/>
       <use x="166.845703" xlink:href="#ArialMT-30"/>
       <use x="222.460938" xlink:href="#ArialMT-30"/>
      </g>
     </g>
    </g>
    <g id="ytick_7">
     <g id="line2d_25">
      <path clip-path="url(#pdbb97d26b2)" d="M 56.064531 262.835417 
L 602.26296 262.835417 
" style="fill:none;stroke:#cccccc;stroke-linecap:round;"/>
     </g>
     <g id="line2d_26"/>
     <g id="text_14">
      <!-- 15000 -->
      <g style="fill:#262626;" transform="translate(21.259844 266.414323)scale(0.1 -0.1)">
       <use xlink:href="#ArialMT-31"/>
       <use x="55.615234" xlink:href="#ArialMT-35"/>
       <use x="111.230469" xlink:href="#ArialMT-30"/>
       <use x="166.845703" xlink:href="#ArialMT-30"/>
       <use x="222.460938" xlink:href="#ArialMT-30"/>
      </g>
     </g>
    </g>
    <g id="ytick_8">
     <g id="line2d_27">
      <path clip-path="url(#pdbb97d26b2)" d="M 56.064531 201.400653 
L 602.26296 201.400653 
" style="fill:none;stroke:#cccccc;stroke-linecap:round;"/>
     </g>
     <g id="line2d_28"/>
     <g id="text_15">
      <!-- 17500 -->
      <g style="fill:#262626;" transform="translate(21.259844 204.979559)scale(0.1 -0.1)">
       <use xlink:href="#ArialMT-31"/>
       <use x="55.615234" xlink:href="#ArialMT-37"/>
       <use x="111.230469" xlink:href="#ArialMT-35"/>
       <use x="166.845703" xlink:href="#ArialMT-30"/>
       <use x="222.460938" xlink:href="#ArialMT-30"/>
      </g>
     </g>
    </g>
    <g id="ytick_9">
     <g id="line2d_29">
      <path clip-path="url(#pdbb97d26b2)" d="M 56.064531 139.965889 
L 602.26296 139.965889 
" style="fill:none;stroke:#cccccc;stroke-linecap:round;"/>
     </g>
     <g id="line2d_30"/>
     <g id="text_16">
      <!-- 20000 -->
      <g style="fill:#262626;" transform="translate(21.259844 143.544795)scale(0.1 -0.1)">
       <use xlink:href="#ArialMT-32"/>
       <use x="55.615234" xlink:href="#ArialMT-30"/>
       <use x="111.230469" xlink:href="#ArialMT-30"/>
       <use x="166.845703" xlink:href="#ArialMT-30"/>
       <use x="222.460938" xlink:href="#ArialMT-30"/>
      </g>
     </g>
    </g>
    <g id="text_17">
     <!-- price -->
     <defs>
      <path d="M 6.59375 -19.875 
L 6.59375 51.859375 
L 14.59375 51.859375 
L 14.59375 45.125 
Q 17.4375 49.078125 21 51.046875 
Q 24.5625 53.03125 29.640625 53.03125 
Q 36.28125 53.03125 41.359375 49.609375 
Q 46.4375 46.1875 49.015625 39.953125 
Q 51.609375 33.734375 51.609375 26.3125 
Q 51.609375 18.359375 48.75 11.984375 
Q 45.90625 5.609375 40.453125 2.21875 
Q 35.015625 -1.171875 29 -1.171875 
Q 24.609375 -1.171875 21.109375 0.6875 
Q 17.625 2.546875 15.375 5.375 
L 15.375 -19.875 
z
M 14.546875 25.640625 
Q 14.546875 15.625 18.59375 10.84375 
Q 22.65625 6.0625 28.421875 6.0625 
Q 34.28125 6.0625 38.453125 11.015625 
Q 42.625 15.96875 42.625 26.375 
Q 42.625 36.28125 38.546875 41.203125 
Q 34.46875 46.140625 28.8125 46.140625 
Q 23.1875 46.140625 18.859375 40.890625 
Q 14.546875 35.640625 14.546875 25.640625 
z
" id="ArialMT-70"/>
      <path d="M 6.640625 61.46875 
L 6.640625 71.578125 
L 15.4375 71.578125 
L 15.4375 61.46875 
z
M 6.640625 0 
L 6.640625 51.859375 
L 15.4375 51.859375 
L 15.4375 0 
z
" id="ArialMT-69"/>
      <path d="M 42.09375 16.703125 
L 51.171875 15.578125 
Q 49.03125 7.625 43.21875 3.21875 
Q 37.40625 -1.171875 28.375 -1.171875 
Q 17 -1.171875 10.328125 5.828125 
Q 3.65625 12.84375 3.65625 25.484375 
Q 3.65625 38.578125 10.390625 45.796875 
Q 17.140625 53.03125 27.875 53.03125 
Q 38.28125 53.03125 44.875 45.953125 
Q 51.46875 38.875 51.46875 26.03125 
Q 51.46875 25.25 51.421875 23.6875 
L 12.75 23.6875 
Q 13.234375 15.140625 17.578125 10.59375 
Q 21.921875 6.0625 28.421875 6.0625 
Q 33.25 6.0625 36.671875 8.59375 
Q 40.09375 11.140625 42.09375 16.703125 
z
M 13.234375 30.90625 
L 42.1875 30.90625 
Q 41.609375 37.453125 38.875 40.71875 
Q 34.671875 45.796875 27.984375 45.796875 
Q 21.921875 45.796875 17.796875 41.75 
Q 13.671875 37.703125 13.234375 30.90625 
z
" id="ArialMT-65"/>
     </defs>
     <g style="fill:#262626;" transform="translate(15.073594 408.081533)rotate(-90)scale(0.11 -0.11)">
      <use xlink:href="#ArialMT-70"/>
      <use x="55.615234" xlink:href="#ArialMT-72"/>
      <use x="88.916016" xlink:href="#ArialMT-69"/>
      <use x="111.132812" xlink:href="#ArialMT-63"/>
      <use x="161.132812" xlink:href="#ArialMT-65"/>
     </g>
    </g>
   </g>
   <g id="PathCollection_1">
    <path clip-path="url(#pdbb97d26b2)" d="M 61.581687 671.28 
L 67.098843 671.28 
L 72.615999 671.28 
L 78.133155 671.28 
L 83.65031 671.28 
L 89.167466 671.28 
L 94.684622 671.28 
L 100.201778 671.28 
L 105.718934 671.28 
L 111.23609 671.28 
L 116.753246 671.28 
L 122.270401 671.28 
L 127.787557 671.28 
L 133.304713 671.28 
L 138.821869 671.28 
L 144.339025 671.28 
L 149.856181 671.28 
L 155.373336 671.28 
L 160.890492 671.28 
L 166.407648 671.28 
L 171.924804 671.28 
L 177.44196 671.28 
L 182.959116 671.28 
L 188.476272 671.28 
L 193.993427 671.28 
L 199.510583 671.28 
L 205.027739 671.28 
L 210.544895 671.28 
L 216.062051 671.28 
L 221.579207 671.28 
L 227.096362 671.28 
L 232.613518 671.28 
L 238.130674 671.28 
L 243.64783 671.28 
L 249.164986 671.28 
L 254.682142 671.28 
L 260.199297 671.28 
L 265.716453 671.28 
L 271.233609 671.28 
L 276.750765 671.28 
L 282.267921 671.28 
L 287.785077 671.28 
L 293.302233 671.28 
L 298.819388 671.28 
L 304.336544 671.28 
L 309.8537 671.28 
L 315.370856 671.28 
L 320.888012 671.28 
L 326.405168 671.28 
L 331.922323 671.28 
L 337.439479 671.28 
L 342.956635 671.28 
L 348.473791 671.28 
L 353.990947 671.28 
L 359.508103 671.28 
L 365.025259 671.28 
L 370.542414 671.28 
L 376.05957 671.28 
L 381.576726 671.28 
L 387.093882 671.28 
L 392.611038 671.28 
L 398.128194 671.28 
L 403.645349 671.28 
L 409.162505 671.28 
L 414.679661 671.28 
L 420.196817 671.28 
L 425.713973 671.28 
L 431.231129 671.28 
L 436.748284 671.28 
L 442.26544 671.28 
L 447.782596 671.28 
L 453.299752 671.28 
L 458.816908 671.28 
L 464.334064 671.28 
L 469.85122 671.28 
L 475.368375 671.28 
L 480.885531 671.28 
L 486.402687 671.28 
L 491.919843 671.28 
L 497.436999 671.28 
L 502.954155 671.28 
L 508.47131 671.28 
L 513.988466 671.28 
L 519.505622 671.28 
L 525.022778 671.28 
L 530.539934 671.28 
L 536.05709 671.28 
L 541.574246 671.28 
L 547.091401 671.28 
L 552.608557 671.28 
L 558.125713 671.28 
L 563.642869 671.28 
L 569.160025 671.28 
L 574.677181 671.28 
L 580.194336 671.28 
L 585.711492 671.28 
L 591.228648 671.28 
L 596.745804 671.28 
L 602.26296 671.28 
L 602.26296 665.722043 
L 602.26296 660.164087 
L 602.26296 654.60613 
L 602.26296 649.048173 
L 602.26296 643.490216 
L 602.26296 637.93226 
L 602.26296 632.374303 
L 602.26296 626.816346 
L 602.26296 621.25839 
L 602.26296 615.700433 
L 602.26296 610.142476 
L 602.26296 604.584519 
L 602.26296 599.026563 
L 602.26296 593.468606 
L 602.26296 587.910649 
L 602.26296 582.352693 
L 602.26296 576.794736 
L 602.26296 571.236779 
L 602.26296 565.678823 
L 602.26296 560.120866 
L 602.26296 554.562909 
L 602.26296 549.004952 
L 602.26296 543.446996 
L 602.26296 537.889039 
L 602.26296 532.331082 
L 602.26296 526.773126 
L 602.26296 521.215169 
L 602.26296 515.657212 
L 602.26296 510.099255 
L 602.26296 504.541299 
L 602.26296 498.983342 
L 602.26296 493.425385 
L 602.26296 487.867429 
L 602.26296 482.309472 
L 602.26296 476.751515 
L 602.26296 471.193558 
L 602.26296 465.635602 
L 602.26296 460.077645 
L 602.26296 454.519688 
L 602.26296 448.961732 
L 602.26296 443.403775 
L 602.26296 437.845818 
L 602.26296 432.287861 
L 602.26296 426.729905 
L 602.26296 421.171948 
L 602.26296 415.613991 
L 602.26296 410.056035 
L 602.26296 404.498078 
L 602.26296 398.940121 
L 602.26296 393.382165 
L 602.26296 387.824208 
L 602.26296 382.266251 
L 602.26296 376.708294 
L 602.26296 371.150338 
L 602.26296 365.592381 
L 602.26296 360.034424 
L 602.26296 354.476468 
L 602.26296 348.918511 
L 602.26296 343.360554 
L 602.26296 337.802597 
L 602.26296 332.244641 
L 602.26296 326.686684 
L 602.26296 321.128727 
L 602.26296 315.570771 
L 602.26296 310.012814 
L 602.26296 304.454857 
L 602.26296 298.8969 
L 602.26296 293.338944 
L 602.26296 287.780987 
L 602.26296 282.22303 
L 602.26296 276.665074 
L 602.26296 271.107117 
L 602.26296 265.54916 
L 602.26296 259.991203 
L 602.26296 254.433247 
L 602.26296 248.87529 
L 602.26296 243.317333 
L 602.26296 237.759377 
L 602.26296 232.20142 
L 602.26296 226.643463 
L 602.26296 221.085506 
L 602.26296 215.52755 
L 602.26296 209.969593 
L 602.26296 204.411636 
L 602.26296 198.85368 
L 602.26296 193.295723 
L 602.26296 187.737766 
L 602.26296 182.17981 
L 602.26296 176.621853 
L 602.26296 171.063896 
L 602.26296 165.505939 
L 602.26296 159.947983 
L 602.26296 154.390026 
L 602.26296 148.832069 
L 602.26296 143.274113 
L 602.26296 137.716156 
L 602.26296 132.158199 
L 602.26296 126.600242 
L 602.26296 121.042286 
L 596.745804 121.042286 
L 591.228648 121.042286 
L 585.711492 121.042286 
L 580.194336 121.042286 
L 574.677181 121.042286 
L 569.160025 121.042286 
L 563.642869 121.042286 
L 558.125713 121.042286 
L 552.608557 121.042286 
L 547.091401 121.042286 
L 541.574246 121.042286 
L 536.05709 121.042286 
L 530.539934 121.042286 
L 525.022778 121.042286 
L 519.505622 121.042286 
L 513.988466 121.042286 
L 508.47131 121.042286 
L 502.954155 121.042286 
L 497.436999 121.042286 
L 491.919843 121.042286 
L 486.402687 121.042286 
L 480.885531 121.042286 
L 475.368375 121.042286 
L 469.85122 121.042286 
L 464.334064 121.042286 
L 458.816908 121.042286 
L 453.299752 121.042286 
L 447.782596 121.042286 
L 442.26544 121.042286 
L 436.748284 121.042286 
L 431.231129 121.042286 
L 425.713973 121.042286 
L 420.196817 121.042286 
L 414.679661 121.042286 
L 409.162505 121.042286 
L 403.645349 121.042286 
L 398.128194 121.042286 
L 392.611038 121.042286 
L 387.093882 121.042286 
L 381.576726 121.042286 
L 376.05957 121.042286 
L 370.542414 121.042286 
L 365.025259 121.042286 
L 359.508103 121.042286 
L 353.990947 121.042286 
L 348.473791 121.042286 
L 342.956635 121.042286 
L 337.439479 121.042286 
L 331.922323 121.042286 
L 326.405168 121.042286 
L 320.888012 121.042286 
L 315.370856 121.042286 
L 309.8537 121.042286 
L 304.336544 121.042286 
L 298.819388 121.042286 
L 293.302233 121.042286 
L 287.785077 121.042286 
L 282.267921 121.042286 
L 276.750765 121.042286 
L 271.233609 121.042286 
L 265.716453 121.042286 
L 260.199297 121.042286 
L 254.682142 121.042286 
L 249.164986 121.042286 
L 243.64783 121.042286 
L 238.130674 121.042286 
L 232.613518 121.042286 
L 227.096362 121.042286 
L 221.579207 121.042286 
L 216.062051 121.042286 
L 210.544895 121.042286 
L 205.027739 121.042286 
L 199.510583 121.042286 
L 193.993427 121.042286 
L 188.476272 121.042286 
L 182.959116 121.042286 
L 177.44196 121.042286 
L 171.924804 121.042286 
L 166.407648 121.042286 
L 160.890492 121.042286 
L 155.373336 121.042286 
L 149.856181 121.042286 
L 144.339025 121.042286 
L 138.821869 121.042286 
L 133.304713 121.042286 
L 127.787557 121.042286 
L 122.270401 121.042286 
L 116.753246 121.042286 
L 111.23609 121.042286 
L 105.718934 121.042286 
L 100.201778 121.042286 
L 94.684622 121.042286 
L 89.167466 121.042286 
L 83.65031 121.042286 
L 78.133155 121.042286 
L 72.615999 121.042286 
L 67.098843 121.042286 
L 61.581687 121.042286 
L 56.064531 121.042286 
L 56.064531 126.600242 
L 56.064531 132.158199 
L 56.064531 137.716156 
L 56.064531 143.274113 
L 56.064531 148.832069 
L 56.064531 154.390026 
L 56.064531 159.947983 
L 56.064531 165.505939 
L 56.064531 171.063896 
L 56.064531 176.621853 
L 56.064531 182.17981 
L 56.064531 187.737766 
L 56.064531 193.295723 
L 56.064531 198.85368 
L 56.064531 204.411636 
L 56.064531 209.969593 
L 56.064531 215.52755 
L 56.064531 221.085506 
L 56.064531 226.643463 
L 56.064531 232.20142 
L 56.064531 237.759377 
L 56.064531 243.317333 
L 56.064531 248.87529 
L 56.064531 254.433247 
L 56.064531 259.991203 
L 56.064531 265.54916 
L 56.064531 271.107117 
L 56.064531 276.665074 
L 56.064531 282.22303 
L 56.064531 287.780987 
L 56.064531 293.338944 
L 56.064531 298.8969 
L 56.064531 304.454857 
L 56.064531 310.012814 
L 56.064531 315.570771 
L 56.064531 321.128727 
L 56.064531 326.686684 
L 56.064531 332.244641 
L 56.064531 337.802597 
L 56.064531 343.360554 
L 56.064531 348.918511 
L 56.064531 354.476468 
L 56.064531 360.034424 
L 56.064531 365.592381 
L 56.064531 371.150338 
L 56.064531 376.708294 
L 56.064531 382.266251 
L 56.064531 387.824208 
L 56.064531 393.382165 
L 56.064531 398.940121 
L 56.064531 404.498078 
L 56.064531 410.056035 
L 56.064531 415.613991 
L 56.064531 421.171948 
L 56.064531 426.729905 
L 56.064531 432.287861 
L 56.064531 437.845818 
L 56.064531 443.403775 
L 56.064531 448.961732 
L 56.064531 454.519688 
L 56.064531 460.077645 
L 56.064531 465.635602 
L 56.064531 471.193558 
L 56.064531 476.751515 
L 56.064531 482.309472 
L 56.064531 487.867429 
L 56.064531 493.425385 
L 56.064531 498.983342 
L 56.064531 504.541299 
L 56.064531 510.099255 
L 56.064531 515.657212 
L 56.064531 521.215169 
L 56.064531 526.773126 
L 56.064531 532.331082 
L 56.064531 537.889039 
L 56.064531 543.446996 
L 56.064531 549.004952 
L 56.064531 554.562909 
L 56.064531 560.120866 
L 56.064531 565.678823 
L 56.064531 571.236779 
L 56.064531 576.794736 
L 56.064531 582.352693 
L 56.064531 587.910649 
L 56.064531 593.468606 
L 56.064531 599.026563 
L 56.064531 604.584519 
L 56.064531 610.142476 
L 56.064531 615.700433 
L 56.064531 621.25839 
L 56.064531 626.816346 
L 56.064531 632.374303 
L 56.064531 637.93226 
L 56.064531 643.490216 
L 56.064531 649.048173 
L 56.064531 654.60613 
L 56.064531 660.164087 
L 56.064531 665.722043 
L 56.064531 671.28 
z
M 74.231124 643.490216 
L 74.143336 637.93226 
L 74.951071 632.374303 
L 77.088849 626.816346 
L 78.133155 625.240889 
L 79.007368 621.25839 
L 80.86283 615.700433 
L 83.65031 611.885759 
L 84.191551 610.142476 
L 86.286406 604.584519 
L 89.167466 600.916312 
L 89.987871 599.026563 
L 93.224043 593.468606 
L 94.684622 591.704918 
L 96.942023 587.910649 
L 100.201778 583.890461 
L 101.789529 582.352693 
L 105.718934 577.856624 
L 107.000413 576.794736 
L 111.23609 572.48324 
L 112.403038 571.236779 
L 116.753246 566.420416 
L 117.490524 565.678823 
L 122.25337 560.120866 
L 122.270401 560.100208 
L 126.724004 554.562909 
L 127.787557 553.188577 
L 130.83132 549.004952 
L 133.304713 545.487717 
L 134.987877 543.446996 
L 138.821869 538.458616 
L 139.438637 537.889039 
L 144.339025 532.597158 
L 144.554209 532.331082 
L 148.359678 526.773126 
L 149.856181 524.494524 
L 151.402615 521.215169 
L 153.928407 515.657212 
L 155.373336 512.57983 
L 156.474406 510.099255 
L 158.755997 504.541299 
L 160.890492 499.56031 
L 161.266676 498.983342 
L 164.414127 493.425385 
L 166.407648 490.242411 
L 171.924804 489.043403 
L 177.44196 491.566648 
L 179.161724 493.425385 
L 180.770298 498.983342 
L 180.321287 504.541299 
L 179.068279 510.099255 
L 177.44196 514.186629 
L 177.033117 515.657212 
L 175.16575 521.215169 
L 172.508209 526.773126 
L 171.924804 527.749698 
L 169.990123 532.331082 
L 166.870335 537.889039 
L 166.407648 538.587284 
L 163.566577 543.446996 
L 160.890492 547.203554 
L 159.438388 549.004952 
L 155.373336 554.05842 
L 154.95261 554.562909 
L 150.561253 560.120866 
L 149.856181 560.956535 
L 147.108138 565.678823 
L 144.339025 569.489276 
L 143.6081 571.236779 
L 140.694617 576.794736 
L 138.821869 579.393857 
L 137.388516 582.352693 
L 133.747912 587.910649 
L 133.304713 588.488364 
L 130.041095 593.468606 
L 127.787557 596.322388 
L 125.279558 599.026563 
L 122.270401 602.319695 
L 120.378635 604.584519 
L 116.753246 608.366622 
L 115.573087 610.142476 
L 111.23609 615.114685 
L 110.815316 615.700433 
L 106.025977 621.25839 
L 105.718934 621.589785 
L 101.322271 626.816346 
L 100.201778 627.960072 
L 96.678018 632.374303 
L 94.684622 634.437793 
L 91.382071 637.93226 
L 89.167466 640.227533 
L 85.371782 643.490216 
L 83.65031 645.117713 
L 78.133155 648.349895 
z
" style="fill:#ffe7e7;"/>
   </g>
   <g id="PathCollection_2">
    <path clip-path="url(#pdbb97d26b2)" d="M 78.133155 648.349895 
L 83.65031 645.117713 
L 85.371782 643.490216 
L 89.167466 640.227533 
L 91.382071 637.93226 
L 94.684622 634.437793 
L 96.678018 632.374303 
L 100.201778 627.960072 
L 101.322271 626.816346 
L 105.718934 621.589785 
L 106.025977 621.25839 
L 110.815316 615.700433 
L 111.23609 615.114685 
L 115.573087 610.142476 
L 116.753246 608.366622 
L 120.378635 604.584519 
L 122.270401 602.319695 
L 125.279558 599.026563 
L 127.787557 596.322388 
L 130.041095 593.468606 
L 133.304713 588.488364 
L 133.747912 587.910649 
L 137.388516 582.352693 
L 138.821869 579.393857 
L 140.694617 576.794736 
L 143.6081 571.236779 
L 144.339025 569.489276 
L 147.108138 565.678823 
L 149.856181 560.956535 
L 150.561253 560.120866 
L 154.95261 554.562909 
L 155.373336 554.05842 
L 159.438388 549.004952 
L 160.890492 547.203554 
L 163.566577 543.446996 
L 166.407648 538.587284 
L 166.870335 537.889039 
L 169.990123 532.331082 
L 171.924804 527.749698 
L 172.508209 526.773126 
L 175.16575 521.215169 
L 177.033117 515.657212 
L 177.44196 514.186629 
L 179.068279 510.099255 
L 180.321287 504.541299 
L 180.770298 498.983342 
L 179.161724 493.425385 
L 177.44196 491.566648 
L 171.924804 489.043403 
L 166.407648 490.242411 
L 164.414127 493.425385 
L 161.266676 498.983342 
L 160.890492 499.56031 
L 158.755997 504.541299 
L 156.474406 510.099255 
L 155.373336 512.57983 
L 153.928407 515.657212 
L 151.402615 521.215169 
L 149.856181 524.494524 
L 148.359678 526.773126 
L 144.554209 532.331082 
L 144.339025 532.597158 
L 139.438637 537.889039 
L 138.821869 538.458616 
L 134.987877 543.446996 
L 133.304713 545.487717 
L 130.83132 549.004952 
L 127.787557 553.188577 
L 126.724004 554.562909 
L 122.270401 560.100208 
L 122.25337 560.120866 
L 117.490524 565.678823 
L 116.753246 566.420416 
L 112.403038 571.236779 
L 111.23609 572.48324 
L 107.000413 576.794736 
L 105.718934 577.856624 
L 101.789529 582.352693 
L 100.201778 583.890461 
L 96.942023 587.910649 
L 94.684622 591.704918 
L 93.224043 593.468606 
L 89.987871 599.026563 
L 89.167466 600.916312 
L 86.286406 604.584519 
L 84.191551 610.142476 
L 83.65031 611.885759 
L 80.86283 615.700433 
L 79.007368 621.25839 
L 78.133155 625.240889 
L 77.088849 626.816346 
L 74.951071 632.374303 
L 74.143336 637.93226 
L 74.231124 643.490216 
z
M 77.205615 637.93226 
L 77.943484 632.374303 
L 78.133155 631.956143 
L 79.180299 626.816346 
L 80.572778 621.25839 
L 83.65031 615.898572 
L 83.718344 615.700433 
L 85.468721 610.142476 
L 89.167466 604.621692 
L 89.187513 604.584519 
L 91.612036 599.026563 
L 94.684622 594.919177 
L 95.840653 593.468606 
L 100.103625 587.910649 
L 100.201778 587.789599 
L 105.718934 582.426699 
L 105.819945 582.352693 
L 111.23609 577.663568 
L 112.196381 576.794736 
L 116.753246 571.996392 
L 117.871716 571.236779 
L 122.270401 566.812846 
L 124.031248 565.678823 
L 127.787557 562.272755 
L 129.586224 560.120866 
L 133.304713 555.636277 
L 134.467496 554.562909 
L 138.821869 549.726533 
L 142.182766 549.004952 
L 144.339025 548.150589 
L 145.056397 549.004952 
L 144.839267 554.562909 
L 144.339025 555.669552 
L 143.019407 560.120866 
L 141.271346 565.678823 
L 138.821869 570.845666 
L 138.628917 571.236779 
L 135.973959 576.794736 
L 133.304713 581.422513 
L 132.517765 582.352693 
L 128.636757 587.910649 
L 127.787557 589.060174 
L 123.374821 593.468606 
L 122.270401 594.648494 
L 119.309105 599.026563 
L 116.753246 601.915758 
L 115.231089 604.584519 
L 111.23609 609.68538 
L 110.949479 610.142476 
L 106.781681 615.700433 
L 105.718934 616.895851 
L 102.580572 621.25839 
L 100.201778 623.831711 
L 97.890519 626.816346 
L 94.684622 630.368225 
L 92.827849 632.374303 
L 89.167466 636.14964 
L 86.96524 637.93226 
L 83.65031 641.000869 
L 78.133155 640.977876 
z
M 159.753907 526.773126 
L 160.890492 521.791581 
L 162.155215 526.773126 
L 160.890492 530.397581 
z
" style="fill:#ffb3b3;"/>
   </g>
   <g id="PathCollection_3">
    <path clip-path="url(#pdbb97d26b2)" d="M 78.133155 640.977876 
L 83.65031 641.000869 
L 86.96524 637.93226 
L 89.167466 636.14964 
L 92.827849 632.374303 
L 94.684622 630.368225 
L 97.890519 626.816346 
L 100.201778 623.831711 
L 102.580572 621.25839 
L 105.718934 616.895851 
L 106.781681 615.700433 
L 110.949479 610.142476 
L 111.23609 609.68538 
L 115.231089 604.584519 
L 116.753246 601.915758 
L 119.309105 599.026563 
L 122.270401 594.648494 
L 123.374821 593.468606 
L 127.787557 589.060174 
L 128.636757 587.910649 
L 132.517765 582.352693 
L 133.304713 581.422513 
L 135.973959 576.794736 
L 138.628917 571.236779 
L 138.821869 570.845666 
L 141.271346 565.678823 
L 143.019407 560.120866 
L 144.339025 555.669552 
L 144.839267 554.562909 
L 145.056397 549.004952 
L 144.339025 548.150589 
L 142.182766 549.004952 
L 138.821869 549.726533 
L 134.467496 554.562909 
L 133.304713 555.636277 
L 129.586224 560.120866 
L 127.787557 562.272755 
L 124.031248 565.678823 
L 122.270401 566.812846 
L 117.871716 571.236779 
L 116.753246 571.996392 
L 112.196381 576.794736 
L 111.23609 577.663568 
L 105.819945 582.352693 
L 105.718934 582.426699 
L 100.201778 587.789599 
L 100.103625 587.910649 
L 95.840653 593.468606 
L 94.684622 594.919177 
L 91.612036 599.026563 
L 89.187513 604.584519 
L 89.167466 604.621692 
L 85.468721 610.142476 
L 83.718344 615.700433 
L 83.65031 615.898572 
L 80.572778 621.25839 
L 79.180299 626.816346 
L 78.133155 631.956143 
L 77.943484 632.374303 
L 77.205615 637.93226 
z
M 80.018883 632.374303 
L 80.524381 626.816346 
L 82.138188 621.25839 
L 83.65031 618.624883 
L 84.654456 615.700433 
L 86.745891 610.142476 
L 89.167466 606.528009 
L 90.215591 604.584519 
L 93.236201 599.026563 
L 94.684622 597.090336 
L 97.570954 593.468606 
L 100.201778 590.073988 
L 103.266188 587.910649 
L 105.718934 585.515294 
L 110.035535 582.352693 
L 111.23609 581.313291 
L 116.230296 576.794736 
L 116.753246 576.244074 
L 122.270401 574.312023 
L 127.787557 575.356571 
L 128.551363 576.794736 
L 127.787557 578.068649 
L 125.558075 582.352693 
L 122.270401 585.713994 
L 121.655255 587.910649 
L 119.030498 593.468606 
L 116.753246 596.547035 
L 115.56537 599.026563 
L 112.104368 604.584519 
L 111.23609 605.693148 
L 108.446251 610.142476 
L 105.718934 613.458655 
L 104.2515 615.700433 
L 100.201778 620.604114 
L 99.721687 621.25839 
L 95.156228 626.816346 
L 94.684622 627.338848 
L 90.023938 632.374303 
L 89.167466 633.257673 
L 83.65031 637.718485 
z
M 130.627308 571.236779 
L 133.210218 565.678823 
L 133.304713 565.561585 
L 133.431356 565.678823 
L 133.939184 571.236779 
L 133.304713 572.918878 
z
" style="fill:#ff7f7f;"/>
    <path clip-path="url(#pdbb97d26b2)" d="M 160.890492 530.397581 
L 162.155215 526.773126 
L 160.890492 521.791581 
L 159.753907 526.773126 
z
" style="fill:#ff7f7f;"/>
   </g>
   <g id="PathCollection_4">
    <path clip-path="url(#pdbb97d26b2)" d="M 83.65031 637.718485 
L 89.167466 633.257673 
L 90.023938 632.374303 
L 94.684622 627.338848 
L 95.156228 626.816346 
L 99.721687 621.25839 
L 100.201778 620.604114 
L 104.2515 615.700433 
L 105.718934 613.458655 
L 108.446251 610.142476 
L 111.23609 605.693148 
L 112.104368 604.584519 
L 115.56537 599.026563 
L 116.753246 596.547035 
L 119.030498 593.468606 
L 121.655255 587.910649 
L 122.270401 585.713994 
L 125.558075 582.352693 
L 127.787557 578.068649 
L 128.551363 576.794736 
L 127.787557 575.356571 
L 122.270401 574.312023 
L 116.753246 576.244074 
L 116.230296 576.794736 
L 111.23609 581.313291 
L 110.035535 582.352693 
L 105.718934 585.515294 
L 103.266188 587.910649 
L 100.201778 590.073988 
L 97.570954 593.468606 
L 94.684622 597.090336 
L 93.236201 599.026563 
L 90.215591 604.584519 
L 89.167466 606.528009 
L 86.745891 610.142476 
L 84.654456 615.700433 
L 83.65031 618.624883 
L 82.138188 621.25839 
L 80.524381 626.816346 
L 80.018883 632.374303 
z
M 82.032224 632.374303 
L 81.868464 626.816346 
L 83.65031 621.397531 
L 83.693025 621.25839 
L 85.590569 615.700433 
L 88.023062 610.142476 
L 89.167466 608.434326 
L 91.243669 604.584519 
L 94.684622 599.200621 
L 94.876753 599.026563 
L 99.301256 593.468606 
L 100.201778 592.30664 
L 105.718934 588.597162 
L 106.869299 587.910649 
L 111.23609 584.889088 
L 115.716209 582.352693 
L 116.753246 581.464454 
L 117.749143 582.352693 
L 117.865927 587.910649 
L 116.753246 590.220881 
L 115.540695 593.468606 
L 113.05383 599.026563 
L 111.23609 601.808331 
L 109.710016 604.584519 
L 105.943022 610.142476 
L 105.718934 610.414948 
L 102.259135 615.700433 
L 100.201778 618.191622 
L 97.95146 621.25839 
L 94.684622 625.095656 
L 93.158013 626.816346 
L 89.167466 631.023471 
L 86.609838 632.374303 
L 83.65031 634.755556 
z
" style="fill:#ff4d4d;"/>
    <path clip-path="url(#pdbb97d26b2)" d="M 133.304713 572.918878 
L 133.939184 571.236779 
L 133.431356 565.678823 
L 133.304713 565.561585 
L 133.210218 565.678823 
L 130.627308 571.236779 
z
" style="fill:#ff4d4d;"/>
   </g>
   <g id="PathCollection_5">
    <path clip-path="url(#pdbb97d26b2)" d="M 83.65031 634.755556 
L 86.609838 632.374303 
L 89.167466 631.023471 
L 93.158013 626.816346 
L 94.684622 625.095656 
L 97.95146 621.25839 
L 100.201778 618.191622 
L 102.259135 615.700433 
L 105.718934 610.414948 
L 105.943022 610.142476 
L 109.710016 604.584519 
L 111.23609 601.808331 
L 113.05383 599.026563 
L 115.540695 593.468606 
L 116.753246 590.220881 
L 117.865927 587.910649 
L 117.749143 582.352693 
L 116.753246 581.464454 
L 115.716209 582.352693 
L 111.23609 584.889088 
L 106.869299 587.910649 
L 105.718934 588.597162 
L 100.201778 592.30664 
L 99.301256 593.468606 
L 94.876753 599.026563 
L 94.684622 599.200621 
L 91.243669 604.584519 
L 89.167466 608.434326 
L 88.023062 610.142476 
L 85.590569 615.700433 
L 83.693025 621.25839 
L 83.65031 621.397531 
L 81.868464 626.816346 
L 82.032224 632.374303 
z
M 83.212546 626.816346 
L 83.65031 625.485051 
L 84.947847 621.25839 
L 86.526681 615.700433 
L 89.167466 610.340005 
L 89.295479 610.142476 
L 92.271747 604.584519 
L 94.684622 600.809206 
L 96.652357 599.026563 
L 100.201778 594.543977 
L 102.669305 593.468606 
L 105.718934 591.655793 
L 111.23609 589.25147 
L 112.603266 593.468606 
L 111.23609 596.956451 
L 110.390186 599.026563 
L 107.59723 604.584519 
L 105.718934 607.330346 
L 104.085838 610.142476 
L 100.26677 615.700433 
L 100.201778 615.779129 
L 96.181234 621.25839 
L 94.684622 623.016327 
L 91.313216 626.816346 
L 89.167466 629.078552 
L 83.65031 630.284086 
z
" style="fill:#ff1919;"/>
   </g>
   <g id="PathCollection_6">
    <path clip-path="url(#pdbb97d26b2)" d="M 83.65031 630.284086 
L 89.167466 629.078552 
L 91.313216 626.816346 
L 94.684622 623.016327 
L 96.181234 621.25839 
L 100.201778 615.779129 
L 100.26677 615.700433 
L 104.085838 610.142476 
L 105.718934 607.330346 
L 107.59723 604.584519 
L 110.390186 599.026563 
L 111.23609 596.956451 
L 112.603266 593.468606 
L 111.23609 589.25147 
L 105.718934 591.655793 
L 102.669305 593.468606 
L 100.201778 594.543977 
L 96.652357 599.026563 
L 94.684622 600.809206 
L 92.271747 604.584519 
L 89.295479 610.142476 
L 89.167466 610.340005 
L 86.526681 615.700433 
L 84.947847 621.25839 
L 83.65031 625.485051 
L 83.212546 626.816346 
z
M 88.092705 626.816346 
L 86.20267 621.25839 
L 87.462794 615.700433 
L 89.167466 612.240184 
L 90.52693 610.142476 
L 93.299825 604.584519 
L 94.684622 602.417792 
L 98.427962 599.026563 
L 100.201778 596.7864 
L 105.718934 595.895542 
L 107.328031 599.026563 
L 105.718934 603.615325 
L 105.432218 604.584519 
L 102.292174 610.142476 
L 100.201778 613.179511 
L 98.667182 615.700433 
L 94.684622 620.93605 
L 94.345861 621.25839 
L 89.468419 626.816346 
L 89.167466 627.133633 
z
" style="fill:#e60000;"/>
   </g>
   <g id="PathCollection_7">
    <path clip-path="url(#pdbb97d26b2)" d="M 89.167466 627.133633 
L 89.468419 626.816346 
L 94.345861 621.25839 
L 94.684622 620.93605 
L 98.667182 615.700433 
L 100.201778 613.179511 
L 102.292174 610.142476 
L 105.432218 604.584519 
L 105.718934 603.615325 
L 107.328031 599.026563 
L 105.718934 595.895542 
L 100.201778 596.7864 
L 98.427962 599.026563 
L 94.684622 602.417792 
L 93.299825 604.584519 
L 90.52693 610.142476 
L 89.167466 612.240184 
L 87.462794 615.700433 
L 86.20267 621.25839 
L 88.092705 626.816346 
z
M 87.457492 621.25839 
L 88.398906 615.700433 
L 89.167466 614.140362 
L 91.75838 610.142476 
L 94.327903 604.584519 
L 94.684622 604.026377 
L 100.201778 599.032023 
L 102.848876 604.584519 
L 100.498509 610.142476 
L 100.201778 610.573583 
L 97.080839 615.700433 
L 94.684622 618.850586 
L 92.154154 621.25839 
L 89.167466 624.701743 
z
" style="fill:#b20000;"/>
   </g>
   <g id="PathCollection_8">
    <path clip-path="url(#pdbb97d26b2)" d="M 89.167466 624.701743 
L 92.154154 621.25839 
L 94.684622 618.850586 
L 97.080839 615.700433 
L 100.201778 610.573583 
L 100.498509 610.142476 
L 102.848876 604.584519 
L 100.201778 599.032023 
L 94.684622 604.026377 
L 94.327903 604.584519 
L 91.75838 610.142476 
L 89.167466 614.140362 
L 88.398906 615.700433 
L 87.457492 621.25839 
z
M 88.712314 621.25839 
L 89.167466 617.536846 
L 89.962448 621.25839 
L 89.167466 622.174924 
z
M 90.59963 615.700433 
L 92.989831 610.142476 
L 94.684622 606.373073 
L 98.119099 610.142476 
L 95.494496 615.700433 
L 94.684622 616.765123 
z
M 100.000861 604.584519 
L 100.201778 604.450786 
L 100.265534 604.584519 
L 100.201778 604.744158 
z
" style="fill:#7e0000;"/>
   </g>
   <g id="PathCollection_9">
    <path clip-path="url(#pdbb97d26b2)" d="M 89.167466 622.174924 
L 89.962448 621.25839 
L 89.167466 617.536846 
L 88.712314 621.25839 
z
" style="fill:#4c0000;"/>
    <path clip-path="url(#pdbb97d26b2)" d="M 94.684622 616.765123 
L 95.494496 615.700433 
L 98.119099 610.142476 
L 94.684622 606.373073 
L 92.989831 610.142476 
L 90.59963 615.700433 
z
M 94.221281 610.142476 
L 94.684622 609.111955 
L 95.623577 610.142476 
L 94.684622 612.558036 
z
" style="fill:#4c0000;"/>
    <path clip-path="url(#pdbb97d26b2)" d="M 100.201778 604.744158 
L 100.265534 604.584519 
L 100.201778 604.450786 
L 100.000861 604.584519 
z
" style="fill:#4c0000;"/>
   </g>
   <g id="PathCollection_10">
    <path clip-path="url(#pdbb97d26b2)" d="M 94.684622 612.558036 
L 95.623577 610.142476 
L 94.684622 609.111955 
L 94.221281 610.142476 
z
" style="fill:#180000;"/>
   </g>
   <g id="patch_3">
    <path d="M 56.064531 671.28 
L 56.064531 121.042286 
" style="fill:none;stroke:#cccccc;stroke-linecap:square;stroke-linejoin:miter;"/>
   </g>
   <g id="patch_4">
    <path d="M 56.064531 671.28 
L 602.26296 671.28 
" style="fill:none;stroke:#cccccc;stroke-linecap:square;stroke-linejoin:miter;"/>
   </g>
   <g id="legend_1">
    <g id="line2d_31"/>
    <g id="line2d_32"/>
    <g id="text_18">
     <!-- pearsonr = 0.92; p = 0 -->
     <defs>
      <path d="M 3.078125 15.484375 
L 11.765625 16.84375 
Q 12.5 11.625 15.84375 8.84375 
Q 19.1875 6.0625 25.203125 6.0625 
Q 31.25 6.0625 34.171875 8.515625 
Q 37.109375 10.984375 37.109375 14.3125 
Q 37.109375 17.28125 34.515625 19 
Q 32.71875 20.171875 25.53125 21.96875 
Q 15.875 24.421875 12.140625 26.203125 
Q 8.40625 27.984375 6.46875 31.125 
Q 4.546875 34.28125 4.546875 38.09375 
Q 4.546875 41.546875 6.125 44.5 
Q 7.71875 47.46875 10.453125 49.421875 
Q 12.5 50.921875 16.03125 51.96875 
Q 19.578125 53.03125 23.640625 53.03125 
Q 29.734375 53.03125 34.34375 51.265625 
Q 38.96875 49.515625 41.15625 46.5 
Q 43.359375 43.5 44.1875 38.484375 
L 35.59375 37.3125 
Q 35.015625 41.3125 32.203125 43.546875 
Q 29.390625 45.796875 24.265625 45.796875 
Q 18.21875 45.796875 15.625 43.796875 
Q 13.03125 41.796875 13.03125 39.109375 
Q 13.03125 37.40625 14.109375 36.03125 
Q 15.1875 34.625 17.484375 33.6875 
Q 18.796875 33.203125 25.25 31.453125 
Q 34.578125 28.953125 38.25 27.359375 
Q 41.9375 25.78125 44.03125 22.75 
Q 46.140625 19.734375 46.140625 15.234375 
Q 46.140625 10.84375 43.578125 6.953125 
Q 41.015625 3.078125 36.171875 0.953125 
Q 31.34375 -1.171875 25.25 -1.171875 
Q 15.140625 -1.171875 9.84375 3.03125 
Q 4.546875 7.234375 3.078125 15.484375 
z
" id="ArialMT-73"/>
      <path d="M 3.328125 25.921875 
Q 3.328125 40.328125 11.328125 47.265625 
Q 18.015625 53.03125 27.640625 53.03125 
Q 38.328125 53.03125 45.109375 46.015625 
Q 51.90625 39.015625 51.90625 26.65625 
Q 51.90625 16.65625 48.90625 10.90625 
Q 45.90625 5.171875 40.15625 2 
Q 34.421875 -1.171875 27.640625 -1.171875 
Q 16.75 -1.171875 10.03125 5.8125 
Q 3.328125 12.796875 3.328125 25.921875 
z
M 12.359375 25.921875 
Q 12.359375 15.96875 16.703125 11.015625 
Q 21.046875 6.0625 27.640625 6.0625 
Q 34.1875 6.0625 38.53125 11.03125 
Q 42.875 16.015625 42.875 26.21875 
Q 42.875 35.84375 38.5 40.796875 
Q 34.125 45.75 27.640625 45.75 
Q 21.046875 45.75 16.703125 40.8125 
Q 12.359375 35.890625 12.359375 25.921875 
z
" id="ArialMT-6f"/>
      <path d="M 6.59375 0 
L 6.59375 51.859375 
L 14.5 51.859375 
L 14.5 44.484375 
Q 20.21875 53.03125 31 53.03125 
Q 35.6875 53.03125 39.625 51.34375 
Q 43.5625 49.65625 45.515625 46.921875 
Q 47.46875 44.1875 48.25 40.4375 
Q 48.734375 37.984375 48.734375 31.890625 
L 48.734375 0 
L 39.9375 0 
L 39.9375 31.546875 
Q 39.9375 36.921875 38.90625 39.578125 
Q 37.890625 42.234375 35.28125 43.8125 
Q 32.671875 45.40625 29.15625 45.40625 
Q 23.53125 45.40625 19.453125 41.84375 
Q 15.375 38.28125 15.375 28.328125 
L 15.375 0 
z
" id="ArialMT-6e"/>
      <path id="ArialMT-20"/>
      <path d="M 52.828125 42.09375 
L 5.5625 42.09375 
L 5.5625 50.296875 
L 52.828125 50.296875 
z
M 52.828125 20.359375 
L 5.5625 20.359375 
L 5.5625 28.5625 
L 52.828125 28.5625 
z
" id="ArialMT-3d"/>
      <path d="M 9.078125 0 
L 9.078125 10.015625 
L 19.09375 10.015625 
L 19.09375 0 
z
" id="ArialMT-2e"/>
      <path d="M 5.46875 16.546875 
L 13.921875 17.328125 
Q 14.984375 11.375 18.015625 8.6875 
Q 21.046875 6 25.78125 6 
Q 29.828125 6 32.875 7.859375 
Q 35.9375 9.71875 37.890625 12.8125 
Q 39.84375 15.921875 41.15625 21.1875 
Q 42.484375 26.46875 42.484375 31.9375 
Q 42.484375 32.515625 42.4375 33.6875 
Q 39.796875 29.5 35.234375 26.875 
Q 30.671875 24.265625 25.34375 24.265625 
Q 16.453125 24.265625 10.296875 30.703125 
Q 4.15625 37.15625 4.15625 47.703125 
Q 4.15625 58.59375 10.578125 65.234375 
Q 17 71.875 26.65625 71.875 
Q 33.640625 71.875 39.421875 68.109375 
Q 45.21875 64.359375 48.21875 57.390625 
Q 51.21875 50.4375 51.21875 37.25 
Q 51.21875 23.53125 48.234375 15.40625 
Q 45.265625 7.28125 39.375 3.03125 
Q 33.5 -1.21875 25.59375 -1.21875 
Q 17.1875 -1.21875 11.859375 3.4375 
Q 6.546875 8.109375 5.46875 16.546875 
z
M 41.453125 48.140625 
Q 41.453125 55.71875 37.421875 60.15625 
Q 33.40625 64.59375 27.734375 64.59375 
Q 21.875 64.59375 17.53125 59.8125 
Q 13.1875 55.03125 13.1875 47.40625 
Q 13.1875 40.578125 17.3125 36.296875 
Q 21.4375 32.03125 27.484375 32.03125 
Q 33.59375 32.03125 37.515625 36.296875 
Q 41.453125 40.578125 41.453125 48.140625 
z
" id="ArialMT-39"/>
      <path d="M 8.890625 41.84375 
L 8.890625 51.859375 
L 18.890625 51.859375 
L 18.890625 41.84375 
z
M 8.890625 0 
L 8.890625 10.015625 
L 18.890625 10.015625 
L 18.890625 0 
Q 18.890625 -5.515625 16.9375 -8.90625 
Q 14.984375 -12.3125 10.75 -14.15625 
L 8.296875 -10.40625 
Q 11.078125 -9.1875 12.390625 -6.8125 
Q 13.71875 -4.4375 13.875 0 
z
" id="ArialMT-3b"/>
     </defs>
     <g style="fill:#262626;" transform="translate(494.866085 137.229786)scale(0.1 -0.1)">
      <use xlink:href="#ArialMT-70"/>
      <use x="55.615234" xlink:href="#ArialMT-65"/>
      <use x="111.230469" xlink:href="#ArialMT-61"/>
      <use x="166.845703" xlink:href="#ArialMT-72"/>
      <use x="200.146484" xlink:href="#ArialMT-73"/>
      <use x="250.146484" xlink:href="#ArialMT-6f"/>
      <use x="305.761719" xlink:href="#ArialMT-6e"/>
      <use x="361.376953" xlink:href="#ArialMT-72"/>
      <use x="394.677734" xlink:href="#ArialMT-20"/>
      <use x="422.460938" xlink:href="#ArialMT-3d"/>
      <use x="480.859375" xlink:href="#ArialMT-20"/>
      <use x="508.642578" xlink:href="#ArialMT-30"/>
      <use x="564.257812" xlink:href="#ArialMT-2e"/>
      <use x="592.041016" xlink:href="#ArialMT-39"/>
      <use x="647.65625" xlink:href="#ArialMT-32"/>
      <use x="703.271484" xlink:href="#ArialMT-3b"/>
      <use x="731.054688" xlink:href="#ArialMT-20"/>
      <use x="758.837891" xlink:href="#ArialMT-70"/>
      <use x="814.453125" xlink:href="#ArialMT-20"/>
      <use x="842.236328" xlink:href="#ArialMT-3d"/>
      <use x="900.634766" xlink:href="#ArialMT-20"/>
      <use x="928.417969" xlink:href="#ArialMT-30"/>
     </g>
    </g>
   </g>
  </g>
  <g id="axes_2">
   <g id="patch_5">
    <path d="M 56.064531 102.068571 
L 602.26296 102.068571 
L 602.26296 7.2 
L 56.064531 7.2 
z
" style="fill:#ffffff;"/>
   </g>
   <g id="matplotlib.axis_3">
    <g id="xtick_7">
     <g id="line2d_33">
      <path clip-path="url(#p6004f1de84)" d="M 59.311451 102.068571 
L 59.311451 7.2 
" style="fill:none;stroke:#cccccc;stroke-linecap:round;"/>
     </g>
     <g id="line2d_34"/>
    </g>
    <g id="xtick_8">
     <g id="line2d_35">
      <path clip-path="url(#p6004f1de84)" d="M 162.901583 102.068571 
L 162.901583 7.2 
" style="fill:none;stroke:#cccccc;stroke-linecap:round;"/>
     </g>
     <g id="line2d_36"/>
    </g>
    <g id="xtick_9">
     <g id="line2d_37">
      <path clip-path="url(#p6004f1de84)" d="M 266.491716 102.068571 
L 266.491716 7.2 
" style="fill:none;stroke:#cccccc;stroke-linecap:round;"/>
     </g>
     <g id="line2d_38"/>
    </g>
    <g id="xtick_10">
     <g id="line2d_39">
      <path clip-path="url(#p6004f1de84)" d="M 370.081848 102.068571 
L 370.081848 7.2 
" style="fill:none;stroke:#cccccc;stroke-linecap:round;"/>
     </g>
     <g id="line2d_40"/>
    </g>
    <g id="xtick_11">
     <g id="line2d_41">
      <path clip-path="url(#p6004f1de84)" d="M 473.67198 102.068571 
L 473.67198 7.2 
" style="fill:none;stroke:#cccccc;stroke-linecap:round;"/>
     </g>
     <g id="line2d_42"/>
    </g>
    <g id="xtick_12">
     <g id="line2d_43">
      <path clip-path="url(#p6004f1de84)" d="M 577.262112 102.068571 
L 577.262112 7.2 
" style="fill:none;stroke:#cccccc;stroke-linecap:round;"/>
     </g>
     <g id="line2d_44"/>
    </g>
   </g>
   <g id="matplotlib.axis_4">
    <g id="ytick_10"/>
    <g id="ytick_11"/>
    <g id="ytick_12"/>
    <g id="ytick_13"/>
   </g>
   <g id="PolyCollection_1">
    <path clip-path="url(#p6004f1de84)" d="M 63.363067 102.059846 
L 63.363067 102.068571 
L 68.732778 102.068571 
L 74.102489 102.068571 
L 79.472199 102.068571 
L 84.84191 102.068571 
L 90.211621 102.068571 
L 95.581331 102.068571 
L 100.951042 102.068571 
L 106.320753 102.068571 
L 111.690463 102.068571 
L 117.060174 102.068571 
L 122.429885 102.068571 
L 127.799595 102.068571 
L 133.169306 102.068571 
L 138.539017 102.068571 
L 143.908727 102.068571 
L 149.278438 102.068571 
L 154.648149 102.068571 
L 160.017859 102.068571 
L 165.38757 102.068571 
L 170.757281 102.068571 
L 176.126991 102.068571 
L 181.496702 102.068571 
L 186.866413 102.068571 
L 192.236123 102.068571 
L 197.605834 102.068571 
L 202.975545 102.068571 
L 208.345255 102.068571 
L 213.714966 102.068571 
L 219.084677 102.068571 
L 224.454387 102.068571 
L 229.824098 102.068571 
L 235.193809 102.068571 
L 240.563519 102.068571 
L 245.93323 102.068571 
L 251.302941 102.068571 
L 256.672651 102.068571 
L 262.042362 102.068571 
L 267.412073 102.068571 
L 272.781783 102.068571 
L 278.151494 102.068571 
L 283.521205 102.068571 
L 288.890915 102.068571 
L 294.260626 102.068571 
L 299.630337 102.068571 
L 305.000048 102.068571 
L 310.369758 102.068571 
L 315.739469 102.068571 
L 321.10918 102.068571 
L 326.47889 102.068571 
L 331.848601 102.068571 
L 337.218312 102.068571 
L 342.588022 102.068571 
L 347.957733 102.068571 
L 353.327444 102.068571 
L 358.697154 102.068571 
L 364.066865 102.068571 
L 369.436576 102.068571 
L 374.806286 102.068571 
L 380.175997 102.068571 
L 385.545708 102.068571 
L 390.915418 102.068571 
L 396.285129 102.068571 
L 401.65484 102.068571 
L 407.02455 102.068571 
L 412.394261 102.068571 
L 417.763972 102.068571 
L 423.133682 102.068571 
L 428.503393 102.068571 
L 433.873104 102.068571 
L 439.242814 102.068571 
L 444.612525 102.068571 
L 449.982236 102.068571 
L 455.351946 102.068571 
L 460.721657 102.068571 
L 466.091368 102.068571 
L 471.461078 102.068571 
L 476.830789 102.068571 
L 482.2005 102.068571 
L 487.57021 102.068571 
L 492.939921 102.068571 
L 498.309632 102.068571 
L 503.679342 102.068571 
L 509.049053 102.068571 
L 514.418764 102.068571 
L 519.788474 102.068571 
L 525.158185 102.068571 
L 530.527896 102.068571 
L 535.897606 102.068571 
L 541.267317 102.068571 
L 546.637028 102.068571 
L 552.006738 102.068571 
L 557.376449 102.068571 
L 562.74616 102.068571 
L 568.11587 102.068571 
L 573.485581 102.068571 
L 578.855292 102.068571 
L 584.225002 102.068571 
L 589.594713 102.068571 
L 594.964424 102.068571 
L 594.964424 102.068488 
L 594.964424 102.068488 
L 589.594713 102.06762 
L 584.225002 102.064315 
L 578.855292 102.061089 
L 573.485581 102.063404 
L 568.11587 102.067169 
L 562.74616 102.068422 
L 557.376449 102.068565 
L 552.006738 102.068571 
L 546.637028 102.068566 
L 541.267317 102.06844 
L 535.897606 102.067281 
L 530.527896 102.063605 
L 525.158185 102.061063 
L 519.788474 102.064111 
L 514.418764 102.06753 
L 509.049053 102.068473 
L 503.679342 102.068479 
L 498.309632 102.067573 
L 492.939921 102.064125 
L 487.57021 102.059714 
L 482.2005 102.055134 
L 476.830789 102.046848 
L 471.461078 102.048805 
L 466.091368 102.061084 
L 460.721657 102.067436 
L 455.351946 102.068335 
L 449.982236 102.066725 
L 444.612525 102.060403 
L 439.242814 102.053778 
L 433.873104 102.056115 
L 428.503393 102.057135 
L 423.133682 102.052507 
L 417.763972 102.053943 
L 412.394261 102.05807 
L 407.02455 102.061812 
L 401.65484 102.061211 
L 396.285129 102.054633 
L 390.915418 102.053369 
L 385.545708 102.049355 
L 380.175997 102.004861 
L 374.806286 101.909343 
L 369.436576 101.886119 
L 364.066865 101.981021 
L 358.697154 102.046336 
L 353.327444 102.041108 
L 347.957733 101.998884 
L 342.588022 101.951977 
L 337.218312 101.914346 
L 331.848601 101.83844 
L 326.47889 101.645472 
L 321.10918 101.409465 
L 315.739469 101.350367 
L 310.369758 101.343281 
L 305.000048 101.166293 
L 299.630337 100.799418 
L 294.260626 100.344727 
L 288.890915 99.819193 
L 283.521205 99.005135 
L 278.151494 97.09208 
L 272.781783 93.647042 
L 267.412073 92.619706 
L 262.042362 96.704649 
L 256.672651 100.295138 
L 251.302941 100.887483 
L 245.93323 99.800891 
L 240.563519 97.72604 
L 235.193809 96.24977 
L 229.824098 95.0435 
L 224.454387 90.045751 
L 219.084677 82.386005 
L 213.714966 83.270782 
L 208.345255 92.137969 
L 202.975545 95.800505 
L 197.605834 92.930819 
L 192.236123 86.456607 
L 186.866413 79.485008 
L 181.496702 76.997134 
L 176.126991 73.323349 
L 170.757281 59.529574 
L 165.38757 47.303547 
L 160.017859 56.259972 
L 154.648149 70.559766 
L 149.278438 78.901228 
L 143.908727 79.246299 
L 138.539017 66.558657 
L 133.169306 57.752457 
L 127.799595 67.302845 
L 122.429885 70.068097 
L 117.060174 56.618149 
L 111.690463 49.907529 
L 106.320753 47.753666 
L 100.951042 31.285147 
L 95.581331 11.717551 
L 90.211621 19.810318 
L 84.84191 59.076431 
L 79.472199 89.549689 
L 74.102489 99.952408 
L 68.732778 101.873235 
L 63.363067 102.059846 
z
" style="fill:#ff0000;fill-opacity:0.25;"/>
   </g>
   <g id="line2d_45">
    <path clip-path="url(#p6004f1de84)" d="M 63.363067 102.059846 
L 68.732778 101.873235 
L 74.102489 99.952408 
L 79.472199 89.549689 
L 84.84191 59.076431 
L 90.211621 19.810318 
L 95.581331 11.717551 
L 100.951042 31.285147 
L 106.320753 47.753666 
L 111.690463 49.907529 
L 117.060174 56.618149 
L 122.429885 70.068097 
L 127.799595 67.302845 
L 133.169306 57.752457 
L 138.539017 66.558657 
L 143.908727 79.246299 
L 149.278438 78.901228 
L 154.648149 70.559766 
L 160.017859 56.259972 
L 165.38757 47.303547 
L 170.757281 59.529574 
L 176.126991 73.323349 
L 181.496702 76.997134 
L 186.866413 79.485008 
L 192.236123 86.456607 
L 197.605834 92.930819 
L 202.975545 95.800505 
L 208.345255 92.137969 
L 213.714966 83.270782 
L 219.084677 82.386005 
L 224.454387 90.045751 
L 229.824098 95.0435 
L 235.193809 96.24977 
L 240.563519 97.72604 
L 245.93323 99.800891 
L 251.302941 100.887483 
L 256.672651 100.295138 
L 262.042362 96.704649 
L 267.412073 92.619706 
L 272.781783 93.647042 
L 278.151494 97.09208 
L 283.521205 99.005135 
L 288.890915 99.819193 
L 294.260626 100.344727 
L 299.630337 100.799418 
L 305.000048 101.166293 
L 310.369758 101.343281 
L 315.739469 101.350367 
L 321.10918 101.409465 
L 326.47889 101.645472 
L 331.848601 101.83844 
L 337.218312 101.914346 
L 342.588022 101.951977 
L 347.957733 101.998884 
L 353.327444 102.041108 
L 358.697154 102.046336 
L 364.066865 101.981021 
L 369.436576 101.886119 
L 374.806286 101.909343 
L 380.175997 102.004861 
L 385.545708 102.049355 
L 390.915418 102.053369 
L 396.285129 102.054633 
L 401.65484 102.061211 
L 407.02455 102.061812 
L 412.394261 102.05807 
L 417.763972 102.053943 
L 423.133682 102.052507 
L 428.503393 102.057135 
L 433.873104 102.056115 
L 439.242814 102.053778 
L 444.612525 102.060403 
L 449.982236 102.066725 
L 455.351946 102.068335 
L 460.721657 102.067436 
L 466.091368 102.061084 
L 471.461078 102.048805 
L 476.830789 102.046848 
L 482.2005 102.055134 
L 487.57021 102.059714 
L 492.939921 102.064125 
L 498.309632 102.067573 
L 503.679342 102.068479 
L 509.049053 102.068473 
L 514.418764 102.06753 
L 519.788474 102.064111 
L 525.158185 102.061063 
L 530.527896 102.063605 
L 535.897606 102.067281 
L 541.267317 102.06844 
L 546.637028 102.068566 
L 552.006738 102.068571 
L 557.376449 102.068565 
L 562.74616 102.068422 
L 568.11587 102.067169 
L 573.485581 102.063404 
L 578.855292 102.061089 
L 584.225002 102.064315 
L 589.594713 102.06762 
L 594.964424 102.068488 
" style="fill:none;stroke:#ff0000;stroke-linecap:round;stroke-width:1.75;"/>
   </g>
   <g id="patch_6">
    <path d="M 56.064531 102.068571 
L 602.26296 102.068571 
" style="fill:none;stroke:#cccccc;stroke-linecap:square;stroke-linejoin:miter;"/>
   </g>
  </g>
  <g id="axes_3">
   <g id="patch_7">
    <path d="M 621.097388 671.28 
L 715.269531 671.28 
L 715.269531 121.042286 
L 621.097388 121.042286 
z
" style="fill:#ffffff;"/>
   </g>
   <g id="matplotlib.axis_5">
    <g id="xtick_13"/>
    <g id="xtick_14"/>
   </g>
   <g id="matplotlib.axis_6">
    <g id="ytick_14">
     <g id="line2d_46">
      <path clip-path="url(#p575d1e8a86)" d="M 621.097388 631.444003 
L 715.269531 631.444003 
" style="fill:none;stroke:#cccccc;stroke-linecap:round;"/>
     </g>
     <g id="line2d_47"/>
    </g>
    <g id="ytick_15">
     <g id="line2d_48">
      <path clip-path="url(#p575d1e8a86)" d="M 621.097388 570.009239 
L 715.269531 570.009239 
" style="fill:none;stroke:#cccccc;stroke-linecap:round;"/>
     </g>
     <g id="line2d_49"/>
    </g>
    <g id="ytick_16">
     <g id="line2d_50">
      <path clip-path="url(#p575d1e8a86)" d="M 621.097388 508.574475 
L 715.269531 508.574475 
" style="fill:none;stroke:#cccccc;stroke-linecap:round;"/>
     </g>
     <g id="line2d_51"/>
    </g>
    <g id="ytick_17">
     <g id="line2d_52">
      <path clip-path="url(#p575d1e8a86)" d="M 621.097388 447.13971 
L 715.269531 447.13971 
" style="fill:none;stroke:#cccccc;stroke-linecap:round;"/>
     </g>
     <g id="line2d_53"/>
    </g>
    <g id="ytick_18">
     <g id="line2d_54">
      <path clip-path="url(#p575d1e8a86)" d="M 621.097388 385.704946 
L 715.269531 385.704946 
" style="fill:none;stroke:#cccccc;stroke-linecap:round;"/>
     </g>
     <g id="line2d_55"/>
    </g>
    <g id="ytick_19">
     <g id="line2d_56">
      <path clip-path="url(#p575d1e8a86)" d="M 621.097388 324.270182 
L 715.269531 324.270182 
" style="fill:none;stroke:#cccccc;stroke-linecap:round;"/>
     </g>
     <g id="line2d_57"/>
    </g>
    <g id="ytick_20">
     <g id="line2d_58">
      <path clip-path="url(#p575d1e8a86)" d="M 621.097388 262.835417 
L 715.269531 262.835417 
" style="fill:none;stroke:#cccccc;stroke-linecap:round;"/>
     </g>
     <g id="line2d_59"/>
    </g>
    <g id="ytick_21">
     <g id="line2d_60">
      <path clip-path="url(#p575d1e8a86)" d="M 621.097388 201.400653 
L 715.269531 201.400653 
" style="fill:none;stroke:#cccccc;stroke-linecap:round;"/>
     </g>
     <g id="line2d_61"/>
    </g>
    <g id="ytick_22">
     <g id="line2d_62">
      <path clip-path="url(#p575d1e8a86)" d="M 621.097388 139.965889 
L 715.269531 139.965889 
" style="fill:none;stroke:#cccccc;stroke-linecap:round;"/>
     </g>
     <g id="line2d_63"/>
    </g>
   </g>
   <g id="PolyCollection_2">
    <path clip-path="url(#p575d1e8a86)" d="M 621.192758 656.708146 
L 621.097388 656.708146 
L 621.097388 651.44457 
L 621.097388 646.180994 
L 621.097388 640.917418 
L 621.097388 635.653842 
L 621.097388 630.390267 
L 621.097388 625.126691 
L 621.097388 619.863115 
L 621.097388 614.599539 
L 621.097388 609.335963 
L 621.097388 604.072388 
L 621.097388 598.808812 
L 621.097388 593.545236 
L 621.097388 588.28166 
L 621.097388 583.018084 
L 621.097388 577.754508 
L 621.097388 572.490933 
L 621.097388 567.227357 
L 621.097388 561.963781 
L 621.097388 556.700205 
L 621.097388 551.436629 
L 621.097388 546.173054 
L 621.097388 540.909478 
L 621.097388 535.645902 
L 621.097388 530.382326 
L 621.097388 525.11875 
L 621.097388 519.855174 
L 621.097388 514.591599 
L 621.097388 509.328023 
L 621.097388 504.064447 
L 621.097388 498.800871 
L 621.097388 493.537295 
L 621.097388 488.27372 
L 621.097388 483.010144 
L 621.097388 477.746568 
L 621.097388 472.482992 
L 621.097388 467.219416 
L 621.097388 461.955841 
L 621.097388 456.692265 
L 621.097388 451.428689 
L 621.097388 446.165113 
L 621.097388 440.901537 
L 621.097388 435.637961 
L 621.097388 430.374386 
L 621.097388 425.11081 
L 621.097388 419.847234 
L 621.097388 414.583658 
L 621.097388 409.320082 
L 621.097388 404.056507 
L 621.097388 398.792931 
L 621.097388 393.529355 
L 621.097388 388.265779 
L 621.097388 383.002203 
L 621.097388 377.738628 
L 621.097388 372.475052 
L 621.097388 367.211476 
L 621.097388 361.9479 
L 621.097388 356.684324 
L 621.097388 351.420748 
L 621.097388 346.157173 
L 621.097388 340.893597 
L 621.097388 335.630021 
L 621.097388 330.366445 
L 621.097388 325.102869 
L 621.097388 319.839294 
L 621.097388 314.575718 
L 621.097388 309.312142 
L 621.097388 304.048566 
L 621.097388 298.78499 
L 621.097388 293.521414 
L 621.097388 288.257839 
L 621.097388 282.994263 
L 621.097388 277.730687 
L 621.097388 272.467111 
L 621.097388 267.203535 
L 621.097388 261.93996 
L 621.097388 256.676384 
L 621.097388 251.412808 
L 621.097388 246.149232 
L 621.097388 240.885656 
L 621.097388 235.622081 
L 621.097388 230.358505 
L 621.097388 225.094929 
L 621.097388 219.831353 
L 621.097388 214.567777 
L 621.097388 209.304201 
L 621.097388 204.040626 
L 621.097388 198.77705 
L 621.097388 193.513474 
L 621.097388 188.249898 
L 621.097388 182.986322 
L 621.097388 177.722747 
L 621.097388 172.459171 
L 621.097388 167.195595 
L 621.097388 161.932019 
L 621.097388 156.668443 
L 621.097388 151.404868 
L 621.097388 146.141292 
L 621.097388 140.877716 
L 621.097388 135.61414 
L 621.099877 135.61414 
L 621.099877 135.61414 
L 621.108119 140.877716 
L 621.135161 146.141292 
L 621.206612 151.404868 
L 621.358905 156.668443 
L 621.621296 161.932019 
L 621.987429 167.195595 
L 622.40152 172.459171 
L 622.78035 177.722747 
L 623.059185 182.986322 
L 623.225109 188.249898 
L 623.313629 193.513474 
L 623.375582 198.77705 
L 623.441886 204.040626 
L 623.512448 209.304201 
L 623.573491 214.567777 
L 623.621302 219.831353 
L 623.667149 225.094929 
L 623.721902 230.358505 
L 623.781293 235.622081 
L 623.829638 240.885656 
L 623.856736 246.149232 
L 623.867915 251.412808 
L 623.879146 256.676384 
L 623.907262 261.93996 
L 623.962709 267.203535 
L 624.044016 272.467111 
L 624.138634 277.730687 
L 624.233687 282.994263 
L 624.326056 288.257839 
L 624.421716 293.521414 
L 624.528971 298.78499 
L 624.651811 304.048566 
L 624.783938 309.312142 
L 624.908328 314.575718 
L 625.008094 319.839294 
L 625.082083 325.102869 
L 625.151492 330.366445 
L 625.251134 335.630021 
L 625.409123 340.893597 
L 625.625789 346.157173 
L 625.867533 351.420748 
L 626.085424 356.684324 
L 626.247721 361.9479 
L 626.359647 367.211476 
L 626.454505 372.475052 
L 626.568083 377.738628 
L 626.721096 383.002203 
L 626.920121 388.265779 
L 627.166192 393.529355 
L 627.454683 398.792931 
L 627.764052 404.056507 
L 628.051518 409.320082 
L 628.277552 414.583658 
L 628.450034 419.847234 
L 628.640141 425.11081 
L 628.938082 430.374386 
L 629.385209 435.637961 
L 629.950501 440.901537 
L 630.571135 446.165113 
L 631.212331 451.428689 
L 631.888618 456.692265 
L 632.630971 461.955841 
L 633.441934 467.219416 
L 634.294675 472.482992 
L 635.179444 477.746568 
L 636.143195 483.010144 
L 637.276728 488.27372 
L 638.659103 493.537295 
L 640.301716 498.800871 
L 642.12142 504.064447 
L 643.94331 509.328023 
L 645.525669 514.591599 
L 646.618922 519.855174 
L 647.073375 525.11875 
L 646.954542 530.382326 
L 646.569762 535.645902 
L 646.358555 540.909478 
L 646.71543 546.173054 
L 647.854795 551.436629 
L 649.770144 556.700205 
L 652.284496 561.963781 
L 655.167311 567.227357 
L 658.270416 572.490933 
L 661.658116 577.754508 
L 665.787818 583.018084 
L 671.68042 588.28166 
L 680.565736 593.545236 
L 692.460346 598.808812 
L 704.432374 604.072388 
L 710.785143 609.335963 
L 706.380718 614.599539 
L 690.804669 619.863115 
L 669.23358 625.126691 
L 648.863509 630.390267 
L 634.369111 635.653842 
L 626.322421 640.917418 
L 622.783723 646.180994 
L 621.541851 651.44457 
L 621.192758 656.708146 
z
" style="fill:#ff0000;fill-opacity:0.25;"/>
   </g>
   <g id="line2d_64">
    <path clip-path="url(#p575d1e8a86)" d="M 621.192758 656.708146 
L 621.541851 651.44457 
L 622.783723 646.180994 
L 626.322421 640.917418 
L 634.369111 635.653842 
L 648.863509 630.390267 
L 669.23358 625.126691 
L 690.804669 619.863115 
L 706.380718 614.599539 
L 710.785143 609.335963 
L 704.432374 604.072388 
L 692.460346 598.808812 
L 680.565736 593.545236 
L 671.68042 588.28166 
L 665.787818 583.018084 
L 661.658116 577.754508 
L 658.270416 572.490933 
L 655.167311 567.227357 
L 652.284496 561.963781 
L 649.770144 556.700205 
L 647.854795 551.436629 
L 646.71543 546.173054 
L 646.358555 540.909478 
L 646.569762 535.645902 
L 646.954542 530.382326 
L 647.073375 525.11875 
L 646.618922 519.855174 
L 645.525669 514.591599 
L 643.94331 509.328023 
L 642.12142 504.064447 
L 640.301716 498.800871 
L 638.659103 493.537295 
L 637.276728 488.27372 
L 636.143195 483.010144 
L 635.179444 477.746568 
L 634.294675 472.482992 
L 633.441934 467.219416 
L 632.630971 461.955841 
L 631.888618 456.692265 
L 631.212331 451.428689 
L 630.571135 446.165113 
L 629.950501 440.901537 
L 629.385209 435.637961 
L 628.938082 430.374386 
L 628.640141 425.11081 
L 628.450034 419.847234 
L 628.277552 414.583658 
L 628.051518 409.320082 
L 627.764052 404.056507 
L 627.454683 398.792931 
L 627.166192 393.529355 
L 626.920121 388.265779 
L 626.721096 383.002203 
L 626.568083 377.738628 
L 626.454505 372.475052 
L 626.359647 367.211476 
L 626.247721 361.9479 
L 626.085424 356.684324 
L 625.867533 351.420748 
L 625.625789 346.157173 
L 625.409123 340.893597 
L 625.251134 335.630021 
L 625.151492 330.366445 
L 625.082083 325.102869 
L 625.008094 319.839294 
L 624.908328 314.575718 
L 624.783938 309.312142 
L 624.651811 304.048566 
L 624.528971 298.78499 
L 624.421716 293.521414 
L 624.326056 288.257839 
L 624.233687 282.994263 
L 624.138634 277.730687 
L 624.044016 272.467111 
L 623.962709 267.203535 
L 623.907262 261.93996 
L 623.879146 256.676384 
L 623.867915 251.412808 
L 623.856736 246.149232 
L 623.829638 240.885656 
L 623.781293 235.622081 
L 623.721902 230.358505 
L 623.667149 225.094929 
L 623.621302 219.831353 
L 623.573491 214.567777 
L 623.512448 209.304201 
L 623.441886 204.040626 
L 623.375582 198.77705 
L 623.313629 193.513474 
L 623.225109 188.249898 
L 623.059185 182.986322 
L 622.78035 177.722747 
L 622.40152 172.459171 
L 621.987429 167.195595 
L 621.621296 161.932019 
L 621.358905 156.668443 
L 621.206612 151.404868 
L 621.135161 146.141292 
L 621.108119 140.877716 
L 621.099877 135.61414 
" style="fill:none;stroke:#ff0000;stroke-linecap:round;stroke-width:1.75;"/>
   </g>
   <g id="patch_8">
    <path d="M 621.097388 671.28 
L 621.097388 121.042286 
" style="fill:none;stroke:#cccccc;stroke-linecap:square;stroke-linejoin:miter;"/>
   </g>
  </g>
 </g>
 <defs>
  <clipPath id="pdbb97d26b2">
   <rect height="550.237714" width="546.198429" x="56.064531" y="121.042286"/>
  </clipPath>
  <clipPath id="p6004f1de84">
   <rect height="94.868571" width="546.198429" x="56.064531" y="7.2"/>
  </clipPath>
  <clipPath id="p575d1e8a86">
   <rect height="550.237714" width="94.172143" x="621.097388" y="121.042286"/>
  </clipPath>
 </defs>
</svg>
