<?xml version="1.0" encoding="utf-8" standalone="no"?>
<!DOCTYPE svg PUBLIC "-//W3C//DTD SVG 1.1//EN"
  "http://www.w3.org/Graphics/SVG/1.1/DTD/svg11.dtd">
<!-- Created with matplotlib (http://matplotlib.org/) -->
<svg height="708.685156pt" version="1.1" viewBox="0 0 711.627344 708.685156" width="711.627344pt" xmlns="http://www.w3.org/2000/svg" xmlns:xlink="http://www.w3.org/1999/xlink">
 <defs>
  <style type="text/css">
*{stroke-linecap:butt;stroke-linejoin:round;}
  </style>
 </defs>
 <g id="figure_1">
  <g id="patch_1">
   <path d="M 0 708.685156 
L 711.627344 708.685156 
L 711.627344 0 
L 0 0 
z
" style="fill:#ffffff;"/>
  </g>
  <g id="axes_1">
   <g id="patch_2">
    <path d="M 45.222344 671.28 
L 591.420772 671.28 
L 591.420772 121.042286 
L 45.222344 121.042286 
z
" style="fill:#ffffff;"/>
   </g>
   <g id="matplotlib.axis_1">
    <g id="xtick_1">
     <g id="line2d_1">
      <path clip-path="url(#p40198ddfb2)" d="M 124.068189 671.28 
L 124.068189 121.042286 
" style="fill:none;stroke:#cccccc;stroke-linecap:round;"/>
     </g>
     <g id="line2d_2"/>
     <g id="text_1">
      <!-- 142 -->
      <defs>
       <path d="M 37.25 0 
L 28.46875 0 
L 28.46875 56 
Q 25.296875 52.984375 20.140625 49.953125 
Q 14.984375 46.921875 10.890625 45.40625 
L 10.890625 53.90625 
Q 18.265625 57.375 23.78125 62.296875 
Q 29.296875 67.234375 31.59375 71.875 
L 37.25 71.875 
z
" id="ArialMT-31"/>
       <path d="M 32.328125 0 
L 32.328125 17.140625 
L 1.265625 17.140625 
L 1.265625 25.203125 
L 33.9375 71.578125 
L 41.109375 71.578125 
L 41.109375 25.203125 
L 50.78125 25.203125 
L 50.78125 17.140625 
L 41.109375 17.140625 
L 41.109375 0 
z
M 32.328125 25.203125 
L 32.328125 57.46875 
L 9.90625 25.203125 
z
" id="ArialMT-34"/>
       <path d="M 50.34375 8.453125 
L 50.34375 0 
L 3.03125 0 
Q 2.9375 3.171875 4.046875 6.109375 
Q 5.859375 10.9375 9.828125 15.625 
Q 13.8125 20.3125 21.34375 26.46875 
Q 33.015625 36.03125 37.109375 41.625 
Q 41.21875 47.21875 41.21875 52.203125 
Q 41.21875 57.421875 37.46875 61 
Q 33.734375 64.59375 27.734375 64.59375 
Q 21.390625 64.59375 17.578125 60.78125 
Q 13.765625 56.984375 13.71875 50.25 
L 4.6875 51.171875 
Q 5.609375 61.28125 11.65625 66.578125 
Q 17.71875 71.875 27.9375 71.875 
Q 38.234375 71.875 44.234375 66.15625 
Q 50.25 60.453125 50.25 52 
Q 50.25 47.703125 48.484375 43.546875 
Q 46.734375 39.40625 42.65625 34.8125 
Q 38.578125 30.21875 29.109375 22.21875 
Q 21.1875 15.578125 18.9375 13.203125 
Q 16.703125 10.84375 15.234375 8.453125 
z
" id="ArialMT-32"/>
      </defs>
      <g style="fill:#262626;" transform="translate(115.726783 685.437812)scale(0.1 -0.1)">
       <use xlink:href="#ArialMT-31"/>
       <use x="55.615234" xlink:href="#ArialMT-34"/>
       <use x="111.230469" xlink:href="#ArialMT-32"/>
      </g>
     </g>
    </g>
    <g id="xtick_2">
     <g id="line2d_3">
      <path clip-path="url(#p40198ddfb2)" d="M 239.643749 671.28 
L 239.643749 121.042286 
" style="fill:none;stroke:#cccccc;stroke-linecap:round;"/>
     </g>
     <g id="line2d_4"/>
     <g id="text_2">
      <!-- 144 -->
      <g style="fill:#262626;" transform="translate(231.302343 685.437812)scale(0.1 -0.1)">
       <use xlink:href="#ArialMT-31"/>
       <use x="55.615234" xlink:href="#ArialMT-34"/>
       <use x="111.230469" xlink:href="#ArialMT-34"/>
      </g>
     </g>
    </g>
    <g id="xtick_3">
     <g id="line2d_5">
      <path clip-path="url(#p40198ddfb2)" d="M 355.219309 671.28 
L 355.219309 121.042286 
" style="fill:none;stroke:#cccccc;stroke-linecap:round;"/>
     </g>
     <g id="line2d_6"/>
     <g id="text_3">
      <!-- 146 -->
      <defs>
       <path d="M 49.75 54.046875 
L 41.015625 53.375 
Q 39.84375 58.546875 37.703125 60.890625 
Q 34.125 64.65625 28.90625 64.65625 
Q 24.703125 64.65625 21.53125 62.3125 
Q 17.390625 59.28125 14.984375 53.46875 
Q 12.59375 47.65625 12.5 36.921875 
Q 15.671875 41.75 20.265625 44.09375 
Q 24.859375 46.4375 29.890625 46.4375 
Q 38.671875 46.4375 44.84375 39.96875 
Q 51.03125 33.5 51.03125 23.25 
Q 51.03125 16.5 48.125 10.71875 
Q 45.21875 4.9375 40.140625 1.859375 
Q 35.0625 -1.21875 28.609375 -1.21875 
Q 17.625 -1.21875 10.6875 6.859375 
Q 3.765625 14.9375 3.765625 33.5 
Q 3.765625 54.25 11.421875 63.671875 
Q 18.109375 71.875 29.4375 71.875 
Q 37.890625 71.875 43.28125 67.140625 
Q 48.6875 62.40625 49.75 54.046875 
z
M 13.875 23.1875 
Q 13.875 18.65625 15.796875 14.5 
Q 17.71875 10.359375 21.1875 8.171875 
Q 24.65625 6 28.46875 6 
Q 34.03125 6 38.03125 10.484375 
Q 42.046875 14.984375 42.046875 22.703125 
Q 42.046875 30.125 38.078125 34.390625 
Q 34.125 38.671875 28.125 38.671875 
Q 22.171875 38.671875 18.015625 34.390625 
Q 13.875 30.125 13.875 23.1875 
z
" id="ArialMT-36"/>
      </defs>
      <g style="fill:#262626;" transform="translate(346.877903 685.437812)scale(0.1 -0.1)">
       <use xlink:href="#ArialMT-31"/>
       <use x="55.615234" xlink:href="#ArialMT-34"/>
       <use x="111.230469" xlink:href="#ArialMT-36"/>
      </g>
     </g>
    </g>
    <g id="xtick_4">
     <g id="line2d_7">
      <path clip-path="url(#p40198ddfb2)" d="M 470.794869 671.28 
L 470.794869 121.042286 
" style="fill:none;stroke:#cccccc;stroke-linecap:round;"/>
     </g>
     <g id="line2d_8"/>
     <g id="text_4">
      <!-- 148 -->
      <defs>
       <path d="M 17.671875 38.8125 
Q 12.203125 40.828125 9.5625 44.53125 
Q 6.9375 48.25 6.9375 53.421875 
Q 6.9375 61.234375 12.546875 66.546875 
Q 18.171875 71.875 27.484375 71.875 
Q 36.859375 71.875 42.578125 66.421875 
Q 48.296875 60.984375 48.296875 53.171875 
Q 48.296875 48.1875 45.671875 44.5 
Q 43.0625 40.828125 37.75 38.8125 
Q 44.34375 36.671875 47.78125 31.875 
Q 51.21875 27.09375 51.21875 20.453125 
Q 51.21875 11.28125 44.71875 5.03125 
Q 38.234375 -1.21875 27.640625 -1.21875 
Q 17.046875 -1.21875 10.546875 5.046875 
Q 4.046875 11.328125 4.046875 20.703125 
Q 4.046875 27.6875 7.59375 32.390625 
Q 11.140625 37.109375 17.671875 38.8125 
z
M 15.921875 53.71875 
Q 15.921875 48.640625 19.1875 45.40625 
Q 22.46875 42.1875 27.6875 42.1875 
Q 32.765625 42.1875 36.015625 45.375 
Q 39.265625 48.578125 39.265625 53.21875 
Q 39.265625 58.0625 35.90625 61.359375 
Q 32.5625 64.65625 27.59375 64.65625 
Q 22.5625 64.65625 19.234375 61.421875 
Q 15.921875 58.203125 15.921875 53.71875 
z
M 13.09375 20.65625 
Q 13.09375 16.890625 14.875 13.375 
Q 16.65625 9.859375 20.171875 7.921875 
Q 23.6875 6 27.734375 6 
Q 34.03125 6 38.125 10.046875 
Q 42.234375 14.109375 42.234375 20.359375 
Q 42.234375 26.703125 38.015625 30.859375 
Q 33.796875 35.015625 27.4375 35.015625 
Q 21.234375 35.015625 17.15625 30.90625 
Q 13.09375 26.8125 13.09375 20.65625 
z
" id="ArialMT-38"/>
      </defs>
      <g style="fill:#262626;" transform="translate(462.453462 685.437812)scale(0.1 -0.1)">
       <use xlink:href="#ArialMT-31"/>
       <use x="55.615234" xlink:href="#ArialMT-34"/>
       <use x="111.230469" xlink:href="#ArialMT-38"/>
      </g>
     </g>
    </g>
    <g id="xtick_5">
     <g id="line2d_9">
      <path clip-path="url(#p40198ddfb2)" d="M 586.370428 671.28 
L 586.370428 121.042286 
" style="fill:none;stroke:#cccccc;stroke-linecap:round;"/>
     </g>
     <g id="line2d_10"/>
     <g id="text_5">
      <!-- 150 -->
      <defs>
       <path d="M 4.15625 18.75 
L 13.375 19.53125 
Q 14.40625 12.796875 18.140625 9.390625 
Q 21.875 6 27.15625 6 
Q 33.5 6 37.890625 10.78125 
Q 42.28125 15.578125 42.28125 23.484375 
Q 42.28125 31 38.0625 35.34375 
Q 33.84375 39.703125 27 39.703125 
Q 22.75 39.703125 19.328125 37.765625 
Q 15.921875 35.84375 13.96875 32.765625 
L 5.71875 33.84375 
L 12.640625 70.609375 
L 48.25 70.609375 
L 48.25 62.203125 
L 19.671875 62.203125 
L 15.828125 42.96875 
Q 22.265625 47.46875 29.34375 47.46875 
Q 38.71875 47.46875 45.15625 40.96875 
Q 51.609375 34.46875 51.609375 24.265625 
Q 51.609375 14.546875 45.953125 7.46875 
Q 39.0625 -1.21875 27.15625 -1.21875 
Q 17.390625 -1.21875 11.203125 4.25 
Q 5.03125 9.71875 4.15625 18.75 
z
" id="ArialMT-35"/>
       <path d="M 4.15625 35.296875 
Q 4.15625 48 6.765625 55.734375 
Q 9.375 63.484375 14.515625 67.671875 
Q 19.671875 71.875 27.484375 71.875 
Q 33.25 71.875 37.59375 69.546875 
Q 41.9375 67.234375 44.765625 62.859375 
Q 47.609375 58.5 49.21875 52.21875 
Q 50.828125 45.953125 50.828125 35.296875 
Q 50.828125 22.703125 48.234375 14.96875 
Q 45.65625 7.234375 40.5 3 
Q 35.359375 -1.21875 27.484375 -1.21875 
Q 17.140625 -1.21875 11.234375 6.203125 
Q 4.15625 15.140625 4.15625 35.296875 
z
M 13.1875 35.296875 
Q 13.1875 17.671875 17.3125 11.828125 
Q 21.4375 6 27.484375 6 
Q 33.546875 6 37.671875 11.859375 
Q 41.796875 17.71875 41.796875 35.296875 
Q 41.796875 52.984375 37.671875 58.78125 
Q 33.546875 64.59375 27.390625 64.59375 
Q 21.34375 64.59375 17.71875 59.46875 
Q 13.1875 52.9375 13.1875 35.296875 
z
" id="ArialMT-30"/>
      </defs>
      <g style="fill:#262626;" transform="translate(578.029022 685.437812)scale(0.1 -0.1)">
       <use xlink:href="#ArialMT-31"/>
       <use x="55.615234" xlink:href="#ArialMT-35"/>
       <use x="111.230469" xlink:href="#ArialMT-30"/>
      </g>
     </g>
    </g>
    <g id="text_6">
     <!-- LONGITUDE -->
     <defs>
      <path d="M 7.328125 0 
L 7.328125 71.578125 
L 16.796875 71.578125 
L 16.796875 8.453125 
L 52.046875 8.453125 
L 52.046875 0 
z
" id="ArialMT-4c"/>
      <path d="M 4.828125 34.859375 
Q 4.828125 52.6875 14.390625 62.765625 
Q 23.96875 72.859375 39.109375 72.859375 
Q 49.03125 72.859375 56.984375 68.109375 
Q 64.9375 63.375 69.109375 54.90625 
Q 73.296875 46.4375 73.296875 35.6875 
Q 73.296875 24.8125 68.890625 16.21875 
Q 64.5 7.625 56.4375 3.203125 
Q 48.390625 -1.21875 39.0625 -1.21875 
Q 28.953125 -1.21875 20.984375 3.65625 
Q 13.03125 8.546875 8.921875 16.984375 
Q 4.828125 25.4375 4.828125 34.859375 
z
M 14.59375 34.71875 
Q 14.59375 21.78125 21.546875 14.328125 
Q 28.515625 6.890625 39.015625 6.890625 
Q 49.703125 6.890625 56.609375 14.40625 
Q 63.53125 21.921875 63.53125 35.75 
Q 63.53125 44.484375 60.578125 51 
Q 57.625 57.515625 51.921875 61.109375 
Q 46.234375 64.703125 39.15625 64.703125 
Q 29.109375 64.703125 21.84375 57.78125 
Q 14.59375 50.875 14.59375 34.71875 
z
" id="ArialMT-4f"/>
      <path d="M 7.625 0 
L 7.625 71.578125 
L 17.328125 71.578125 
L 54.9375 15.375 
L 54.9375 71.578125 
L 64.015625 71.578125 
L 64.015625 0 
L 54.296875 0 
L 16.703125 56.25 
L 16.703125 0 
z
" id="ArialMT-4e"/>
      <path d="M 41.21875 28.078125 
L 41.21875 36.46875 
L 71.53125 36.53125 
L 71.53125 9.96875 
Q 64.546875 4.390625 57.125 1.578125 
Q 49.703125 -1.21875 41.890625 -1.21875 
Q 31.34375 -1.21875 22.71875 3.296875 
Q 14.109375 7.8125 9.71875 16.359375 
Q 5.328125 24.90625 5.328125 35.453125 
Q 5.328125 45.90625 9.6875 54.953125 
Q 14.0625 64.015625 22.265625 68.40625 
Q 30.46875 72.796875 41.15625 72.796875 
Q 48.921875 72.796875 55.1875 70.28125 
Q 61.46875 67.78125 65.03125 63.28125 
Q 68.609375 58.796875 70.453125 51.5625 
L 61.921875 49.21875 
Q 60.296875 54.6875 57.90625 57.8125 
Q 55.515625 60.9375 51.0625 62.8125 
Q 46.625 64.703125 41.21875 64.703125 
Q 34.71875 64.703125 29.984375 62.71875 
Q 25.25 60.75 22.34375 57.515625 
Q 19.4375 54.296875 17.828125 50.4375 
Q 15.09375 43.796875 15.09375 36.03125 
Q 15.09375 26.46875 18.390625 20.015625 
Q 21.6875 13.578125 27.984375 10.453125 
Q 34.28125 7.328125 41.359375 7.328125 
Q 47.515625 7.328125 53.375 9.6875 
Q 59.234375 12.0625 62.25 14.75 
L 62.25 28.078125 
z
" id="ArialMT-47"/>
      <path d="M 9.328125 0 
L 9.328125 71.578125 
L 18.796875 71.578125 
L 18.796875 0 
z
" id="ArialMT-49"/>
      <path d="M 25.921875 0 
L 25.921875 63.140625 
L 2.34375 63.140625 
L 2.34375 71.578125 
L 59.078125 71.578125 
L 59.078125 63.140625 
L 35.40625 63.140625 
L 35.40625 0 
z
" id="ArialMT-54"/>
      <path d="M 54.6875 71.578125 
L 64.15625 71.578125 
L 64.15625 30.21875 
Q 64.15625 19.4375 61.71875 13.078125 
Q 59.28125 6.734375 52.90625 2.75 
Q 46.53125 -1.21875 36.1875 -1.21875 
Q 26.125 -1.21875 19.71875 2.25 
Q 13.328125 5.71875 10.59375 12.28125 
Q 7.859375 18.84375 7.859375 30.21875 
L 7.859375 71.578125 
L 17.328125 71.578125 
L 17.328125 30.28125 
Q 17.328125 20.953125 19.0625 16.53125 
Q 20.796875 12.109375 25.015625 9.71875 
Q 29.25 7.328125 35.359375 7.328125 
Q 45.796875 7.328125 50.234375 12.0625 
Q 54.6875 16.796875 54.6875 30.28125 
z
" id="ArialMT-55"/>
      <path d="M 7.71875 0 
L 7.71875 71.578125 
L 32.375 71.578125 
Q 40.71875 71.578125 45.125 70.5625 
Q 51.265625 69.140625 55.609375 65.4375 
Q 61.28125 60.640625 64.078125 53.1875 
Q 66.890625 45.75 66.890625 36.1875 
Q 66.890625 28.03125 64.984375 21.734375 
Q 63.09375 15.4375 60.109375 11.296875 
Q 57.125 7.171875 53.578125 4.796875 
Q 50.046875 2.4375 45.046875 1.21875 
Q 40.046875 0 33.546875 0 
z
M 17.1875 8.453125 
L 32.46875 8.453125 
Q 39.546875 8.453125 43.578125 9.765625 
Q 47.609375 11.078125 50 13.484375 
Q 53.375 16.84375 55.25 22.53125 
Q 57.125 28.21875 57.125 36.328125 
Q 57.125 47.5625 53.4375 53.59375 
Q 49.75 59.625 44.484375 61.671875 
Q 40.671875 63.140625 32.234375 63.140625 
L 17.1875 63.140625 
z
" id="ArialMT-44"/>
      <path d="M 7.90625 0 
L 7.90625 71.578125 
L 59.671875 71.578125 
L 59.671875 63.140625 
L 17.390625 63.140625 
L 17.390625 41.21875 
L 56.984375 41.21875 
L 56.984375 32.8125 
L 17.390625 32.8125 
L 17.390625 8.453125 
L 61.328125 8.453125 
L 61.328125 0 
z
" id="ArialMT-45"/>
     </defs>
     <g style="fill:#262626;" transform="translate(286.235074 699.298906)scale(0.11 -0.11)">
      <use xlink:href="#ArialMT-4c"/>
      <use x="55.615234" xlink:href="#ArialMT-4f"/>
      <use x="133.398438" xlink:href="#ArialMT-4e"/>
      <use x="205.615234" xlink:href="#ArialMT-47"/>
      <use x="283.398438" xlink:href="#ArialMT-49"/>
      <use x="311.181641" xlink:href="#ArialMT-54"/>
      <use x="372.265625" xlink:href="#ArialMT-55"/>
      <use x="444.482422" xlink:href="#ArialMT-44"/>
      <use x="516.699219" xlink:href="#ArialMT-45"/>
     </g>
    </g>
   </g>
   <g id="matplotlib.axis_2">
    <g id="ytick_1">
     <g id="line2d_11">
      <path clip-path="url(#p40198ddfb2)" d="M 45.222344 644.751019 
L 591.420772 644.751019 
" style="fill:none;stroke:#cccccc;stroke-linecap:round;"/>
     </g>
     <g id="line2d_12"/>
     <g id="text_7">
      <!-- −39 -->
      <defs>
       <path d="M 52.828125 31.203125 
L 5.5625 31.203125 
L 5.5625 39.40625 
L 52.828125 39.40625 
z
" id="ArialMT-2212"/>
       <path d="M 4.203125 18.890625 
L 12.984375 20.0625 
Q 14.5 12.59375 18.140625 9.296875 
Q 21.78125 6 27 6 
Q 33.203125 6 37.46875 10.296875 
Q 41.75 14.59375 41.75 20.953125 
Q 41.75 27 37.796875 30.921875 
Q 33.84375 34.859375 27.734375 34.859375 
Q 25.25 34.859375 21.53125 33.890625 
L 22.515625 41.609375 
Q 23.390625 41.5 23.921875 41.5 
Q 29.546875 41.5 34.03125 44.421875 
Q 38.53125 47.359375 38.53125 53.46875 
Q 38.53125 58.296875 35.25 61.46875 
Q 31.984375 64.65625 26.8125 64.65625 
Q 21.6875 64.65625 18.265625 61.421875 
Q 14.84375 58.203125 13.875 51.765625 
L 5.078125 53.328125 
Q 6.6875 62.15625 12.390625 67.015625 
Q 18.109375 71.875 26.609375 71.875 
Q 32.46875 71.875 37.390625 69.359375 
Q 42.328125 66.84375 44.9375 62.5 
Q 47.5625 58.15625 47.5625 53.265625 
Q 47.5625 48.640625 45.0625 44.828125 
Q 42.578125 41.015625 37.703125 38.765625 
Q 44.046875 37.3125 47.5625 32.6875 
Q 51.078125 28.078125 51.078125 21.140625 
Q 51.078125 11.765625 44.234375 5.25 
Q 37.40625 -1.265625 26.953125 -1.265625 
Q 17.53125 -1.265625 11.296875 4.34375 
Q 5.078125 9.96875 4.203125 18.890625 
z
" id="ArialMT-33"/>
       <path d="M 5.46875 16.546875 
L 13.921875 17.328125 
Q 14.984375 11.375 18.015625 8.6875 
Q 21.046875 6 25.78125 6 
Q 29.828125 6 32.875 7.859375 
Q 35.9375 9.71875 37.890625 12.8125 
Q 39.84375 15.921875 41.15625 21.1875 
Q 42.484375 26.46875 42.484375 31.9375 
Q 42.484375 32.515625 42.4375 33.6875 
Q 39.796875 29.5 35.234375 26.875 
Q 30.671875 24.265625 25.34375 24.265625 
Q 16.453125 24.265625 10.296875 30.703125 
Q 4.15625 37.15625 4.15625 47.703125 
Q 4.15625 58.59375 10.578125 65.234375 
Q 17 71.875 26.65625 71.875 
Q 33.640625 71.875 39.421875 68.109375 
Q 45.21875 64.359375 48.21875 57.390625 
Q 51.21875 50.4375 51.21875 37.25 
Q 51.21875 23.53125 48.234375 15.40625 
Q 45.265625 7.28125 39.375 3.03125 
Q 33.5 -1.21875 25.59375 -1.21875 
Q 17.1875 -1.21875 11.859375 3.4375 
Q 6.546875 8.109375 5.46875 16.546875 
z
M 41.453125 48.140625 
Q 41.453125 55.71875 37.421875 60.15625 
Q 33.40625 64.59375 27.734375 64.59375 
Q 21.875 64.59375 17.53125 59.8125 
Q 13.1875 55.03125 13.1875 47.40625 
Q 13.1875 40.578125 17.3125 36.296875 
Q 21.4375 32.03125 27.484375 32.03125 
Q 33.59375 32.03125 37.515625 36.296875 
Q 41.453125 40.578125 41.453125 48.140625 
z
" id="ArialMT-39"/>
      </defs>
      <g style="fill:#262626;" transform="translate(21.259844 648.329925)scale(0.1 -0.1)">
       <use xlink:href="#ArialMT-2212"/>
       <use x="58.398438" xlink:href="#ArialMT-33"/>
       <use x="114.013672" xlink:href="#ArialMT-39"/>
      </g>
     </g>
    </g>
    <g id="ytick_2">
     <g id="line2d_13">
      <path clip-path="url(#p40198ddfb2)" d="M 45.222344 543.306731 
L 591.420772 543.306731 
" style="fill:none;stroke:#cccccc;stroke-linecap:round;"/>
     </g>
     <g id="line2d_14"/>
     <g id="text_8">
      <!-- −38 -->
      <g style="fill:#262626;" transform="translate(21.259844 546.885637)scale(0.1 -0.1)">
       <use xlink:href="#ArialMT-2212"/>
       <use x="58.398438" xlink:href="#ArialMT-33"/>
       <use x="114.013672" xlink:href="#ArialMT-38"/>
      </g>
     </g>
    </g>
    <g id="ytick_3">
     <g id="line2d_15">
      <path clip-path="url(#p40198ddfb2)" d="M 45.222344 441.862443 
L 591.420772 441.862443 
" style="fill:none;stroke:#cccccc;stroke-linecap:round;"/>
     </g>
     <g id="line2d_16"/>
     <g id="text_9">
      <!-- −37 -->
      <defs>
       <path d="M 4.734375 62.203125 
L 4.734375 70.65625 
L 51.078125 70.65625 
L 51.078125 63.8125 
Q 44.234375 56.546875 37.515625 44.484375 
Q 30.8125 32.421875 27.15625 19.671875 
Q 24.515625 10.6875 23.78125 0 
L 14.75 0 
Q 14.890625 8.453125 18.0625 20.40625 
Q 21.234375 32.375 27.171875 43.484375 
Q 33.109375 54.59375 39.796875 62.203125 
z
" id="ArialMT-37"/>
      </defs>
      <g style="fill:#262626;" transform="translate(21.259844 445.441349)scale(0.1 -0.1)">
       <use xlink:href="#ArialMT-2212"/>
       <use x="58.398438" xlink:href="#ArialMT-33"/>
       <use x="114.013672" xlink:href="#ArialMT-37"/>
      </g>
     </g>
    </g>
    <g id="ytick_4">
     <g id="line2d_17">
      <path clip-path="url(#p40198ddfb2)" d="M 45.222344 340.418155 
L 591.420772 340.418155 
" style="fill:none;stroke:#cccccc;stroke-linecap:round;"/>
     </g>
     <g id="line2d_18"/>
     <g id="text_10">
      <!-- −36 -->
      <g style="fill:#262626;" transform="translate(21.259844 343.997061)scale(0.1 -0.1)">
       <use xlink:href="#ArialMT-2212"/>
       <use x="58.398438" xlink:href="#ArialMT-33"/>
       <use x="114.013672" xlink:href="#ArialMT-36"/>
      </g>
     </g>
    </g>
    <g id="ytick_5">
     <g id="line2d_19">
      <path clip-path="url(#p40198ddfb2)" d="M 45.222344 238.973867 
L 591.420772 238.973867 
" style="fill:none;stroke:#cccccc;stroke-linecap:round;"/>
     </g>
     <g id="line2d_20"/>
     <g id="text_11">
      <!-- −35 -->
      <g style="fill:#262626;" transform="translate(21.259844 242.552773)scale(0.1 -0.1)">
       <use xlink:href="#ArialMT-2212"/>
       <use x="58.398438" xlink:href="#ArialMT-33"/>
       <use x="114.013672" xlink:href="#ArialMT-35"/>
      </g>
     </g>
    </g>
    <g id="ytick_6">
     <g id="line2d_21">
      <path clip-path="url(#p40198ddfb2)" d="M 45.222344 137.529579 
L 591.420772 137.529579 
" style="fill:none;stroke:#cccccc;stroke-linecap:round;"/>
     </g>
     <g id="line2d_22"/>
     <g id="text_12">
      <!-- −34 -->
      <g style="fill:#262626;" transform="translate(21.259844 141.108485)scale(0.1 -0.1)">
       <use xlink:href="#ArialMT-2212"/>
       <use x="58.398438" xlink:href="#ArialMT-33"/>
       <use x="114.013672" xlink:href="#ArialMT-34"/>
      </g>
     </g>
    </g>
    <g id="text_13">
     <!-- LATITUDE -->
     <defs>
      <path d="M -0.140625 0 
L 27.34375 71.578125 
L 37.546875 71.578125 
L 66.84375 0 
L 56.0625 0 
L 47.703125 21.6875 
L 17.78125 21.6875 
L 9.90625 0 
z
M 20.515625 29.390625 
L 44.78125 29.390625 
L 37.3125 49.21875 
Q 33.890625 58.25 32.234375 64.0625 
Q 30.859375 57.171875 28.375 50.390625 
z
" id="ArialMT-41"/>
     </defs>
     <g style="fill:#262626;" transform="translate(15.073594 422.741612)rotate(-90)scale(0.11 -0.11)">
      <use xlink:href="#ArialMT-4c"/>
      <use x="55.615234" xlink:href="#ArialMT-41"/>
      <use x="122.205078" xlink:href="#ArialMT-54"/>
      <use x="183.289062" xlink:href="#ArialMT-49"/>
      <use x="211.072266" xlink:href="#ArialMT-54"/>
      <use x="272.15625" xlink:href="#ArialMT-55"/>
      <use x="344.373047" xlink:href="#ArialMT-44"/>
      <use x="416.589844" xlink:href="#ArialMT-45"/>
     </g>
    </g>
   </g>
   <g id="PathCollection_1">
    <path clip-path="url(#p40198ddfb2)" d="M 50.7395 671.28 
L 56.256655 671.28 
L 61.773811 671.28 
L 67.290967 671.28 
L 72.808123 671.28 
L 78.325279 671.28 
L 83.842435 671.28 
L 89.359591 671.28 
L 94.876746 671.28 
L 100.393902 671.28 
L 105.911058 671.28 
L 111.428214 671.28 
L 116.94537 671.28 
L 122.462526 671.28 
L 127.979681 671.28 
L 133.496837 671.28 
L 139.013993 671.28 
L 144.531149 671.28 
L 150.048305 671.28 
L 155.565461 671.28 
L 161.082616 671.28 
L 166.599772 671.28 
L 172.116928 671.28 
L 177.634084 671.28 
L 183.15124 671.28 
L 188.668396 671.28 
L 194.185552 671.28 
L 199.702707 671.28 
L 205.219863 671.28 
L 210.737019 671.28 
L 216.254175 671.28 
L 221.771331 671.28 
L 227.288487 671.28 
L 232.805642 671.28 
L 238.322798 671.28 
L 243.839954 671.28 
L 249.35711 671.28 
L 254.874266 671.28 
L 260.391422 671.28 
L 265.908578 671.28 
L 271.425733 671.28 
L 276.942889 671.28 
L 282.460045 671.28 
L 287.977201 671.28 
L 293.494357 671.28 
L 299.011513 671.28 
L 304.528668 671.28 
L 310.045824 671.28 
L 315.56298 671.28 
L 321.080136 671.28 
L 326.597292 671.28 
L 332.114448 671.28 
L 337.631603 671.28 
L 343.148759 671.28 
L 348.665915 671.28 
L 354.183071 671.28 
L 359.700227 671.28 
L 365.217383 671.28 
L 370.734539 671.28 
L 376.251694 671.28 
L 381.76885 671.28 
L 387.286006 671.28 
L 392.803162 671.28 
L 398.320318 671.28 
L 403.837474 671.28 
L 409.354629 671.28 
L 414.871785 671.28 
L 420.388941 671.28 
L 425.906097 671.28 
L 431.423253 671.28 
L 436.940409 671.28 
L 442.457565 671.28 
L 447.97472 671.28 
L 453.491876 671.28 
L 459.009032 671.28 
L 464.526188 671.28 
L 470.043344 671.28 
L 475.5605 671.28 
L 481.077655 671.28 
L 486.594811 671.28 
L 492.111967 671.28 
L 497.629123 671.28 
L 503.146279 671.28 
L 508.663435 671.28 
L 514.180591 671.28 
L 519.697746 671.28 
L 525.214902 671.28 
L 530.732058 671.28 
L 536.249214 671.28 
L 541.76637 671.28 
L 547.283526 671.28 
L 552.800681 671.28 
L 558.317837 671.28 
L 563.834993 671.28 
L 569.352149 671.28 
L 574.869305 671.28 
L 580.386461 671.28 
L 585.903616 671.28 
L 591.420772 671.28 
L 591.420772 665.722043 
L 591.420772 660.164087 
L 591.420772 654.60613 
L 591.420772 649.048173 
L 591.420772 643.490216 
L 591.420772 637.93226 
L 591.420772 632.374303 
L 591.420772 626.816346 
L 591.420772 621.25839 
L 591.420772 615.700433 
L 591.420772 610.142476 
L 591.420772 604.584519 
L 591.420772 599.026563 
L 591.420772 593.468606 
L 591.420772 587.910649 
L 591.420772 582.352693 
L 591.420772 576.794736 
L 591.420772 571.236779 
L 591.420772 565.678823 
L 591.420772 560.120866 
L 591.420772 554.562909 
L 591.420772 549.004952 
L 591.420772 543.446996 
L 591.420772 537.889039 
L 591.420772 532.331082 
L 591.420772 526.773126 
L 591.420772 521.215169 
L 591.420772 515.657212 
L 591.420772 510.099255 
L 591.420772 504.541299 
L 591.420772 498.983342 
L 591.420772 493.425385 
L 591.420772 487.867429 
L 591.420772 482.309472 
L 591.420772 476.751515 
L 591.420772 471.193558 
L 591.420772 465.635602 
L 591.420772 460.077645 
L 591.420772 454.519688 
L 591.420772 448.961732 
L 591.420772 443.403775 
L 591.420772 437.845818 
L 591.420772 432.287861 
L 591.420772 426.729905 
L 591.420772 421.171948 
L 591.420772 415.613991 
L 591.420772 410.056035 
L 591.420772 404.498078 
L 591.420772 398.940121 
L 591.420772 393.382165 
L 591.420772 387.824208 
L 591.420772 382.266251 
L 591.420772 376.708294 
L 591.420772 371.150338 
L 591.420772 365.592381 
L 591.420772 360.034424 
L 591.420772 354.476468 
L 591.420772 348.918511 
L 591.420772 343.360554 
L 591.420772 337.802597 
L 591.420772 332.244641 
L 591.420772 326.686684 
L 591.420772 321.128727 
L 591.420772 315.570771 
L 591.420772 310.012814 
L 591.420772 304.454857 
L 591.420772 298.8969 
L 591.420772 293.338944 
L 591.420772 287.780987 
L 591.420772 282.22303 
L 591.420772 276.665074 
L 591.420772 271.107117 
L 591.420772 265.54916 
L 591.420772 259.991203 
L 591.420772 254.433247 
L 591.420772 248.87529 
L 591.420772 243.317333 
L 591.420772 237.759377 
L 591.420772 232.20142 
L 591.420772 226.643463 
L 591.420772 221.085506 
L 591.420772 215.52755 
L 591.420772 209.969593 
L 591.420772 204.411636 
L 591.420772 198.85368 
L 591.420772 193.295723 
L 591.420772 187.737766 
L 591.420772 182.17981 
L 591.420772 176.621853 
L 591.420772 171.063896 
L 591.420772 165.505939 
L 591.420772 159.947983 
L 591.420772 154.390026 
L 591.420772 148.832069 
L 591.420772 143.274113 
L 591.420772 137.716156 
L 591.420772 132.158199 
L 591.420772 126.600242 
L 591.420772 121.042286 
L 585.903616 121.042286 
L 580.386461 121.042286 
L 574.869305 121.042286 
L 569.352149 121.042286 
L 563.834993 121.042286 
L 558.317837 121.042286 
L 552.800681 121.042286 
L 547.283526 121.042286 
L 541.76637 121.042286 
L 536.249214 121.042286 
L 530.732058 121.042286 
L 525.214902 121.042286 
L 519.697746 121.042286 
L 514.180591 121.042286 
L 508.663435 121.042286 
L 503.146279 121.042286 
L 497.629123 121.042286 
L 492.111967 121.042286 
L 486.594811 121.042286 
L 481.077655 121.042286 
L 475.5605 121.042286 
L 470.043344 121.042286 
L 464.526188 121.042286 
L 459.009032 121.042286 
L 453.491876 121.042286 
L 447.97472 121.042286 
L 442.457565 121.042286 
L 436.940409 121.042286 
L 431.423253 121.042286 
L 425.906097 121.042286 
L 420.388941 121.042286 
L 414.871785 121.042286 
L 409.354629 121.042286 
L 403.837474 121.042286 
L 398.320318 121.042286 
L 392.803162 121.042286 
L 387.286006 121.042286 
L 381.76885 121.042286 
L 376.251694 121.042286 
L 370.734539 121.042286 
L 365.217383 121.042286 
L 359.700227 121.042286 
L 354.183071 121.042286 
L 348.665915 121.042286 
L 343.148759 121.042286 
L 337.631603 121.042286 
L 332.114448 121.042286 
L 326.597292 121.042286 
L 321.080136 121.042286 
L 315.56298 121.042286 
L 310.045824 121.042286 
L 304.528668 121.042286 
L 299.011513 121.042286 
L 293.494357 121.042286 
L 287.977201 121.042286 
L 282.460045 121.042286 
L 276.942889 121.042286 
L 271.425733 121.042286 
L 265.908578 121.042286 
L 260.391422 121.042286 
L 254.874266 121.042286 
L 249.35711 121.042286 
L 243.839954 121.042286 
L 238.322798 121.042286 
L 232.805642 121.042286 
L 227.288487 121.042286 
L 221.771331 121.042286 
L 216.254175 121.042286 
L 210.737019 121.042286 
L 205.219863 121.042286 
L 199.702707 121.042286 
L 194.185552 121.042286 
L 188.668396 121.042286 
L 183.15124 121.042286 
L 177.634084 121.042286 
L 172.116928 121.042286 
L 166.599772 121.042286 
L 161.082616 121.042286 
L 155.565461 121.042286 
L 150.048305 121.042286 
L 144.531149 121.042286 
L 139.013993 121.042286 
L 133.496837 121.042286 
L 127.979681 121.042286 
L 122.462526 121.042286 
L 116.94537 121.042286 
L 111.428214 121.042286 
L 105.911058 121.042286 
L 100.393902 121.042286 
L 94.876746 121.042286 
L 89.359591 121.042286 
L 83.842435 121.042286 
L 78.325279 121.042286 
L 72.808123 121.042286 
L 67.290967 121.042286 
L 61.773811 121.042286 
L 56.256655 121.042286 
L 50.7395 121.042286 
L 45.222344 121.042286 
L 45.222344 126.600242 
L 45.222344 132.158199 
L 45.222344 137.716156 
L 45.222344 143.274113 
L 45.222344 148.832069 
L 45.222344 154.390026 
L 45.222344 159.947983 
L 45.222344 165.505939 
L 45.222344 171.063896 
L 45.222344 176.621853 
L 45.222344 182.17981 
L 45.222344 187.737766 
L 45.222344 193.295723 
L 45.222344 198.85368 
L 45.222344 204.411636 
L 45.222344 209.969593 
L 45.222344 215.52755 
L 45.222344 221.085506 
L 45.222344 226.643463 
L 45.222344 232.20142 
L 45.222344 237.759377 
L 45.222344 243.317333 
L 45.222344 248.87529 
L 45.222344 254.433247 
L 45.222344 259.991203 
L 45.222344 265.54916 
L 45.222344 271.107117 
L 45.222344 276.665074 
L 45.222344 282.22303 
L 45.222344 287.780987 
L 45.222344 293.338944 
L 45.222344 298.8969 
L 45.222344 304.454857 
L 45.222344 310.012814 
L 45.222344 315.570771 
L 45.222344 321.128727 
L 45.222344 326.686684 
L 45.222344 332.244641 
L 45.222344 337.802597 
L 45.222344 343.360554 
L 45.222344 348.918511 
L 45.222344 354.476468 
L 45.222344 360.034424 
L 45.222344 365.592381 
L 45.222344 371.150338 
L 45.222344 376.708294 
L 45.222344 382.266251 
L 45.222344 387.824208 
L 45.222344 393.382165 
L 45.222344 398.940121 
L 45.222344 404.498078 
L 45.222344 410.056035 
L 45.222344 415.613991 
L 45.222344 421.171948 
L 45.222344 426.729905 
L 45.222344 432.287861 
L 45.222344 437.845818 
L 45.222344 443.403775 
L 45.222344 448.961732 
L 45.222344 454.519688 
L 45.222344 460.077645 
L 45.222344 465.635602 
L 45.222344 471.193558 
L 45.222344 476.751515 
L 45.222344 482.309472 
L 45.222344 487.867429 
L 45.222344 493.425385 
L 45.222344 498.983342 
L 45.222344 504.541299 
L 45.222344 510.099255 
L 45.222344 515.657212 
L 45.222344 521.215169 
L 45.222344 526.773126 
L 45.222344 532.331082 
L 45.222344 537.889039 
L 45.222344 543.446996 
L 45.222344 549.004952 
L 45.222344 554.562909 
L 45.222344 560.120866 
L 45.222344 565.678823 
L 45.222344 571.236779 
L 45.222344 576.794736 
L 45.222344 582.352693 
L 45.222344 587.910649 
L 45.222344 593.468606 
L 45.222344 599.026563 
L 45.222344 604.584519 
L 45.222344 610.142476 
L 45.222344 615.700433 
L 45.222344 621.25839 
L 45.222344 626.816346 
L 45.222344 632.374303 
L 45.222344 637.93226 
L 45.222344 643.490216 
L 45.222344 649.048173 
L 45.222344 654.60613 
L 45.222344 660.164087 
L 45.222344 665.722043 
L 45.222344 671.28 
z
M 302.961507 560.120866 
L 300.022668 554.562909 
L 299.011513 553.176003 
L 296.475631 549.004952 
L 293.494357 545.348763 
L 291.690125 543.446996 
L 287.977201 540.115956 
L 284.797211 537.889039 
L 282.460045 535.97586 
L 278.503808 532.331082 
L 276.942889 528.304014 
L 276.311371 526.773126 
L 275.407195 521.215169 
L 275.562764 515.657212 
L 276.942889 511.909091 
L 277.389126 510.099255 
L 281.388327 504.541299 
L 282.460045 503.535162 
L 287.977201 499.727401 
L 291.341649 498.983342 
L 293.494357 498.254611 
L 297.229406 498.983342 
L 299.011513 499.17138 
L 304.528668 501.999396 
L 307.203168 504.541299 
L 310.045824 507.588007 
L 312.529906 510.099255 
L 315.56298 513.517591 
L 317.639159 515.657212 
L 320.902378 521.215169 
L 321.080136 521.904969 
L 322.814934 526.773126 
L 323.350371 532.331082 
L 323.466305 537.889039 
L 323.610295 543.446996 
L 323.202757 549.004952 
L 321.080136 553.921282 
L 320.773409 554.562909 
L 315.56298 559.90795 
L 315.104848 560.120866 
L 310.045824 563.186776 
L 304.528668 562.409899 
z
" style="fill:#e7e7ff;"/>
   </g>
   <g id="PathCollection_2">
    <path clip-path="url(#p40198ddfb2)" d="M 304.528668 562.409899 
L 310.045824 563.186776 
L 315.104848 560.120866 
L 315.56298 559.90795 
L 320.773409 554.562909 
L 321.080136 553.921282 
L 323.202757 549.004952 
L 323.610295 543.446996 
L 323.466305 537.889039 
L 323.350371 532.331082 
L 322.814934 526.773126 
L 321.080136 521.904969 
L 320.902378 521.215169 
L 317.639159 515.657212 
L 315.56298 513.517591 
L 312.529906 510.099255 
L 310.045824 507.588007 
L 307.203168 504.541299 
L 304.528668 501.999396 
L 299.011513 499.17138 
L 297.229406 498.983342 
L 293.494357 498.254611 
L 291.341649 498.983342 
L 287.977201 499.727401 
L 282.460045 503.535162 
L 281.388327 504.541299 
L 277.389126 510.099255 
L 276.942889 511.909091 
L 275.562764 515.657212 
L 275.407195 521.215169 
L 276.311371 526.773126 
L 276.942889 528.304014 
L 278.503808 532.331082 
L 282.460045 535.97586 
L 284.797211 537.889039 
L 287.977201 540.115956 
L 291.690125 543.446996 
L 293.494357 545.348763 
L 296.475631 549.004952 
L 299.011513 553.176003 
L 300.022668 554.562909 
L 302.961507 560.120866 
z
M 302.100093 549.004952 
L 299.011513 546.462929 
L 296.354226 543.446996 
L 293.494357 540.988758 
L 290.232344 537.889039 
L 287.977201 535.647899 
L 284.371312 532.331082 
L 282.460045 528.883703 
L 281.069736 526.773126 
L 279.692599 521.215169 
L 280.114341 515.657212 
L 282.460045 510.958843 
L 282.86702 510.099255 
L 287.977201 505.008904 
L 289.24843 504.541299 
L 293.494357 502.743296 
L 299.011513 503.756374 
L 300.141155 504.541299 
L 304.528668 507.465554 
L 307.059864 510.099255 
L 310.045824 513.863985 
L 311.715121 515.657212 
L 315.447246 521.215169 
L 315.56298 521.535813 
L 317.86817 526.773126 
L 318.572813 532.331082 
L 318.661205 537.889039 
L 318.437324 543.446996 
L 316.986628 549.004952 
L 315.56298 551.153784 
L 310.045824 554.131648 
L 304.528668 552.033627 
z
" style="fill:#b3b3ff;"/>
   </g>
   <g id="PathCollection_3">
    <path clip-path="url(#p40198ddfb2)" d="M 304.528668 552.033627 
L 310.045824 554.131648 
L 315.56298 551.153784 
L 316.986628 549.004952 
L 318.437324 543.446996 
L 318.661205 537.889039 
L 318.572813 532.331082 
L 317.86817 526.773126 
L 315.56298 521.535813 
L 315.447246 521.215169 
L 311.715121 515.657212 
L 310.045824 513.863985 
L 307.059864 510.099255 
L 304.528668 507.465554 
L 300.141155 504.541299 
L 299.011513 503.756374 
L 293.494357 502.743296 
L 289.24843 504.541299 
L 287.977201 505.008904 
L 282.86702 510.099255 
L 282.460045 510.958843 
L 280.114341 515.657212 
L 279.692599 521.215169 
L 281.069736 526.773126 
L 282.460045 528.883703 
L 284.371312 532.331082 
L 287.977201 535.647899 
L 290.232344 537.889039 
L 293.494357 540.988758 
L 296.354226 543.446996 
L 299.011513 546.462929 
L 302.100093 549.004952 
z
M 300.484362 543.446996 
L 299.011513 542.674368 
L 293.662753 537.889039 
L 293.494357 537.765828 
L 288.055707 532.331082 
L 287.977201 532.218149 
L 283.961717 526.773126 
L 282.824086 521.215169 
L 283.31131 515.657212 
L 286.454099 510.099255 
L 287.977201 508.582063 
L 293.494357 505.988534 
L 299.011513 506.858905 
L 303.109892 510.099255 
L 304.528668 511.362889 
L 308.23967 515.657212 
L 310.045824 518.610374 
L 312.039916 521.215169 
L 314.331703 526.773126 
L 315.049727 532.331082 
L 315.037018 537.889039 
L 314.041641 543.446996 
L 310.045824 548.051074 
L 304.528668 546.833802 
z
" style="fill:#7f7fff;"/>
   </g>
   <g id="PathCollection_4">
    <path clip-path="url(#p40198ddfb2)" d="M 304.528668 546.833802 
L 310.045824 548.051074 
L 314.041641 543.446996 
L 315.037018 537.889039 
L 315.049727 532.331082 
L 314.331703 526.773126 
L 312.039916 521.215169 
L 310.045824 518.610374 
L 308.23967 515.657212 
L 304.528668 511.362889 
L 303.109892 510.099255 
L 299.011513 506.858905 
L 293.494357 505.988534 
L 287.977201 508.582063 
L 286.454099 510.099255 
L 283.31131 515.657212 
L 282.824086 521.215169 
L 283.961717 526.773126 
L 287.977201 532.218149 
L 288.055707 532.331082 
L 293.494357 537.765828 
L 293.662753 537.889039 
L 299.011513 542.674368 
L 300.484362 543.446996 
z
M 296.473243 537.889039 
L 293.494357 535.709476 
L 290.113536 532.331082 
L 287.977201 529.257905 
L 286.144777 526.773126 
L 284.679502 521.215169 
L 285.552251 515.657212 
L 287.977201 512.028665 
L 290.680613 510.099255 
L 293.494357 508.559543 
L 299.011513 509.655224 
L 299.573121 510.099255 
L 304.528668 514.512913 
L 305.517531 515.657212 
L 309.1767 521.215169 
L 310.045824 523.605367 
L 311.56607 526.773126 
L 312.364999 532.331082 
L 311.848189 537.889039 
L 310.045824 542.080156 
L 304.528668 542.937924 
L 299.011513 540.159931 
z
" style="fill:#4d4dff;"/>
   </g>
   <g id="PathCollection_5">
    <path clip-path="url(#p40198ddfb2)" d="M 299.011513 540.159931 
L 304.528668 542.937924 
L 310.045824 542.080156 
L 311.848189 537.889039 
L 312.364999 532.331082 
L 311.56607 526.773126 
L 310.045824 523.605367 
L 309.1767 521.215169 
L 305.517531 515.657212 
L 304.528668 514.512913 
L 299.573121 510.099255 
L 299.011513 509.655224 
L 293.494357 508.559543 
L 290.680613 510.099255 
L 287.977201 512.028665 
L 285.552251 515.657212 
L 284.679502 521.215169 
L 286.144777 526.773126 
L 287.977201 529.257905 
L 290.113536 532.331082 
L 293.494357 535.709476 
L 296.473243 537.889039 
z
M 299.838104 537.889039 
L 299.011513 537.689608 
L 293.494357 533.653124 
L 292.171366 532.331082 
L 288.238471 526.773126 
L 287.977201 525.821372 
L 286.534918 521.215169 
L 287.793193 515.657212 
L 287.977201 515.381874 
L 293.494357 510.962644 
L 299.011513 511.920378 
L 303.041918 515.657212 
L 304.528668 517.565128 
L 307.081234 521.215169 
L 309.137564 526.773126 
L 309.686716 532.331082 
L 307.609071 537.889039 
L 304.528668 539.679809 
z
" style="fill:#1919ff;"/>
   </g>
   <g id="PathCollection_6">
    <path clip-path="url(#p40198ddfb2)" d="M 304.528668 539.679809 
L 307.609071 537.889039 
L 309.686716 532.331082 
L 309.137564 526.773126 
L 307.081234 521.215169 
L 304.528668 517.565128 
L 303.041918 515.657212 
L 299.011513 511.920378 
L 293.494357 510.962644 
L 287.977201 515.381874 
L 287.793193 515.657212 
L 286.534918 521.215169 
L 287.977201 525.821372 
L 288.238471 526.773126 
L 292.171366 532.331082 
L 293.494357 533.653124 
L 299.011513 537.689608 
L 299.838104 537.889039 
z
M 294.499737 532.331082 
L 293.494357 531.56424 
L 289.865141 526.773126 
L 288.374867 521.215169 
L 290.389893 515.657212 
L 293.494357 513.115062 
L 299.011513 514.085267 
L 300.706952 515.657212 
L 304.528668 520.561541 
L 304.985767 521.215169 
L 307.120589 526.773126 
L 307.049325 532.331082 
L 304.528668 536.108861 
L 299.011513 535.63062 
z
" style="fill:#0000e6;"/>
   </g>
   <g id="PathCollection_7">
    <path clip-path="url(#p40198ddfb2)" d="M 299.011513 535.63062 
L 304.528668 536.108861 
L 307.049325 532.331082 
L 307.120589 526.773126 
L 304.985767 521.215169 
L 304.528668 520.561541 
L 300.706952 515.657212 
L 299.011513 514.085267 
L 293.494357 513.115062 
L 290.389893 515.657212 
L 288.374867 521.215169 
L 289.865141 526.773126 
L 293.494357 531.56424 
L 294.499737 532.331082 
z
M 297.315189 532.331082 
L 293.494357 529.416789 
L 291.491812 526.773126 
L 290.16082 521.215169 
L 293.018418 515.657212 
L 293.494357 515.26748 
L 295.690109 515.657212 
L 299.011513 516.339531 
L 302.953765 521.215169 
L 304.528668 525.288179 
L 305.103614 526.773126 
L 304.528668 531.584065 
L 304.151101 532.331082 
L 299.011513 533.571632 
z
" style="fill:#0000b2;"/>
   </g>
   <g id="PathCollection_8">
    <path clip-path="url(#p40198ddfb2)" d="M 299.011513 533.571632 
L 304.151101 532.331082 
L 304.528668 531.584065 
L 305.103614 526.773126 
L 304.528668 525.288179 
L 302.953765 521.215169 
L 299.011513 516.339531 
L 295.690109 515.657212 
L 293.494357 515.26748 
L 293.018418 515.657212 
L 290.16082 521.215169 
L 291.491812 526.773126 
L 293.494357 529.416789 
L 297.315189 532.331082 
z
M 293.118482 526.773126 
L 291.946772 521.215169 
L 293.494357 518.357709 
L 299.011513 518.83074 
L 300.93947 521.215169 
L 302.650907 526.773126 
L 299.011513 531.092133 
L 293.494357 527.269337 
z
" style="fill:#00007e;"/>
   </g>
   <g id="PathCollection_9">
    <path clip-path="url(#p40198ddfb2)" d="M 293.494357 527.269337 
L 299.011513 531.092133 
L 302.650907 526.773126 
L 300.93947 521.215169 
L 299.011513 518.83074 
L 293.494357 518.357709 
L 291.946772 521.215169 
L 293.118482 526.773126 
z
M 297.168595 526.773126 
L 299.011513 521.771078 
L 300.024472 526.773126 
L 299.011513 527.975243 
z
" style="fill:#00004c;"/>
   </g>
   <g id="PathCollection_10">
    <path clip-path="url(#p40198ddfb2)" d="M 299.011513 527.975243 
L 300.024472 526.773126 
L 299.011513 521.771078 
L 297.168595 526.773126 
z
" style="fill:#000018;"/>
   </g>
   <g id="patch_3">
    <path d="M 45.222344 671.28 
L 45.222344 121.042286 
" style="fill:none;stroke:#cccccc;stroke-linecap:square;stroke-linejoin:miter;"/>
   </g>
   <g id="patch_4">
    <path d="M 45.222344 671.28 
L 591.420772 671.28 
" style="fill:none;stroke:#cccccc;stroke-linecap:square;stroke-linejoin:miter;"/>
   </g>
   <g id="legend_1">
    <g id="line2d_23"/>
    <g id="line2d_24"/>
    <g id="text_14">
     <!-- pearsonr = -0.19; p = 0 -->
     <defs>
      <path d="M 6.59375 -19.875 
L 6.59375 51.859375 
L 14.59375 51.859375 
L 14.59375 45.125 
Q 17.4375 49.078125 21 51.046875 
Q 24.5625 53.03125 29.640625 53.03125 
Q 36.28125 53.03125 41.359375 49.609375 
Q 46.4375 46.1875 49.015625 39.953125 
Q 51.609375 33.734375 51.609375 26.3125 
Q 51.609375 18.359375 48.75 11.984375 
Q 45.90625 5.609375 40.453125 2.21875 
Q 35.015625 -1.171875 29 -1.171875 
Q 24.609375 -1.171875 21.109375 0.6875 
Q 17.625 2.546875 15.375 5.375 
L 15.375 -19.875 
z
M 14.546875 25.640625 
Q 14.546875 15.625 18.59375 10.84375 
Q 22.65625 6.0625 28.421875 6.0625 
Q 34.28125 6.0625 38.453125 11.015625 
Q 42.625 15.96875 42.625 26.375 
Q 42.625 36.28125 38.546875 41.203125 
Q 34.46875 46.140625 28.8125 46.140625 
Q 23.1875 46.140625 18.859375 40.890625 
Q 14.546875 35.640625 14.546875 25.640625 
z
" id="ArialMT-70"/>
      <path d="M 42.09375 16.703125 
L 51.171875 15.578125 
Q 49.03125 7.625 43.21875 3.21875 
Q 37.40625 -1.171875 28.375 -1.171875 
Q 17 -1.171875 10.328125 5.828125 
Q 3.65625 12.84375 3.65625 25.484375 
Q 3.65625 38.578125 10.390625 45.796875 
Q 17.140625 53.03125 27.875 53.03125 
Q 38.28125 53.03125 44.875 45.953125 
Q 51.46875 38.875 51.46875 26.03125 
Q 51.46875 25.25 51.421875 23.6875 
L 12.75 23.6875 
Q 13.234375 15.140625 17.578125 10.59375 
Q 21.921875 6.0625 28.421875 6.0625 
Q 33.25 6.0625 36.671875 8.59375 
Q 40.09375 11.140625 42.09375 16.703125 
z
M 13.234375 30.90625 
L 42.1875 30.90625 
Q 41.609375 37.453125 38.875 40.71875 
Q 34.671875 45.796875 27.984375 45.796875 
Q 21.921875 45.796875 17.796875 41.75 
Q 13.671875 37.703125 13.234375 30.90625 
z
" id="ArialMT-65"/>
      <path d="M 40.4375 6.390625 
Q 35.546875 2.25 31.03125 0.53125 
Q 26.515625 -1.171875 21.34375 -1.171875 
Q 12.796875 -1.171875 8.203125 3 
Q 3.609375 7.171875 3.609375 13.671875 
Q 3.609375 17.484375 5.34375 20.625 
Q 7.078125 23.78125 9.890625 25.6875 
Q 12.703125 27.59375 16.21875 28.5625 
Q 18.796875 29.25 24.03125 29.890625 
Q 34.671875 31.15625 39.703125 32.90625 
Q 39.75 34.71875 39.75 35.203125 
Q 39.75 40.578125 37.25 42.78125 
Q 33.890625 45.75 27.25 45.75 
Q 21.046875 45.75 18.09375 43.578125 
Q 15.140625 41.40625 13.71875 35.890625 
L 5.125 37.0625 
Q 6.296875 42.578125 8.984375 45.96875 
Q 11.671875 49.359375 16.75 51.1875 
Q 21.828125 53.03125 28.515625 53.03125 
Q 35.15625 53.03125 39.296875 51.46875 
Q 43.453125 49.90625 45.40625 47.53125 
Q 47.359375 45.171875 48.140625 41.546875 
Q 48.578125 39.3125 48.578125 33.453125 
L 48.578125 21.734375 
Q 48.578125 9.46875 49.140625 6.21875 
Q 49.703125 2.984375 51.375 0 
L 42.1875 0 
Q 40.828125 2.734375 40.4375 6.390625 
z
M 39.703125 26.03125 
Q 34.90625 24.078125 25.34375 22.703125 
Q 19.921875 21.921875 17.671875 20.9375 
Q 15.4375 19.96875 14.203125 18.09375 
Q 12.984375 16.21875 12.984375 13.921875 
Q 12.984375 10.40625 15.640625 8.0625 
Q 18.3125 5.71875 23.4375 5.71875 
Q 28.515625 5.71875 32.46875 7.9375 
Q 36.421875 10.15625 38.28125 14.015625 
Q 39.703125 17 39.703125 22.796875 
z
" id="ArialMT-61"/>
      <path d="M 6.5 0 
L 6.5 51.859375 
L 14.40625 51.859375 
L 14.40625 44 
Q 17.4375 49.515625 20 51.265625 
Q 22.5625 53.03125 25.640625 53.03125 
Q 30.078125 53.03125 34.671875 50.203125 
L 31.640625 42.046875 
Q 28.421875 43.953125 25.203125 43.953125 
Q 22.3125 43.953125 20.015625 42.21875 
Q 17.71875 40.484375 16.75 37.40625 
Q 15.28125 32.71875 15.28125 27.15625 
L 15.28125 0 
z
" id="ArialMT-72"/>
      <path d="M 3.078125 15.484375 
L 11.765625 16.84375 
Q 12.5 11.625 15.84375 8.84375 
Q 19.1875 6.0625 25.203125 6.0625 
Q 31.25 6.0625 34.171875 8.515625 
Q 37.109375 10.984375 37.109375 14.3125 
Q 37.109375 17.28125 34.515625 19 
Q 32.71875 20.171875 25.53125 21.96875 
Q 15.875 24.421875 12.140625 26.203125 
Q 8.40625 27.984375 6.46875 31.125 
Q 4.546875 34.28125 4.546875 38.09375 
Q 4.546875 41.546875 6.125 44.5 
Q 7.71875 47.46875 10.453125 49.421875 
Q 12.5 50.921875 16.03125 51.96875 
Q 19.578125 53.03125 23.640625 53.03125 
Q 29.734375 53.03125 34.34375 51.265625 
Q 38.96875 49.515625 41.15625 46.5 
Q 43.359375 43.5 44.1875 38.484375 
L 35.59375 37.3125 
Q 35.015625 41.3125 32.203125 43.546875 
Q 29.390625 45.796875 24.265625 45.796875 
Q 18.21875 45.796875 15.625 43.796875 
Q 13.03125 41.796875 13.03125 39.109375 
Q 13.03125 37.40625 14.109375 36.03125 
Q 15.1875 34.625 17.484375 33.6875 
Q 18.796875 33.203125 25.25 31.453125 
Q 34.578125 28.953125 38.25 27.359375 
Q 41.9375 25.78125 44.03125 22.75 
Q 46.140625 19.734375 46.140625 15.234375 
Q 46.140625 10.84375 43.578125 6.953125 
Q 41.015625 3.078125 36.171875 0.953125 
Q 31.34375 -1.171875 25.25 -1.171875 
Q 15.140625 -1.171875 9.84375 3.03125 
Q 4.546875 7.234375 3.078125 15.484375 
z
" id="ArialMT-73"/>
      <path d="M 3.328125 25.921875 
Q 3.328125 40.328125 11.328125 47.265625 
Q 18.015625 53.03125 27.640625 53.03125 
Q 38.328125 53.03125 45.109375 46.015625 
Q 51.90625 39.015625 51.90625 26.65625 
Q 51.90625 16.65625 48.90625 10.90625 
Q 45.90625 5.171875 40.15625 2 
Q 34.421875 -1.171875 27.640625 -1.171875 
Q 16.75 -1.171875 10.03125 5.8125 
Q 3.328125 12.796875 3.328125 25.921875 
z
M 12.359375 25.921875 
Q 12.359375 15.96875 16.703125 11.015625 
Q 21.046875 6.0625 27.640625 6.0625 
Q 34.1875 6.0625 38.53125 11.03125 
Q 42.875 16.015625 42.875 26.21875 
Q 42.875 35.84375 38.5 40.796875 
Q 34.125 45.75 27.640625 45.75 
Q 21.046875 45.75 16.703125 40.8125 
Q 12.359375 35.890625 12.359375 25.921875 
z
" id="ArialMT-6f"/>
      <path d="M 6.59375 0 
L 6.59375 51.859375 
L 14.5 51.859375 
L 14.5 44.484375 
Q 20.21875 53.03125 31 53.03125 
Q 35.6875 53.03125 39.625 51.34375 
Q 43.5625 49.65625 45.515625 46.921875 
Q 47.46875 44.1875 48.25 40.4375 
Q 48.734375 37.984375 48.734375 31.890625 
L 48.734375 0 
L 39.9375 0 
L 39.9375 31.546875 
Q 39.9375 36.921875 38.90625 39.578125 
Q 37.890625 42.234375 35.28125 43.8125 
Q 32.671875 45.40625 29.15625 45.40625 
Q 23.53125 45.40625 19.453125 41.84375 
Q 15.375 38.28125 15.375 28.328125 
L 15.375 0 
z
" id="ArialMT-6e"/>
      <path id="ArialMT-20"/>
      <path d="M 52.828125 42.09375 
L 5.5625 42.09375 
L 5.5625 50.296875 
L 52.828125 50.296875 
z
M 52.828125 20.359375 
L 5.5625 20.359375 
L 5.5625 28.5625 
L 52.828125 28.5625 
z
" id="ArialMT-3d"/>
      <path d="M 3.171875 21.484375 
L 3.171875 30.328125 
L 30.171875 30.328125 
L 30.171875 21.484375 
z
" id="ArialMT-2d"/>
      <path d="M 9.078125 0 
L 9.078125 10.015625 
L 19.09375 10.015625 
L 19.09375 0 
z
" id="ArialMT-2e"/>
      <path d="M 8.890625 41.84375 
L 8.890625 51.859375 
L 18.890625 51.859375 
L 18.890625 41.84375 
z
M 8.890625 0 
L 8.890625 10.015625 
L 18.890625 10.015625 
L 18.890625 0 
Q 18.890625 -5.515625 16.9375 -8.90625 
Q 14.984375 -12.3125 10.75 -14.15625 
L 8.296875 -10.40625 
Q 11.078125 -9.1875 12.390625 -6.8125 
Q 13.71875 -4.4375 13.875 0 
z
" id="ArialMT-3b"/>
     </defs>
     <g style="fill:#262626;" transform="translate(480.69421 137.229786)scale(0.1 -0.1)">
      <use xlink:href="#ArialMT-70"/>
      <use x="55.615234" xlink:href="#ArialMT-65"/>
      <use x="111.230469" xlink:href="#ArialMT-61"/>
      <use x="166.845703" xlink:href="#ArialMT-72"/>
      <use x="200.146484" xlink:href="#ArialMT-73"/>
      <use x="250.146484" xlink:href="#ArialMT-6f"/>
      <use x="305.761719" xlink:href="#ArialMT-6e"/>
      <use x="361.376953" xlink:href="#ArialMT-72"/>
      <use x="394.677734" xlink:href="#ArialMT-20"/>
      <use x="422.460938" xlink:href="#ArialMT-3d"/>
      <use x="480.859375" xlink:href="#ArialMT-20"/>
      <use x="508.642578" xlink:href="#ArialMT-2d"/>
      <use x="541.943359" xlink:href="#ArialMT-30"/>
      <use x="597.558594" xlink:href="#ArialMT-2e"/>
      <use x="625.341797" xlink:href="#ArialMT-31"/>
      <use x="680.957031" xlink:href="#ArialMT-39"/>
      <use x="736.572266" xlink:href="#ArialMT-3b"/>
      <use x="764.355469" xlink:href="#ArialMT-20"/>
      <use x="792.138672" xlink:href="#ArialMT-70"/>
      <use x="847.753906" xlink:href="#ArialMT-20"/>
      <use x="875.537109" xlink:href="#ArialMT-3d"/>
      <use x="933.935547" xlink:href="#ArialMT-20"/>
      <use x="961.71875" xlink:href="#ArialMT-30"/>
     </g>
    </g>
   </g>
  </g>
  <g id="axes_2">
   <g id="patch_5">
    <path d="M 45.222344 102.068571 
L 591.420772 102.068571 
L 591.420772 7.2 
L 45.222344 7.2 
z
" style="fill:#ffffff;"/>
   </g>
   <g id="matplotlib.axis_3">
    <g id="xtick_6">
     <g id="line2d_25">
      <path clip-path="url(#p1015a8be14)" d="M 124.068189 102.068571 
L 124.068189 7.2 
" style="fill:none;stroke:#cccccc;stroke-linecap:round;"/>
     </g>
     <g id="line2d_26"/>
    </g>
    <g id="xtick_7">
     <g id="line2d_27">
      <path clip-path="url(#p1015a8be14)" d="M 239.643749 102.068571 
L 239.643749 7.2 
" style="fill:none;stroke:#cccccc;stroke-linecap:round;"/>
     </g>
     <g id="line2d_28"/>
    </g>
    <g id="xtick_8">
     <g id="line2d_29">
      <path clip-path="url(#p1015a8be14)" d="M 355.219309 102.068571 
L 355.219309 7.2 
" style="fill:none;stroke:#cccccc;stroke-linecap:round;"/>
     </g>
     <g id="line2d_30"/>
    </g>
    <g id="xtick_9">
     <g id="line2d_31">
      <path clip-path="url(#p1015a8be14)" d="M 470.794869 102.068571 
L 470.794869 7.2 
" style="fill:none;stroke:#cccccc;stroke-linecap:round;"/>
     </g>
     <g id="line2d_32"/>
    </g>
    <g id="xtick_10">
     <g id="line2d_33">
      <path clip-path="url(#p1015a8be14)" d="M 586.370428 102.068571 
L 586.370428 7.2 
" style="fill:none;stroke:#cccccc;stroke-linecap:round;"/>
     </g>
     <g id="line2d_34"/>
    </g>
   </g>
   <g id="matplotlib.axis_4">
    <g id="ytick_7"/>
    <g id="ytick_8"/>
    <g id="ytick_9"/>
    <g id="ytick_10"/>
   </g>
   <g id="PolyCollection_1">
    <path clip-path="url(#p1015a8be14)" d="M 51.514718 102.068346 
L 51.514718 102.068571 
L 56.904755 102.068571 
L 62.294792 102.068571 
L 67.684829 102.068571 
L 73.074866 102.068571 
L 78.464903 102.068571 
L 83.854941 102.068571 
L 89.244978 102.068571 
L 94.635015 102.068571 
L 100.025052 102.068571 
L 105.415089 102.068571 
L 110.805127 102.068571 
L 116.195164 102.068571 
L 121.585201 102.068571 
L 126.975238 102.068571 
L 132.365275 102.068571 
L 137.755312 102.068571 
L 143.14535 102.068571 
L 148.535387 102.068571 
L 153.925424 102.068571 
L 159.315461 102.068571 
L 164.705498 102.068571 
L 170.095536 102.068571 
L 175.485573 102.068571 
L 180.87561 102.068571 
L 186.265647 102.068571 
L 191.655684 102.068571 
L 197.045721 102.068571 
L 202.435759 102.068571 
L 207.825796 102.068571 
L 213.215833 102.068571 
L 218.60587 102.068571 
L 223.995907 102.068571 
L 229.385945 102.068571 
L 234.775982 102.068571 
L 240.166019 102.068571 
L 245.556056 102.068571 
L 250.946093 102.068571 
L 256.33613 102.068571 
L 261.726168 102.068571 
L 267.116205 102.068571 
L 272.506242 102.068571 
L 277.896279 102.068571 
L 283.286316 102.068571 
L 288.676354 102.068571 
L 294.066391 102.068571 
L 299.456428 102.068571 
L 304.846465 102.068571 
L 310.236502 102.068571 
L 315.626539 102.068571 
L 321.016577 102.068571 
L 326.406614 102.068571 
L 331.796651 102.068571 
L 337.186688 102.068571 
L 342.576725 102.068571 
L 347.966763 102.068571 
L 353.3568 102.068571 
L 358.746837 102.068571 
L 364.136874 102.068571 
L 369.526911 102.068571 
L 374.916948 102.068571 
L 380.306986 102.068571 
L 385.697023 102.068571 
L 391.08706 102.068571 
L 396.477097 102.068571 
L 401.867134 102.068571 
L 407.257172 102.068571 
L 412.647209 102.068571 
L 418.037246 102.068571 
L 423.427283 102.068571 
L 428.81732 102.068571 
L 434.207357 102.068571 
L 439.597395 102.068571 
L 444.987432 102.068571 
L 450.377469 102.068571 
L 455.767506 102.068571 
L 461.157543 102.068571 
L 466.547581 102.068571 
L 471.937618 102.068571 
L 477.327655 102.068571 
L 482.717692 102.068571 
L 488.107729 102.068571 
L 493.497766 102.068571 
L 498.887804 102.068571 
L 504.277841 102.068571 
L 509.667878 102.068571 
L 515.057915 102.068571 
L 520.447952 102.068571 
L 525.83799 102.068571 
L 531.228027 102.068571 
L 536.618064 102.068571 
L 542.008101 102.068571 
L 547.398138 102.068571 
L 552.788175 102.068571 
L 558.178213 102.068571 
L 563.56825 102.068571 
L 568.958287 102.068571 
L 574.348324 102.068571 
L 579.738361 102.068571 
L 585.128398 102.068571 
L 585.128398 102.06843 
L 585.128398 102.06843 
L 579.738361 102.064802 
L 574.348324 102.043614 
L 568.958287 102.011056 
L 563.56825 101.999393 
L 558.178213 102.027439 
L 552.788175 102.047102 
L 547.398138 102.02986 
L 542.008101 101.960394 
L 536.618064 101.942683 
L 531.228027 101.986311 
L 525.83799 101.985576 
L 520.447952 101.968171 
L 515.057915 101.962515 
L 509.667878 101.959893 
L 504.277841 101.941184 
L 498.887804 101.91865 
L 493.497766 101.957739 
L 488.107729 101.978781 
L 482.717692 101.959895 
L 477.327655 101.864921 
L 471.937618 101.647299 
L 466.547581 101.5539 
L 461.157543 101.543889 
L 455.767506 101.411028 
L 450.377469 101.057361 
L 444.987432 101.21447 
L 439.597395 101.544142 
L 434.207357 101.583227 
L 428.81732 101.420874 
L 423.427283 101.003687 
L 418.037246 100.271837 
L 412.647209 100.027381 
L 407.257172 99.848948 
L 401.867134 100.220476 
L 396.477097 100.508604 
L 391.08706 100.302588 
L 385.697023 99.639708 
L 380.306986 98.9599 
L 374.916948 98.766565 
L 369.526911 99.072089 
L 364.136874 99.528829 
L 358.746837 99.338953 
L 353.3568 98.479726 
L 347.966763 98.5336 
L 342.576725 98.808147 
L 337.186688 98.225483 
L 331.796651 96.66886 
L 326.406614 92.973045 
L 321.016577 84.788803 
L 315.626539 69.007647 
L 310.236502 50.17596 
L 304.846465 31.190397 
L 299.456428 11.717551 
L 294.066391 22.582807 
L 288.676354 60.492497 
L 283.286316 80.090589 
L 277.896279 89.47444 
L 272.506242 94.772596 
L 267.116205 95.297172 
L 261.726168 90.139136 
L 256.33613 89.650044 
L 250.946093 95.614266 
L 245.556056 99.089121 
L 240.166019 99.462544 
L 234.775982 97.123097 
L 229.385945 95.895895 
L 223.995907 98.460141 
L 218.60587 99.863716 
L 213.215833 100.295164 
L 207.825796 100.899145 
L 202.435759 101.084008 
L 197.045721 101.12746 
L 191.655684 101.22229 
L 186.265647 101.291099 
L 180.87561 101.195325 
L 175.485573 101.0685 
L 170.095536 101.150788 
L 164.705498 101.349708 
L 159.315461 101.158307 
L 153.925424 100.391723 
L 148.535387 100.510165 
L 143.14535 100.881813 
L 137.755312 99.904406 
L 132.365275 99.323234 
L 126.975238 100.476212 
L 121.585201 101.384469 
L 116.195164 101.757958 
L 110.805127 101.732327 
L 105.415089 101.438878 
L 100.025052 101.305378 
L 94.635015 101.614625 
L 89.244978 101.762881 
L 83.854941 101.794442 
L 78.464903 101.844166 
L 73.074866 101.870705 
L 67.684829 101.914206 
L 62.294792 102.008963 
L 56.904755 102.061266 
L 51.514718 102.068346 
z
" style="fill:#0000ff;fill-opacity:0.25;"/>
   </g>
   <g id="line2d_35">
    <path clip-path="url(#p1015a8be14)" d="M 51.514718 102.068346 
L 56.904755 102.061266 
L 62.294792 102.008963 
L 67.684829 101.914206 
L 73.074866 101.870705 
L 78.464903 101.844166 
L 83.854941 101.794442 
L 89.244978 101.762881 
L 94.635015 101.614625 
L 100.025052 101.305378 
L 105.415089 101.438878 
L 110.805127 101.732327 
L 116.195164 101.757958 
L 121.585201 101.384469 
L 126.975238 100.476212 
L 132.365275 99.323234 
L 137.755312 99.904406 
L 143.14535 100.881813 
L 148.535387 100.510165 
L 153.925424 100.391723 
L 159.315461 101.158307 
L 164.705498 101.349708 
L 170.095536 101.150788 
L 175.485573 101.0685 
L 180.87561 101.195325 
L 186.265647 101.291099 
L 191.655684 101.22229 
L 197.045721 101.12746 
L 202.435759 101.084008 
L 207.825796 100.899145 
L 213.215833 100.295164 
L 218.60587 99.863716 
L 223.995907 98.460141 
L 229.385945 95.895895 
L 234.775982 97.123097 
L 240.166019 99.462544 
L 245.556056 99.089121 
L 250.946093 95.614266 
L 256.33613 89.650044 
L 261.726168 90.139136 
L 267.116205 95.297172 
L 272.506242 94.772596 
L 277.896279 89.47444 
L 283.286316 80.090589 
L 288.676354 60.492497 
L 294.066391 22.582807 
L 299.456428 11.717551 
L 304.846465 31.190397 
L 310.236502 50.17596 
L 315.626539 69.007647 
L 321.016577 84.788803 
L 326.406614 92.973045 
L 331.796651 96.66886 
L 337.186688 98.225483 
L 342.576725 98.808147 
L 347.966763 98.5336 
L 353.3568 98.479726 
L 358.746837 99.338953 
L 364.136874 99.528829 
L 369.526911 99.072089 
L 374.916948 98.766565 
L 380.306986 98.9599 
L 385.697023 99.639708 
L 391.08706 100.302588 
L 396.477097 100.508604 
L 401.867134 100.220476 
L 407.257172 99.848948 
L 412.647209 100.027381 
L 418.037246 100.271837 
L 423.427283 101.003687 
L 428.81732 101.420874 
L 434.207357 101.583227 
L 439.597395 101.544142 
L 444.987432 101.21447 
L 450.377469 101.057361 
L 455.767506 101.411028 
L 461.157543 101.543889 
L 466.547581 101.5539 
L 471.937618 101.647299 
L 477.327655 101.864921 
L 482.717692 101.959895 
L 488.107729 101.978781 
L 493.497766 101.957739 
L 498.887804 101.91865 
L 504.277841 101.941184 
L 509.667878 101.959893 
L 515.057915 101.962515 
L 520.447952 101.968171 
L 525.83799 101.985576 
L 531.228027 101.986311 
L 536.618064 101.942683 
L 542.008101 101.960394 
L 547.398138 102.02986 
L 552.788175 102.047102 
L 558.178213 102.027439 
L 563.56825 101.999393 
L 568.958287 102.011056 
L 574.348324 102.043614 
L 579.738361 102.064802 
L 585.128398 102.06843 
" style="fill:none;stroke:#0000ff;stroke-linecap:round;stroke-width:1.75;"/>
   </g>
   <g id="patch_6">
    <path d="M 45.222344 102.068571 
L 591.420772 102.068571 
" style="fill:none;stroke:#cccccc;stroke-linecap:square;stroke-linejoin:miter;"/>
   </g>
  </g>
  <g id="axes_3">
   <g id="patch_7">
    <path d="M 610.255201 671.28 
L 704.427344 671.28 
L 704.427344 121.042286 
L 610.255201 121.042286 
z
" style="fill:#ffffff;"/>
   </g>
   <g id="matplotlib.axis_5">
    <g id="xtick_11"/>
    <g id="xtick_12"/>
    <g id="xtick_13"/>
   </g>
   <g id="matplotlib.axis_6">
    <g id="ytick_11">
     <g id="line2d_36">
      <path clip-path="url(#p62aa01f559)" d="M 610.255201 644.751019 
L 704.427344 644.751019 
" style="fill:none;stroke:#cccccc;stroke-linecap:round;"/>
     </g>
     <g id="line2d_37"/>
    </g>
    <g id="ytick_12">
     <g id="line2d_38">
      <path clip-path="url(#p62aa01f559)" d="M 610.255201 543.306731 
L 704.427344 543.306731 
" style="fill:none;stroke:#cccccc;stroke-linecap:round;"/>
     </g>
     <g id="line2d_39"/>
    </g>
    <g id="ytick_13">
     <g id="line2d_40">
      <path clip-path="url(#p62aa01f559)" d="M 610.255201 441.862443 
L 704.427344 441.862443 
" style="fill:none;stroke:#cccccc;stroke-linecap:round;"/>
     </g>
     <g id="line2d_41"/>
    </g>
    <g id="ytick_14">
     <g id="line2d_42">
      <path clip-path="url(#p62aa01f559)" d="M 610.255201 340.418155 
L 704.427344 340.418155 
" style="fill:none;stroke:#cccccc;stroke-linecap:round;"/>
     </g>
     <g id="line2d_43"/>
    </g>
    <g id="ytick_15">
     <g id="line2d_44">
      <path clip-path="url(#p62aa01f559)" d="M 610.255201 238.973867 
L 704.427344 238.973867 
" style="fill:none;stroke:#cccccc;stroke-linecap:round;"/>
     </g>
     <g id="line2d_45"/>
    </g>
    <g id="ytick_16">
     <g id="line2d_46">
      <path clip-path="url(#p62aa01f559)" d="M 610.255201 137.529579 
L 704.427344 137.529579 
" style="fill:none;stroke:#cccccc;stroke-linecap:round;"/>
     </g>
     <g id="line2d_47"/>
    </g>
   </g>
   <g id="PolyCollection_2">
    <path clip-path="url(#p62aa01f559)" d="M 610.255443 663.553863 
L 610.255201 663.553863 
L 610.255201 658.15199 
L 610.255201 652.750116 
L 610.255201 647.348243 
L 610.255201 641.94637 
L 610.255201 636.544497 
L 610.255201 631.142624 
L 610.255201 625.740751 
L 610.255201 620.338878 
L 610.255201 614.937005 
L 610.255201 609.535131 
L 610.255201 604.133258 
L 610.255201 598.731385 
L 610.255201 593.329512 
L 610.255201 587.927639 
L 610.255201 582.525766 
L 610.255201 577.123893 
L 610.255201 571.72202 
L 610.255201 566.320146 
L 610.255201 560.918273 
L 610.255201 555.5164 
L 610.255201 550.114527 
L 610.255201 544.712654 
L 610.255201 539.310781 
L 610.255201 533.908908 
L 610.255201 528.507035 
L 610.255201 523.105161 
L 610.255201 517.703288 
L 610.255201 512.301415 
L 610.255201 506.899542 
L 610.255201 501.497669 
L 610.255201 496.095796 
L 610.255201 490.693923 
L 610.255201 485.292049 
L 610.255201 479.890176 
L 610.255201 474.488303 
L 610.255201 469.08643 
L 610.255201 463.684557 
L 610.255201 458.282684 
L 610.255201 452.880811 
L 610.255201 447.478938 
L 610.255201 442.077064 
L 610.255201 436.675191 
L 610.255201 431.273318 
L 610.255201 425.871445 
L 610.255201 420.469572 
L 610.255201 415.067699 
L 610.255201 409.665826 
L 610.255201 404.263953 
L 610.255201 398.862079 
L 610.255201 393.460206 
L 610.255201 388.058333 
L 610.255201 382.65646 
L 610.255201 377.254587 
L 610.255201 371.852714 
L 610.255201 366.450841 
L 610.255201 361.048968 
L 610.255201 355.647094 
L 610.255201 350.245221 
L 610.255201 344.843348 
L 610.255201 339.441475 
L 610.255201 334.039602 
L 610.255201 328.637729 
L 610.255201 323.235856 
L 610.255201 317.833982 
L 610.255201 312.432109 
L 610.255201 307.030236 
L 610.255201 301.628363 
L 610.255201 296.22649 
L 610.255201 290.824617 
L 610.255201 285.422744 
L 610.255201 280.020871 
L 610.255201 274.618997 
L 610.255201 269.217124 
L 610.255201 263.815251 
L 610.255201 258.413378 
L 610.255201 253.011505 
L 610.255201 247.609632 
L 610.255201 242.207759 
L 610.255201 236.805886 
L 610.255201 231.404012 
L 610.255201 226.002139 
L 610.255201 220.600266 
L 610.255201 215.198393 
L 610.255201 209.79652 
L 610.255201 204.394647 
L 610.255201 198.992774 
L 610.255201 193.590901 
L 610.255201 188.189027 
L 610.255201 182.787154 
L 610.255201 177.385281 
L 610.255201 171.983408 
L 610.255201 166.581535 
L 610.255201 161.179662 
L 610.255201 155.777789 
L 610.255201 150.375915 
L 610.255201 144.974042 
L 610.255201 139.572169 
L 610.255201 134.170296 
L 610.255201 128.768423 
L 610.255227 128.768423 
L 610.255227 128.768423 
L 610.25582 134.170296 
L 610.266101 139.572169 
L 610.378622 144.974042 
L 610.915863 150.375915 
L 611.735833 155.777789 
L 611.685406 161.179662 
L 610.985889 166.581535 
L 610.542977 171.983408 
L 610.37689 177.385281 
L 610.340221 182.787154 
L 610.346612 188.189027 
L 610.362317 193.590901 
L 610.371525 198.992774 
L 610.356025 204.394647 
L 610.346968 209.79652 
L 610.336961 215.198393 
L 610.316369 220.600266 
L 610.305592 226.002139 
L 610.30198 231.404012 
L 610.321934 236.805886 
L 610.367331 242.207759 
L 610.389434 247.609632 
L 610.388616 253.011505 
L 610.413125 258.413378 
L 610.492494 263.815251 
L 610.665072 269.217124 
L 610.727997 274.618997 
L 610.556241 280.020871 
L 610.447387 285.422744 
L 610.408157 290.824617 
L 610.386321 296.22649 
L 610.411618 301.628363 
L 610.47356 307.030236 
L 610.543626 312.432109 
L 610.582554 317.833982 
L 610.634257 323.235856 
L 610.794286 328.637729 
L 611.034561 334.039602 
L 611.369321 339.441475 
L 612.039926 344.843348 
L 613.014297 350.245221 
L 613.096472 355.647094 
L 612.248079 361.048968 
L 612.094553 366.450841 
L 613.160311 371.852714 
L 614.539079 377.254587 
L 614.078314 382.65646 
L 612.597711 388.058333 
L 612.067895 393.460206 
L 612.113246 398.862079 
L 612.355795 404.263953 
L 613.749286 409.665826 
L 615.750677 415.067699 
L 615.40543 420.469572 
L 613.366007 425.871445 
L 612.295804 431.273318 
L 612.278752 436.675191 
L 612.725493 442.077064 
L 613.018111 447.478938 
L 612.757711 452.880811 
L 612.566311 458.282684 
L 612.802796 463.684557 
L 613.216328 469.08643 
L 613.5311 474.488303 
L 613.752979 479.890176 
L 614.256653 485.292049 
L 616.138407 490.693923 
L 620.435104 496.095796 
L 626.266021 501.497669 
L 636.485879 506.899542 
L 654.953289 512.301415 
L 680.187557 517.703288 
L 699.942956 523.105161 
L 692.984493 528.507035 
L 668.750455 533.908908 
L 649.892947 539.310781 
L 639.550818 544.712654 
L 634.391759 550.114527 
L 632.738347 555.5164 
L 630.118383 560.918273 
L 624.311045 566.320146 
L 619.758244 571.72202 
L 618.837005 577.123893 
L 617.496936 582.525766 
L 614.716067 587.927639 
L 613.091231 593.329512 
L 612.391066 598.731385 
L 612.013975 604.133258 
L 611.668559 609.535131 
L 611.263928 614.937005 
L 610.863819 620.338878 
L 610.525748 625.740751 
L 610.344654 631.142624 
L 610.280465 636.544497 
L 610.270768 641.94637 
L 610.277719 647.348243 
L 610.269513 652.750116 
L 610.258371 658.15199 
L 610.255443 663.553863 
z
" style="fill:#0000ff;fill-opacity:0.25;"/>
   </g>
   <g id="line2d_48">
    <path clip-path="url(#p62aa01f559)" d="M 610.255443 663.553863 
L 610.258371 658.15199 
L 610.269513 652.750116 
L 610.277719 647.348243 
L 610.270768 641.94637 
L 610.280465 636.544497 
L 610.344654 631.142624 
L 610.525748 625.740751 
L 610.863819 620.338878 
L 611.263928 614.937005 
L 611.668559 609.535131 
L 612.013975 604.133258 
L 612.391066 598.731385 
L 613.091231 593.329512 
L 614.716067 587.927639 
L 617.496936 582.525766 
L 618.837005 577.123893 
L 619.758244 571.72202 
L 624.311045 566.320146 
L 630.118383 560.918273 
L 632.738347 555.5164 
L 634.391759 550.114527 
L 639.550818 544.712654 
L 649.892947 539.310781 
L 668.750455 533.908908 
L 692.984493 528.507035 
L 699.942956 523.105161 
L 680.187557 517.703288 
L 654.953289 512.301415 
L 636.485879 506.899542 
L 626.266021 501.497669 
L 620.435104 496.095796 
L 616.138407 490.693923 
L 614.256653 485.292049 
L 613.752979 479.890176 
L 613.5311 474.488303 
L 613.216328 469.08643 
L 612.802796 463.684557 
L 612.566311 458.282684 
L 612.757711 452.880811 
L 613.018111 447.478938 
L 612.725493 442.077064 
L 612.278752 436.675191 
L 612.295804 431.273318 
L 613.366007 425.871445 
L 615.40543 420.469572 
L 615.750677 415.067699 
L 613.749286 409.665826 
L 612.355795 404.263953 
L 612.113246 398.862079 
L 612.067895 393.460206 
L 612.597711 388.058333 
L 614.078314 382.65646 
L 614.539079 377.254587 
L 613.160311 371.852714 
L 612.094553 366.450841 
L 612.248079 361.048968 
L 613.096472 355.647094 
L 613.014297 350.245221 
L 612.039926 344.843348 
L 611.369321 339.441475 
L 611.034561 334.039602 
L 610.794286 328.637729 
L 610.634257 323.235856 
L 610.582554 317.833982 
L 610.543626 312.432109 
L 610.47356 307.030236 
L 610.411618 301.628363 
L 610.386321 296.22649 
L 610.408157 290.824617 
L 610.447387 285.422744 
L 610.556241 280.020871 
L 610.727997 274.618997 
L 610.665072 269.217124 
L 610.492494 263.815251 
L 610.413125 258.413378 
L 610.388616 253.011505 
L 610.389434 247.609632 
L 610.367331 242.207759 
L 610.321934 236.805886 
L 610.30198 231.404012 
L 610.305592 226.002139 
L 610.316369 220.600266 
L 610.336961 215.198393 
L 610.346968 209.79652 
L 610.356025 204.394647 
L 610.371525 198.992774 
L 610.362317 193.590901 
L 610.346612 188.189027 
L 610.340221 182.787154 
L 610.37689 177.385281 
L 610.542977 171.983408 
L 610.985889 166.581535 
L 611.685406 161.179662 
L 611.735833 155.777789 
L 610.915863 150.375915 
L 610.378622 144.974042 
L 610.266101 139.572169 
L 610.25582 134.170296 
L 610.255227 128.768423 
" style="fill:none;stroke:#0000ff;stroke-linecap:round;stroke-width:1.75;"/>
   </g>
   <g id="patch_8">
    <path d="M 610.255201 671.28 
L 610.255201 121.042286 
" style="fill:none;stroke:#cccccc;stroke-linecap:square;stroke-linejoin:miter;"/>
   </g>
  </g>
 </g>
 <defs>
  <clipPath id="p40198ddfb2">
   <rect height="550.237714" width="546.198429" x="45.222344" y="121.042286"/>
  </clipPath>
  <clipPath id="p1015a8be14">
   <rect height="94.868571" width="546.198429" x="45.222344" y="7.2"/>
  </clipPath>
  <clipPath id="p62aa01f559">
   <rect height="550.237714" width="94.172143" x="610.255201" y="121.042286"/>
  </clipPath>
 </defs>
</svg>
