<?xml version="1.0" encoding="utf-8" standalone="no"?>
<!DOCTYPE svg PUBLIC "-//W3C//DTD SVG 1.1//EN"
  "http://www.w3.org/Graphics/SVG/1.1/DTD/svg11.dtd">
<!-- Created with matplotlib (http://matplotlib.org/) -->
<svg height="708.638281pt" version="1.1" viewBox="0 0 705.786719 708.638281" width="705.786719pt" xmlns="http://www.w3.org/2000/svg" xmlns:xlink="http://www.w3.org/1999/xlink">
 <defs>
  <style type="text/css">
*{stroke-linecap:butt;stroke-linejoin:round;}
  </style>
 </defs>
 <g id="figure_1">
  <g id="patch_1">
   <path d="M 0 708.638281 
L 705.786719 708.638281 
L 705.786719 0 
L 0 0 
z
" style="fill:#ffffff;"/>
  </g>
  <g id="axes_1">
   <g id="patch_2">
    <path d="M 39.381719 671.233125 
L 585.580147 671.233125 
L 585.580147 121.03425 
L 39.381719 121.03425 
z
" style="fill:#ffffff;"/>
   </g>
   <g id="matplotlib.axis_1">
    <g id="xtick_1">
     <g id="line2d_1">
      <path clip-path="url(#p78d745a346)" d="M 119.655059 671.233125 
L 119.655059 121.03425 
" style="fill:none;stroke:#cccccc;stroke-linecap:round;"/>
     </g>
     <g id="line2d_2"/>
     <g id="text_1">
      <!-- 2 -->
      <defs>
       <path d="M 50.34375 8.453125 
L 50.34375 0 
L 3.03125 0 
Q 2.9375 3.171875 4.046875 6.109375 
Q 5.859375 10.9375 9.828125 15.625 
Q 13.8125 20.3125 21.34375 26.46875 
Q 33.015625 36.03125 37.109375 41.625 
Q 41.21875 47.21875 41.21875 52.203125 
Q 41.21875 57.421875 37.46875 61 
Q 33.734375 64.59375 27.734375 64.59375 
Q 21.390625 64.59375 17.578125 60.78125 
Q 13.765625 56.984375 13.71875 50.25 
L 4.6875 51.171875 
Q 5.609375 61.28125 11.65625 66.578125 
Q 17.71875 71.875 27.9375 71.875 
Q 38.234375 71.875 44.234375 66.15625 
Q 50.25 60.453125 50.25 52 
Q 50.25 47.703125 48.484375 43.546875 
Q 46.734375 39.40625 42.65625 34.8125 
Q 38.578125 30.21875 29.109375 22.21875 
Q 21.1875 15.578125 18.9375 13.203125 
Q 16.703125 10.84375 15.234375 8.453125 
z
" id="ArialMT-32"/>
      </defs>
      <g style="fill:#262626;" transform="translate(116.874591 685.390937)scale(0.1 -0.1)">
       <use xlink:href="#ArialMT-32"/>
      </g>
     </g>
    </g>
    <g id="xtick_2">
     <g id="line2d_3">
      <path clip-path="url(#p78d745a346)" d="M 229.841273 671.233125 
L 229.841273 121.03425 
" style="fill:none;stroke:#cccccc;stroke-linecap:round;"/>
     </g>
     <g id="line2d_4"/>
     <g id="text_2">
      <!-- 4 -->
      <defs>
       <path d="M 32.328125 0 
L 32.328125 17.140625 
L 1.265625 17.140625 
L 1.265625 25.203125 
L 33.9375 71.578125 
L 41.109375 71.578125 
L 41.109375 25.203125 
L 50.78125 25.203125 
L 50.78125 17.140625 
L 41.109375 17.140625 
L 41.109375 0 
z
M 32.328125 25.203125 
L 32.328125 57.46875 
L 9.90625 25.203125 
z
" id="ArialMT-34"/>
      </defs>
      <g style="fill:#262626;" transform="translate(227.060804 685.390937)scale(0.1 -0.1)">
       <use xlink:href="#ArialMT-34"/>
      </g>
     </g>
    </g>
    <g id="xtick_3">
     <g id="line2d_5">
      <path clip-path="url(#p78d745a346)" d="M 340.027486 671.233125 
L 340.027486 121.03425 
" style="fill:none;stroke:#cccccc;stroke-linecap:round;"/>
     </g>
     <g id="line2d_6"/>
     <g id="text_3">
      <!-- 6 -->
      <defs>
       <path d="M 49.75 54.046875 
L 41.015625 53.375 
Q 39.84375 58.546875 37.703125 60.890625 
Q 34.125 64.65625 28.90625 64.65625 
Q 24.703125 64.65625 21.53125 62.3125 
Q 17.390625 59.28125 14.984375 53.46875 
Q 12.59375 47.65625 12.5 36.921875 
Q 15.671875 41.75 20.265625 44.09375 
Q 24.859375 46.4375 29.890625 46.4375 
Q 38.671875 46.4375 44.84375 39.96875 
Q 51.03125 33.5 51.03125 23.25 
Q 51.03125 16.5 48.125 10.71875 
Q 45.21875 4.9375 40.140625 1.859375 
Q 35.0625 -1.21875 28.609375 -1.21875 
Q 17.625 -1.21875 10.6875 6.859375 
Q 3.765625 14.9375 3.765625 33.5 
Q 3.765625 54.25 11.421875 63.671875 
Q 18.109375 71.875 29.4375 71.875 
Q 37.890625 71.875 43.28125 67.140625 
Q 48.6875 62.40625 49.75 54.046875 
z
M 13.875 23.1875 
Q 13.875 18.65625 15.796875 14.5 
Q 17.71875 10.359375 21.1875 8.171875 
Q 24.65625 6 28.46875 6 
Q 34.03125 6 38.03125 10.484375 
Q 42.046875 14.984375 42.046875 22.703125 
Q 42.046875 30.125 38.078125 34.390625 
Q 34.125 38.671875 28.125 38.671875 
Q 22.171875 38.671875 18.015625 34.390625 
Q 13.875 30.125 13.875 23.1875 
z
" id="ArialMT-36"/>
      </defs>
      <g style="fill:#262626;" transform="translate(337.247018 685.390937)scale(0.1 -0.1)">
       <use xlink:href="#ArialMT-36"/>
      </g>
     </g>
    </g>
    <g id="xtick_4">
     <g id="line2d_7">
      <path clip-path="url(#p78d745a346)" d="M 450.2137 671.233125 
L 450.2137 121.03425 
" style="fill:none;stroke:#cccccc;stroke-linecap:round;"/>
     </g>
     <g id="line2d_8"/>
     <g id="text_4">
      <!-- 8 -->
      <defs>
       <path d="M 17.671875 38.8125 
Q 12.203125 40.828125 9.5625 44.53125 
Q 6.9375 48.25 6.9375 53.421875 
Q 6.9375 61.234375 12.546875 66.546875 
Q 18.171875 71.875 27.484375 71.875 
Q 36.859375 71.875 42.578125 66.421875 
Q 48.296875 60.984375 48.296875 53.171875 
Q 48.296875 48.1875 45.671875 44.5 
Q 43.0625 40.828125 37.75 38.8125 
Q 44.34375 36.671875 47.78125 31.875 
Q 51.21875 27.09375 51.21875 20.453125 
Q 51.21875 11.28125 44.71875 5.03125 
Q 38.234375 -1.21875 27.640625 -1.21875 
Q 17.046875 -1.21875 10.546875 5.046875 
Q 4.046875 11.328125 4.046875 20.703125 
Q 4.046875 27.6875 7.59375 32.390625 
Q 11.140625 37.109375 17.671875 38.8125 
z
M 15.921875 53.71875 
Q 15.921875 48.640625 19.1875 45.40625 
Q 22.46875 42.1875 27.6875 42.1875 
Q 32.765625 42.1875 36.015625 45.375 
Q 39.265625 48.578125 39.265625 53.21875 
Q 39.265625 58.0625 35.90625 61.359375 
Q 32.5625 64.65625 27.59375 64.65625 
Q 22.5625 64.65625 19.234375 61.421875 
Q 15.921875 58.203125 15.921875 53.71875 
z
M 13.09375 20.65625 
Q 13.09375 16.890625 14.875 13.375 
Q 16.65625 9.859375 20.171875 7.921875 
Q 23.6875 6 27.734375 6 
Q 34.03125 6 38.125 10.046875 
Q 42.234375 14.109375 42.234375 20.359375 
Q 42.234375 26.703125 38.015625 30.859375 
Q 33.796875 35.015625 27.4375 35.015625 
Q 21.234375 35.015625 17.15625 30.90625 
Q 13.09375 26.8125 13.09375 20.65625 
z
" id="ArialMT-38"/>
      </defs>
      <g style="fill:#262626;" transform="translate(447.433231 685.390937)scale(0.1 -0.1)">
       <use xlink:href="#ArialMT-38"/>
      </g>
     </g>
    </g>
    <g id="xtick_5">
     <g id="line2d_9">
      <path clip-path="url(#p78d745a346)" d="M 560.399913 671.233125 
L 560.399913 121.03425 
" style="fill:none;stroke:#cccccc;stroke-linecap:round;"/>
     </g>
     <g id="line2d_10"/>
     <g id="text_5">
      <!-- 10 -->
      <defs>
       <path d="M 37.25 0 
L 28.46875 0 
L 28.46875 56 
Q 25.296875 52.984375 20.140625 49.953125 
Q 14.984375 46.921875 10.890625 45.40625 
L 10.890625 53.90625 
Q 18.265625 57.375 23.78125 62.296875 
Q 29.296875 67.234375 31.59375 71.875 
L 37.25 71.875 
z
" id="ArialMT-31"/>
       <path d="M 4.15625 35.296875 
Q 4.15625 48 6.765625 55.734375 
Q 9.375 63.484375 14.515625 67.671875 
Q 19.671875 71.875 27.484375 71.875 
Q 33.25 71.875 37.59375 69.546875 
Q 41.9375 67.234375 44.765625 62.859375 
Q 47.609375 58.5 49.21875 52.21875 
Q 50.828125 45.953125 50.828125 35.296875 
Q 50.828125 22.703125 48.234375 14.96875 
Q 45.65625 7.234375 40.5 3 
Q 35.359375 -1.21875 27.484375 -1.21875 
Q 17.140625 -1.21875 11.234375 6.203125 
Q 4.15625 15.140625 4.15625 35.296875 
z
M 13.1875 35.296875 
Q 13.1875 17.671875 17.3125 11.828125 
Q 21.4375 6 27.484375 6 
Q 33.546875 6 37.671875 11.859375 
Q 41.796875 17.71875 41.796875 35.296875 
Q 41.796875 52.984375 37.671875 58.78125 
Q 33.546875 64.59375 27.390625 64.59375 
Q 21.34375 64.59375 17.71875 59.46875 
Q 13.1875 52.9375 13.1875 35.296875 
z
" id="ArialMT-30"/>
      </defs>
      <g style="fill:#262626;" transform="translate(554.838976 685.390937)scale(0.1 -0.1)">
       <use xlink:href="#ArialMT-31"/>
       <use x="55.615234" xlink:href="#ArialMT-30"/>
      </g>
     </g>
    </g>
    <g id="text_6">
     <!-- tip -->
     <defs>
      <path d="M 25.78125 7.859375 
L 27.046875 0.09375 
Q 23.34375 -0.6875 20.40625 -0.6875 
Q 15.625 -0.6875 12.984375 0.828125 
Q 10.359375 2.34375 9.28125 4.8125 
Q 8.203125 7.28125 8.203125 15.1875 
L 8.203125 45.015625 
L 1.765625 45.015625 
L 1.765625 51.859375 
L 8.203125 51.859375 
L 8.203125 64.703125 
L 16.9375 69.96875 
L 16.9375 51.859375 
L 25.78125 51.859375 
L 25.78125 45.015625 
L 16.9375 45.015625 
L 16.9375 14.703125 
Q 16.9375 10.9375 17.40625 9.859375 
Q 17.875 8.796875 18.921875 8.15625 
Q 19.96875 7.515625 21.921875 7.515625 
Q 23.390625 7.515625 25.78125 7.859375 
z
" id="ArialMT-74"/>
      <path d="M 6.640625 61.46875 
L 6.640625 71.578125 
L 15.4375 71.578125 
L 15.4375 61.46875 
z
M 6.640625 0 
L 6.640625 51.859375 
L 15.4375 51.859375 
L 15.4375 0 
z
" id="ArialMT-69"/>
      <path d="M 6.59375 -19.875 
L 6.59375 51.859375 
L 14.59375 51.859375 
L 14.59375 45.125 
Q 17.4375 49.078125 21 51.046875 
Q 24.5625 53.03125 29.640625 53.03125 
Q 36.28125 53.03125 41.359375 49.609375 
Q 46.4375 46.1875 49.015625 39.953125 
Q 51.609375 33.734375 51.609375 26.3125 
Q 51.609375 18.359375 48.75 11.984375 
Q 45.90625 5.609375 40.453125 2.21875 
Q 35.015625 -1.171875 29 -1.171875 
Q 24.609375 -1.171875 21.109375 0.6875 
Q 17.625 2.546875 15.375 5.375 
L 15.375 -19.875 
z
M 14.546875 25.640625 
Q 14.546875 15.625 18.59375 10.84375 
Q 22.65625 6.0625 28.421875 6.0625 
Q 34.28125 6.0625 38.453125 11.015625 
Q 42.625 15.96875 42.625 26.375 
Q 42.625 36.28125 38.546875 41.203125 
Q 34.46875 46.140625 28.8125 46.140625 
Q 23.1875 46.140625 18.859375 40.890625 
Q 14.546875 35.640625 14.546875 25.640625 
z
" id="ArialMT-70"/>
     </defs>
     <g style="fill:#262626;" transform="translate(306.672417 699.252031)scale(0.11 -0.11)">
      <use xlink:href="#ArialMT-74"/>
      <use x="27.783203" xlink:href="#ArialMT-69"/>
      <use x="50" xlink:href="#ArialMT-70"/>
     </g>
    </g>
   </g>
   <g id="matplotlib.axis_2">
    <g id="ytick_1">
     <g id="line2d_11">
      <path clip-path="url(#p78d745a346)" d="M 39.381719 573.569909 
L 585.580147 573.569909 
" style="fill:none;stroke:#cccccc;stroke-linecap:round;"/>
     </g>
     <g id="line2d_12"/>
     <g id="text_7">
      <!-- 10 -->
      <g style="fill:#262626;" transform="translate(21.259844 577.148815)scale(0.1 -0.1)">
       <use xlink:href="#ArialMT-31"/>
       <use x="55.615234" xlink:href="#ArialMT-30"/>
      </g>
     </g>
    </g>
    <g id="ytick_2">
     <g id="line2d_13">
      <path clip-path="url(#p78d745a346)" d="M 39.381719 468.825977 
L 585.580147 468.825977 
" style="fill:none;stroke:#cccccc;stroke-linecap:round;"/>
     </g>
     <g id="line2d_14"/>
     <g id="text_8">
      <!-- 20 -->
      <g style="fill:#262626;" transform="translate(21.259844 472.404883)scale(0.1 -0.1)">
       <use xlink:href="#ArialMT-32"/>
       <use x="55.615234" xlink:href="#ArialMT-30"/>
      </g>
     </g>
    </g>
    <g id="ytick_3">
     <g id="line2d_15">
      <path clip-path="url(#p78d745a346)" d="M 39.381719 364.082044 
L 585.580147 364.082044 
" style="fill:none;stroke:#cccccc;stroke-linecap:round;"/>
     </g>
     <g id="line2d_16"/>
     <g id="text_9">
      <!-- 30 -->
      <defs>
       <path d="M 4.203125 18.890625 
L 12.984375 20.0625 
Q 14.5 12.59375 18.140625 9.296875 
Q 21.78125 6 27 6 
Q 33.203125 6 37.46875 10.296875 
Q 41.75 14.59375 41.75 20.953125 
Q 41.75 27 37.796875 30.921875 
Q 33.84375 34.859375 27.734375 34.859375 
Q 25.25 34.859375 21.53125 33.890625 
L 22.515625 41.609375 
Q 23.390625 41.5 23.921875 41.5 
Q 29.546875 41.5 34.03125 44.421875 
Q 38.53125 47.359375 38.53125 53.46875 
Q 38.53125 58.296875 35.25 61.46875 
Q 31.984375 64.65625 26.8125 64.65625 
Q 21.6875 64.65625 18.265625 61.421875 
Q 14.84375 58.203125 13.875 51.765625 
L 5.078125 53.328125 
Q 6.6875 62.15625 12.390625 67.015625 
Q 18.109375 71.875 26.609375 71.875 
Q 32.46875 71.875 37.390625 69.359375 
Q 42.328125 66.84375 44.9375 62.5 
Q 47.5625 58.15625 47.5625 53.265625 
Q 47.5625 48.640625 45.0625 44.828125 
Q 42.578125 41.015625 37.703125 38.765625 
Q 44.046875 37.3125 47.5625 32.6875 
Q 51.078125 28.078125 51.078125 21.140625 
Q 51.078125 11.765625 44.234375 5.25 
Q 37.40625 -1.265625 26.953125 -1.265625 
Q 17.53125 -1.265625 11.296875 4.34375 
Q 5.078125 9.96875 4.203125 18.890625 
z
" id="ArialMT-33"/>
      </defs>
      <g style="fill:#262626;" transform="translate(21.259844 367.66095)scale(0.1 -0.1)">
       <use xlink:href="#ArialMT-33"/>
       <use x="55.615234" xlink:href="#ArialMT-30"/>
      </g>
     </g>
    </g>
    <g id="ytick_4">
     <g id="line2d_17">
      <path clip-path="url(#p78d745a346)" d="M 39.381719 259.338112 
L 585.580147 259.338112 
" style="fill:none;stroke:#cccccc;stroke-linecap:round;"/>
     </g>
     <g id="line2d_18"/>
     <g id="text_10">
      <!-- 40 -->
      <g style="fill:#262626;" transform="translate(21.259844 262.917018)scale(0.1 -0.1)">
       <use xlink:href="#ArialMT-34"/>
       <use x="55.615234" xlink:href="#ArialMT-30"/>
      </g>
     </g>
    </g>
    <g id="ytick_5">
     <g id="line2d_19">
      <path clip-path="url(#p78d745a346)" d="M 39.381719 154.594179 
L 585.580147 154.594179 
" style="fill:none;stroke:#cccccc;stroke-linecap:round;"/>
     </g>
     <g id="line2d_20"/>
     <g id="text_11">
      <!-- 50 -->
      <defs>
       <path d="M 4.15625 18.75 
L 13.375 19.53125 
Q 14.40625 12.796875 18.140625 9.390625 
Q 21.875 6 27.15625 6 
Q 33.5 6 37.890625 10.78125 
Q 42.28125 15.578125 42.28125 23.484375 
Q 42.28125 31 38.0625 35.34375 
Q 33.84375 39.703125 27 39.703125 
Q 22.75 39.703125 19.328125 37.765625 
Q 15.921875 35.84375 13.96875 32.765625 
L 5.71875 33.84375 
L 12.640625 70.609375 
L 48.25 70.609375 
L 48.25 62.203125 
L 19.671875 62.203125 
L 15.828125 42.96875 
Q 22.265625 47.46875 29.34375 47.46875 
Q 38.71875 47.46875 45.15625 40.96875 
Q 51.609375 34.46875 51.609375 24.265625 
Q 51.609375 14.546875 45.953125 7.46875 
Q 39.0625 -1.21875 27.15625 -1.21875 
Q 17.390625 -1.21875 11.203125 4.25 
Q 5.03125 9.71875 4.15625 18.75 
z
" id="ArialMT-35"/>
      </defs>
      <g style="fill:#262626;" transform="translate(21.259844 158.173086)scale(0.1 -0.1)">
       <use xlink:href="#ArialMT-35"/>
       <use x="55.615234" xlink:href="#ArialMT-30"/>
      </g>
     </g>
    </g>
    <g id="text_12">
     <!-- total_bill -->
     <defs>
      <path d="M 3.328125 25.921875 
Q 3.328125 40.328125 11.328125 47.265625 
Q 18.015625 53.03125 27.640625 53.03125 
Q 38.328125 53.03125 45.109375 46.015625 
Q 51.90625 39.015625 51.90625 26.65625 
Q 51.90625 16.65625 48.90625 10.90625 
Q 45.90625 5.171875 40.15625 2 
Q 34.421875 -1.171875 27.640625 -1.171875 
Q 16.75 -1.171875 10.03125 5.8125 
Q 3.328125 12.796875 3.328125 25.921875 
z
M 12.359375 25.921875 
Q 12.359375 15.96875 16.703125 11.015625 
Q 21.046875 6.0625 27.640625 6.0625 
Q 34.1875 6.0625 38.53125 11.03125 
Q 42.875 16.015625 42.875 26.21875 
Q 42.875 35.84375 38.5 40.796875 
Q 34.125 45.75 27.640625 45.75 
Q 21.046875 45.75 16.703125 40.8125 
Q 12.359375 35.890625 12.359375 25.921875 
z
" id="ArialMT-6f"/>
      <path d="M 40.4375 6.390625 
Q 35.546875 2.25 31.03125 0.53125 
Q 26.515625 -1.171875 21.34375 -1.171875 
Q 12.796875 -1.171875 8.203125 3 
Q 3.609375 7.171875 3.609375 13.671875 
Q 3.609375 17.484375 5.34375 20.625 
Q 7.078125 23.78125 9.890625 25.6875 
Q 12.703125 27.59375 16.21875 28.5625 
Q 18.796875 29.25 24.03125 29.890625 
Q 34.671875 31.15625 39.703125 32.90625 
Q 39.75 34.71875 39.75 35.203125 
Q 39.75 40.578125 37.25 42.78125 
Q 33.890625 45.75 27.25 45.75 
Q 21.046875 45.75 18.09375 43.578125 
Q 15.140625 41.40625 13.71875 35.890625 
L 5.125 37.0625 
Q 6.296875 42.578125 8.984375 45.96875 
Q 11.671875 49.359375 16.75 51.1875 
Q 21.828125 53.03125 28.515625 53.03125 
Q 35.15625 53.03125 39.296875 51.46875 
Q 43.453125 49.90625 45.40625 47.53125 
Q 47.359375 45.171875 48.140625 41.546875 
Q 48.578125 39.3125 48.578125 33.453125 
L 48.578125 21.734375 
Q 48.578125 9.46875 49.140625 6.21875 
Q 49.703125 2.984375 51.375 0 
L 42.1875 0 
Q 40.828125 2.734375 40.4375 6.390625 
z
M 39.703125 26.03125 
Q 34.90625 24.078125 25.34375 22.703125 
Q 19.921875 21.921875 17.671875 20.9375 
Q 15.4375 19.96875 14.203125 18.09375 
Q 12.984375 16.21875 12.984375 13.921875 
Q 12.984375 10.40625 15.640625 8.0625 
Q 18.3125 5.71875 23.4375 5.71875 
Q 28.515625 5.71875 32.46875 7.9375 
Q 36.421875 10.15625 38.28125 14.015625 
Q 39.703125 17 39.703125 22.796875 
z
" id="ArialMT-61"/>
      <path d="M 6.390625 0 
L 6.390625 71.578125 
L 15.1875 71.578125 
L 15.1875 0 
z
" id="ArialMT-6c"/>
      <path d="M -1.515625 -19.875 
L -1.515625 -13.53125 
L 56.734375 -13.53125 
L 56.734375 -19.875 
z
" id="ArialMT-5f"/>
      <path d="M 14.703125 0 
L 6.546875 0 
L 6.546875 71.578125 
L 15.328125 71.578125 
L 15.328125 46.046875 
Q 20.90625 53.03125 29.546875 53.03125 
Q 34.328125 53.03125 38.59375 51.09375 
Q 42.875 49.171875 45.625 45.671875 
Q 48.390625 42.1875 49.953125 37.25 
Q 51.515625 32.328125 51.515625 26.703125 
Q 51.515625 13.375 44.921875 6.09375 
Q 38.328125 -1.171875 29.109375 -1.171875 
Q 19.921875 -1.171875 14.703125 6.5 
z
M 14.59375 26.3125 
Q 14.59375 17 17.140625 12.84375 
Q 21.296875 6.0625 28.375 6.0625 
Q 34.125 6.0625 38.328125 11.0625 
Q 42.53125 16.0625 42.53125 25.984375 
Q 42.53125 36.140625 38.5 40.96875 
Q 34.46875 45.796875 28.765625 45.796875 
Q 23 45.796875 18.796875 40.796875 
Q 14.59375 35.796875 14.59375 26.3125 
z
" id="ArialMT-62"/>
     </defs>
     <g style="fill:#262626;" transform="translate(15.073594 416.311813)rotate(-90)scale(0.11 -0.11)">
      <use xlink:href="#ArialMT-74"/>
      <use x="27.783203" xlink:href="#ArialMT-6f"/>
      <use x="83.398438" xlink:href="#ArialMT-74"/>
      <use x="111.181641" xlink:href="#ArialMT-61"/>
      <use x="166.796875" xlink:href="#ArialMT-6c"/>
      <use x="189.013672" xlink:href="#ArialMT-5f"/>
      <use x="244.628906" xlink:href="#ArialMT-62"/>
      <use x="300.244141" xlink:href="#ArialMT-69"/>
      <use x="322.460938" xlink:href="#ArialMT-6c"/>
      <use x="344.677734" xlink:href="#ArialMT-6c"/>
     </g>
    </g>
   </g>
   <g id="PathCollection_1">
    <defs>
     <path d="M 0 3.5 
C 0.928211 3.5 1.81853 3.131218 2.474874 2.474874 
C 3.131218 1.81853 3.5 0.928211 3.5 0 
C 3.5 -0.928211 3.131218 -1.81853 2.474874 -2.474874 
C 1.81853 -3.131218 0.928211 -3.5 0 -3.5 
C -0.928211 -3.5 -1.81853 -3.131218 -2.474874 -2.474874 
C -3.131218 -1.81853 -3.5 -0.928211 -3.5 0 
C -3.5 0.928211 -3.131218 1.81853 -2.474874 2.474874 
C -1.81853 3.131218 -0.928211 3.5 0 3.5 
z
" id="m106a974573" style="stroke:#808080;stroke-width:0.3;"/>
    </defs>
    <g clip-path="url(#p78d745a346)">
     <use style="fill:#808080;stroke:#808080;stroke-width:0.3;" x="65.112884" xlink:href="#m106a974573" y="500.3539"/>
     <use style="fill:#808080;stroke:#808080;stroke-width:0.3;" x="100.923403" xlink:href="#m106a974573" y="570.008615"/>
     <use style="fill:#808080;stroke:#808080;stroke-width:0.3;" x="202.29472" xlink:href="#m106a974573" y="458.246839"/>
     <use style="fill:#808080;stroke:#808080;stroke-width:0.3;" x="191.827029" xlink:href="#m106a974573" y="430.280209"/>
     <use style="fill:#808080;stroke:#808080;stroke-width:0.3;" x="208.354961" xlink:href="#m106a974573" y="420.748512"/>
     <use style="fill:#808080;stroke:#808080;stroke-width:0.3;" x="268.957379" xlink:href="#m106a974573" y="413.416436"/>
     <use style="fill:#808080;stroke:#808080;stroke-width:0.3;" x="119.655059" xlink:href="#m106a974573" y="586.453413"/>
     <use style="fill:#808080;stroke:#808080;stroke-width:0.3;" x="181.359339" xlink:href="#m106a974573" y="396.762151"/>
     <use style="fill:#808080;stroke:#808080;stroke-width:0.3;" x="117.451335" xlink:href="#m106a974573" y="520.778967"/>
     <use style="fill:#808080;stroke:#808080;stroke-width:0.3;" x="187.419581" xlink:href="#m106a974573" y="523.502309"/>
     <use style="fill:#808080;stroke:#808080;stroke-width:0.3;" x="103.678058" xlink:href="#m106a974573" y="570.741823"/>
     <use style="fill:#808080;stroke:#808080;stroke-width:0.3;" x="284.93438" xlink:href="#m106a974573" y="308.986736"/>
     <use style="fill:#808080;stroke:#808080;stroke-width:0.3;" x="95.965024" xlink:href="#m106a974573" y="516.798698"/>
     <use style="fill:#808080;stroke:#808080;stroke-width:0.3;" x="174.748166" xlink:href="#m106a974573" y="485.270774"/>
     <use style="fill:#808080;stroke:#808080;stroke-width:0.3;" x="175.850028" xlink:href="#m106a974573" y="522.97859"/>
     <use style="fill:#808080;stroke:#808080;stroke-width:0.3;" x="225.433824" xlink:href="#m106a974573" y="452.276435"/>
     <use style="fill:#808080;stroke:#808080;stroke-width:0.3;" x="101.474334" xlink:href="#m106a974573" y="570.113359"/>
     <use style="fill:#808080;stroke:#808080;stroke-width:0.3;" x="213.864272" xlink:href="#m106a974573" y="507.685975"/>
     <use style="fill:#808080;stroke:#808080;stroke-width:0.3;" x="202.29472" xlink:href="#m106a974573" y="500.563388"/>
     <use style="fill:#808080;stroke:#808080;stroke-width:0.3;" x="194.030754" xlink:href="#m106a974573" y="462.017621"/>
     <use style="fill:#808080;stroke:#808080;stroke-width:0.3;" x="234.248721" xlink:href="#m106a974573" y="490.612715"/>
     <use style="fill:#808080;stroke:#808080;stroke-width:0.3;" x="160.974889" xlink:href="#m106a974573" y="465.788403"/>
     <use style="fill:#808080;stroke:#808080;stroke-width:0.3;" x="132.326474" xlink:href="#m106a974573" y="513.13266"/>
     <use style="fill:#808080;stroke:#808080;stroke-width:0.3;" x="427.074595" xlink:href="#m106a974573" y="265.41326"/>
     <use style="fill:#808080;stroke:#808080;stroke-width:0.3;" x="184.664925" xlink:href="#m106a974573" y="470.711367"/>
     <use style="fill:#808080;stroke:#808080;stroke-width:0.3;" x="138.386716" xlink:href="#m106a974573" y="491.764898"/>
     <use style="fill:#808080;stroke:#808080;stroke-width:0.3;" x="119.655059" xlink:href="#m106a974573" y="538.271204"/>
     <use style="fill:#808080;stroke:#808080;stroke-width:0.3;" x="119.655059" xlink:href="#m106a974573" y="545.393791"/>
     <use style="fill:#808080;stroke:#808080;stroke-width:0.3;" x="246.369205" xlink:href="#m106a974573" y="451.019508"/>
     <use style="fill:#808080;stroke:#808080;stroke-width:0.3;" x="174.748166" xlink:href="#m106a974573" y="472.492014"/>
     <use style="fill:#808080;stroke:#808080;stroke-width:0.3;" x="89.353851" xlink:href="#m106a974573" y="578.283386"/>
     <use style="fill:#808080;stroke:#808080;stroke-width:0.3;" x="147.201613" xlink:href="#m106a974573" y="486.108725"/>
     <use style="fill:#808080;stroke:#808080;stroke-width:0.3;" x="174.748166" xlink:href="#m106a974573" y="520.569479"/>
     <use style="fill:#808080;stroke:#808080;stroke-width:0.3;" x="144.446957" xlink:href="#m106a974573" y="461.598645"/>
     <use style="fill:#808080;stroke:#808080;stroke-width:0.3;" x="189.623305" xlink:href="#m106a974573" y="492.07913"/>
     <use style="fill:#808080;stroke:#808080;stroke-width:0.3;" x="207.80403" xlink:href="#m106a974573" y="426.29994"/>
     <use style="fill:#808080;stroke:#808080;stroke-width:0.3;" x="119.655059" xlink:href="#m106a974573" y="507.476488"/>
     <use style="fill:#808080;stroke:#808080;stroke-width:0.3;" x="178.604684" xlink:href="#m106a974573" y="500.982364"/>
     <use style="fill:#808080;stroke:#808080;stroke-width:0.3;" x="136.733923" xlink:href="#m106a974573" y="482.547432"/>
     <use style="fill:#808080;stroke:#808080;stroke-width:0.3;" x="284.93438" xlink:href="#m106a974573" y="350.779565"/>
     <use style="fill:#808080;stroke:#808080;stroke-width:0.3;" x="132.877405" xlink:href="#m106a974573" y="510.304574"/>
     <use style="fill:#808080;stroke:#808080;stroke-width:0.3;" x="149.405337" xlink:href="#m106a974573" y="495.430935"/>
     <use style="fill:#808080;stroke:#808080;stroke-width:0.3;" x="178.053753" xlink:href="#m106a974573" y="532.3008"/>
     <use style="fill:#808080;stroke:#808080;stroke-width:0.3;" x="82.191747" xlink:href="#m106a974573" y="576.921715"/>
     <use style="fill:#808080;stroke:#808080;stroke-width:0.3;" x="317.990244" xlink:href="#m106a974573" y="359.892287"/>
     <use style="fill:#808080;stroke:#808080;stroke-width:0.3;" x="174.748166" xlink:href="#m106a974573" y="486.737189"/>
     <use style="fill:#808080;stroke:#808080;stroke-width:0.3;" x="284.93438" xlink:href="#m106a974573" y="445.46808"/>
     <use style="fill:#808080;stroke:#808080;stroke-width:0.3;" x="340.027486" xlink:href="#m106a974573" y="338.9435"/>
     <use style="fill:#808080;stroke:#808080;stroke-width:0.3;" x="122.409715" xlink:href="#m106a974573" y="379.269914"/>
     <use style="fill:#808080;stroke:#808080;stroke-width:0.3;" x="174.748166" xlink:href="#m106a974573" y="489.355787"/>
     <use style="fill:#808080;stroke:#808080;stroke-width:0.3;" x="147.201613" xlink:href="#m106a974573" y="546.96495"/>
     <use style="fill:#808080;stroke:#808080;stroke-width:0.3;" x="152.710923" xlink:href="#m106a974573" y="570.532335"/>
     <use style="fill:#808080;stroke:#808080;stroke-width:0.3;" x="295.953001" xlink:href="#m106a974573" y="313.700213"/>
     <use style="fill:#808080;stroke:#808080;stroke-width:0.3;" x="95.414092" xlink:href="#m106a974573" y="574.198373"/>
     <use style="fill:#808080;stroke:#808080;stroke-width:0.3;" x="248.572929" xlink:href="#m106a974573" y="410.58835"/>
     <use style="fill:#808080;stroke:#808080;stroke-width:0.3;" x="202.845651" xlink:href="#m106a974573" y="474.167917"/>
     <use style="fill:#808080;stroke:#808080;stroke-width:0.3;" x="174.748166" xlink:href="#m106a974573" y="280.182154"/>
     <use style="fill:#808080;stroke:#808080;stroke-width:0.3;" x="92.108506" xlink:href="#m106a974573" y="401.685116"/>
     <use style="fill:#808080;stroke:#808080;stroke-width:0.3;" x="106.432714" xlink:href="#m106a974573" y="560.581661"/>
     <use style="fill:#808080;stroke:#808080;stroke-width:0.3;" x="380.245454" xlink:href="#m106a974573" y="172.71488"/>
     <use style="fill:#808080;stroke:#808080;stroke-width:0.3;" x="186.317719" xlink:href="#m106a974573" y="465.788403"/>
     <use style="fill:#808080;stroke:#808080;stroke-width:0.3;" x="119.655059" xlink:href="#m106a974573" y="533.662471"/>
     <use style="fill:#808080;stroke:#808080;stroke-width:0.3;" x="118.553197" xlink:href="#m106a974573" y="562.886028"/>
     <use style="fill:#808080;stroke:#808080;stroke-width:0.3;" x="216.618927" xlink:href="#m106a974573" y="486.737189"/>
     <use style="fill:#808080;stroke:#808080;stroke-width:0.3;" x="154.914648" xlink:href="#m106a974573" y="494.069264"/>
     <use style="fill:#808080;stroke:#808080;stroke-width:0.3;" x="183.012132" xlink:href="#m106a974573" y="467.988025"/>
     <use style="fill:#808080;stroke:#808080;stroke-width:0.3;" x="145.54882" xlink:href="#m106a974573" y="506.010073"/>
     <use style="fill:#808080;stroke:#808080;stroke-width:0.3;" x="64.561953" xlink:href="#m106a974573" y="646.157454"/>
     <use style="fill:#808080;stroke:#808080;stroke-width:0.3;" x="120.205991" xlink:href="#m106a974573" y="466.416866"/>
     <use style="fill:#808080;stroke:#808080;stroke-width:0.3;" x="124.613439" xlink:href="#m106a974573" y="521.093199"/>
     <use style="fill:#808080;stroke:#808080;stroke-width:0.3;" x="118.002266" xlink:href="#m106a974573" y="552.411635"/>
     <use style="fill:#808080;stroke:#808080;stroke-width:0.3;" x="174.748166" xlink:href="#m106a974573" y="499.515949"/>
     <use style="fill:#808080;stroke:#808080;stroke-width:0.3;" x="182.461201" xlink:href="#m106a974573" y="396.971639"/>
     <use style="fill:#808080;stroke:#808080;stroke-width:0.3;" x="284.93438" xlink:href="#m106a974573" y="413.52118"/>
     <use style="fill:#808080;stroke:#808080;stroke-width:0.3;" x="130.673681" xlink:href="#m106a974573" y="524.026029"/>
     <use style="fill:#808080;stroke:#808080;stroke-width:0.3;" x="78.335229" xlink:href="#m106a974573" y="568.227968"/>
     <use style="fill:#808080;stroke:#808080;stroke-width:0.3;" x="179.155615" xlink:href="#m106a974573" y="490.612715"/>
     <use style="fill:#808080;stroke:#808080;stroke-width:0.3;" x="229.841273" xlink:href="#m106a974573" y="393.410345"/>
     <use style="fill:#808080;stroke:#808080;stroke-width:0.3;" x="174.748166" xlink:href="#m106a974573" y="439.916651"/>
     <use style="fill:#808080;stroke:#808080;stroke-width:0.3;" x="158.771165" xlink:href="#m106a974573" y="497.211582"/>
     <use style="fill:#808080;stroke:#808080;stroke-width:0.3;" x="174.748166" xlink:href="#m106a974573" y="474.691637"/>
     <use style="fill:#808080;stroke:#808080;stroke-width:0.3;" x="196.785409" xlink:href="#m106a974573" y="503.81045"/>
     <use style="fill:#808080;stroke:#808080;stroke-width:0.3;" x="110.289231" xlink:href="#m106a974573" y="572.836701"/>
     <use style="fill:#808080;stroke:#808080;stroke-width:0.3;" x="284.93438" xlink:href="#m106a974573" y="336.01067"/>
     <use style="fill:#808080;stroke:#808080;stroke-width:0.3;" x="121.307853" xlink:href="#m106a974573" y="510.933037"/>
     <use style="fill:#808080;stroke:#808080;stroke-width:0.3;" x="294.300208" xlink:href="#m106a974573" y="313.490725"/>
     <use style="fill:#808080;stroke:#808080;stroke-width:0.3;" x="119.655059" xlink:href="#m106a974573" y="541.832497"/>
     <use style="fill:#808080;stroke:#808080;stroke-width:0.3;" x="229.841273" xlink:href="#m106a974573" y="486.841933"/>
     <use style="fill:#808080;stroke:#808080;stroke-width:0.3;" x="331.76352" xlink:href="#m106a974573" y="419.491584"/>
     <use style="fill:#808080;stroke:#808080;stroke-width:0.3;" x="174.748166" xlink:href="#m106a974573" y="456.67568"/>
     <use style="fill:#808080;stroke:#808080;stroke-width:0.3;" x="174.748166" xlink:href="#m106a974573" y="374.870669"/>
     <use style="fill:#808080;stroke:#808080;stroke-width:0.3;" x="202.29472" xlink:href="#m106a974573" y="442.744737"/>
     <use style="fill:#808080;stroke:#808080;stroke-width:0.3;" x="64.561953" xlink:href="#m106a974573" y="618.08608"/>
     <use style="fill:#808080;stroke:#808080;stroke-width:0.3;" x="246.369205" xlink:href="#m106a974573" y="507.371744"/>
     <use style="fill:#808080;stroke:#808080;stroke-width:0.3;" x="188.521443" xlink:href="#m106a974573" y="440.021395"/>
     <use style="fill:#808080;stroke:#808080;stroke-width:0.3;" x="270.059241" xlink:href="#m106a974573" y="257.557465"/>
     <use style="fill:#808080;stroke:#808080;stroke-width:0.3;" x="229.841273" xlink:href="#m106a974573" y="392.572394"/>
     <use style="fill:#808080;stroke:#808080;stroke-width:0.3;" x="92.108506" xlink:href="#m106a974573" y="552.306891"/>
     <use style="fill:#808080;stroke:#808080;stroke-width:0.3;" x="174.748166" xlink:href="#m106a974573" y="458.246839"/>
     <use style="fill:#808080;stroke:#808080;stroke-width:0.3;" x="92.108506" xlink:href="#m106a974573" y="547.802902"/>
     <use style="fill:#808080;stroke:#808080;stroke-width:0.3;" x="147.201613" xlink:href="#m106a974573" y="559.429478"/>
     <use style="fill:#808080;stroke:#808080;stroke-width:0.3;" x="174.748166" xlink:href="#m106a974573" y="517.217673"/>
     <use style="fill:#808080;stroke:#808080;stroke-width:0.3;" x="147.201613" xlink:href="#m106a974573" y="214.298221"/>
     <use style="fill:#808080;stroke:#808080;stroke-width:0.3;" x="201.192857" xlink:href="#m106a974573" y="443.477945"/>
     <use style="fill:#808080;stroke:#808080;stroke-width:0.3;" x="234.248721" xlink:href="#m106a974573" y="459.189535"/>
     <use style="fill:#808080;stroke:#808080;stroke-width:0.3;" x="99.821541" xlink:href="#m106a974573" y="517.427161"/>
     <use style="fill:#808080;stroke:#808080;stroke-width:0.3;" x="233.146859" xlink:href="#m106a974573" y="463.693524"/>
     <use style="fill:#808080;stroke:#808080;stroke-width:0.3;" x="245.818274" xlink:href="#m106a974573" y="414.254388"/>
     <use style="fill:#808080;stroke:#808080;stroke-width:0.3;" x="216.618927" xlink:href="#m106a974573" y="487.260909"/>
     <use style="fill:#808080;stroke:#808080;stroke-width:0.3;" x="229.841273" xlink:href="#m106a974573" y="528.425274"/>
     <use style="fill:#808080;stroke:#808080;stroke-width:0.3;" x="174.748166" xlink:href="#m106a974573" y="531.672336"/>
     <use style="fill:#808080;stroke:#808080;stroke-width:0.3;" x="64.561953" xlink:href="#m106a974573" y="602.37449"/>
     <use style="fill:#808080;stroke:#808080;stroke-width:0.3;" x="229.841273" xlink:href="#m106a974573" y="279.553691"/>
     <use style="fill:#808080;stroke:#808080;stroke-width:0.3;" x="149.956268" xlink:href="#m106a974573" y="427.452123"/>
     <use style="fill:#808080;stroke:#808080;stroke-width:0.3;" x="229.841273" xlink:href="#m106a974573" y="409.017191"/>
     <use style="fill:#808080;stroke:#808080;stroke-width:0.3;" x="202.29472" xlink:href="#m106a974573" y="497.002094"/>
     <use style="fill:#808080;stroke:#808080;stroke-width:0.3;" x="288.790897" xlink:href="#m106a974573" y="364.815252"/>
     <use style="fill:#808080;stroke:#808080;stroke-width:0.3;" x="92.108506" xlink:href="#m106a974573" y="566.761553"/>
     <use style="fill:#808080;stroke:#808080;stroke-width:0.3;" x="108.636438" xlink:href="#m106a974573" y="548.117133"/>
     <use style="fill:#808080;stroke:#808080;stroke-width:0.3;" x="170.340718" xlink:href="#m106a974573" y="426.090452"/>
     <use style="fill:#808080;stroke:#808080;stroke-width:0.3;" x="136.733923" xlink:href="#m106a974573" y="555.868184"/>
     <use style="fill:#808080;stroke:#808080;stroke-width:0.3;" x="102.025265" xlink:href="#m106a974573" y="537.747484"/>
     <use style="fill:#808080;stroke:#808080;stroke-width:0.3;" x="147.201613" xlink:href="#m106a974573" y="528.948994"/>
     <use style="fill:#808080;stroke:#808080;stroke-width:0.3;" x="119.655059" xlink:href="#m106a974573" y="511.247269"/>
     <use style="fill:#808080;stroke:#808080;stroke-width:0.3;" x="148.303475" xlink:href="#m106a974573" y="547.593414"/>
     <use style="fill:#808080;stroke:#808080;stroke-width:0.3;" x="240.859894" xlink:href="#m106a974573" y="366.176923"/>
     <use style="fill:#808080;stroke:#808080;stroke-width:0.3;" x="91.006644" xlink:href="#m106a974573" y="589.072011"/>
     <use style="fill:#808080;stroke:#808080;stroke-width:0.3;" x="119.655059" xlink:href="#m106a974573" y="526.225652"/>
     <use style="fill:#808080;stroke:#808080;stroke-width:0.3;" x="119.655059" xlink:href="#m106a974573" y="559.115246"/>
     <use style="fill:#808080;stroke:#808080;stroke-width:0.3;" x="129.571819" xlink:href="#m106a974573" y="439.288188"/>
     <use style="fill:#808080;stroke:#808080;stroke-width:0.3;" x="92.108506" xlink:href="#m106a974573" y="478.462418"/>
     <use style="fill:#808080;stroke:#808080;stroke-width:0.3;" x="165.382338" xlink:href="#m106a974573" y="465.99789"/>
     <use style="fill:#808080;stroke:#808080;stroke-width:0.3;" x="92.108506" xlink:href="#m106a974573" y="561.314869"/>
     <use style="fill:#808080;stroke:#808080;stroke-width:0.3;" x="119.655059" xlink:href="#m106a974573" y="549.89778"/>
     <use style="fill:#808080;stroke:#808080;stroke-width:0.3;" x="188.521443" xlink:href="#m106a974573" y="487.051421"/>
     <use style="fill:#808080;stroke:#808080;stroke-width:0.3;" x="78.335229" xlink:href="#m106a974573" y="589.176755"/>
     <use style="fill:#808080;stroke:#808080;stroke-width:0.3;" x="119.655059" xlink:href="#m106a974573" y="570.113359"/>
     <use style="fill:#808080;stroke:#808080;stroke-width:0.3;" x="119.655059" xlink:href="#m106a974573" y="530.101177"/>
     <use style="fill:#808080;stroke:#808080;stroke-width:0.3;" x="119.655059" xlink:href="#m106a974573" y="510.72355"/>
     <use style="fill:#808080;stroke:#808080;stroke-width:0.3;" x="160.974889" xlink:href="#m106a974573" y="540.470826"/>
     <use style="fill:#808080;stroke:#808080;stroke-width:0.3;" x="202.29472" xlink:href="#m106a974573" y="495.326191"/>
     <use style="fill:#808080;stroke:#808080;stroke-width:0.3;" x="378.592661" xlink:href="#m106a974573" y="319.042153"/>
     <use style="fill:#808080;stroke:#808080;stroke-width:0.3;" x="284.93438" xlink:href="#m106a974573" y="246.873584"/>
     <use style="fill:#808080;stroke:#808080;stroke-width:0.3;" x="284.93438" xlink:href="#m106a974573" y="394.981504"/>
     <use style="fill:#808080;stroke:#808080;stroke-width:0.3;" x="136.182991" xlink:href="#m106a974573" y="506.21956"/>
     <use style="fill:#808080;stroke:#808080;stroke-width:0.3;" x="92.108506" xlink:href="#m106a974573" y="590.852658"/>
     <use style="fill:#808080;stroke:#808080;stroke-width:0.3;" x="84.395471" xlink:href="#m106a974573" y="483.071151"/>
     <use style="fill:#808080;stroke:#808080;stroke-width:0.3;" x="99.27061" xlink:href="#m106a974573" y="553.982794"/>
     <use style="fill:#808080;stroke:#808080;stroke-width:0.3;" x="104.779921" xlink:href="#m106a974573" y="575.874275"/>
     <use style="fill:#808080;stroke:#808080;stroke-width:0.3;" x="119.655059" xlink:href="#m106a974573" y="599.651148"/>
     <use style="fill:#808080;stroke:#808080;stroke-width:0.3;" x="147.201613" xlink:href="#m106a974573" y="530.939128"/>
     <use style="fill:#808080;stroke:#808080;stroke-width:0.3;" x="119.655059" xlink:href="#m106a974573" y="540.785058"/>
     <use style="fill:#808080;stroke:#808080;stroke-width:0.3;" x="160.423958" xlink:href="#m106a974573" y="497.525814"/>
     <use style="fill:#808080;stroke:#808080;stroke-width:0.3;" x="119.655059" xlink:href="#m106a974573" y="421.167487"/>
     <use style="fill:#808080;stroke:#808080;stroke-width:0.3;" x="119.655059" xlink:href="#m106a974573" y="471.235087"/>
     <use style="fill:#808080;stroke:#808080;stroke-width:0.3;" x="292.647415" xlink:href="#m106a974573" y="365.653203"/>
     <use style="fill:#808080;stroke:#808080;stroke-width:0.3;" x="284.93438" xlink:href="#m106a974573" y="173.762319"/>
     <use style="fill:#808080;stroke:#808080;stroke-width:0.3;" x="216.067996" xlink:href="#m106a974573" y="416.45401"/>
     <use style="fill:#808080;stroke:#808080;stroke-width:0.3;" x="153.261855" xlink:href="#m106a974573" y="538.061716"/>
     <use style="fill:#808080;stroke:#808080;stroke-width:0.3;" x="119.655059" xlink:href="#m106a974573" y="505.591097"/>
     <use style="fill:#808080;stroke:#808080;stroke-width:0.3;" x="202.29472" xlink:href="#m106a974573" y="453.114387"/>
     <use style="fill:#808080;stroke:#808080;stroke-width:0.3;" x="147.201613" xlink:href="#m106a974573" y="545.708023"/>
     <use style="fill:#808080;stroke:#808080;stroke-width:0.3;" x="119.655059" xlink:href="#m106a974573" y="508.523927"/>
     <use style="fill:#808080;stroke:#808080;stroke-width:0.3;" x="119.655059" xlink:href="#m106a974573" y="533.662471"/>
     <use style="fill:#808080;stroke:#808080;stroke-width:0.3;" x="174.748166" xlink:href="#m106a974573" y="494.907216"/>
     <use style="fill:#808080;stroke:#808080;stroke-width:0.3;" x="201.192857" xlink:href="#m106a974573" y="421.481719"/>
     <use style="fill:#808080;stroke:#808080;stroke-width:0.3;" x="132.877405" xlink:href="#m106a974573" y="460.865438"/>
     <use style="fill:#808080;stroke:#808080;stroke-width:0.3;" x="257.387826" xlink:href="#m106a974573" y="346.170832"/>
     <use style="fill:#808080;stroke:#808080;stroke-width:0.3;" x="98.168748" xlink:href="#m106a974573" y="567.390017"/>
     <use style="fill:#808080;stroke:#808080;stroke-width:0.3;" x="119.655059" xlink:href="#m106a974573" y="566.971041"/>
     <use style="fill:#808080;stroke:#808080;stroke-width:0.3;" x="560.399913" xlink:href="#m106a974573" y="146.109921"/>
     <use style="fill:#808080;stroke:#808080;stroke-width:0.3;" x="183.563063" xlink:href="#m106a974573" y="512.713684"/>
     <use style="fill:#808080;stroke:#808080;stroke-width:0.3;" x="293.198346" xlink:href="#m106a974573" y="602.37449"/>
     <use style="fill:#808080;stroke:#808080;stroke-width:0.3;" x="184.664925" xlink:href="#m106a974573" y="344.704417"/>
     <use style="fill:#808080;stroke:#808080;stroke-width:0.3;" x="229.841273" xlink:href="#m106a974573" y="502.134547"/>
     <use style="fill:#808080;stroke:#808080;stroke-width:0.3;" x="180.808408" xlink:href="#m106a974573" y="333.706304"/>
     <use style="fill:#808080;stroke:#808080;stroke-width:0.3;" x="119.655059" xlink:href="#m106a974573" y="490.926946"/>
     <use style="fill:#808080;stroke:#808080;stroke-width:0.3;" x="119.655059" xlink:href="#m106a974573" y="526.644627"/>
     <use style="fill:#808080;stroke:#808080;stroke-width:0.3;" x="229.841273" xlink:href="#m106a974573" y="577.759666"/>
     <use style="fill:#808080;stroke:#808080;stroke-width:0.3;" x="205.049375" xlink:href="#m106a974573" y="315.585603"/>
     <use style="fill:#808080;stroke:#808080;stroke-width:0.3;" x="212.211479" xlink:href="#m106a974573" y="315.376116"/>
     <use style="fill:#808080;stroke:#808080;stroke-width:0.3;" x="320.744899" xlink:href="#m106a974573" y="433.946247"/>
     <use style="fill:#808080;stroke:#808080;stroke-width:0.3;" x="202.29472" xlink:href="#m106a974573" y="203.300108"/>
     <use style="fill:#808080;stroke:#808080;stroke-width:0.3;" x="367.57404" xlink:href="#m106a974573" y="435.62215"/>
     <use style="fill:#808080;stroke:#808080;stroke-width:0.3;" x="174.748166" xlink:href="#m106a974573" y="253.577196"/>
     <use style="fill:#808080;stroke:#808080;stroke-width:0.3;" x="284.93438" xlink:href="#m106a974573" y="461.598645"/>
     <use style="fill:#808080;stroke:#808080;stroke-width:0.3;" x="202.29472" xlink:href="#m106a974573" y="459.399023"/>
     <use style="fill:#808080;stroke:#808080;stroke-width:0.3;" x="119.655059" xlink:href="#m106a974573" y="359.263823"/>
     <use style="fill:#808080;stroke:#808080;stroke-width:0.3;" x="202.29472" xlink:href="#m106a974573" y="488.203604"/>
     <use style="fill:#808080;stroke:#808080;stroke-width:0.3;" x="229.841273" xlink:href="#m106a974573" y="436.355358"/>
     <use style="fill:#808080;stroke:#808080;stroke-width:0.3;" x="92.108506" xlink:href="#m106a974573" y="513.970611"/>
     <use style="fill:#808080;stroke:#808080;stroke-width:0.3;" x="240.308963" xlink:href="#m106a974573" y="470.816111"/>
     <use style="fill:#808080;stroke:#808080;stroke-width:0.3;" x="150.507199" xlink:href="#m106a974573" y="380.422098"/>
     <use style="fill:#808080;stroke:#808080;stroke-width:0.3;" x="120.756922" xlink:href="#m106a974573" y="516.170234"/>
     <use style="fill:#808080;stroke:#808080;stroke-width:0.3;" x="229.841273" xlink:href="#m106a974573" y="504.648401"/>
     <use style="fill:#808080;stroke:#808080;stroke-width:0.3;" x="88.80292" xlink:href="#m106a974573" y="599.127428"/>
     <use style="fill:#808080;stroke:#808080;stroke-width:0.3;" x="119.655059" xlink:href="#m106a974573" y="570.008615"/>
     <use style="fill:#808080;stroke:#808080;stroke-width:0.3;" x="284.93438" xlink:href="#m106a974573" y="226.762749"/>
     <use style="fill:#808080;stroke:#808080;stroke-width:0.3;" x="119.655059" xlink:href="#m106a974573" y="542.146729"/>
     <use style="fill:#808080;stroke:#808080;stroke-width:0.3;" x="119.655059" xlink:href="#m106a974573" y="536.804789"/>
     <use style="fill:#808080;stroke:#808080;stroke-width:0.3;" x="229.841273" xlink:href="#m106a974573" y="482.337944"/>
     <use style="fill:#808080;stroke:#808080;stroke-width:0.3;" x="120.205991" xlink:href="#m106a974573" y="544.870071"/>
     <use style="fill:#808080;stroke:#808080;stroke-width:0.3;" x="119.655059" xlink:href="#m106a974573" y="542.146729"/>
     <use style="fill:#808080;stroke:#808080;stroke-width:0.3;" x="147.201613" xlink:href="#m106a974573" y="506.533792"/>
     <use style="fill:#808080;stroke:#808080;stroke-width:0.3;" x="229.841273" xlink:href="#m106a974573" y="463.274548"/>
     <use style="fill:#808080;stroke:#808080;stroke-width:0.3;" x="187.419581" xlink:href="#m106a974573" y="505.800585"/>
     <use style="fill:#808080;stroke:#808080;stroke-width:0.3;" x="197.33634" xlink:href="#m106a974573" y="399.799725"/>
     <use style="fill:#808080;stroke:#808080;stroke-width:0.3;" x="174.748166" xlink:href="#m106a974573" y="272.640591"/>
     <use style="fill:#808080;stroke:#808080;stroke-width:0.3;" x="121.307853" xlink:href="#m106a974573" y="424.100317"/>
     <use style="fill:#808080;stroke:#808080;stroke-width:0.3;" x="132.326474" xlink:href="#m106a974573" y="544.660584"/>
     <use style="fill:#808080;stroke:#808080;stroke-width:0.3;" x="119.655059" xlink:href="#m106a974573" y="363.453581"/>
     <use style="fill:#808080;stroke:#808080;stroke-width:0.3;" x="293.749277" xlink:href="#m106a974573" y="407.1318"/>
     <use style="fill:#808080;stroke:#808080;stroke-width:0.3;" x="505.306807" xlink:href="#m106a974573" y="172.086416"/>
     <use style="fill:#808080;stroke:#808080;stroke-width:0.3;" x="147.201613" xlink:href="#m106a974573" y="539.318643"/>
     <use style="fill:#808080;stroke:#808080;stroke-width:0.3;" x="367.57404" xlink:href="#m106a974573" y="383.250184"/>
     <use style="fill:#808080;stroke:#808080;stroke-width:0.3;" x="70.071263" xlink:href="#m106a974573" y="543.194169"/>
     <use style="fill:#808080;stroke:#808080;stroke-width:0.3;" x="174.748166" xlink:href="#m106a974573" y="383.459672"/>
     <use style="fill:#808080;stroke:#808080;stroke-width:0.3;" x="92.108506" xlink:href="#m106a974573" y="556.915624"/>
     <use style="fill:#808080;stroke:#808080;stroke-width:0.3;" x="88.80292" xlink:href="#m106a974573" y="597.242038"/>
     <use style="fill:#808080;stroke:#808080;stroke-width:0.3;" x="179.706546" xlink:href="#m106a974573" y="362.615629"/>
     <use style="fill:#808080;stroke:#808080;stroke-width:0.3;" x="130.673681" xlink:href="#m106a974573" y="550.94522"/>
     <use style="fill:#808080;stroke:#808080;stroke-width:0.3;" x="201.192857" xlink:href="#m106a974573" y="537.747484"/>
     <use style="fill:#808080;stroke:#808080;stroke-width:0.3;" x="115.247611" xlink:href="#m106a974573" y="588.443547"/>
     <use style="fill:#808080;stroke:#808080;stroke-width:0.3;" x="174.748166" xlink:href="#m106a974573" y="510.933037"/>
     <use style="fill:#808080;stroke:#808080;stroke-width:0.3;" x="96.515955" xlink:href="#m106a974573" y="537.747484"/>
     <use style="fill:#808080;stroke:#808080;stroke-width:0.3;" x="147.201613" xlink:href="#m106a974573" y="507.895463"/>
     <use style="fill:#808080;stroke:#808080;stroke-width:0.3;" x="119.655059" xlink:href="#m106a974573" y="572.627214"/>
     <use style="fill:#808080;stroke:#808080;stroke-width:0.3;" x="174.748166" xlink:href="#m106a974573" y="464.1125"/>
     <use style="fill:#808080;stroke:#808080;stroke-width:0.3;" x="159.322096" xlink:href="#m106a974573" y="539.213899"/>
     <use style="fill:#808080;stroke:#808080;stroke-width:0.3;" x="168.136993" xlink:href="#m106a974573" y="446.620263"/>
     <use style="fill:#808080;stroke:#808080;stroke-width:0.3;" x="119.655059" xlink:href="#m106a974573" y="426.82366"/>
     <use style="fill:#808080;stroke:#808080;stroke-width:0.3;" x="174.748166" xlink:href="#m106a974573" y="513.970611"/>
     <use style="fill:#808080;stroke:#808080;stroke-width:0.3;" x="196.234478" xlink:href="#m106a974573" y="556.706136"/>
     <use style="fill:#808080;stroke:#808080;stroke-width:0.3;" x="90.455713" xlink:href="#m106a974573" y="565.504626"/>
     <use style="fill:#808080;stroke:#808080;stroke-width:0.3;" x="174.748166" xlink:href="#m106a974573" y="515.646514"/>
     <use style="fill:#808080;stroke:#808080;stroke-width:0.3;" x="78.335229" xlink:href="#m106a974573" y="572.836701"/>
     <use style="fill:#808080;stroke:#808080;stroke-width:0.3;" x="64.561953" xlink:href="#m106a974573" y="546.336487"/>
     <use style="fill:#808080;stroke:#808080;stroke-width:0.3;" x="73.927781" xlink:href="#m106a974573" y="334.439511"/>
     <use style="fill:#808080;stroke:#808080;stroke-width:0.3;" x="266.753654" xlink:href="#m106a974573" y="303.016332"/>
     <use style="fill:#808080;stroke:#808080;stroke-width:0.3;" x="335.620038" xlink:href="#m106a974573" y="374.242206"/>
     <use style="fill:#808080;stroke:#808080;stroke-width:0.3;" x="119.655059" xlink:href="#m106a974573" y="393.619833"/>
     <use style="fill:#808080;stroke:#808080;stroke-width:0.3;" x="119.655059" xlink:href="#m106a974573" y="440.859347"/>
     <use style="fill:#808080;stroke:#808080;stroke-width:0.3;" x="105.881783" xlink:href="#m106a974573" y="491.660154"/>
     <use style="fill:#808080;stroke:#808080;stroke-width:0.3;" x="174.748166" xlink:href="#m106a974573" y="481.604736"/>
    </g>
   </g>
   <g id="patch_3">
    <path d="M 39.381719 671.233125 
L 39.381719 121.03425 
" style="fill:none;stroke:#cccccc;stroke-linecap:square;stroke-linejoin:miter;"/>
   </g>
   <g id="patch_4">
    <path d="M 39.381719 671.233125 
L 585.580147 671.233125 
" style="fill:none;stroke:#cccccc;stroke-linecap:square;stroke-linejoin:miter;"/>
   </g>
   <g id="legend_1">
    <g id="line2d_21"/>
    <g id="line2d_22"/>
    <g id="text_13">
     <!-- pearsonr = 0.68; p = 6.7e-34 -->
     <defs>
      <path d="M 42.09375 16.703125 
L 51.171875 15.578125 
Q 49.03125 7.625 43.21875 3.21875 
Q 37.40625 -1.171875 28.375 -1.171875 
Q 17 -1.171875 10.328125 5.828125 
Q 3.65625 12.84375 3.65625 25.484375 
Q 3.65625 38.578125 10.390625 45.796875 
Q 17.140625 53.03125 27.875 53.03125 
Q 38.28125 53.03125 44.875 45.953125 
Q 51.46875 38.875 51.46875 26.03125 
Q 51.46875 25.25 51.421875 23.6875 
L 12.75 23.6875 
Q 13.234375 15.140625 17.578125 10.59375 
Q 21.921875 6.0625 28.421875 6.0625 
Q 33.25 6.0625 36.671875 8.59375 
Q 40.09375 11.140625 42.09375 16.703125 
z
M 13.234375 30.90625 
L 42.1875 30.90625 
Q 41.609375 37.453125 38.875 40.71875 
Q 34.671875 45.796875 27.984375 45.796875 
Q 21.921875 45.796875 17.796875 41.75 
Q 13.671875 37.703125 13.234375 30.90625 
z
" id="ArialMT-65"/>
      <path d="M 6.5 0 
L 6.5 51.859375 
L 14.40625 51.859375 
L 14.40625 44 
Q 17.4375 49.515625 20 51.265625 
Q 22.5625 53.03125 25.640625 53.03125 
Q 30.078125 53.03125 34.671875 50.203125 
L 31.640625 42.046875 
Q 28.421875 43.953125 25.203125 43.953125 
Q 22.3125 43.953125 20.015625 42.21875 
Q 17.71875 40.484375 16.75 37.40625 
Q 15.28125 32.71875 15.28125 27.15625 
L 15.28125 0 
z
" id="ArialMT-72"/>
      <path d="M 3.078125 15.484375 
L 11.765625 16.84375 
Q 12.5 11.625 15.84375 8.84375 
Q 19.1875 6.0625 25.203125 6.0625 
Q 31.25 6.0625 34.171875 8.515625 
Q 37.109375 10.984375 37.109375 14.3125 
Q 37.109375 17.28125 34.515625 19 
Q 32.71875 20.171875 25.53125 21.96875 
Q 15.875 24.421875 12.140625 26.203125 
Q 8.40625 27.984375 6.46875 31.125 
Q 4.546875 34.28125 4.546875 38.09375 
Q 4.546875 41.546875 6.125 44.5 
Q 7.71875 47.46875 10.453125 49.421875 
Q 12.5 50.921875 16.03125 51.96875 
Q 19.578125 53.03125 23.640625 53.03125 
Q 29.734375 53.03125 34.34375 51.265625 
Q 38.96875 49.515625 41.15625 46.5 
Q 43.359375 43.5 44.1875 38.484375 
L 35.59375 37.3125 
Q 35.015625 41.3125 32.203125 43.546875 
Q 29.390625 45.796875 24.265625 45.796875 
Q 18.21875 45.796875 15.625 43.796875 
Q 13.03125 41.796875 13.03125 39.109375 
Q 13.03125 37.40625 14.109375 36.03125 
Q 15.1875 34.625 17.484375 33.6875 
Q 18.796875 33.203125 25.25 31.453125 
Q 34.578125 28.953125 38.25 27.359375 
Q 41.9375 25.78125 44.03125 22.75 
Q 46.140625 19.734375 46.140625 15.234375 
Q 46.140625 10.84375 43.578125 6.953125 
Q 41.015625 3.078125 36.171875 0.953125 
Q 31.34375 -1.171875 25.25 -1.171875 
Q 15.140625 -1.171875 9.84375 3.03125 
Q 4.546875 7.234375 3.078125 15.484375 
z
" id="ArialMT-73"/>
      <path d="M 6.59375 0 
L 6.59375 51.859375 
L 14.5 51.859375 
L 14.5 44.484375 
Q 20.21875 53.03125 31 53.03125 
Q 35.6875 53.03125 39.625 51.34375 
Q 43.5625 49.65625 45.515625 46.921875 
Q 47.46875 44.1875 48.25 40.4375 
Q 48.734375 37.984375 48.734375 31.890625 
L 48.734375 0 
L 39.9375 0 
L 39.9375 31.546875 
Q 39.9375 36.921875 38.90625 39.578125 
Q 37.890625 42.234375 35.28125 43.8125 
Q 32.671875 45.40625 29.15625 45.40625 
Q 23.53125 45.40625 19.453125 41.84375 
Q 15.375 38.28125 15.375 28.328125 
L 15.375 0 
z
" id="ArialMT-6e"/>
      <path id="ArialMT-20"/>
      <path d="M 52.828125 42.09375 
L 5.5625 42.09375 
L 5.5625 50.296875 
L 52.828125 50.296875 
z
M 52.828125 20.359375 
L 5.5625 20.359375 
L 5.5625 28.5625 
L 52.828125 28.5625 
z
" id="ArialMT-3d"/>
      <path d="M 9.078125 0 
L 9.078125 10.015625 
L 19.09375 10.015625 
L 19.09375 0 
z
" id="ArialMT-2e"/>
      <path d="M 8.890625 41.84375 
L 8.890625 51.859375 
L 18.890625 51.859375 
L 18.890625 41.84375 
z
M 8.890625 0 
L 8.890625 10.015625 
L 18.890625 10.015625 
L 18.890625 0 
Q 18.890625 -5.515625 16.9375 -8.90625 
Q 14.984375 -12.3125 10.75 -14.15625 
L 8.296875 -10.40625 
Q 11.078125 -9.1875 12.390625 -6.8125 
Q 13.71875 -4.4375 13.875 0 
z
" id="ArialMT-3b"/>
      <path d="M 4.734375 62.203125 
L 4.734375 70.65625 
L 51.078125 70.65625 
L 51.078125 63.8125 
Q 44.234375 56.546875 37.515625 44.484375 
Q 30.8125 32.421875 27.15625 19.671875 
Q 24.515625 10.6875 23.78125 0 
L 14.75 0 
Q 14.890625 8.453125 18.0625 20.40625 
Q 21.234375 32.375 27.171875 43.484375 
Q 33.109375 54.59375 39.796875 62.203125 
z
" id="ArialMT-37"/>
      <path d="M 3.171875 21.484375 
L 3.171875 30.328125 
L 30.171875 30.328125 
L 30.171875 21.484375 
z
" id="ArialMT-2d"/>
     </defs>
     <g style="fill:#262626;" transform="translate(449.83171 137.22175)scale(0.1 -0.1)">
      <use xlink:href="#ArialMT-70"/>
      <use x="55.615234" xlink:href="#ArialMT-65"/>
      <use x="111.230469" xlink:href="#ArialMT-61"/>
      <use x="166.845703" xlink:href="#ArialMT-72"/>
      <use x="200.146484" xlink:href="#ArialMT-73"/>
      <use x="250.146484" xlink:href="#ArialMT-6f"/>
      <use x="305.761719" xlink:href="#ArialMT-6e"/>
      <use x="361.376953" xlink:href="#ArialMT-72"/>
      <use x="394.677734" xlink:href="#ArialMT-20"/>
      <use x="422.460938" xlink:href="#ArialMT-3d"/>
      <use x="480.859375" xlink:href="#ArialMT-20"/>
      <use x="508.642578" xlink:href="#ArialMT-30"/>
      <use x="564.257812" xlink:href="#ArialMT-2e"/>
      <use x="592.041016" xlink:href="#ArialMT-36"/>
      <use x="647.65625" xlink:href="#ArialMT-38"/>
      <use x="703.271484" xlink:href="#ArialMT-3b"/>
      <use x="731.054688" xlink:href="#ArialMT-20"/>
      <use x="758.837891" xlink:href="#ArialMT-70"/>
      <use x="814.453125" xlink:href="#ArialMT-20"/>
      <use x="842.236328" xlink:href="#ArialMT-3d"/>
      <use x="900.634766" xlink:href="#ArialMT-20"/>
      <use x="928.417969" xlink:href="#ArialMT-36"/>
      <use x="984.033203" xlink:href="#ArialMT-2e"/>
      <use x="1011.816406" xlink:href="#ArialMT-37"/>
      <use x="1067.431641" xlink:href="#ArialMT-65"/>
      <use x="1123.046875" xlink:href="#ArialMT-2d"/>
      <use x="1156.347656" xlink:href="#ArialMT-33"/>
      <use x="1211.962891" xlink:href="#ArialMT-34"/>
     </g>
    </g>
   </g>
  </g>
  <g id="axes_2">
   <g id="patch_5">
    <path d="M 39.381719 102.061875 
L 585.580147 102.061875 
L 585.580147 7.2 
L 39.381719 7.2 
z
" style="fill:#ffffff;"/>
   </g>
   <g id="matplotlib.axis_3">
    <g id="xtick_6">
     <g id="line2d_23">
      <path clip-path="url(#p31e201f3bb)" d="M 119.655059 102.061875 
L 119.655059 7.2 
" style="fill:none;stroke:#cccccc;stroke-linecap:round;"/>
     </g>
     <g id="line2d_24"/>
    </g>
    <g id="xtick_7">
     <g id="line2d_25">
      <path clip-path="url(#p31e201f3bb)" d="M 229.841273 102.061875 
L 229.841273 7.2 
" style="fill:none;stroke:#cccccc;stroke-linecap:round;"/>
     </g>
     <g id="line2d_26"/>
    </g>
    <g id="xtick_8">
     <g id="line2d_27">
      <path clip-path="url(#p31e201f3bb)" d="M 340.027486 102.061875 
L 340.027486 7.2 
" style="fill:none;stroke:#cccccc;stroke-linecap:round;"/>
     </g>
     <g id="line2d_28"/>
    </g>
    <g id="xtick_9">
     <g id="line2d_29">
      <path clip-path="url(#p31e201f3bb)" d="M 450.2137 102.061875 
L 450.2137 7.2 
" style="fill:none;stroke:#cccccc;stroke-linecap:round;"/>
     </g>
     <g id="line2d_30"/>
    </g>
    <g id="xtick_10">
     <g id="line2d_31">
      <path clip-path="url(#p31e201f3bb)" d="M 560.399913 102.061875 
L 560.399913 7.2 
" style="fill:none;stroke:#cccccc;stroke-linecap:round;"/>
     </g>
     <g id="line2d_32"/>
    </g>
   </g>
   <g id="matplotlib.axis_4">
    <g id="ytick_6"/>
    <g id="ytick_7"/>
    <g id="ytick_8"/>
   </g>
   <g id="patch_6">
    <path clip-path="url(#p31e201f3bb)" d="M 64.561953 102.061875 
L 92.108506 102.061875 
L 92.108506 73.083405 
L 64.561953 73.083405 
z
" style="fill:#808080;opacity:0.4;"/>
   </g>
   <g id="patch_7">
    <path clip-path="url(#p31e201f3bb)" d="M 92.108506 102.061875 
L 119.655059 102.061875 
L 119.655059 54.33263 
L 92.108506 54.33263 
z
" style="fill:#808080;opacity:0.4;"/>
   </g>
   <g id="patch_8">
    <path clip-path="url(#p31e201f3bb)" d="M 119.655059 102.061875 
L 147.201613 102.061875 
L 147.201613 11.717232 
L 119.655059 11.717232 
z
" style="fill:#808080;opacity:0.4;"/>
   </g>
   <g id="patch_9">
    <path clip-path="url(#p31e201f3bb)" d="M 147.201613 102.061875 
L 174.748166 102.061875 
L 174.748166 59.446477 
L 147.201613 59.446477 
z
" style="fill:#808080;opacity:0.4;"/>
   </g>
   <g id="patch_10">
    <path clip-path="url(#p31e201f3bb)" d="M 174.748166 102.061875 
L 202.29472 102.061875 
L 202.29472 18.535696 
L 174.748166 18.535696 
z
" style="fill:#808080;opacity:0.4;"/>
   </g>
   <g id="patch_11">
    <path clip-path="url(#p31e201f3bb)" d="M 202.29472 102.061875 
L 229.841273 102.061875 
L 229.841273 69.674173 
L 202.29472 69.674173 
z
" style="fill:#808080;opacity:0.4;"/>
   </g>
   <g id="patch_12">
    <path clip-path="url(#p31e201f3bb)" d="M 229.841273 102.061875 
L 257.387826 102.061875 
L 257.387826 66.264941 
L 229.841273 66.264941 
z
" style="fill:#808080;opacity:0.4;"/>
   </g>
   <g id="patch_13">
    <path clip-path="url(#p31e201f3bb)" d="M 257.387826 102.061875 
L 284.93438 102.061875 
L 284.93438 95.243411 
L 257.387826 95.243411 
z
" style="fill:#808080;opacity:0.4;"/>
   </g>
   <g id="patch_14">
    <path clip-path="url(#p31e201f3bb)" d="M 284.93438 102.061875 
L 312.480933 102.061875 
L 312.480933 74.788021 
L 284.93438 74.788021 
z
" style="fill:#808080;opacity:0.4;"/>
   </g>
   <g id="patch_15">
    <path clip-path="url(#p31e201f3bb)" d="M 312.480933 102.061875 
L 340.027486 102.061875 
L 340.027486 95.243411 
L 312.480933 95.243411 
z
" style="fill:#808080;opacity:0.4;"/>
   </g>
   <g id="patch_16">
    <path clip-path="url(#p31e201f3bb)" d="M 340.027486 102.061875 
L 367.57404 102.061875 
L 367.57404 100.357259 
L 340.027486 100.357259 
z
" style="fill:#808080;opacity:0.4;"/>
   </g>
   <g id="patch_17">
    <path clip-path="url(#p31e201f3bb)" d="M 367.57404 102.061875 
L 395.120593 102.061875 
L 395.120593 95.243411 
L 367.57404 95.243411 
z
" style="fill:#808080;opacity:0.4;"/>
   </g>
   <g id="patch_18">
    <path clip-path="url(#p31e201f3bb)" d="M 395.120593 102.061875 
L 422.667147 102.061875 
L 422.667147 102.061875 
L 395.120593 102.061875 
z
" style="fill:#808080;opacity:0.4;"/>
   </g>
   <g id="patch_19">
    <path clip-path="url(#p31e201f3bb)" d="M 422.667147 102.061875 
L 450.2137 102.061875 
L 450.2137 100.357259 
L 422.667147 100.357259 
z
" style="fill:#808080;opacity:0.4;"/>
   </g>
   <g id="patch_20">
    <path clip-path="url(#p31e201f3bb)" d="M 450.2137 102.061875 
L 477.760253 102.061875 
L 477.760253 102.061875 
L 450.2137 102.061875 
z
" style="fill:#808080;opacity:0.4;"/>
   </g>
   <g id="patch_21">
    <path clip-path="url(#p31e201f3bb)" d="M 477.760253 102.061875 
L 505.306807 102.061875 
L 505.306807 102.061875 
L 477.760253 102.061875 
z
" style="fill:#808080;opacity:0.4;"/>
   </g>
   <g id="patch_22">
    <path clip-path="url(#p31e201f3bb)" d="M 505.306807 102.061875 
L 532.85336 102.061875 
L 532.85336 100.357259 
L 505.306807 100.357259 
z
" style="fill:#808080;opacity:0.4;"/>
   </g>
   <g id="patch_23">
    <path clip-path="url(#p31e201f3bb)" d="M 532.85336 102.061875 
L 560.399913 102.061875 
L 560.399913 100.357259 
L 532.85336 100.357259 
z
" style="fill:#808080;opacity:0.4;"/>
   </g>
   <g id="patch_24">
    <path d="M 39.381719 102.061875 
L 585.580147 102.061875 
" style="fill:none;stroke:#cccccc;stroke-linecap:square;stroke-linejoin:miter;"/>
   </g>
  </g>
  <g id="axes_3">
   <g id="patch_25">
    <path d="M 604.414576 671.233125 
L 698.586719 671.233125 
L 698.586719 121.03425 
L 604.414576 121.03425 
z
" style="fill:#ffffff;"/>
   </g>
   <g id="matplotlib.axis_5">
    <g id="xtick_11"/>
    <g id="xtick_12"/>
    <g id="xtick_13"/>
   </g>
   <g id="matplotlib.axis_6">
    <g id="ytick_9">
     <g id="line2d_33">
      <path clip-path="url(#pb4981a677a)" d="M 604.414576 573.569909 
L 698.586719 573.569909 
" style="fill:none;stroke:#cccccc;stroke-linecap:round;"/>
     </g>
     <g id="line2d_34"/>
    </g>
    <g id="ytick_10">
     <g id="line2d_35">
      <path clip-path="url(#pb4981a677a)" d="M 604.414576 468.825977 
L 698.586719 468.825977 
" style="fill:none;stroke:#cccccc;stroke-linecap:round;"/>
     </g>
     <g id="line2d_36"/>
    </g>
    <g id="ytick_11">
     <g id="line2d_37">
      <path clip-path="url(#pb4981a677a)" d="M 604.414576 364.082044 
L 698.586719 364.082044 
" style="fill:none;stroke:#cccccc;stroke-linecap:round;"/>
     </g>
     <g id="line2d_38"/>
    </g>
    <g id="ytick_12">
     <g id="line2d_39">
      <path clip-path="url(#pb4981a677a)" d="M 604.414576 259.338112 
L 698.586719 259.338112 
" style="fill:none;stroke:#cccccc;stroke-linecap:round;"/>
     </g>
     <g id="line2d_40"/>
    </g>
    <g id="ytick_13">
     <g id="line2d_41">
      <path clip-path="url(#pb4981a677a)" d="M 604.414576 154.594179 
L 698.586719 154.594179 
" style="fill:none;stroke:#cccccc;stroke-linecap:round;"/>
     </g>
     <g id="line2d_42"/>
    </g>
   </g>
   <g id="patch_26">
    <path clip-path="url(#pb4981a677a)" d="M 604.414576 646.157454 
L 608.151566 646.157454 
L 608.151566 610.439773 
L 604.414576 610.439773 
z
" style="fill:#808080;opacity:0.4;"/>
   </g>
   <g id="patch_27">
    <path clip-path="url(#pb4981a677a)" d="M 604.414576 610.439773 
L 630.573504 610.439773 
L 630.573504 574.722092 
L 604.414576 574.722092 
z
" style="fill:#808080;opacity:0.4;"/>
   </g>
   <g id="patch_28">
    <path clip-path="url(#pb4981a677a)" d="M 604.414576 574.722092 
L 688.496846 574.722092 
L 688.496846 539.004411 
L 604.414576 539.004411 
z
" style="fill:#808080;opacity:0.4;"/>
   </g>
   <g id="patch_29">
    <path clip-path="url(#pb4981a677a)" d="M 604.414576 539.004411 
L 694.102331 539.004411 
L 694.102331 503.28673 
L 604.414576 503.28673 
z
" style="fill:#808080;opacity:0.4;"/>
   </g>
   <g id="patch_30">
    <path clip-path="url(#pb4981a677a)" d="M 604.414576 503.28673 
L 677.285877 503.28673 
L 677.285877 467.569049 
L 604.414576 467.569049 
z
" style="fill:#808080;opacity:0.4;"/>
   </g>
   <g id="patch_31">
    <path clip-path="url(#pb4981a677a)" d="M 604.414576 467.569049 
L 660.469423 467.569049 
L 660.469423 431.851368 
L 604.414576 431.851368 
z
" style="fill:#808080;opacity:0.4;"/>
   </g>
   <g id="patch_32">
    <path clip-path="url(#pb4981a677a)" d="M 604.414576 431.851368 
L 643.652969 431.851368 
L 643.652969 396.133688 
L 604.414576 396.133688 
z
" style="fill:#808080;opacity:0.4;"/>
   </g>
   <g id="patch_33">
    <path clip-path="url(#pb4981a677a)" d="M 604.414576 396.133687 
L 632.441999 396.133687 
L 632.441999 360.416007 
L 604.414576 360.416007 
z
" style="fill:#808080;opacity:0.4;"/>
   </g>
   <g id="patch_34">
    <path clip-path="url(#pb4981a677a)" d="M 604.414576 360.416007 
L 621.23103 360.416007 
L 621.23103 324.698326 
L 604.414576 324.698326 
z
" style="fill:#808080;opacity:0.4;"/>
   </g>
   <g id="patch_35">
    <path clip-path="url(#pb4981a677a)" d="M 604.414576 324.698326 
L 617.49404 324.698326 
L 617.49404 288.980645 
L 604.414576 288.980645 
z
" style="fill:#808080;opacity:0.4;"/>
   </g>
   <g id="patch_36">
    <path clip-path="url(#pb4981a677a)" d="M 604.414576 288.980645 
L 615.625545 288.980645 
L 615.625545 253.262964 
L 604.414576 253.262964 
z
" style="fill:#808080;opacity:0.4;"/>
   </g>
   <g id="patch_37">
    <path clip-path="url(#pb4981a677a)" d="M 604.414576 253.262964 
L 608.151566 253.262964 
L 608.151566 217.545283 
L 604.414576 217.545283 
z
" style="fill:#808080;opacity:0.4;"/>
   </g>
   <g id="patch_38">
    <path clip-path="url(#pb4981a677a)" d="M 604.414576 217.545283 
L 608.151566 217.545283 
L 608.151566 181.827602 
L 604.414576 181.827602 
z
" style="fill:#808080;opacity:0.4;"/>
   </g>
   <g id="patch_39">
    <path clip-path="url(#pb4981a677a)" d="M 604.414576 181.827602 
L 611.888555 181.827602 
L 611.888555 146.109921 
L 604.414576 146.109921 
z
" style="fill:#808080;opacity:0.4;"/>
   </g>
   <g id="patch_40">
    <path d="M 604.414576 671.233125 
L 604.414576 121.03425 
" style="fill:none;stroke:#cccccc;stroke-linecap:square;stroke-linejoin:miter;"/>
   </g>
  </g>
 </g>
 <defs>
  <clipPath id="p78d745a346">
   <rect height="550.198875" width="546.198429" x="39.381719" y="121.03425"/>
  </clipPath>
  <clipPath id="p31e201f3bb">
   <rect height="94.861875" width="546.198429" x="39.381719" y="7.2"/>
  </clipPath>
  <clipPath id="pb4981a677a">
   <rect height="550.198875" width="94.172143" x="604.414576" y="121.03425"/>
  </clipPath>
 </defs>
</svg>
